<?xml version="1.0" encoding="UTF-8"?>
<svg width="349pt" height="115pt" version="1.1" viewBox="0 0 349 115" xmlns="http://www.w3.org/2000/svg" xmlns:xlink="http://www.w3.org/1999/xlink">
<defs>
<symbol id="g" overflow="visible">
<path d="m5.5781-9.75 3.0156 8.75c0.09375 0.27344 0.24219 0.4375 0.45312 0.5 0.1875 0.042969 0.42969 0.0625 0.73438 0.0625h0.25v0.4375c-0.58594-0.03125-1.1953-0.046875-1.8281-0.046875-1.0117 0-1.6836 0.015625-2.0156 0.046875v-0.4375c0.76953 0 1.1562-0.14062 1.1562-0.42188 0-0.007813-0.011719-0.070313-0.03125-0.1875l-0.75-2.1406h-3.4531l-0.64062 1.8281c-0.023438 0.042969-0.03125 0.11719-0.03125 0.21875 0 0.30469 0.17969 0.51562 0.54688 0.64062h0.015625c0.13281 0.042969 0.29688 0.0625 0.48438 0.0625v0.4375c-0.89844-0.03125-1.4336-0.046875-1.6094-0.046875-0.3125 0-0.78906 0.015625-1.4219 0.046875v-0.4375c0.78906-0.019531 1.2969-0.30078 1.5156-0.84375 0.019531-0.03125 0.035156-0.0625 0.046875-0.09375l2.8906-8.375c0.0625-0.15625 0.14062-0.24219 0.23438-0.26562 0.03125-0.007813 0.066406-0.015625 0.10938-0.015625 0.13281 0 0.23438 0.070312 0.29688 0.20312v0.03125zm-0.75 1.5781-1.5625 4.5469h3.1406z"/>
</symbol>
<symbol id="j" overflow="visible">
<path d="m2.4844-5.5938v4.5c0 0.29297 0.054687 0.46875 0.17188 0.53125l0.015625 0.015625c0.13281 0.074219 0.42969 0.10938 0.89062 0.10938h0.28125v0.4375c-0.36719-0.03125-0.95312-0.046875-1.7656-0.046875 0.019531 0-0.51562 0.015625-1.6094 0.046875v-0.4375c0.55078 0 0.875-0.039062 0.96875-0.125l0.03125-0.03125c0.0625-0.070312 0.09375-0.22656 0.09375-0.46875v-4.5312h-1.0938v-0.4375h1.0938v-1.6094c0-0.86328 0.35156-1.5 1.0625-1.9062 0.35156-0.21875 0.72266-0.32812 1.1094-0.32812 0.51953 0 0.89844 0.18359 1.1406 0.54688 0.082031 0.13672 0.125 0.28125 0.125 0.4375 0 0.32422-0.14844 0.52734-0.4375 0.60938h-0.1875c-0.30469 0-0.49219-0.14062-0.5625-0.42188l-0.015625-0.015625v-0.015625c-0.011719-0.050781-0.015625-0.097656-0.015625-0.14062 0-0.28125 0.14062-0.47656 0.42188-0.59375-0.14844-0.0625-0.30469-0.09375-0.46875-0.09375-0.40625 0-0.74219 0.23047-1 0.6875-0.1875 0.33594-0.28125 0.74219-0.28125 1.2188v1.625h1.6406v0.4375z"/>
</symbol>
<symbol id="i" overflow="visible">
<path d="m2.4062-1.0938c0 0.29297 0.054688 0.46875 0.17188 0.53125l0.015625 0.015625c0.125 0.074219 0.41406 0.10938 0.875 0.10938h0.29688v0.4375c-0.375-0.03125-0.96875-0.046875-1.7812-0.046875 0.03125 0-0.5 0.015625-1.5938 0.046875v-0.4375c0.55078 0 0.875-0.039062 0.96875-0.125l0.03125-0.03125c0.0625-0.070312 0.09375-0.22656 0.09375-0.46875v-3.75c0-0.36328-0.070313-0.58594-0.20312-0.67188-0.11719-0.070313-0.32031-0.10938-0.60938-0.10938h-0.28125v-0.4375l1.9531-0.15625v1.5469c0.25-0.78906 0.66016-1.2852 1.2344-1.4844 0.15625-0.039062 0.31641-0.0625 0.48438-0.0625 0.4375 0 0.75 0.16406 0.9375 0.48438 0.0625 0.11719 0.09375 0.24219 0.09375 0.375 0 0.32422-0.15234 0.52344-0.45312 0.59375-0.054687 0.011719-0.10156 0.015625-0.14062 0.015625-0.29297 0-0.48047-0.125-0.5625-0.375-0.03125-0.0625-0.046875-0.13281-0.046875-0.21875 0-0.25781 0.10938-0.44141 0.32812-0.54688-0.023438-0.007813-0.074219-0.015625-0.15625-0.015625-0.625 0-1.0898 0.38281-1.3906 1.1406-0.17969 0.4375-0.26562 0.93359-0.26562 1.4844z"/>
</symbol>
<symbol id="e" overflow="visible">
<path d="m4.6562-1.0625c-0.23047 0.57422-0.63672 0.94922-1.2188 1.125-0.1875 0.0625-0.39062 0.09375-0.60938 0.09375-0.79297 0-1.4023-0.19141-1.8281-0.57812-0.27344-0.23828-0.40625-0.53906-0.40625-0.90625 0-0.71875 0.39453-1.2891 1.1875-1.7188 0.0625-0.039063 0.12891-0.078125 0.20312-0.10938 0.57031-0.26953 1.4102-0.4375 2.5156-0.5h0.0625v-0.51562c0-0.78906-0.28906-1.3359-0.85938-1.6406-0.1875-0.10156-0.39844-0.15625-0.625-0.15625-0.61719 0-1.0898 0.18359-1.4219 0.54688-0.03125 0.042969-0.0625 0.078125-0.09375 0.10938 0.4375 0.054688 0.67578 0.26562 0.71875 0.64062 0 0.3125-0.14844 0.51562-0.4375 0.60938-0.0625 0.023438-0.13281 0.03125-0.20312 0.03125-0.33594 0-0.54297-0.15625-0.625-0.46875-0.011719-0.039062-0.015625-0.10156-0.015625-0.1875 0-0.5625 0.28906-0.99219 0.875-1.2969 0.36328-0.1875 0.77344-0.28125 1.2344-0.28125 0.75781 0 1.3984 0.25781 1.9219 0.76562 0.32031 0.33594 0.48828 0.79688 0.5 1.3906v3.0625c0 0.27344 0.082031 0.46875 0.25 0.59375 0.070312 0.074219 0.16016 0.10938 0.26562 0.10938 0.32031 0 0.48828-0.30078 0.5-0.90625v-0.78125h0.35938v0.78125c0 0.6875-0.28125 1.1172-0.84375 1.2812-0.11719 0.03125-0.21875 0.046875-0.3125 0.046875-0.46094 0-0.78125-0.23828-0.96875-0.71875-0.0625-0.13281-0.10547-0.27344-0.125-0.42188zm-0.09375-2.2969c-1.4375 0.054687-2.3555 0.49219-2.75 1.3125-0.09375 0.23047-0.14062 0.46484-0.14062 0.70312 0 0.48047 0.21094 0.82812 0.64062 1.0469 0.1875 0.09375 0.39062 0.14062 0.60938 0.14062 0.48828 0 0.89453-0.19141 1.2188-0.57812 0.28125-0.3125 0.42188-0.71875 0.42188-1.2188z"/>
</symbol>
<symbol id="h" overflow="visible">
<path d="m1.5469-4.8125c0-0.36328-0.074219-0.58594-0.21875-0.67188-0.11719-0.070313-0.3125-0.10938-0.59375-0.10938h-0.28125v-0.4375l1.9688-0.15625v1.4688c0.4375-0.97656 1.1289-1.4688 2.0781-1.4688 1.082 0 1.7031 0.46094 1.8594 1.375 0.28125-0.63281 0.71875-1.0547 1.3125-1.2656 0.22656-0.070313 0.46875-0.10938 0.71875-0.10938 0.69531 0 1.1875 0.17188 1.4688 0.51562 0.25 0.29297 0.39062 0.6875 0.42188 1.1875 0.007812 0.17969 0.015625 0.49609 0.015625 0.95312v2.6719c0 0.23047 0.13281 0.35938 0.40625 0.39062 0.10156 0.023438 0.32812 0.03125 0.67188 0.03125v0.4375c-0.94922-0.03125-1.4688-0.046875-1.5625-0.046875-0.074219 0-0.60156 0.015625-1.5781 0.046875v-0.4375c0.55078 0 0.875-0.039062 0.96875-0.125l0.015625-0.03125c0.070312-0.070312 0.10938-0.22656 0.10938-0.46875v-3.2656c0-0.92578-0.26562-1.4375-0.79688-1.5312-0.085938-0.007813-0.16797-0.015625-0.25-0.015625-0.5625 0-1.0391 0.24609-1.4219 0.73438-0.3125 0.40625-0.46875 0.90625-0.46875 1.5v2.5781c0 0.3125 0.078125 0.5 0.23438 0.5625 0.10156 0.042969 0.39062 0.0625 0.85938 0.0625v0.4375c-0.94922-0.03125-1.4688-0.046875-1.5625-0.046875-0.074219 0-0.60156 0.015625-1.5781 0.046875v-0.4375c0.55078 0 0.875-0.039062 0.96875-0.125l0.015625-0.03125c0.070313-0.070312 0.10938-0.22656 0.10938-0.46875v-3.2656c0-0.92578-0.26562-1.4375-0.79688-1.5312-0.085937-0.007813-0.16797-0.015625-0.25-0.015625-0.5625 0-1.0391 0.24609-1.4219 0.73438-0.3125 0.40625-0.46875 0.90625-0.46875 1.5v2.5781c0 0.3125 0.078125 0.5 0.23438 0.5625 0.10156 0.042969 0.39062 0.0625 0.85938 0.0625v0.4375c-0.94922-0.03125-1.4688-0.046875-1.5625-0.046875-0.074219 0-0.60156 0.015625-1.5781 0.046875v-0.4375c0.55078 0 0.86719-0.039062 0.95312-0.125l0.03125-0.03125c0.070312-0.070312 0.10938-0.22656 0.10938-0.46875z"/>
</symbol>
<symbol id="d" overflow="visible">
<path d="m5.4531-3.2344h-3.9062c0 0.94922 0.14062 1.6484 0.42188 2.0938 0.44531 0.58594 0.97656 0.89844 1.5938 0.9375 0.63281 0 1.1484-0.25781 1.5469-0.78125 0.13281-0.1875 0.25-0.40625 0.34375-0.65625 0.019531-0.125 0.078125-0.1875 0.17188-0.1875 0.125 0 0.1875 0.054687 0.1875 0.15625 0 0.21094-0.13281 0.49219-0.39062 0.84375-0.38672 0.52344-0.89062 0.83203-1.5156 0.9375-0.13672 0.03125-0.28125 0.046875-0.4375 0.046875-0.875 0-1.6211-0.33594-2.2344-1.0156-0.5625-0.61328-0.84375-1.3516-0.84375-2.2188 0-0.96875 0.33594-1.7695 1.0156-2.4062 0.53906-0.51953 1.1719-0.78125 1.8906-0.78125 1.0625 0 1.8008 0.44922 2.2188 1.3438 0.19531 0.41797 0.29688 0.88281 0.29688 1.3906 0 0.15625-0.03125 0.25-0.09375 0.28125-0.03125 0.011719-0.12109 0.015625-0.26562 0.015625zm-3.8906-0.29688h3.3281c0-0.88281-0.19922-1.5508-0.59375-2-0.26172-0.28906-0.59375-0.4375-1-0.4375-0.46875 0-0.87109 0.21875-1.2031 0.65625-0.32422 0.42969-0.5 1.0234-0.53125 1.7812z"/>
</symbol>
<symbol id="b" overflow="visible">
<path d="m5.3125-0.76562c-0.48047 0.61719-1.1055 0.92188-1.875 0.92188-0.85547 0-1.5781-0.34375-2.1719-1.0312-0.53125-0.60156-0.79688-1.3164-0.79688-2.1406 0-0.96875 0.36328-1.7695 1.0938-2.4062 0.59375-0.50781 1.2695-0.76562 2.0312-0.76562 0.70703 0 1.2969 0.29297 1.7656 0.875v-3.0312c0-0.36328-0.0625-0.58594-0.1875-0.67188h-0.015625c-0.125-0.070313-0.42188-0.10938-0.89062-0.10938v-0.4375l2.0156-0.15625v8.5c0 0.36719 0.070312 0.58984 0.21875 0.67188h0.015625c0.125 0.074219 0.41016 0.10938 0.85938 0.10938v0.4375l-2.0625 0.15625zm0-3.75c0-0.1875-0.042969-0.34375-0.125-0.46875l-0.015625-0.0625c-0.38672-0.55078-0.89062-0.82812-1.5156-0.82812-0.65625 0-1.1836 0.29688-1.5781 0.89062-0.29297 0.44922-0.4375 1.1094-0.4375 1.9844s0.13281 1.5273 0.40625 1.9531c0.375 0.59375 0.86328 0.89062 1.4688 0.89062 0.66406 0 1.207-0.30469 1.625-0.92188l0.03125-0.0625c0.09375-0.1875 0.14062-0.35938 0.14062-0.51562z"/>
</symbol>
<symbol id="c" overflow="visible">
<path d="m2.4062-5.2812c0.53906-0.60156 1.1797-0.90625 1.9219-0.90625 0.85156 0 1.582 0.33984 2.1875 1.0156 0.51953 0.61719 0.78125 1.3281 0.78125 2.1406 0 0.98047-0.35938 1.7891-1.0781 2.4219-0.60547 0.51172-1.2891 0.76562-2.0469 0.76562-0.75 0-1.3516-0.32031-1.7969-0.96875-0.011719-0.019531-0.023438-0.039062-0.03125-0.0625l-0.51562 0.875h-0.34375v-8.3438c0-0.36328-0.070313-0.58594-0.20312-0.67188-0.10547-0.050781-0.28906-0.085937-0.54688-0.10938h-0.34375v-0.4375l2.0156-0.15625zm0.046875 3.6875c0 0.1875 0.046875 0.35156 0.14062 0.48438v0.015625l0.046875 0.078125c0.375 0.57422 0.86328 0.85938 1.4688 0.85938 0.65625 0 1.1875-0.29688 1.5938-0.89062 0.28125-0.44531 0.42188-1.1094 0.42188-1.9844s-0.13672-1.5234-0.40625-1.9531c-0.36719-0.59375-0.85547-0.89062-1.4688-0.89062-0.64844 0-1.1797 0.27344-1.5938 0.8125l-0.046875 0.078125c-0.10547 0.21094-0.15625 0.375-0.15625 0.5z"/>
</symbol>
<symbol id="a" overflow="visible">
<path d="m6.5938-3c0 0.96875-0.35547 1.7656-1.0625 2.3906-0.59375 0.51172-1.2773 0.76562-2.0469 0.76562-0.89844 0-1.6523-0.33594-2.2656-1.0156-0.55469-0.60156-0.82812-1.3164-0.82812-2.1406 0-0.94531 0.33594-1.75 1.0156-2.4062 0.59375-0.57031 1.2891-0.85938 2.0938-0.85938 0.90625 0 1.6641 0.35938 2.2812 1.0781 0.53906 0.625 0.8125 1.3555 0.8125 2.1875zm-3.0938 2.7969c0.625 0 1.1172-0.25781 1.4844-0.78125l0.14062-0.25c0.20703-0.40625 0.3125-1.0312 0.3125-1.875 0-0.89453-0.125-1.5391-0.375-1.9375-0.39844-0.58203-0.92188-0.89062-1.5781-0.92188-0.57422 0-1.0469 0.23438-1.4219 0.70312-0.074219 0.074219-0.13281 0.15234-0.17188 0.23438-0.23047 0.41797-0.34375 1.0586-0.34375 1.9219 0 0.90625 0.11719 1.5625 0.35938 1.9688 0.38281 0.61719 0.91406 0.92969 1.5938 0.9375z"/>
</symbol>
<symbol id="f" overflow="visible">
<path d="m4.0156-3.2969 1.875 2.4219c0.19531 0.25 0.45312 0.39062 0.76562 0.42188 0.11328 0.011719 0.30078 0.015625 0.5625 0.015625v0.4375c-0.41797-0.03125-0.86719-0.046875-1.3438-0.046875-0.16797 0-0.66797 0.015625-1.5 0.046875v-0.4375c0.28125-0.007812 0.44531-0.125 0.5-0.34375 0-0.039062-0.10156-0.19531-0.29688-0.46875l-1.0625-1.3906c-0.71094 0.83594-1.1094 1.3516-1.2031 1.5469-0.042969 0.085938-0.0625 0.15625-0.0625 0.21875 0 0.26172 0.13281 0.40625 0.40625 0.4375v0.4375c-0.66797-0.03125-1.1094-0.046875-1.3281-0.046875-0.40625 0-0.79297 0.015625-1.1562 0.046875v-0.4375c0.72656 0 1.3203-0.28125 1.7812-0.84375l1.3281-1.6562-1.3906-1.8125c-0.32422-0.41406-0.55859-0.66016-0.70312-0.73438-0.042969-0.03125-0.09375-0.050781-0.15625-0.0625h-0.015625c-0.125-0.03125-0.38672-0.046875-0.78125-0.046875v-0.4375c0.38281 0.03125 0.82812 0.046875 1.3281 0.046875 0.28125 0 0.78516-0.015625 1.5156-0.046875v0.4375c-0.3125 0.011719-0.47656 0.125-0.48438 0.34375 0 0.074219 0.039062 0.15625 0.125 0.25l1.0938 1.4219 0.85938-1.0938c0.14453-0.16406 0.21875-0.33203 0.21875-0.5 0-0.25781-0.13672-0.39844-0.40625-0.42188v-0.4375c0.36328 0.03125 0.8125 0.046875 1.3438 0.046875 0.39453 0 0.77344-0.015625 1.1406-0.046875v0.4375c-0.71094 0.011719-1.2617 0.25-1.6562 0.71875-0.17969 0.19922-0.60938 0.72656-1.2969 1.5781z"/>
</symbol>
<symbol id="m" overflow="visible">
<path d="m8.6719-4.7031-1.6406 4.5938c-0.0625 0.15625-0.15625 0.24219-0.28125 0.26562-0.125 0-0.21875-0.089844-0.28125-0.26562l-1.4219-3.9844-1.4219 3.9688c-0.054688 0.15625-0.11719 0.24219-0.1875 0.26562-0.03125 0.007813-0.0625 0.015625-0.09375 0.015625-0.125 0-0.21484-0.078125-0.26562-0.23438-0.011719-0.0078125-0.023437-0.035156-0.03125-0.078125l-1.7656-4.9531c-0.09375-0.25-0.23047-0.39844-0.40625-0.45312-0.11719-0.019531-0.32422-0.03125-0.625-0.03125v-0.4375c0.50781 0.03125 0.94141 0.046875 1.2969 0.046875 0.17578 0 0.6875-0.015625 1.5312-0.046875v0.4375c-0.55469 0-0.82812 0.125-0.82812 0.375 0 0.054688 0.023438 0.13672 0.078125 0.25l1.3281 3.7344 1.2031-3.3906c-0.16797-0.45703-0.27734-0.71094-0.32812-0.76562-0.16797-0.13281-0.46094-0.20312-0.875-0.20312v-0.4375c0.41406 0.03125 0.83203 0.046875 1.25 0.046875 0.15625 0 0.64062-0.015625 1.4531-0.046875v0.4375c-0.55469 0-0.82812 0.125-0.82812 0.375 0 0.03125 0.019531 0.12109 0.0625 0.26562l1.3906 3.9062 1.2812-3.5938c0.039063-0.11328 0.0625-0.20703 0.0625-0.28125 0-0.36328-0.20312-0.58594-0.60938-0.67188h-0.20312v-0.4375c0.53125 0.03125 0.96094 0.046875 1.2969 0.046875 0.375 0 0.71875-0.015625 1.0312-0.046875v0.4375c-0.58594 0.011719-0.97656 0.30859-1.1719 0.89062z"/>
</symbol>
<symbol id="t" overflow="visible">
<path d="m2.4844-6.1875v5.1406c0 0.29297 0.050781 0.46875 0.15625 0.53125 0.11328 0.054687 0.38281 0.078125 0.8125 0.078125v0.4375c-0.94922-0.03125-1.4336-0.046875-1.4531-0.046875-0.125 0-0.63672 0.015625-1.5312 0.046875v-0.4375c0.53906 0 0.85938-0.039062 0.95312-0.125l0.03125-0.03125c0.0625-0.070312 0.09375-0.22656 0.09375-0.46875v-3.7656c0-0.375-0.074219-0.59766-0.21875-0.67188h-0.015625l-0.015625-0.015625c-0.11719-0.050781-0.375-0.078125-0.78125-0.078125v-0.4375zm0.046875-2.4375c0 0.34375-0.15234 0.57422-0.45312 0.6875-0.09375 0.042969-0.1875 0.0625-0.28125 0.0625-0.33594 0-0.5625-0.14844-0.6875-0.45312v-0.015625c-0.042969-0.09375-0.0625-0.1875-0.0625-0.28125 0-0.28906 0.12891-0.50391 0.39062-0.64062 0.10156-0.0625 0.22266-0.09375 0.35938-0.09375 0.3125 0 0.53516 0.13672 0.67188 0.40625 0.039062 0.10547 0.0625 0.21484 0.0625 0.32812z"/>
</symbol>
<symbol id="s" overflow="visible">
<path d="m2.4219-5.5938v3.8906c0 0.92969 0.26953 1.4297 0.8125 1.5h0.125c0.40625 0 0.6875-0.25781 0.84375-0.78125 0.0625-0.21875 0.09375-0.47656 0.09375-0.78125v-0.76562h0.34375v0.79688c0 0.76172-0.21484 1.3125-0.64062 1.6562-0.19922 0.15625-0.44531 0.23438-0.73438 0.23438-0.78125 0-1.3203-0.29688-1.6094-0.89062-0.13672-0.26953-0.20312-0.60156-0.20312-1v-3.8594h-1.1875v-0.3125c0.83203-0.039062 1.3828-0.5625 1.6562-1.5625 0.09375-0.36328 0.14453-0.74219 0.15625-1.1406h0.34375v2.5781h2v0.4375z"/>
</symbol>
<symbol id="l" overflow="visible">
<path d="m6.3906-3.5312v2.6719c0.007813 0.23047 0.14453 0.35938 0.40625 0.39062 0.11328 0.023438 0.34375 0.03125 0.6875 0.03125v0.4375c-0.94922-0.03125-1.4688-0.046875-1.5625-0.046875-0.074219 0-0.60156 0.015625-1.5781 0.046875v-0.4375c0.55078 0 0.875-0.039062 0.96875-0.125l0.015625-0.03125c0.070313-0.070312 0.10938-0.22656 0.10938-0.46875v-3.2656c0-0.92578-0.26562-1.4375-0.79688-1.5312-0.085937-0.007813-0.16797-0.015625-0.25-0.015625-0.5625 0-1.0391 0.24609-1.4219 0.73438-0.3125 0.40625-0.46875 0.90625-0.46875 1.5v2.5781c0 0.3125 0.078125 0.5 0.23438 0.5625 0.10156 0.042969 0.39062 0.0625 0.85938 0.0625v0.4375c-0.94922-0.03125-1.4688-0.046875-1.5625-0.046875-0.074219 0-0.60156 0.015625-1.5781 0.046875v-0.4375c0.55078 0 0.86719-0.039062 0.95312-0.125l0.03125-0.03125c0.070312-0.070312 0.10938-0.22656 0.10938-0.46875v-7.2812c0-0.36328-0.070313-0.58594-0.20312-0.67188h-0.015625c-0.10547-0.050781-0.28125-0.085937-0.53125-0.10938h-0.34375v-0.4375l2.0156-0.15625v4.875h0.015625c0.25-0.57031 0.64844-0.96875 1.2031-1.1875 0.28125-0.09375 0.55078-0.14453 0.8125-0.15625 0.69531 0 1.1875 0.17188 1.4688 0.51562 0.25 0.29297 0.39062 0.6875 0.42188 1.1875v0.95312z"/>
</symbol>
<symbol id="r" overflow="visible">
<path d="m2.9062-2.7188c-0.80469-0.15625-1.3281-0.30469-1.5781-0.45312-0.09375-0.050781-0.18359-0.11328-0.26562-0.1875-0.39844-0.32031-0.59375-0.71875-0.59375-1.1875 0-0.65625 0.28516-1.1328 0.85938-1.4375 0.36328-0.1875 0.82031-0.28125 1.375-0.28125 0.51953 0 0.95703 0.13281 1.3125 0.39062 0.10156-0.082031 0.17969-0.16016 0.23438-0.23438 0.125-0.10156 0.21875-0.15625 0.28125-0.15625 0.09375 0.085937 0.14453 0.19531 0.15625 0.32812v1.4219c0 0.1875-0.027344 0.29297-0.078125 0.3125h-0.015625l-0.015625 0.015625h-0.0625c-0.10547 0-0.16406-0.039062-0.17188-0.125-0.074219-0.9375-0.46484-1.4883-1.1719-1.6562-0.14844-0.019531-0.30469-0.03125-0.46875-0.03125-0.875 0-1.3906 0.27344-1.5469 0.8125-0.011719 0.085938-0.015625 0.16797-0.015625 0.25 0 0.46875 0.35938 0.80469 1.0781 1 0.13281 0.042969 0.34766 0.089844 0.64062 0.14062 0.66406 0.13672 1.1445 0.32031 1.4375 0.54688 0.050781 0.042969 0.10156 0.085938 0.15625 0.125 0.39453 0.39844 0.59375 0.83984 0.59375 1.3281 0 0.79297-0.32812 1.3555-0.98438 1.6875-0.35547 0.17578-0.78125 0.26562-1.2812 0.26562-0.60547 0-1.1172-0.20312-1.5312-0.60938l-0.28125 0.32812c-0.1875 0.1875-0.30859 0.28125-0.35938 0.28125-0.09375-0.085938-0.14062-0.19531-0.14062-0.34375v-1.8438c0-0.20703 0.03125-0.31641 0.09375-0.32812l0.015625-0.015625h0.0625c0.09375 0 0.15625 0.054688 0.1875 0.15625 0 0.011719 0.003906 0.039062 0.015625 0.078125 0.23828 1.0859 0.69531 1.7266 1.375 1.9219 0.17578 0.042969 0.36328 0.0625 0.5625 0.0625 0.84375 0 1.3516-0.28906 1.5312-0.875 0.039062-0.125 0.0625-0.25391 0.0625-0.39062 0-0.6875-0.49219-1.1172-1.4688-1.2969z"/>
</symbol>
<symbol id="q" overflow="visible">
<path d="m5.4688-1.1094c-0.38672 0.84375-0.98438 1.2656-1.7969 1.2656-1.1484 0-1.8242-0.39844-2.0312-1.2031-0.0625-0.23828-0.09375-0.62891-0.09375-1.1719v-2.0938c0-0.60156-0.046875-0.96875-0.14062-1.0938l-0.078125-0.078125c-0.10547-0.070313-0.39844-0.10938-0.875-0.10938v-0.4375l2.0469-0.15625v4.6406c0 0.57422 0.10156 0.95312 0.3125 1.1406h0.015625c0.19531 0.16797 0.5 0.25 0.90625 0.25 0.63281 0 1.1094-0.3125 1.4219-0.9375 0.1875-0.35156 0.28125-0.76562 0.28125-1.2344v-2.4844c0-0.36328-0.074219-0.58594-0.21875-0.67188h-0.015625c-0.125-0.070313-0.41406-0.10938-0.85938-0.10938v-0.4375l2.0469-0.15625v4.9688c0 0.36719 0.070313 0.58984 0.21875 0.67188h0.015625c0.125 0.074219 0.41016 0.10938 0.85938 0.10938v0.4375l-2.0156 0.15625z"/>
</symbol>
<symbol id="k" overflow="visible">
<path d="m2.4844-9.7188v8.6562c0 0.3125 0.070313 0.5 0.21875 0.5625 0.10156 0.042969 0.39062 0.0625 0.85938 0.0625v0.4375l-1.5469-0.046875c-0.11719 0-0.63281 0.015625-1.5469 0.046875v-0.4375c0.53906 0 0.85938-0.039062 0.95312-0.125l0.03125-0.03125c0.0625-0.070312 0.09375-0.22656 0.09375-0.46875v-7.2812c0-0.36328-0.0625-0.58594-0.1875-0.67188h-0.015625c-0.10547-0.050781-0.28125-0.085937-0.53125-0.10938h-0.34375v-0.4375z"/>
</symbol>
<symbol id="p" overflow="visible">
<path d="m1.5469-4.8125c0-0.36328-0.074219-0.58594-0.21875-0.67188-0.11719-0.070313-0.3125-0.10938-0.59375-0.10938h-0.28125v-0.4375l1.9688-0.15625v1.4688c0.4375-0.97656 1.1289-1.4688 2.0781-1.4688 0.69531 0 1.1875 0.17188 1.4688 0.51562 0.25 0.29297 0.39062 0.6875 0.42188 1.1875v0.95312 2.6719c0.007813 0.23047 0.14453 0.35938 0.40625 0.39062 0.11328 0.023438 0.34375 0.03125 0.6875 0.03125v0.4375c-0.94922-0.03125-1.4688-0.046875-1.5625-0.046875-0.074219 0-0.60156 0.015625-1.5781 0.046875v-0.4375c0.55078 0 0.875-0.039062 0.96875-0.125l0.015625-0.03125c0.070313-0.070312 0.10938-0.22656 0.10938-0.46875v-3.2656c0-0.92578-0.26562-1.4375-0.79688-1.5312-0.085937-0.007813-0.16797-0.015625-0.25-0.015625-0.5625 0-1.0391 0.24609-1.4219 0.73438-0.3125 0.40625-0.46875 0.90625-0.46875 1.5v2.5781c0 0.3125 0.078125 0.5 0.23438 0.5625 0.10156 0.042969 0.39062 0.0625 0.85938 0.0625v0.4375c-0.94922-0.03125-1.4688-0.046875-1.5625-0.046875-0.074219 0-0.60156 0.015625-1.5781 0.046875v-0.4375c0.55078 0 0.86719-0.039062 0.95312-0.125l0.03125-0.03125c0.070312-0.070312 0.10938-0.22656 0.10938-0.46875z"/>
</symbol>
<symbol id="o" overflow="visible">
<path d="m5.8281-4.6562-1.8438 4.5469c-0.074219 0.17578-0.16797 0.26562-0.28125 0.26562-0.11719 0-0.20312-0.058594-0.26562-0.17188 0-0.019531-0.011719-0.050781-0.03125-0.09375l-2.0156-4.9688c-0.10547-0.25-0.21875-0.39453-0.34375-0.4375v-0.015625c-0.125-0.039062-0.38672-0.0625-0.78125-0.0625v-0.4375c0.41406 0.03125 0.86719 0.046875 1.3594 0.046875 0.17578 0 0.6875-0.015625 1.5312-0.046875v0.4375c-0.53125 0-0.79688 0.12109-0.79688 0.35938 0 0.03125 0.023437 0.10938 0.078125 0.23438l1.5625 3.9062 1.4375-3.5625c0.050781-0.16406 0.078125-0.28125 0.078125-0.34375 0-0.32031-0.16406-0.51953-0.48438-0.59375h-0.1875v-0.4375c0.47656 0.03125 0.88281 0.046875 1.2188 0.046875 0.38281 0 0.73438-0.015625 1.0469-0.046875v0.4375c-0.60547 0-1.0234 0.28125-1.25 0.84375v0.015625c-0.011719 0.023437-0.023437 0.046875-0.03125 0.078125z"/>
</symbol>
<symbol id="n" overflow="visible">
<path d="m0.85938-17.156 7.1094-7.1094c0.21875-0.21875 0.45312-0.39844 0.70312-0.54688v-1.4844c0-0.070313 0.023437-0.13281 0.078125-0.1875 0.050781-0.0625 0.11719-0.09375 0.20312-0.09375h1.5469c0.070312 0 0.13281 0.03125 0.1875 0.09375 0.0625 0.054687 0.09375 0.11719 0.09375 0.1875v1.4844c0.23828 0.14844 0.47266 0.32812 0.70312 0.54688l7.0938 7.1094c0.58203 0.58594 0.875 1.1719 0.875 1.7656 0 0.58594-0.29297 1.1641-0.875 1.7344l-7.0938 7.125c-0.23047 0.21875-0.46484 0.40234-0.70312 0.54688v5.4219h5.1719c0.070313 0 0.13281 0.03125 0.1875 0.09375 0.050781 0.054688 0.078125 0.11719 0.078125 0.1875 0 0.074219-0.027344 0.14062-0.078125 0.20312-0.054687 0.054688-0.11719 0.078125-0.1875 0.078125h-12.453c-0.074219 0-0.14062-0.023438-0.20312-0.078125-0.054687-0.0625-0.078125-0.12891-0.078125-0.20312 0-0.070312 0.023438-0.13281 0.078125-0.1875 0.0625-0.0625 0.12891-0.09375 0.20312-0.09375h5.1719v-5.4219c-0.25-0.14453-0.48438-0.32812-0.70312-0.54688l-7.1094-7.125c-0.57422-0.5625-0.85938-1.1406-0.85938-1.7344 0-0.60156 0.28516-1.1914 0.85938-1.7656zm8.8594-7.4062c-0.21094 0-0.42188 0.054688-0.64062 0.15625-0.21094 0.10547-0.44922 0.28125-0.71875 0.53125l-7.0938 7.1094c-0.46875 0.46875-0.70312 0.92969-0.70312 1.375 0 0.4375 0.23438 0.88672 0.70312 1.3438l7.0938 7.1094c0.26953 0.26172 0.50781 0.44531 0.71875 0.54688 0.21875 0.09375 0.42969 0.14062 0.64062 0.14062 0.20703 0 0.42578-0.046875 0.65625-0.14062 0.21875-0.11328 0.45312-0.29688 0.70312-0.54688l7.1094-7.1094c0.46875-0.45703 0.70312-0.90625 0.70312-1.3438 0-0.44531-0.23438-0.90625-0.70312-1.375l-7.1094-7.1094c-0.25-0.23828-0.48438-0.41406-0.70312-0.53125-0.23047-0.10156-0.44922-0.15625-0.65625-0.15625zm-3.4531 9.4219 6.2188-2.3281c0.125-0.050781 0.20312-0.11328 0.23438-0.1875 0.03125-0.082031 0.035156-0.14844 0.015625-0.20312-0.023437-0.050781-0.046875-0.082031-0.078125-0.09375l-6.2344-1.1562 0.375-1.9219 6.2031 1.1719c0.53125 0.09375 0.94141 0.33594 1.2344 0.71875 0.28906 0.38672 0.44141 0.80469 0.45312 1.25 0.019531 0.4375-0.10547 0.875-0.375 1.3125-0.26172 0.42969-0.64062 0.73438-1.1406 0.92188l-6.2188 2.3281c-0.11719 0.042969-0.19531 0.10547-0.23438 0.1875-0.03125 0.085937-0.039062 0.15234-0.015625 0.20312 0.03125 0.054688 0.0625 0.078125 0.09375 0.078125l6.2031 1.1719-0.34375 1.9219-6.2344-1.1875c-0.51172-0.09375-0.91406-0.32812-1.2031-0.70312-0.29297-0.38281-0.44922-0.79688-0.46875-1.2344-0.011719-0.44531 0.11328-0.89062 0.375-1.3281 0.25781-0.4375 0.64062-0.74219 1.1406-0.92188zm2.9531 14.578h1v-5.1719c-0.13672 0.03125-0.30469 0.046875-0.5 0.046875-0.1875 0-0.35547-0.015625-0.5-0.046875zm0-25.453v0.95312c0.14453-0.03125 0.3125-0.046875 0.5-0.046875 0.19531 0 0.36328 0.015625 0.5 0.046875v-0.95312z"/>
</symbol>
</defs>
<rect width="349" height="115" fill="#fff"/>
<path transform="scale(14)" d="m1.2344 0.9495h11.371v3.24h-11.371z" fill="none" stroke="#000" stroke-miterlimit="0" stroke-width=".039999"/>
<g>
<use x="26.660156" y="49.273438" xlink:href="#g"/>
</g>
<g>
<use x="41.828125" y="49.273438" xlink:href="#j"/>
</g>
<g>
<use x="46.105469" y="49.273438" xlink:href="#i"/>
</g>
<g>
<use x="51.585938" y="49.273438" xlink:href="#e"/>
</g>
<g>
<use x="58.585938" y="49.273438" xlink:href="#h"/>
</g>
<g>
<use x="70.253906" y="49.273438" xlink:href="#d"/>
</g>
<g>
<use x="76.476562" y="49.273438" xlink:href="#b"/>
</g>
<g>
<use x="88.921875" y="49.273438" xlink:href="#c"/>
</g>
<g>
<use x="97.089844" y="49.273438" xlink:href="#a"/>
</g>
<g>
<use x="103.699219" y="49.273438" xlink:href="#f"/>
</g>
<g>
<use x="115.753906" y="49.273438" xlink:href="#m"/>
</g>
<g>
<use x="125.867188" y="49.273438" xlink:href="#t"/>
</g>
<g>
<use x="129.753906" y="49.273438" xlink:href="#s"/>
</g>
<g>
<use x="135.199219" y="49.273438" xlink:href="#l"/>
</g>
<g>
<use x="147.644531" y="49.273438" xlink:href="#n"/>
</g>
<g>
<use x="209.769531" y="49.273438" xlink:href="#g"/>
</g>
<g>
<use x="224.9375" y="49.273438" xlink:href="#r"/>
</g>
<g>
<use x="230.460938" y="49.273438" xlink:href="#l"/>
</g>
<g>
<use x="238.238281" y="49.273438" xlink:href="#e"/>
</g>
<g>
<use x="245.238281" y="49.273438" xlink:href="#b"/>
</g>
<g>
<use x="253.015625" y="49.273438" xlink:href="#a"/>
</g>
<g>
<use x="259.625" y="49.273438" xlink:href="#m"/>
</g>
<g>
<use x="269.347656" y="49.273438" xlink:href="#d"/>
</g>
<g>
<use x="275.570312" y="49.273438" xlink:href="#b"/>
</g>
<g>
<use x="288.015625" y="49.273438" xlink:href="#c"/>
</g>
<g>
<use x="296.183594" y="49.273438" xlink:href="#a"/>
</g>
<g>
<use x="302.792969" y="49.273438" xlink:href="#f"/>
</g>
<path transform="scale(14)" d="m14.314 2.1551h8.5123v2.0343h-8.5123z" fill="none" stroke="#000" stroke-miterlimit="0" stroke-width=".039999"/>
<path d="m201.35 57.934h119.73v2.2383h-119.73z"/>
<path d="m318.84 32.41h2.2383v26.523h-2.2383z"/>
<path transform="scale(14)" d="m1.4874 4.8301h10.864v2.3058h-10.864z" fill="none" stroke="#000" stroke-miterlimit="0" stroke-width=".059998"/>
<path transform="scale(14)" d="m1.6283 4.9707h10.583v2.0246h-10.583z" fill="none" stroke="#000" stroke-miterlimit="0" stroke-width=".029999"/>
<g>
<use x="32.105469" y="88.625" xlink:href="#g"/>
</g>
<g>
<use x="47.273437" y="88.625" xlink:href="#b"/>
</g>
<g>
<use x="55.050781" y="88.625" xlink:href="#a"/>
</g>
<g>
<use x="62.050781" y="88.625" xlink:href="#q"/>
</g>
<g>
<use x="69.828125" y="88.625" xlink:href="#c"/>
</g>
<g>
<use x="77.605469" y="88.625" xlink:href="#k"/>
</g>
<g>
<use x="81.496094" y="88.625" xlink:href="#d"/>
</g>
<g>
<use x="92.382812" y="88.625" xlink:href="#j"/>
</g>
<g>
<use x="96.660156" y="88.625" xlink:href="#i"/>
</g>
<g>
<use x="102.144531" y="88.625" xlink:href="#e"/>
</g>
<g>
<use x="109.144531" y="88.625" xlink:href="#h"/>
</g>
<g>
<use x="120.8125" y="88.625" xlink:href="#d"/>
</g>
<g>
<use x="127.035156" y="88.625" xlink:href="#b"/>
</g>
<g>
<use x="139.476562" y="88.625" xlink:href="#c"/>
</g>
<g>
<use x="147.644531" y="88.625" xlink:href="#a"/>
</g>
<g>
<use x="154.253906" y="88.625" xlink:href="#f"/>
</g>
<g>
<use x="200.410156" y="88.625" xlink:href="#g"/>
</g>
<g>
<use x="210.910156" y="88.625" xlink:href="#p"/>
</g>
<g>
<use x="223.355469" y="88.625" xlink:href="#a"/>
</g>
<g>
<use x="229.964844" y="88.625" xlink:href="#o"/>
</g>
<g>
<use x="236.964844" y="88.625" xlink:href="#e"/>
</g>
<g>
<use x="243.964844" y="88.625" xlink:href="#k"/>
</g>
<g>
<use x="252.519531" y="88.625" xlink:href="#j"/>
</g>
<g>
<use x="256.796875" y="88.625" xlink:href="#i"/>
</g>
<g>
<use x="262.28125" y="88.625" xlink:href="#e"/>
</g>
<g>
<use x="269.28125" y="88.625" xlink:href="#h"/>
</g>
<g>
<use x="280.949219" y="88.625" xlink:href="#d"/>
</g>
<g>
<use x="287.171875" y="88.625" xlink:href="#b"/>
</g>
<g>
<use x="299.617188" y="88.625" xlink:href="#c"/>
</g>
<g>
<use x="307.78125" y="88.625" xlink:href="#a"/>
</g>
<g>
<use x="314.394531" y="88.625" xlink:href="#f"/>
</g>
<path transform="scale(14)" d="m13.645 5.3728c0-0.22489 0.18192-0.40681 0.40681-0.40681h9.1956c0.22489 0 0.40709 0.18192 0.40709 0.40681v1.2207c0 0.22461-0.1822 0.40681-0.40709 0.40681h-9.1956c-0.22489 0-0.40681-0.1822-0.40681-0.40681z" fill="none" stroke="#000" stroke-miterlimit="0" stroke-width=".039999"/>
</svg>
