<?xml version="1.0" encoding="UTF-8"?>
<svg width="476pt" height="128pt" version="1.1" viewBox="0 0 476 128" xmlns="http://www.w3.org/2000/svg" xmlns:xlink="http://www.w3.org/1999/xlink">
<defs>
<symbol id="u" overflow="visible">
<path d="m3.375-9.25 3.0312 7.8438 3.0781-7.8906c0.050781-0.14453 0.10938-0.22656 0.17188-0.25 0.050781-0.007813 0.14453-0.015625 0.28125-0.015625h2.375v0.4375h-0.34375c-0.60547 0-0.95312 0.078125-1.0469 0.23438-0.042969 0.0625-0.0625 0.20312-0.0625 0.42188v7.375c0 0.28125 0.054687 0.46094 0.17188 0.53125 0.13281 0.085938 0.44531 0.125 0.9375 0.125h0.34375v0.4375c-0.35547-0.03125-1.0273-0.046875-2.0156-0.046875-0.99219 0-1.6641 0.015625-2.0156 0.046875v-0.4375h0.34375c0.60156 0 0.95312-0.078125 1.0469-0.23438 0.039063-0.0625 0.0625-0.20312 0.0625-0.42188v-8.0312h-0.015625l-3.4531 8.8594c-0.0625 0.16797-0.14844 0.25781-0.25 0.26562-0.10547 0-0.19922-0.10156-0.28125-0.3125l-3.375-8.7031v7.5469c0 0.39844 0.125 0.67188 0.375 0.82812 0.23828 0.13672 0.59375 0.20312 1.0625 0.20312v0.4375c-0.98047-0.03125-1.5273-0.046875-1.6406-0.046875-0.11719 0-0.66406 0.015625-1.6406 0.046875v-0.4375c0.90625 0 1.3828-0.26953 1.4375-0.8125v-0.21875-7c0-0.28125-0.054687-0.45703-0.15625-0.53125-0.13672-0.082031-0.44922-0.125-0.9375-0.125h-0.34375v-0.4375h2.375c0.20703 0 0.33594 0.039062 0.39062 0.10938l0.015625 0.015625v0.03125c0.019531 0.03125 0.046875 0.085938 0.078125 0.15625z"/>
</symbol>
<symbol id="t" overflow="visible">
<path d="m4.6562-1.0625c-0.23047 0.57422-0.63672 0.94922-1.2188 1.125-0.1875 0.0625-0.39062 0.09375-0.60938 0.09375-0.79297 0-1.4023-0.19141-1.8281-0.57812-0.27344-0.23828-0.40625-0.53906-0.40625-0.90625 0-0.71875 0.39453-1.2891 1.1875-1.7188 0.0625-0.039063 0.12891-0.078125 0.20312-0.10938 0.57031-0.26953 1.4102-0.4375 2.5156-0.5h0.0625v-0.51562c0-0.78906-0.28906-1.3359-0.85938-1.6406-0.1875-0.10156-0.39844-0.15625-0.625-0.15625-0.61719 0-1.0898 0.18359-1.4219 0.54688-0.03125 0.042969-0.0625 0.078125-0.09375 0.10938 0.4375 0.054688 0.67578 0.26562 0.71875 0.64062 0 0.3125-0.14844 0.51562-0.4375 0.60938-0.0625 0.023438-0.13281 0.03125-0.20312 0.03125-0.33594 0-0.54297-0.15625-0.625-0.46875-0.011719-0.039062-0.015625-0.10156-0.015625-0.1875 0-0.5625 0.28906-0.99219 0.875-1.2969 0.36328-0.1875 0.77344-0.28125 1.2344-0.28125 0.75781 0 1.3984 0.25781 1.9219 0.76562 0.32031 0.33594 0.48828 0.79688 0.5 1.3906v3.0625c0 0.27344 0.082031 0.46875 0.25 0.59375 0.070312 0.074219 0.16016 0.10938 0.26562 0.10938 0.32031 0 0.48828-0.30078 0.5-0.90625v-0.78125h0.35938v0.78125c0 0.6875-0.28125 1.1172-0.84375 1.2812-0.11719 0.03125-0.21875 0.046875-0.3125 0.046875-0.46094 0-0.78125-0.23828-0.96875-0.71875-0.0625-0.13281-0.10547-0.27344-0.125-0.42188zm-0.09375-2.2969c-1.4375 0.054687-2.3555 0.49219-2.75 1.3125-0.09375 0.23047-0.14062 0.46484-0.14062 0.70312 0 0.48047 0.21094 0.82812 0.64062 1.0469 0.1875 0.09375 0.39062 0.14062 0.60938 0.14062 0.48828 0 0.89453-0.19141 1.2188-0.57812 0.28125-0.3125 0.42188-0.71875 0.42188-1.2188z"/>
</symbol>
<symbol id="g" overflow="visible">
<path d="m2.4219-5.5938v3.8906c0 0.92969 0.26953 1.4297 0.8125 1.5h0.125c0.40625 0 0.6875-0.25781 0.84375-0.78125 0.0625-0.21875 0.09375-0.47656 0.09375-0.78125v-0.76562h0.34375v0.79688c0 0.76172-0.21484 1.3125-0.64062 1.6562-0.19922 0.15625-0.44531 0.23438-0.73438 0.23438-0.78125 0-1.3203-0.29688-1.6094-0.89062-0.13672-0.26953-0.20312-0.60156-0.20312-1v-3.8594h-1.1875v-0.3125c0.83203-0.039062 1.3828-0.5625 1.6562-1.5625 0.09375-0.36328 0.14453-0.74219 0.15625-1.1406h0.34375v2.5781h2v0.4375z"/>
</symbol>
<symbol id="bm" overflow="visible">
<path d="m2.4062-1.0938c0 0.29297 0.054688 0.46875 0.17188 0.53125l0.015625 0.015625c0.125 0.074219 0.41406 0.10938 0.875 0.10938h0.29688v0.4375c-0.375-0.03125-0.96875-0.046875-1.7812-0.046875 0.03125 0-0.5 0.015625-1.5938 0.046875v-0.4375c0.55078 0 0.875-0.039062 0.96875-0.125l0.03125-0.03125c0.0625-0.070312 0.09375-0.22656 0.09375-0.46875v-3.75c0-0.36328-0.070313-0.58594-0.20312-0.67188-0.11719-0.070313-0.32031-0.10938-0.60938-0.10938h-0.28125v-0.4375l1.9531-0.15625v1.5469c0.25-0.78906 0.66016-1.2852 1.2344-1.4844 0.15625-0.039062 0.31641-0.0625 0.48438-0.0625 0.4375 0 0.75 0.16406 0.9375 0.48438 0.0625 0.11719 0.09375 0.24219 0.09375 0.375 0 0.32422-0.15234 0.52344-0.45312 0.59375-0.054687 0.011719-0.10156 0.015625-0.14062 0.015625-0.29297 0-0.48047-0.125-0.5625-0.375-0.03125-0.0625-0.046875-0.13281-0.046875-0.21875 0-0.25781 0.10938-0.44141 0.32812-0.54688-0.023438-0.007813-0.074219-0.015625-0.15625-0.015625-0.625 0-1.0898 0.38281-1.3906 1.1406-0.17969 0.4375-0.26562 0.93359-0.26562 1.4844z"/>
</symbol>
<symbol id="f" overflow="visible">
<path d="m2.4844-6.1875v5.1406c0 0.29297 0.050781 0.46875 0.15625 0.53125 0.11328 0.054687 0.38281 0.078125 0.8125 0.078125v0.4375c-0.94922-0.03125-1.4336-0.046875-1.4531-0.046875-0.125 0-0.63672 0.015625-1.5312 0.046875v-0.4375c0.53906 0 0.85938-0.039062 0.95312-0.125l0.03125-0.03125c0.0625-0.070312 0.09375-0.22656 0.09375-0.46875v-3.7656c0-0.375-0.074219-0.59766-0.21875-0.67188h-0.015625l-0.015625-0.015625c-0.11719-0.050781-0.375-0.078125-0.78125-0.078125v-0.4375zm0.046875-2.4375c0 0.34375-0.15234 0.57422-0.45312 0.6875-0.09375 0.042969-0.1875 0.0625-0.28125 0.0625-0.33594 0-0.5625-0.14844-0.6875-0.45312v-0.015625c-0.042969-0.09375-0.0625-0.1875-0.0625-0.28125 0-0.28906 0.12891-0.50391 0.39062-0.64062 0.10156-0.0625 0.22266-0.09375 0.35938-0.09375 0.3125 0 0.53516 0.13672 0.67188 0.40625 0.039062 0.10547 0.0625 0.21484 0.0625 0.32812z"/>
</symbol>
<symbol id="bl" overflow="visible">
<path d="m4.0156-3.2969 1.875 2.4219c0.19531 0.25 0.45312 0.39062 0.76562 0.42188 0.11328 0.011719 0.30078 0.015625 0.5625 0.015625v0.4375c-0.41797-0.03125-0.86719-0.046875-1.3438-0.046875-0.16797 0-0.66797 0.015625-1.5 0.046875v-0.4375c0.28125-0.007812 0.44531-0.125 0.5-0.34375 0-0.039062-0.10156-0.19531-0.29688-0.46875l-1.0625-1.3906c-0.71094 0.83594-1.1094 1.3516-1.2031 1.5469-0.042969 0.085938-0.0625 0.15625-0.0625 0.21875 0 0.26172 0.13281 0.40625 0.40625 0.4375v0.4375c-0.66797-0.03125-1.1094-0.046875-1.3281-0.046875-0.40625 0-0.79297 0.015625-1.1562 0.046875v-0.4375c0.72656 0 1.3203-0.28125 1.7812-0.84375l1.3281-1.6562-1.3906-1.8125c-0.32422-0.41406-0.55859-0.66016-0.70312-0.73438-0.042969-0.03125-0.09375-0.050781-0.15625-0.0625h-0.015625c-0.125-0.03125-0.38672-0.046875-0.78125-0.046875v-0.4375c0.38281 0.03125 0.82812 0.046875 1.3281 0.046875 0.28125 0 0.78516-0.015625 1.5156-0.046875v0.4375c-0.3125 0.011719-0.47656 0.125-0.48438 0.34375 0 0.074219 0.039062 0.15625 0.125 0.25l1.0938 1.4219 0.85938-1.0938c0.14453-0.16406 0.21875-0.33203 0.21875-0.5 0-0.25781-0.13672-0.39844-0.40625-0.42188v-0.4375c0.36328 0.03125 0.8125 0.046875 1.3438 0.046875 0.39453 0 0.77344-0.015625 1.1406-0.046875v0.4375c-0.71094 0.011719-1.2617 0.25-1.6562 0.71875-0.17969 0.19922-0.60938 0.72656-1.2969 1.5781z"/>
</symbol>
<symbol id="s" overflow="visible">
<path d="m5.4688-1.1094c-0.38672 0.84375-0.98438 1.2656-1.7969 1.2656-1.1484 0-1.8242-0.39844-2.0312-1.2031-0.0625-0.23828-0.09375-0.62891-0.09375-1.1719v-2.0938c0-0.60156-0.046875-0.96875-0.14062-1.0938l-0.078125-0.078125c-0.10547-0.070313-0.39844-0.10938-0.875-0.10938v-0.4375l2.0469-0.15625v4.6406c0 0.57422 0.10156 0.95312 0.3125 1.1406h0.015625c0.19531 0.16797 0.5 0.25 0.90625 0.25 0.63281 0 1.1094-0.3125 1.4219-0.9375 0.1875-0.35156 0.28125-0.76562 0.28125-1.2344v-2.4844c0-0.36328-0.074219-0.58594-0.21875-0.67188h-0.015625c-0.125-0.070313-0.41406-0.10938-0.85938-0.10938v-0.4375l2.0469-0.15625v4.9688c0 0.36719 0.070313 0.58984 0.21875 0.67188h0.015625c0.125 0.074219 0.41016 0.10938 0.85938 0.10938v0.4375l-2.0156 0.15625z"/>
</symbol>
<symbol id="r" overflow="visible">
<path d="m2.4844-9.7188v8.6562c0 0.3125 0.070313 0.5 0.21875 0.5625 0.10156 0.042969 0.39062 0.0625 0.85938 0.0625v0.4375l-1.5469-0.046875c-0.11719 0-0.63281 0.015625-1.5469 0.046875v-0.4375c0.53906 0 0.85938-0.039062 0.95312-0.125l0.03125-0.03125c0.0625-0.070312 0.09375-0.22656 0.09375-0.46875v-7.2812c0-0.36328-0.0625-0.58594-0.1875-0.67188h-0.015625c-0.10547-0.050781-0.28125-0.085937-0.53125-0.10938h-0.34375v-0.4375z"/>
</symbol>
<symbol id="q" overflow="visible">
<path d="m5.0312-5.4062c-0.34375-0.34375-0.84375-0.51562-1.5-0.51562-0.59375 0-1.0703 0.28125-1.4219 0.84375-0.3125 0.5-0.46875 1.1797-0.46875 2.0312 0 1.3438 0.39844 2.2266 1.2031 2.6406 0.25 0.13672 0.50391 0.20312 0.76562 0.20312 0.91406 0 1.5312-0.48828 1.8438-1.4688 0.019531-0.09375 0.078125-0.14062 0.17188-0.14062 0.125 0 0.1875 0.046875 0.1875 0.14062 0 0.17969-0.10547 0.43359-0.3125 0.76562-0.46094 0.71094-1.1328 1.0625-2.0156 1.0625-0.875 0-1.6172-0.34375-2.2188-1.0312-0.53125-0.61328-0.79688-1.332-0.79688-2.1562 0-0.95703 0.33203-1.7578 1-2.4062 0.57031-0.55078 1.2539-0.82812 2.0469-0.82812 0.76953 0 1.3633 0.21094 1.7812 0.625 0.23828 0.25 0.35938 0.53906 0.35938 0.85938 0 0.36719-0.15625 0.58594-0.46875 0.65625-0.054688 0.011719-0.10938 0.015625-0.17188 0.015625-0.33594 0-0.54297-0.14844-0.625-0.45312-0.011719-0.050781-0.015625-0.11719-0.015625-0.20312 0-0.33203 0.16016-0.53516 0.48438-0.60938 0.050781-0.019531 0.10938-0.03125 0.17188-0.03125z"/>
</symbol>
<symbol id="j" overflow="visible">
<path d="m6.5938-3c0 0.96875-0.35547 1.7656-1.0625 2.3906-0.59375 0.51172-1.2773 0.76562-2.0469 0.76562-0.89844 0-1.6523-0.33594-2.2656-1.0156-0.55469-0.60156-0.82812-1.3164-0.82812-2.1406 0-0.94531 0.33594-1.75 1.0156-2.4062 0.59375-0.57031 1.2891-0.85938 2.0938-0.85938 0.90625 0 1.6641 0.35938 2.2812 1.0781 0.53906 0.625 0.8125 1.3555 0.8125 2.1875zm-3.0938 2.7969c0.625 0 1.1172-0.25781 1.4844-0.78125l0.14062-0.25c0.20703-0.40625 0.3125-1.0312 0.3125-1.875 0-0.89453-0.125-1.5391-0.375-1.9375-0.39844-0.58203-0.92188-0.89062-1.5781-0.92188-0.57422 0-1.0469 0.23438-1.4219 0.70312-0.074219 0.074219-0.13281 0.15234-0.17188 0.23438-0.23047 0.41797-0.34375 1.0586-0.34375 1.9219 0 0.90625 0.11719 1.5625 0.35938 1.9688 0.38281 0.61719 0.91406 0.92969 1.5938 0.9375z"/>
</symbol>
<symbol id="i" overflow="visible">
<path d="m1.5469-4.8125c0-0.36328-0.074219-0.58594-0.21875-0.67188-0.11719-0.070313-0.3125-0.10938-0.59375-0.10938h-0.28125v-0.4375l1.9688-0.15625v1.4688c0.4375-0.97656 1.1289-1.4688 2.0781-1.4688 1.082 0 1.7031 0.46094 1.8594 1.375 0.28125-0.63281 0.71875-1.0547 1.3125-1.2656 0.22656-0.070313 0.46875-0.10938 0.71875-0.10938 0.69531 0 1.1875 0.17188 1.4688 0.51562 0.25 0.29297 0.39062 0.6875 0.42188 1.1875 0.007812 0.17969 0.015625 0.49609 0.015625 0.95312v2.6719c0 0.23047 0.13281 0.35938 0.40625 0.39062 0.10156 0.023438 0.32812 0.03125 0.67188 0.03125v0.4375c-0.94922-0.03125-1.4688-0.046875-1.5625-0.046875-0.074219 0-0.60156 0.015625-1.5781 0.046875v-0.4375c0.55078 0 0.875-0.039062 0.96875-0.125l0.015625-0.03125c0.070312-0.070312 0.10938-0.22656 0.10938-0.46875v-3.2656c0-0.92578-0.26562-1.4375-0.79688-1.5312-0.085938-0.007813-0.16797-0.015625-0.25-0.015625-0.5625 0-1.0391 0.24609-1.4219 0.73438-0.3125 0.40625-0.46875 0.90625-0.46875 1.5v2.5781c0 0.3125 0.078125 0.5 0.23438 0.5625 0.10156 0.042969 0.39062 0.0625 0.85938 0.0625v0.4375c-0.94922-0.03125-1.4688-0.046875-1.5625-0.046875-0.074219 0-0.60156 0.015625-1.5781 0.046875v-0.4375c0.55078 0 0.875-0.039062 0.96875-0.125l0.015625-0.03125c0.070313-0.070312 0.10938-0.22656 0.10938-0.46875v-3.2656c0-0.92578-0.26562-1.4375-0.79688-1.5312-0.085937-0.007813-0.16797-0.015625-0.25-0.015625-0.5625 0-1.0391 0.24609-1.4219 0.73438-0.3125 0.40625-0.46875 0.90625-0.46875 1.5v2.5781c0 0.3125 0.078125 0.5 0.23438 0.5625 0.10156 0.042969 0.39062 0.0625 0.85938 0.0625v0.4375c-0.94922-0.03125-1.4688-0.046875-1.5625-0.046875-0.074219 0-0.60156 0.015625-1.5781 0.046875v-0.4375c0.55078 0 0.86719-0.039062 0.95312-0.125l0.03125-0.03125c0.070312-0.070312 0.10938-0.22656 0.10938-0.46875z"/>
</symbol>
<symbol id="h" overflow="visible">
<path d="m1.5469-4.8125c0-0.36328-0.074219-0.58594-0.21875-0.67188-0.11719-0.070313-0.3125-0.10938-0.59375-0.10938h-0.28125v-0.4375l1.9688-0.15625v1.4688c0.4375-0.97656 1.1289-1.4688 2.0781-1.4688 0.69531 0 1.1875 0.17188 1.4688 0.51562 0.25 0.29297 0.39062 0.6875 0.42188 1.1875v0.95312 2.6719c0.007813 0.23047 0.14453 0.35938 0.40625 0.39062 0.11328 0.023438 0.34375 0.03125 0.6875 0.03125v0.4375c-0.94922-0.03125-1.4688-0.046875-1.5625-0.046875-0.074219 0-0.60156 0.015625-1.5781 0.046875v-0.4375c0.55078 0 0.875-0.039062 0.96875-0.125l0.015625-0.03125c0.070313-0.070312 0.10938-0.22656 0.10938-0.46875v-3.2656c0-0.92578-0.26562-1.4375-0.79688-1.5312-0.085937-0.007813-0.16797-0.015625-0.25-0.015625-0.5625 0-1.0391 0.24609-1.4219 0.73438-0.3125 0.40625-0.46875 0.90625-0.46875 1.5v2.5781c0 0.3125 0.078125 0.5 0.23438 0.5625 0.10156 0.042969 0.39062 0.0625 0.85938 0.0625v0.4375c-0.94922-0.03125-1.4688-0.046875-1.5625-0.046875-0.074219 0-0.60156 0.015625-1.5781 0.046875v-0.4375c0.55078 0 0.86719-0.039062 0.95312-0.125l0.03125-0.03125c0.070312-0.070312 0.10938-0.22656 0.10938-0.46875z"/>
</symbol>
<symbol id="b" overflow="visible">
<path d="m2.9062-2.7188c-0.80469-0.15625-1.3281-0.30469-1.5781-0.45312-0.09375-0.050781-0.18359-0.11328-0.26562-0.1875-0.39844-0.32031-0.59375-0.71875-0.59375-1.1875 0-0.65625 0.28516-1.1328 0.85938-1.4375 0.36328-0.1875 0.82031-0.28125 1.375-0.28125 0.51953 0 0.95703 0.13281 1.3125 0.39062 0.10156-0.082031 0.17969-0.16016 0.23438-0.23438 0.125-0.10156 0.21875-0.15625 0.28125-0.15625 0.09375 0.085937 0.14453 0.19531 0.15625 0.32812v1.4219c0 0.1875-0.027344 0.29297-0.078125 0.3125h-0.015625l-0.015625 0.015625h-0.0625c-0.10547 0-0.16406-0.039062-0.17188-0.125-0.074219-0.9375-0.46484-1.4883-1.1719-1.6562-0.14844-0.019531-0.30469-0.03125-0.46875-0.03125-0.875 0-1.3906 0.27344-1.5469 0.8125-0.011719 0.085938-0.015625 0.16797-0.015625 0.25 0 0.46875 0.35938 0.80469 1.0781 1 0.13281 0.042969 0.34766 0.089844 0.64062 0.14062 0.66406 0.13672 1.1445 0.32031 1.4375 0.54688 0.050781 0.042969 0.10156 0.085938 0.15625 0.125 0.39453 0.39844 0.59375 0.83984 0.59375 1.3281 0 0.79297-0.32812 1.3555-0.98438 1.6875-0.35547 0.17578-0.78125 0.26562-1.2812 0.26562-0.60547 0-1.1172-0.20312-1.5312-0.60938l-0.28125 0.32812c-0.1875 0.1875-0.30859 0.28125-0.35938 0.28125-0.09375-0.085938-0.14062-0.19531-0.14062-0.34375v-1.8438c0-0.20703 0.03125-0.31641 0.09375-0.32812l0.015625-0.015625h0.0625c0.09375 0 0.15625 0.054688 0.1875 0.15625 0 0.011719 0.003906 0.039062 0.015625 0.078125 0.23828 1.0859 0.69531 1.7266 1.375 1.9219 0.17578 0.042969 0.36328 0.0625 0.5625 0.0625 0.84375 0 1.3516-0.28906 1.5312-0.875 0.039062-0.125 0.0625-0.25391 0.0625-0.39062 0-0.6875-0.49219-1.1172-1.4688-1.2969z"/>
</symbol>
<symbol id="bq" overflow="visible">
<path d="m8.1406-9.5156 0.40625 3.1406h-0.35938c-0.11719-1.0195-0.32031-1.707-0.60938-2.0625-0.36719-0.4375-1.0547-0.65625-2.0625-0.65625h-1.6719c-0.36719 0-0.58594 0.058594-0.65625 0.17188v0.03125c-0.023438 0.054687-0.03125 0.17188-0.03125 0.35938v3.5469h1.2031c0.70703 0 1.1484-0.16406 1.3281-0.5 0.10156-0.20703 0.15625-0.58594 0.15625-1.1406h0.34375v3.7188h-0.34375c0-0.6875-0.10156-1.1289-0.29688-1.3281l-0.015625-0.015625c-0.21094-0.19531-0.60156-0.29688-1.1719-0.29688h-1.2031v3.4375c0 0.27344 0.050781 0.44531 0.15625 0.51562 0.15625 0.10547 0.54688 0.15625 1.1719 0.15625h0.45312v0.4375c-0.33594-0.03125-1.1172-0.046875-2.3438-0.046875-1.0938 0-1.8047 0.015625-2.125 0.046875v-0.4375h0.32812c0.60156 0 0.95312-0.078125 1.0469-0.23438 0.039062-0.0625 0.0625-0.20312 0.0625-0.42188v-7.3281c0-0.28125-0.058594-0.45703-0.17188-0.53125-0.125-0.09375-0.4375-0.14062-0.9375-0.14062h-0.32812v-0.42188z"/>
</symbol>
<symbol id="bp" overflow="visible">
<path d="m5.4531-5.6094-3.8906 5.2656h1.6562c0.83203 0 1.3828-0.20703 1.6562-0.625 0.19531-0.28906 0.32812-0.84375 0.39062-1.6562h0.34375l-0.23438 2.625h-4.625c-0.21094 0-0.32422-0.03125-0.34375-0.09375-0.011719-0.03125-0.015625-0.066406-0.015625-0.10938 0-0.0625 0.039063-0.14453 0.125-0.25l3.9062-5.2656h-1.5938c-0.8125 0-1.3398 0.18359-1.5781 0.54688-0.16797 0.26172-0.27344 0.72656-0.3125 1.3906h-0.34375l0.14062-2.25h4.4844c0.21875 0 0.33594 0.039062 0.35938 0.10938 0.007813 0.023437 0.015625 0.042969 0.015625 0.0625 0 0.0625-0.046875 0.14844-0.14062 0.25z"/>
</symbol>
<symbol id="bo" overflow="visible">
<path d="m5.4531-3.2344h-3.9062c0 0.94922 0.14062 1.6484 0.42188 2.0938 0.44531 0.58594 0.97656 0.89844 1.5938 0.9375 0.63281 0 1.1484-0.25781 1.5469-0.78125 0.13281-0.1875 0.25-0.40625 0.34375-0.65625 0.019531-0.125 0.078125-0.1875 0.17188-0.1875 0.125 0 0.1875 0.054687 0.1875 0.15625 0 0.21094-0.13281 0.49219-0.39062 0.84375-0.38672 0.52344-0.89062 0.83203-1.5156 0.9375-0.13672 0.03125-0.28125 0.046875-0.4375 0.046875-0.875 0-1.6211-0.33594-2.2344-1.0156-0.5625-0.61328-0.84375-1.3516-0.84375-2.2188 0-0.96875 0.33594-1.7695 1.0156-2.4062 0.53906-0.51953 1.1719-0.78125 1.8906-0.78125 1.0625 0 1.8008 0.44922 2.2188 1.3438 0.19531 0.41797 0.29688 0.88281 0.29688 1.3906 0 0.15625-0.03125 0.25-0.09375 0.28125-0.03125 0.011719-0.12109 0.015625-0.26562 0.015625zm-3.8906-0.29688h3.3281c0-0.88281-0.19922-1.5508-0.59375-2-0.26172-0.28906-0.59375-0.4375-1-0.4375-0.46875 0-0.87109 0.21875-1.2031 0.65625-0.32422 0.42969-0.5 1.0234-0.53125 1.7812z"/>
</symbol>
<symbol id="bn" overflow="visible">
<path d="m5.3125-0.76562c-0.48047 0.61719-1.1055 0.92188-1.875 0.92188-0.85547 0-1.5781-0.34375-2.1719-1.0312-0.53125-0.60156-0.79688-1.3164-0.79688-2.1406 0-0.96875 0.36328-1.7695 1.0938-2.4062 0.59375-0.50781 1.2695-0.76562 2.0312-0.76562 0.70703 0 1.2969 0.29297 1.7656 0.875v-3.0312c0-0.36328-0.0625-0.58594-0.1875-0.67188h-0.015625c-0.125-0.070313-0.42188-0.10938-0.89062-0.10938v-0.4375l2.0156-0.15625v8.5c0 0.36719 0.070312 0.58984 0.21875 0.67188h0.015625c0.125 0.074219 0.41016 0.10938 0.85938 0.10938v0.4375l-2.0625 0.15625zm0-3.75c0-0.1875-0.042969-0.34375-0.125-0.46875l-0.015625-0.0625c-0.38672-0.55078-0.89062-0.82812-1.5156-0.82812-0.65625 0-1.1836 0.29688-1.5781 0.89062-0.29297 0.44922-0.4375 1.1094-0.4375 1.9844s0.13281 1.5273 0.40625 1.9531c0.375 0.59375 0.86328 0.89062 1.4688 0.89062 0.66406 0 1.207-0.30469 1.625-0.92188l0.03125-0.0625c0.09375-0.1875 0.14062-0.35938 0.14062-0.51562z"/>
</symbol>
<symbol id="bk" overflow="visible">
<path d="m10 41.391c-1.293-1.3672-2.375-2.8672-3.25-4.5-0.86719-1.6367-1.5547-3.3555-2.0625-5.1562-0.5-1.793-0.85938-3.6328-1.0781-5.5156-0.21094-1.8867-0.3125-3.8125-0.3125-5.7812s0.10156-3.9023 0.3125-5.7969c0.21875-1.8867 0.57812-3.7305 1.0781-5.5312 0.50781-1.793 1.1953-3.5117 2.0625-5.1562 0.875-1.6367 1.957-3.125 3.25-4.4688 0.050781-0.03125 0.082031-0.046875 0.09375-0.046875h0.40625c0.03125 0 0.054688 0.015625 0.078125 0.046875 0.019531 0.03125 0.03125 0.058594 0.03125 0.078125 0 0.042969-0.011719 0.074219-0.03125 0.09375-1.168 1.375-2.1367 2.8828-2.9062 4.5312-0.77344 1.6445-1.375 3.3516-1.8125 5.125-0.42969 1.7812-0.72656 3.5781-0.89062 5.3906-0.16797 1.8203-0.25 3.7344-0.25 5.7344s0.082031 3.8984 0.25 5.7031c0.16406 1.8125 0.46094 3.6094 0.89062 5.3906 0.4375 1.7891 1.0391 3.5039 1.8125 5.1406 0.76953 1.6328 1.7383 3.1484 2.9062 4.5469 0.019531 0.007812 0.03125 0.035156 0.03125 0.078125 0 0.03125-0.015625 0.054687-0.046875 0.078125-0.023438 0.03125-0.042969 0.046875-0.0625 0.046875h-0.40625c-0.011719 0-0.027344-0.007813-0.046875-0.015625-0.023437 0-0.039063-0.007812-0.046875-0.015625z"/>
</symbol>
<symbol id="am" overflow="visible">
<path d="m6.6719-3.2969v0.85938c0.61328-0.75 1.0703-1.6719 1.375-2.7656 0.09375-0.1875 0.16406-0.28516 0.21875-0.29688 0.10156 0 0.15625 0.046875 0.15625 0.14062 0 0.15625-0.10547 0.51172-0.3125 1.0625-0.32422 0.80469-0.75781 1.543-1.2969 2.2188-0.09375 0.1875-0.14062 0.35547-0.14062 0.5 0 0.94922 0.14453 1.4219 0.4375 1.4219 0.28906 0 0.52344-0.16016 0.70312-0.48438 0.03125-0.0625 0.054688-0.12891 0.078125-0.20312 0.039063-0.09375 0.10156-0.14062 0.1875-0.14062 0.11328 0 0.17188 0.046875 0.17188 0.14062 0 0.17969-0.12109 0.39062-0.35938 0.64062-0.24219 0.23828-0.51562 0.35938-0.82812 0.35938-0.58594 0-0.98438-0.32031-1.2031-0.96875-0.023437-0.0625-0.042969-0.12891-0.0625-0.20312-0.98047 0.78125-1.9648 1.1719-2.9531 1.1719-0.875 0-1.5234-0.34766-1.9375-1.0469-0.21875-0.38281-0.32812-0.82812-0.32812-1.3281 0-0.94531 0.36328-1.8281 1.0938-2.6406 0.71875-0.80078 1.5312-1.2383 2.4375-1.3125 0.082031-0.007813 0.16016-0.015625 0.23438-0.015625 0.78125 0 1.3828 0.30859 1.8125 0.92188 0 0.011719 0.003906 0.015625 0.015625 0.015625 0.33203 0.49219 0.5 1.1406 0.5 1.9531zm-0.9375 1.9062c-0.011719-0.15625-0.015625-0.67578-0.015625-1.5625 0-1.1445-0.13281-1.9297-0.39062-2.3594-0.10547-0.1875-0.24219-0.32031-0.40625-0.40625l-0.015625-0.015625c-0.17969-0.09375-0.37109-0.14062-0.57812-0.14062-0.66797 0-1.2656 0.37109-1.7969 1.1094l-0.10938 0.17188c-0.33594 0.54297-0.57812 1.2969-0.73438 2.2656-0.054688 0.26172-0.078125 0.47656-0.078125 0.64062 0 0.79297 0.27344 1.2812 0.82812 1.4688 0.125 0.042969 0.26953 0.0625 0.4375 0.0625 0.96875 0 1.9219-0.41016 2.8594-1.2344z"/>
</symbol>
<symbol id="aa" overflow="visible">
<path d="m2.9375-6.4062v5.6094c0 0.21094 0.039062 0.33984 0.125 0.39062 0.11328 0.0625 0.38281 0.09375 0.8125 0.09375h0.3125v0.3125c-0.23047-0.019531-0.77344-0.03125-1.625-0.03125-0.84375 0-1.3828 0.011719-1.6094 0.03125v-0.3125h0.3125c0.51953 0 0.81641-0.054688 0.89062-0.17188v-0.015625c0.03125-0.050781 0.046875-0.14844 0.046875-0.29688v-5.1719c-0.34375 0.17969-0.78125 0.26562-1.3125 0.26562v-0.3125c0.80078 0 1.4062-0.21094 1.8125-0.64062 0.13281 0 0.21094 0.023438 0.23438 0.0625v0.015625 0.17188z"/>
</symbol>
<symbol id="z" overflow="visible">
<path d="m2.9375-6.4062v5.6094c0 0.21094 0.039062 0.33984 0.125 0.39062 0.11328 0.0625 0.38281 0.09375 0.8125 0.09375h0.3125v0.3125c-0.23047-0.019531-0.77344-0.03125-1.625-0.03125-0.84375 0-1.3828 0.011719-1.6094 0.03125v-0.3125h0.3125c0.51953 0 0.81641-0.054688 0.89062-0.17188v-0.015625c0.03125-0.050781 0.046875-0.14844 0.046875-0.29688v-5.1719c-0.34375 0.17969-0.78125 0.26562-1.3125 0.26562v-0.3125c0.80078 0 1.4062-0.21094 1.8125-0.64062 0.13281 0 0.21094 0.023438 0.23438 0.0625v0.015625 0.17188z"/>
</symbol>
<symbol id="c" overflow="visible">
<path d="m2.6875-3.5c0 0.3125-0.14062 0.53906-0.42188 0.67188-0.10547 0.042969-0.21094 0.0625-0.3125 0.0625-0.3125 0-0.53906-0.13281-0.67188-0.40625-0.054688-0.10156-0.078125-0.21094-0.078125-0.32812 0-0.3125 0.14062-0.53516 0.42188-0.67188 0.10156-0.039063 0.21094-0.0625 0.32812-0.0625 0.30078 0 0.52344 0.13672 0.67188 0.40625 0.039062 0.10547 0.0625 0.21484 0.0625 0.32812z"/>
</symbol>
<symbol id="y" overflow="visible">
<path d="m6.6719-3.2969v0.85938c0.61328-0.75 1.0703-1.6719 1.375-2.7656 0.09375-0.1875 0.16406-0.28516 0.21875-0.29688 0.10156 0 0.15625 0.046875 0.15625 0.14062 0 0.15625-0.10547 0.51172-0.3125 1.0625-0.32422 0.80469-0.75781 1.543-1.2969 2.2188-0.09375 0.1875-0.14062 0.35547-0.14062 0.5 0 0.94922 0.14453 1.4219 0.4375 1.4219 0.28906 0 0.52344-0.16016 0.70312-0.48438 0.03125-0.0625 0.054688-0.12891 0.078125-0.20312 0.039063-0.09375 0.10156-0.14062 0.1875-0.14062 0.11328 0 0.17188 0.046875 0.17188 0.14062 0 0.17969-0.12109 0.39062-0.35938 0.64062-0.24219 0.23828-0.51562 0.35938-0.82812 0.35938-0.58594 0-0.98438-0.32031-1.2031-0.96875-0.023437-0.0625-0.042969-0.12891-0.0625-0.20312-0.98047 0.78125-1.9648 1.1719-2.9531 1.1719-0.875 0-1.5234-0.34766-1.9375-1.0469-0.21875-0.38281-0.32812-0.82812-0.32812-1.3281 0-0.94531 0.36328-1.8281 1.0938-2.6406 0.71875-0.80078 1.5312-1.2383 2.4375-1.3125 0.082031-0.007813 0.16016-0.015625 0.23438-0.015625 0.78125 0 1.3828 0.30859 1.8125 0.92188 0 0.011719 0.003906 0.015625 0.015625 0.015625 0.33203 0.49219 0.5 1.1406 0.5 1.9531zm-0.9375 1.9062c-0.011719-0.15625-0.015625-0.67578-0.015625-1.5625 0-1.1445-0.13281-1.9297-0.39062-2.3594-0.10547-0.1875-0.24219-0.32031-0.40625-0.40625l-0.015625-0.015625c-0.17969-0.09375-0.37109-0.14062-0.57812-0.14062-0.66797 0-1.2656 0.37109-1.7969 1.1094l-0.10938 0.17188c-0.33594 0.54297-0.57812 1.2969-0.73438 2.2656-0.054688 0.26172-0.078125 0.47656-0.078125 0.64062 0 0.79297 0.27344 1.2812 0.82812 1.4688 0.125 0.042969 0.26953 0.0625 0.4375 0.0625 0.96875 0 1.9219-0.41016 2.8594-1.2344z"/>
</symbol>
<symbol id="x" overflow="visible">
<path d="m2.9375-6.4062v5.6094c0 0.21094 0.039062 0.33984 0.125 0.39062 0.11328 0.0625 0.38281 0.09375 0.8125 0.09375h0.3125v0.3125c-0.23047-0.019531-0.77344-0.03125-1.625-0.03125-0.84375 0-1.3828 0.011719-1.6094 0.03125v-0.3125h0.3125c0.51953 0 0.81641-0.054688 0.89062-0.17188v-0.015625c0.03125-0.050781 0.046875-0.14844 0.046875-0.29688v-5.1719c-0.34375 0.17969-0.78125 0.26562-1.3125 0.26562v-0.3125c0.80078 0 1.4062-0.21094 1.8125-0.64062 0.13281 0 0.21094 0.023438 0.23438 0.0625v0.015625 0.17188z"/>
</symbol>
<symbol id="w" overflow="visible">
<path d="m0.875-0.59375 0.57812-2.3125c0.11328-0.42578 0.17188-0.70312 0.17188-0.82812 0-0.3125-0.10547-0.46875-0.3125-0.46875-0.27344 0-0.49609 0.32031-0.67188 0.95312-0.023437 0.074219-0.042969 0.15234-0.0625 0.23438-0.074219 0.14844-0.13281 0.22656-0.17188 0.23438-0.074219 0-0.10938-0.03125-0.10938-0.09375 0-0.11328 0.0625-0.35156 0.1875-0.71875v-0.015625c0-0.007813 0.003906-0.015625 0.015625-0.015625v-0.015625l0.09375-0.20312c0.14453-0.26953 0.29688-0.4375 0.45312-0.5 0.09375-0.050781 0.19141-0.078125 0.29688-0.078125 0.375 0 0.64453 0.15625 0.8125 0.46875 0.050781 0.125 0.085938 0.26172 0.10938 0.40625 0.42578-0.58203 0.94141-0.875 1.5469-0.875 0.58203 0 0.94531 0.21875 1.0938 0.65625 0.039062 0.125 0.0625 0.26562 0.0625 0.42188 0 0.33594-0.20312 1.0625-0.60938 2.1875-0.11719 0.30469-0.17188 0.54297-0.17188 0.71875 0 0.21875 0.078125 0.32812 0.23438 0.32812 0.4375 0 0.77344-0.41016 1.0156-1.2344 0.03125-0.11328 0.066406-0.17188 0.10938-0.17188v-0.015625h0.046875c0.070312 0 0.10938 0.03125 0.10938 0.09375 0 0.11719-0.070313 0.32812-0.20312 0.64062-0.29297 0.60547-0.65625 0.90625-1.0938 0.90625-0.34375 0-0.58984-0.14062-0.73438-0.42188-0.0625-0.125-0.09375-0.25391-0.09375-0.39062 0-0.13281 0.035156-0.28906 0.10938-0.46875 0.42578-1.1641 0.64062-1.9414 0.64062-2.3281 0-0.46875-0.17969-0.70312-0.53125-0.70312-0.60547 0-1.1094 0.33594-1.5156 1-0.054688 0.074219-0.09375 0.14844-0.125 0.21875l-0.125 0.5c-0.03125 0.15625-0.089844 0.38281-0.17188 0.67188l-0.21875 0.90625c-0.11719 0.46094-0.17969 0.70312-0.1875 0.73438-0.0625 0.17578-0.1875 0.26953-0.375 0.28125-0.16797-0.03125-0.26172-0.11719-0.28125-0.26562 0 0.011719 0.023437-0.13281 0.078125-0.4375z"/>
</symbol>
<symbol id="a" overflow="visible">
<path d="m2.6875-0.73438c0 0.30469-0.14062 0.52734-0.42188 0.67188-0.10547 0.042969-0.21094 0.0625-0.3125 0.0625-0.3125 0-0.53906-0.14062-0.67188-0.42188-0.054688-0.10156-0.078125-0.20703-0.078125-0.3125 0-0.3125 0.14062-0.53516 0.42188-0.67188 0.10156-0.050781 0.21094-0.078125 0.32812-0.078125 0.30078 0 0.52344 0.14062 0.67188 0.42188 0.039062 0.10547 0.0625 0.21484 0.0625 0.32812z"/>
</symbol>
<symbol id="v" overflow="visible">
<path d="m6.6719-3.2969v0.85938c0.61328-0.75 1.0703-1.6719 1.375-2.7656 0.09375-0.1875 0.16406-0.28516 0.21875-0.29688 0.10156 0 0.15625 0.046875 0.15625 0.14062 0 0.15625-0.10547 0.51172-0.3125 1.0625-0.32422 0.80469-0.75781 1.543-1.2969 2.2188-0.09375 0.1875-0.14062 0.35547-0.14062 0.5 0 0.94922 0.14453 1.4219 0.4375 1.4219 0.28906 0 0.52344-0.16016 0.70312-0.48438 0.03125-0.0625 0.054688-0.12891 0.078125-0.20312 0.039063-0.09375 0.10156-0.14062 0.1875-0.14062 0.11328 0 0.17188 0.046875 0.17188 0.14062 0 0.17969-0.12109 0.39062-0.35938 0.64062-0.24219 0.23828-0.51562 0.35938-0.82812 0.35938-0.58594 0-0.98438-0.32031-1.2031-0.96875-0.023437-0.0625-0.042969-0.12891-0.0625-0.20312-0.98047 0.78125-1.9648 1.1719-2.9531 1.1719-0.875 0-1.5234-0.34766-1.9375-1.0469-0.21875-0.38281-0.32812-0.82812-0.32812-1.3281 0-0.94531 0.36328-1.8281 1.0938-2.6406 0.71875-0.80078 1.5312-1.2383 2.4375-1.3125 0.082031-0.007813 0.16016-0.015625 0.23438-0.015625 0.78125 0 1.3828 0.30859 1.8125 0.92188 0 0.011719 0.003906 0.015625 0.015625 0.015625 0.33203 0.49219 0.5 1.1406 0.5 1.9531zm-0.9375 1.9062c-0.011719-0.15625-0.015625-0.67578-0.015625-1.5625 0-1.1445-0.13281-1.9297-0.39062-2.3594-0.10547-0.1875-0.24219-0.32031-0.40625-0.40625l-0.015625-0.015625c-0.17969-0.09375-0.37109-0.14062-0.57812-0.14062-0.66797 0-1.2656 0.37109-1.7969 1.1094l-0.10938 0.17188c-0.33594 0.54297-0.57812 1.2969-0.73438 2.2656-0.054688 0.26172-0.078125 0.47656-0.078125 0.64062 0 0.79297 0.27344 1.2812 0.82812 1.4688 0.125 0.042969 0.26953 0.0625 0.4375 0.0625 0.96875 0 1.9219-0.41016 2.8594-1.2344z"/>
</symbol>
<symbol id="bj" overflow="visible">
<path d="m0.875-0.59375 0.57812-2.3125c0.11328-0.42578 0.17188-0.70312 0.17188-0.82812 0-0.3125-0.10547-0.46875-0.3125-0.46875-0.27344 0-0.49609 0.32031-0.67188 0.95312-0.023437 0.074219-0.042969 0.15234-0.0625 0.23438-0.074219 0.14844-0.13281 0.22656-0.17188 0.23438-0.074219 0-0.10938-0.03125-0.10938-0.09375 0-0.11328 0.0625-0.35156 0.1875-0.71875v-0.015625c0-0.007813 0.003906-0.015625 0.015625-0.015625v-0.015625l0.09375-0.20312c0.14453-0.26953 0.29688-0.4375 0.45312-0.5 0.09375-0.050781 0.19141-0.078125 0.29688-0.078125 0.375 0 0.64453 0.15625 0.8125 0.46875 0.050781 0.125 0.085938 0.26172 0.10938 0.40625 0.42578-0.58203 0.94141-0.875 1.5469-0.875 0.58203 0 0.94531 0.21875 1.0938 0.65625 0.039062 0.125 0.0625 0.26562 0.0625 0.42188 0 0.33594-0.20312 1.0625-0.60938 2.1875-0.11719 0.30469-0.17188 0.54297-0.17188 0.71875 0 0.21875 0.078125 0.32812 0.23438 0.32812 0.4375 0 0.77344-0.41016 1.0156-1.2344 0.03125-0.11328 0.066406-0.17188 0.10938-0.17188v-0.015625h0.046875c0.070312 0 0.10938 0.03125 0.10938 0.09375 0 0.11719-0.070313 0.32812-0.20312 0.64062-0.29297 0.60547-0.65625 0.90625-1.0938 0.90625-0.34375 0-0.58984-0.14062-0.73438-0.42188-0.0625-0.125-0.09375-0.25391-0.09375-0.39062 0-0.13281 0.035156-0.28906 0.10938-0.46875 0.42578-1.1641 0.64062-1.9414 0.64062-2.3281 0-0.46875-0.17969-0.70312-0.53125-0.70312-0.60547 0-1.1094 0.33594-1.5156 1-0.054688 0.074219-0.09375 0.14844-0.125 0.21875l-0.125 0.5c-0.03125 0.15625-0.089844 0.38281-0.17188 0.67188l-0.21875 0.90625c-0.11719 0.46094-0.17969 0.70312-0.1875 0.73438-0.0625 0.17578-0.1875 0.26953-0.375 0.28125-0.16797-0.03125-0.26172-0.11719-0.28125-0.26562 0 0.011719 0.023437-0.13281 0.078125-0.4375z"/>
</symbol>
<symbol id="bi" overflow="visible">
<path d="m2.9375-6.4062v5.6094c0 0.21094 0.039062 0.33984 0.125 0.39062 0.11328 0.0625 0.38281 0.09375 0.8125 0.09375h0.3125v0.3125c-0.23047-0.019531-0.77344-0.03125-1.625-0.03125-0.84375 0-1.3828 0.011719-1.6094 0.03125v-0.3125h0.3125c0.51953 0 0.81641-0.054688 0.89062-0.17188v-0.015625c0.03125-0.050781 0.046875-0.14844 0.046875-0.29688v-5.1719c-0.34375 0.17969-0.78125 0.26562-1.3125 0.26562v-0.3125c0.80078 0 1.4062-0.21094 1.8125-0.64062 0.13281 0 0.21094 0.023438 0.23438 0.0625v0.015625 0.17188z"/>
</symbol>
<symbol id="e" overflow="visible">
<path d="m2.6875-3.5c0 0.3125-0.14062 0.53906-0.42188 0.67188-0.10547 0.042969-0.21094 0.0625-0.3125 0.0625-0.3125 0-0.53906-0.13281-0.67188-0.40625-0.054688-0.10156-0.078125-0.21094-0.078125-0.32812 0-0.3125 0.14062-0.53516 0.42188-0.67188 0.10156-0.039063 0.21094-0.0625 0.32812-0.0625 0.30078 0 0.52344 0.13672 0.67188 0.40625 0.039062 0.10547 0.0625 0.21484 0.0625 0.32812z"/>
</symbol>
<symbol id="bh" overflow="visible">
<path d="m6.6719-3.2969v0.85938c0.61328-0.75 1.0703-1.6719 1.375-2.7656 0.09375-0.1875 0.16406-0.28516 0.21875-0.29688 0.10156 0 0.15625 0.046875 0.15625 0.14062 0 0.15625-0.10547 0.51172-0.3125 1.0625-0.32422 0.80469-0.75781 1.543-1.2969 2.2188-0.09375 0.1875-0.14062 0.35547-0.14062 0.5 0 0.94922 0.14453 1.4219 0.4375 1.4219 0.28906 0 0.52344-0.16016 0.70312-0.48438 0.03125-0.0625 0.054688-0.12891 0.078125-0.20312 0.039063-0.09375 0.10156-0.14062 0.1875-0.14062 0.11328 0 0.17188 0.046875 0.17188 0.14062 0 0.17969-0.12109 0.39062-0.35938 0.64062-0.24219 0.23828-0.51562 0.35938-0.82812 0.35938-0.58594 0-0.98438-0.32031-1.2031-0.96875-0.023437-0.0625-0.042969-0.12891-0.0625-0.20312-0.98047 0.78125-1.9648 1.1719-2.9531 1.1719-0.875 0-1.5234-0.34766-1.9375-1.0469-0.21875-0.38281-0.32812-0.82812-0.32812-1.3281 0-0.94531 0.36328-1.8281 1.0938-2.6406 0.71875-0.80078 1.5312-1.2383 2.4375-1.3125 0.082031-0.007813 0.16016-0.015625 0.23438-0.015625 0.78125 0 1.3828 0.30859 1.8125 0.92188 0 0.011719 0.003906 0.015625 0.015625 0.015625 0.33203 0.49219 0.5 1.1406 0.5 1.9531zm-0.9375 1.9062c-0.011719-0.15625-0.015625-0.67578-0.015625-1.5625 0-1.1445-0.13281-1.9297-0.39062-2.3594-0.10547-0.1875-0.24219-0.32031-0.40625-0.40625l-0.015625-0.015625c-0.17969-0.09375-0.37109-0.14062-0.57812-0.14062-0.66797 0-1.2656 0.37109-1.7969 1.1094l-0.10938 0.17188c-0.33594 0.54297-0.57812 1.2969-0.73438 2.2656-0.054688 0.26172-0.078125 0.47656-0.078125 0.64062 0 0.79297 0.27344 1.2812 0.82812 1.4688 0.125 0.042969 0.26953 0.0625 0.4375 0.0625 0.96875 0 1.9219-0.41016 2.8594-1.2344z"/>
</symbol>
<symbol id="bg" overflow="visible">
<path d="m0.875-0.59375 0.57812-2.3125c0.11328-0.42578 0.17188-0.70312 0.17188-0.82812 0-0.3125-0.10547-0.46875-0.3125-0.46875-0.27344 0-0.49609 0.32031-0.67188 0.95312-0.023437 0.074219-0.042969 0.15234-0.0625 0.23438-0.074219 0.14844-0.13281 0.22656-0.17188 0.23438-0.074219 0-0.10938-0.03125-0.10938-0.09375 0-0.11328 0.0625-0.35156 0.1875-0.71875v-0.015625c0-0.007813 0.003906-0.015625 0.015625-0.015625v-0.015625l0.09375-0.20312c0.14453-0.26953 0.29688-0.4375 0.45312-0.5 0.09375-0.050781 0.19141-0.078125 0.29688-0.078125 0.375 0 0.64453 0.15625 0.8125 0.46875 0.050781 0.125 0.085938 0.26172 0.10938 0.40625 0.42578-0.58203 0.94141-0.875 1.5469-0.875 0.58203 0 0.94531 0.21875 1.0938 0.65625 0.039062 0.125 0.0625 0.26562 0.0625 0.42188 0 0.33594-0.20312 1.0625-0.60938 2.1875-0.11719 0.30469-0.17188 0.54297-0.17188 0.71875 0 0.21875 0.078125 0.32812 0.23438 0.32812 0.4375 0 0.77344-0.41016 1.0156-1.2344 0.03125-0.11328 0.066406-0.17188 0.10938-0.17188v-0.015625h0.046875c0.070312 0 0.10938 0.03125 0.10938 0.09375 0 0.11719-0.070313 0.32812-0.20312 0.64062-0.29297 0.60547-0.65625 0.90625-1.0938 0.90625-0.34375 0-0.58984-0.14062-0.73438-0.42188-0.0625-0.125-0.09375-0.25391-0.09375-0.39062 0-0.13281 0.035156-0.28906 0.10938-0.46875 0.42578-1.1641 0.64062-1.9414 0.64062-2.3281 0-0.46875-0.17969-0.70312-0.53125-0.70312-0.60547 0-1.1094 0.33594-1.5156 1-0.054688 0.074219-0.09375 0.14844-0.125 0.21875l-0.125 0.5c-0.03125 0.15625-0.089844 0.38281-0.17188 0.67188l-0.21875 0.90625c-0.11719 0.46094-0.17969 0.70312-0.1875 0.73438-0.0625 0.17578-0.1875 0.26953-0.375 0.28125-0.16797-0.03125-0.26172-0.11719-0.28125-0.26562 0 0.011719 0.023437-0.13281 0.078125-0.4375z"/>
</symbol>
<symbol id="bf" overflow="visible">
<path d="m0.875-0.59375 0.57812-2.3125c0.11328-0.42578 0.17188-0.70312 0.17188-0.82812 0-0.3125-0.10547-0.46875-0.3125-0.46875-0.27344 0-0.49609 0.32031-0.67188 0.95312-0.023437 0.074219-0.042969 0.15234-0.0625 0.23438-0.074219 0.14844-0.13281 0.22656-0.17188 0.23438-0.074219 0-0.10938-0.03125-0.10938-0.09375 0-0.11328 0.0625-0.35156 0.1875-0.71875v-0.015625c0-0.007813 0.003906-0.015625 0.015625-0.015625v-0.015625l0.09375-0.20312c0.14453-0.26953 0.29688-0.4375 0.45312-0.5 0.09375-0.050781 0.19141-0.078125 0.29688-0.078125 0.375 0 0.64453 0.15625 0.8125 0.46875 0.050781 0.125 0.085938 0.26172 0.10938 0.40625 0.42578-0.58203 0.94141-0.875 1.5469-0.875 0.58203 0 0.94531 0.21875 1.0938 0.65625 0.039062 0.125 0.0625 0.26562 0.0625 0.42188 0 0.33594-0.20312 1.0625-0.60938 2.1875-0.11719 0.30469-0.17188 0.54297-0.17188 0.71875 0 0.21875 0.078125 0.32812 0.23438 0.32812 0.4375 0 0.77344-0.41016 1.0156-1.2344 0.03125-0.11328 0.066406-0.17188 0.10938-0.17188v-0.015625h0.046875c0.070312 0 0.10938 0.03125 0.10938 0.09375 0 0.11719-0.070313 0.32812-0.20312 0.64062-0.29297 0.60547-0.65625 0.90625-1.0938 0.90625-0.34375 0-0.58984-0.14062-0.73438-0.42188-0.0625-0.125-0.09375-0.25391-0.09375-0.39062 0-0.13281 0.035156-0.28906 0.10938-0.46875 0.42578-1.1641 0.64062-1.9414 0.64062-2.3281 0-0.46875-0.17969-0.70312-0.53125-0.70312-0.60547 0-1.1094 0.33594-1.5156 1-0.054688 0.074219-0.09375 0.14844-0.125 0.21875l-0.125 0.5c-0.03125 0.15625-0.089844 0.38281-0.17188 0.67188l-0.21875 0.90625c-0.11719 0.46094-0.17969 0.70312-0.1875 0.73438-0.0625 0.17578-0.1875 0.26953-0.375 0.28125-0.16797-0.03125-0.26172-0.11719-0.28125-0.26562 0 0.011719 0.023437-0.13281 0.078125-0.4375z"/>
</symbol>
<symbol id="be" overflow="visible">
<path d="m0.59375 41.422c-0.085938 0-0.125-0.042969-0.125-0.125 0-0.042969 0.007812-0.070313 0.03125-0.078125 1.1562-1.375 2.125-2.8906 2.9062-4.5469 0.78125-1.6484 1.3828-3.3594 1.8125-5.1406 0.42578-1.7812 0.72266-3.5781 0.89062-5.3906 0.16406-1.8047 0.25-3.7031 0.25-5.7031s-0.085937-3.9141-0.25-5.7344c-0.16797-1.8125-0.46484-3.6055-0.89062-5.375-0.42969-1.7734-1.0312-3.4922-1.8125-5.1562-0.78125-1.6562-1.75-3.1641-2.9062-4.5156-0.023438-0.019531-0.03125-0.050781-0.03125-0.09375 0-0.082031 0.039062-0.125 0.125-0.125h0.39062c0.007813 0 0.039063 0.015625 0.09375 0.046875 1.2812 1.332 2.3594 2.8203 3.2344 4.4688 0.88281 1.6445 1.5781 3.375 2.0781 5.1875s0.85156 3.6445 1.0625 5.5c0.20703 1.8516 0.3125 3.7852 0.3125 5.7969 0 2.0078-0.10547 3.9375-0.3125 5.7812-0.21094 1.8516-0.5625 3.6875-1.0625 5.5s-1.1875 3.5391-2.0625 5.1875c-0.875 1.6445-1.9609 3.1406-3.25 4.4844-0.054687 0.019531-0.085937 0.03125-0.09375 0.03125z"/>
</symbol>
<symbol id="bd" overflow="visible">
<path d="m11.641-5.1562-0.5625 5.1562h-10.422v-0.625h0.48438c0.86328 0 1.3633-0.10938 1.5-0.32812 0.050781-0.09375 0.078125-0.29688 0.078125-0.60938v-10.531c0-0.40625-0.078125-0.66016-0.23438-0.76562-0.1875-0.125-0.63672-0.1875-1.3438-0.1875h-0.48438v-0.60938c0.46875 0.042969 1.4844 0.0625 3.0469 0.0625 1.7578 0 2.8789-0.019531 3.3594-0.0625v0.60938h-0.65625c-1.0742 0-1.6836 0.13672-1.8281 0.40625-0.054687 0.09375-0.078125 0.28125-0.078125 0.5625v10.656c0 0.40625 0.070312 0.64062 0.21875 0.70312h0.015625c0.125 0.0625 0.375 0.09375 0.75 0.09375h1.6406c1.875 0 3.0703-0.75 3.5938-2.25 0.17578-0.5 0.31641-1.2578 0.42188-2.2812z"/>
</symbol>
<symbol id="bc" overflow="visible">
<path d="m6.6562-1.5156c-0.33594 0.82422-0.91797 1.3594-1.75 1.6094-0.27344 0.082031-0.55859 0.125-0.85938 0.125-1.1367 0-2.0117-0.26953-2.625-0.8125-0.38672-0.35156-0.57812-0.78906-0.57812-1.3125 0-1.0195 0.56641-1.8359 1.7031-2.4531 0.09375-0.050781 0.19141-0.097656 0.29688-0.14062 0.8125-0.38281 2.0039-0.625 3.5781-0.71875h0.09375v-0.73438c0-1.1328-0.40625-1.9141-1.2188-2.3438-0.28125-0.14453-0.57812-0.21875-0.89062-0.21875-0.88672 0-1.5703 0.26172-2.0469 0.78125-0.042969 0.054687-0.085937 0.10156-0.125 0.14062 0.63281 0.074219 0.97656 0.375 1.0312 0.90625 0 0.46094-0.21094 0.75781-0.625 0.89062-0.09375 0.023437-0.19531 0.03125-0.29688 0.03125-0.48047 0-0.77734-0.21875-0.89062-0.65625-0.023437-0.0625-0.03125-0.15625-0.03125-0.28125 0-0.80078 0.42188-1.4141 1.2656-1.8438 0.50781-0.26953 1.0938-0.40625 1.75-0.40625 1.0938 0 2.0078 0.36719 2.75 1.0938 0.45703 0.48047 0.69531 1.1484 0.71875 2v4.3594c0 0.38672 0.11719 0.67188 0.35938 0.85938 0.10156 0.09375 0.22656 0.14062 0.375 0.14062 0.46875 0 0.70703-0.42578 0.71875-1.2812v-1.125h0.5v1.125c0 0.98047-0.40234 1.5898-1.2031 1.8281-0.15625 0.050781-0.30469 0.078125-0.4375 0.078125-0.65625 0-1.125-0.34766-1.4062-1.0469-0.074219-0.1875-0.125-0.38281-0.15625-0.59375zm-0.14062-3.2812c-2.0547 0.074219-3.3594 0.69922-3.9219 1.875-0.14844 0.32422-0.21875 0.65625-0.21875 1 0 0.67969 0.30469 1.1797 0.92188 1.5 0.26953 0.13672 0.56641 0.20312 0.89062 0.20312 0.6875 0 1.2656-0.27344 1.7344-0.82812 0.39453-0.44531 0.59375-1.0312 0.59375-1.75z"/>
</symbol>
<symbol id="bb" overflow="visible">
<path d="m3.4375-1.5625c0 0.41797 0.082031 0.67188 0.25 0.76562l0.015625 0.015625c0.1875 0.10547 0.60156 0.15625 1.25 0.15625h0.42188v0.625c-0.53125-0.039062-1.375-0.0625-2.5312-0.0625 0.039062 0-0.71875 0.023438-2.2812 0.0625v-0.625c0.78125 0 1.2383-0.054688 1.375-0.17188l0.046875-0.046875c0.09375-0.10156 0.14062-0.32812 0.14062-0.67188v-5.3594c0-0.51953-0.10547-0.84375-0.3125-0.96875-0.15625-0.09375-0.44531-0.14453-0.85938-0.15625h-0.39062v-0.625l2.7812-0.21875v2.2031c0.35156-1.1133 0.94531-1.8125 1.7812-2.0938 0.20703-0.070313 0.42969-0.10938 0.67188-0.10938 0.625 0 1.0703 0.23438 1.3438 0.70312 0.09375 0.15625 0.14062 0.32812 0.14062 0.51562 0 0.46875-0.21875 0.75781-0.65625 0.85938-0.074219 0.023437-0.14062 0.03125-0.20312 0.03125-0.41797 0-0.68359-0.17969-0.79688-0.54688-0.042969-0.09375-0.0625-0.19531-0.0625-0.3125 0-0.36328 0.14844-0.625 0.45312-0.78125-0.023437-0.019531-0.09375-0.03125-0.21875-0.03125-0.89844 0-1.5586 0.54688-1.9844 1.6406-0.25 0.63672-0.375 1.3438-0.375 2.125z"/>
</symbol>
<symbol id="p" overflow="visible">
<path d="m4.4375-3.4375c0.58203 0 1.0547-0.26562 1.4219-0.79688 0.21875-0.36328 0.32812-0.92578 0.32812-1.6875-0.0625-1.5938-0.64844-2.4102-1.75-2.4531-0.58594 0-1.0586 0.26562-1.4219 0.79688-0.21094 0.35547-0.3125 0.91406-0.3125 1.6719 0.050781 1.6055 0.62891 2.4297 1.7344 2.4688zm-1.9844-0.15625c-0.21875 0.26172-0.32812 0.57422-0.32812 0.9375 0 0.54297 0.21094 0.94531 0.64062 1.2031 0.125 0.074219 0.26562 0.12109 0.42188 0.14062 0.082031 0.011719 0.58203 0.015625 1.5 0.015625 1.3633 0 2.3633 0.12109 3 0.35938 0.14453 0.054688 0.28906 0.12109 0.4375 0.20312 0.8125 0.53125 1.2422 1.2891 1.2969 2.2812 0 0.86328-0.5625 1.5391-1.6875 2.0312-0.79297 0.36328-1.7109 0.54688-2.75 0.54688-1.5547 0-2.7617-0.35938-3.625-1.0781-0.53125-0.42969-0.79688-0.91797-0.79688-1.4688 0-0.66797 0.33594-1.2148 1.0156-1.6406 0.23828-0.15625 0.51562-0.27344 0.82812-0.35938-0.55469-0.42578-0.85156-1.0195-0.89062-1.7812 0-0.625 0.20703-1.1758 0.625-1.6562-0.60547-0.57031-0.91797-1.2578-0.9375-2.0625 0-0.91406 0.39844-1.6719 1.2031-2.2656 0.58203-0.4375 1.2578-0.65625 2.0312-0.65625 0.80078 0 1.5078 0.24219 2.125 0.71875 0.63281-0.625 1.3438-0.9375 2.125-0.9375 0.50781 0 0.83203 0.24219 0.96875 0.71875 0.03125 0.085938 0.046875 0.17188 0.046875 0.26562-0.054687 0.34375-0.24609 0.54297-0.57812 0.59375-0.29297 0-0.48047-0.14062-0.5625-0.42188-0.011719-0.050781-0.015625-0.10156-0.015625-0.15625 0-0.28125 0.10156-0.45703 0.3125-0.53125-0.042969-0.019531-0.10938-0.03125-0.20312-0.03125-0.64844 0-1.2461 0.26172-1.7969 0.78125 0.55078 0.51172 0.82812 1.1562 0.82812 1.9375 0 0.92969-0.40234 1.6836-1.2031 2.2656-0.59375 0.4375-1.2773 0.65625-2.0469 0.65625-0.75 0-1.4141-0.20312-1.9844-0.60938zm2.5469 7.25c1.2695 0 2.2266-0.33594 2.875-1 0.33203-0.33594 0.5-0.69531 0.5-1.0781 0-0.99219-0.78906-1.5469-2.3594-1.6719h-0.015625c-0.34375-0.03125-0.87109-0.046875-1.5781-0.046875h-1.1875c-0.625 0.042969-1.1016 0.34375-1.4219 0.90625-0.14844 0.25-0.21875 0.51953-0.21875 0.8125 0 0.625 0.39062 1.1445 1.1719 1.5625 0.625 0.34375 1.3672 0.51562 2.2344 0.51562z"/>
</symbol>
<symbol id="ba" overflow="visible">
<path d="m7.7969-4.625h-5.5781c0 1.3672 0.19531 2.3672 0.59375 3 0.64453 0.83594 1.3984 1.2812 2.2656 1.3438 0.91406 0 1.6562-0.375 2.2188-1.125 0.19531-0.25781 0.35938-0.57031 0.48438-0.9375 0.039062-0.1875 0.12891-0.28125 0.26562-0.28125 0.16406 0 0.25 0.085938 0.25 0.25 0 0.29297-0.1875 0.6875-0.5625 1.1875-0.54297 0.75-1.2617 1.1953-2.1562 1.3438-0.19922 0.039062-0.40625 0.0625-0.625 0.0625-1.25 0-2.3125-0.47656-3.1875-1.4375-0.80469-0.88281-1.2031-1.9453-1.2031-3.1875 0-1.3828 0.47656-2.5312 1.4375-3.4375 0.76953-0.73828 1.6758-1.1094 2.7188-1.1094 1.5078 0 2.5625 0.63672 3.1562 1.9062 0.28125 0.60547 0.42188 1.2734 0.42188 2 0 0.23047-0.046875 0.36719-0.14062 0.40625-0.042969 0.011719-0.16406 0.015625-0.35938 0.015625zm-5.5625-0.42188h4.75c0-1.2578-0.28125-2.2109-0.84375-2.8594-0.375-0.40625-0.85156-0.60938-1.4219-0.60938-0.67969 0-1.25 0.3125-1.7188 0.9375-0.46875 0.59375-0.72656 1.4375-0.76562 2.5312z"/>
</symbol>
<symbol id="az" overflow="visible">
<path d="m4.4844-7.0625h2.2188c2.2266-0.13281 3.375-1.1328 3.4375-3 0-1.5938-0.73047-2.5391-2.1875-2.8438-0.42969-0.09375-1.0469-0.14062-1.8594-0.14062-0.64844 0-1.0391 0.015625-1.1719 0.046875-0.25 0.042969-0.39062 0.18359-0.42188 0.42188l-0.015625 0.015625zm4.2188 0.26562c1.3203 0.44922 2.1328 1.2188 2.4375 2.3125l0.26562 1.6094c0.19531 1.3359 0.39844 2.1523 0.60938 2.4531 0.082031 0.125 0.17578 0.21875 0.28125 0.28125 0.14453 0.09375 0.31641 0.14062 0.51562 0.14062 0.58203 0 0.98438-0.35938 1.2031-1.0781 0.050781-0.19531 0.09375-0.42969 0.125-0.70312 0.03125-0.19531 0.10938-0.30078 0.23438-0.3125 0.17578 0 0.26562 0.10938 0.26562 0.32812 0 0.63672-0.19531 1.1797-0.57812 1.625-0.054688 0.0625-0.11719 0.125-0.1875 0.1875-0.30469 0.25781-0.68359 0.39062-1.1406 0.39062-1.0312 0-1.8711-0.28125-2.5156-0.84375-0.49219-0.44531-0.75781-1.0781-0.79688-1.8906-0.011719-0.28906-0.015625-0.61328-0.015625-0.96875 0-0.97656-0.085938-1.6328-0.25-1.9688-0.10547-0.23828-0.27734-0.47266-0.51562-0.70312-0.46875-0.45703-1.0898-0.6875-1.8594-0.6875h-2.2969v5.0625c0 0.40625 0.078125 0.66406 0.23438 0.76562 0.1875 0.11719 0.63281 0.17188 1.3438 0.17188h0.48438v0.625c-0.49219-0.039062-1.4648-0.0625-2.9219-0.0625-1.4688 0-2.4453 0.023438-2.9219 0.0625v-0.625h0.48438c0.86328 0 1.3633-0.10938 1.5-0.32812 0.050781-0.09375 0.078125-0.29688 0.078125-0.60938v-10.531c0-0.40625-0.085937-0.66016-0.25-0.76562-0.1875-0.125-0.63281-0.1875-1.3281-0.1875h-0.48438v-0.60938h6.2812c1.6641 0 3.0195 0.45312 4.0625 1.3594 0.76953 0.66797 1.1562 1.4141 1.1562 2.2344 0 1.0312-0.60156 1.8906-1.7969 2.5781-0.51172 0.29297-1.0781 0.52344-1.7031 0.6875z"/>
</symbol>
<symbol id="ay" overflow="visible">
<path d="m3.5469-8.8438v7.3438c0 0.41797 0.078125 0.67188 0.23438 0.76562 0.15625 0.074219 0.53906 0.10938 1.1562 0.10938v0.625c-1.3555-0.039062-2.0469-0.0625-2.0781-0.0625-0.1875 0-0.92188 0.023438-2.2031 0.0625v-0.625c0.78906 0 1.2539-0.054688 1.3906-0.17188l0.03125-0.046875c0.09375-0.10156 0.14062-0.32812 0.14062-0.67188v-5.3906c0-0.53125-0.10547-0.84766-0.3125-0.95312h-0.03125l-0.015625-0.015625c-0.17969-0.082031-0.55469-0.125-1.125-0.125v-0.625zm0.078125-3.4688c0 0.49219-0.22656 0.8125-0.67188 0.96875-0.125 0.054688-0.25781 0.078125-0.39062 0.078125-0.46875 0-0.79688-0.21094-0.98438-0.64062v-0.015625c-0.054687-0.13281-0.078125-0.26562-0.078125-0.39062 0-0.41406 0.1875-0.72266 0.5625-0.92188 0.14453-0.09375 0.3125-0.14062 0.5-0.14062 0.44531 0 0.76562 0.19922 0.95312 0.59375 0.070313 0.14844 0.10938 0.30469 0.10938 0.46875z"/>
</symbol>
<symbol id="ax" overflow="visible">
<path d="m9.1406-5.0469v3.8281c0.007813 0.32422 0.20312 0.51172 0.57812 0.5625 0.15625 0.023438 0.48438 0.03125 0.98438 0.03125v0.625c-1.3672-0.039062-2.1172-0.0625-2.25-0.0625-0.10547 0-0.85547 0.023438-2.25 0.0625v-0.625c0.78125 0 1.2383-0.054688 1.375-0.17188l0.046875-0.046875c0.09375-0.10156 0.14062-0.32812 0.14062-0.67188v-4.6719c0-1.3125-0.38281-2.0352-1.1406-2.1719-0.11719-0.03125-0.23047-0.046875-0.34375-0.046875-0.8125 0-1.4961 0.35547-2.0469 1.0625-0.4375 0.57422-0.65625 1.2891-0.65625 2.1406v3.6875c0 0.44922 0.10938 0.71484 0.32812 0.79688 0.14453 0.0625 0.55469 0.09375 1.2344 0.09375v0.625c-1.3672-0.039062-2.1094-0.0625-2.2344-0.0625-0.11719 0-0.87109 0.023438-2.2656 0.0625v-0.625c0.78125 0 1.2383-0.054688 1.375-0.17188l0.046875-0.046875c0.09375-0.10156 0.14062-0.32812 0.14062-0.67188v-10.406c0-0.51953-0.09375-0.83594-0.28125-0.95312h-0.015625c-0.14844-0.082031-0.40234-0.14062-0.76562-0.17188h-0.5v-0.60938l2.875-0.21875v6.9531h0.03125c0.35156-0.8125 0.92578-1.3789 1.7188-1.7031 0.40625-0.125 0.78906-0.19531 1.1562-0.21875 1 0 1.6953 0.25 2.0938 0.75 0.36328 0.40625 0.56641 0.96875 0.60938 1.6875 0.007812 0.26172 0.015625 0.71484 0.015625 1.3594z"/>
</symbol>
<symbol id="aw" overflow="visible">
<path d="m3.4531-8v5.5625c0 1.3359 0.39062 2.0469 1.1719 2.1406 0.050781 0.011719 0.10938 0.015625 0.17188 0.015625 0.57031 0 0.97266-0.375 1.2031-1.125 0.09375-0.3125 0.14062-0.67969 0.14062-1.1094v-1.1094h0.5v1.1406c0 1.0938-0.30859 1.8828-0.92188 2.3594-0.29297 0.22656-0.64844 0.34375-1.0625 0.34375-1.1172 0-1.8828-0.42188-2.2969-1.2656-0.1875-0.39453-0.28125-0.875-0.28125-1.4375v-5.5156h-1.7031v-0.4375c1.1875-0.050781 1.9727-0.80078 2.3594-2.25 0.13281-0.5 0.20703-1.0352 0.21875-1.6094h0.5v3.6719h2.8594v0.625z"/>
</symbol>
<symbol id="av" overflow="visible">
<path d="m2.7031-2.5156c-0.74219-0.15625-1.2305-0.30078-1.4688-0.4375-0.085937-0.039063-0.16797-0.097656-0.25-0.17188-0.375-0.30078-0.5625-0.66406-0.5625-1.0938 0-0.61328 0.26953-1.0547 0.8125-1.3281 0.33203-0.1875 0.75781-0.28125 1.2812-0.28125 0.47656 0 0.88281 0.125 1.2188 0.375 0.09375-0.082031 0.16406-0.15625 0.21875-0.21875 0.11328-0.10156 0.20312-0.15625 0.26562-0.15625 0.082031 0.085937 0.12891 0.1875 0.14062 0.3125v1.3125c0 0.1875-0.027344 0.28906-0.078125 0.29688h-0.015625l-0.015625 0.015625h-0.0625c-0.09375 0-0.14844-0.035156-0.15625-0.10938-0.0625-0.875-0.42188-1.3828-1.0781-1.5312-0.13672-0.03125-0.28125-0.046875-0.4375-0.046875-0.82422 0-1.3047 0.25-1.4375 0.75-0.023437 0.085937-0.03125 0.16406-0.03125 0.23438 0 0.44922 0.33203 0.76172 1 0.9375 0.13281 0.042969 0.33594 0.089844 0.60938 0.14062 0.625 0.11719 1.0664 0.28125 1.3281 0.5 0.050781 0.03125 0.10156 0.070313 0.15625 0.10938 0.36328 0.36719 0.54688 0.78125 0.54688 1.25 0 0.73047-0.30859 1.2461-0.92188 1.5469-0.32422 0.16406-0.71484 0.25-1.1719 0.25-0.57422 0-1.0547-0.1875-1.4375-0.5625l-0.26562 0.3125c-0.16797 0.16406-0.27344 0.25-0.3125 0.25-0.09375-0.074219-0.14844-0.17578-0.15625-0.3125v-1.7188c0-0.1875 0.03125-0.28906 0.09375-0.3125h0.078125c0.09375 0 0.14844 0.046875 0.17188 0.14062 0 0.011719 0.003906 0.039062 0.015625 0.078125 0.22656 1 0.65625 1.5938 1.2812 1.7812 0.15625 0.042969 0.33203 0.0625 0.53125 0.0625 0.76953 0 1.2383-0.27344 1.4062-0.82812 0.039062-0.10156 0.0625-0.22266 0.0625-0.35938 0-0.63281-0.45312-1.0312-1.3594-1.1875z"/>
</symbol>
<symbol id="au" overflow="visible">
<path d="m1.4375-4.4688c0-0.34375-0.070312-0.55078-0.20312-0.625-0.10547-0.0625-0.29297-0.097656-0.5625-0.10938h-0.25v-0.40625l1.8281-0.14062v1.375c0.40625-0.91406 1.0469-1.375 1.9219-1.375 1.0078 0 1.5859 0.42969 1.7344 1.2812 0.25781-0.59375 0.66406-0.98438 1.2188-1.1719 0.20703-0.070313 0.42578-0.10938 0.65625-0.10938 0.65625 0 1.1133 0.16406 1.375 0.48438 0.22656 0.27344 0.35938 0.64062 0.39062 1.1094 0.007813 0.16797 0.015625 0.46094 0.015625 0.875v2.4844c0 0.21094 0.125 0.33594 0.375 0.375 0.10156 0.011719 0.3125 0.015625 0.625 0.015625v0.40625c-0.875-0.019531-1.3594-0.03125-1.4531-0.03125-0.0625 0-0.55469 0.011719-1.4688 0.03125v-0.40625c0.50781 0 0.8125-0.035156 0.90625-0.10938l0.015625-0.03125c0.0625-0.070313 0.09375-0.21875 0.09375-0.4375v-3.0312c0-0.85156-0.24609-1.3281-0.73438-1.4219-0.074219-0.007812-0.14844-0.015625-0.21875-0.015625-0.53125 0-0.97656 0.23047-1.3281 0.6875-0.29297 0.36719-0.4375 0.82812-0.4375 1.3906v2.3906c0 0.29297 0.070312 0.46484 0.21875 0.51562 0.09375 0.042969 0.35938 0.0625 0.79688 0.0625v0.40625c-0.88672-0.019531-1.3711-0.03125-1.4531-0.03125-0.074219 0-0.5625 0.011719-1.4688 0.03125v-0.40625c0.50781 0 0.80469-0.035156 0.89062-0.10938l0.03125-0.03125c0.0625-0.070313 0.09375-0.21875 0.09375-0.4375v-3.0312c0-0.85156-0.25-1.3281-0.75-1.4219-0.0625-0.007812-0.13672-0.015625-0.21875-0.015625-0.53125 0-0.97656 0.23047-1.3281 0.6875-0.28125 0.36719-0.42188 0.82812-0.42188 1.3906v2.3906c0 0.29297 0.066406 0.46484 0.20312 0.51562 0.09375 0.042969 0.36328 0.0625 0.8125 0.0625v0.40625c-0.88672-0.019531-1.3711-0.03125-1.4531-0.03125-0.074219 0-0.5625 0.011719-1.4688 0.03125v-0.40625c0.50781 0 0.80469-0.035156 0.89062-0.10938l0.03125-0.03125c0.0625-0.070313 0.09375-0.21875 0.09375-0.4375z"/>
</symbol>
<symbol id="at" overflow="visible">
<path d="m4.3281-0.98438c-0.21875 0.53125-0.60156 0.88281-1.1406 1.0469-0.17969 0.050781-0.36719 0.078125-0.5625 0.078125-0.74219 0-1.3086-0.17578-1.7031-0.53125-0.25-0.22656-0.375-0.50781-0.375-0.84375 0-0.66406 0.36719-1.1953 1.1094-1.5938 0.050781-0.039063 0.11328-0.070313 0.1875-0.09375 0.53125-0.25 1.3047-0.40625 2.3281-0.46875h0.0625v-0.48438c0-0.73828-0.26562-1.2422-0.79688-1.5156-0.17969-0.09375-0.37109-0.14062-0.57812-0.14062-0.57422 0-1.0156 0.16797-1.3281 0.5-0.023438 0.03125-0.046875 0.0625-0.078125 0.09375 0.40625 0.054688 0.62891 0.25 0.67188 0.59375 0 0.29297-0.13672 0.48438-0.40625 0.57812-0.0625 0.011719-0.13281 0.015625-0.20312 0.015625-0.3125 0-0.5-0.14062-0.5625-0.42188-0.023437-0.039063-0.03125-0.10156-0.03125-0.1875 0-0.51953 0.26953-0.91406 0.8125-1.1875 0.34375-0.1875 0.72656-0.28125 1.1562-0.28125 0.70703 0 1.3008 0.24219 1.7812 0.71875 0.30078 0.3125 0.45703 0.74609 0.46875 1.2969v2.8438c0 0.25 0.078125 0.43359 0.23438 0.54688 0.0625 0.0625 0.14062 0.09375 0.23438 0.09375 0.3125 0 0.46875-0.27344 0.46875-0.82812v-0.73438h0.32812v0.73438c0 0.63672-0.26172 1.0312-0.78125 1.1875-0.10547 0.03125-0.19922 0.046875-0.28125 0.046875-0.42969 0-0.73047-0.22266-0.90625-0.67188-0.054688-0.125-0.089844-0.25391-0.10938-0.39062zm-0.09375-2.1406c-1.3359 0.054688-2.1836 0.46484-2.5469 1.2344-0.09375 0.19922-0.14062 0.41406-0.14062 0.64062 0 0.44922 0.19531 0.77734 0.59375 0.98438 0.17578 0.085937 0.36719 0.125 0.57812 0.125 0.44531 0 0.82031-0.17578 1.125-0.53125 0.25781-0.30078 0.39062-0.67969 0.39062-1.1406z"/>
</symbol>
<symbol id="o" overflow="visible">
<path d="m2.2969-9.0156v8.0312c0 0.29297 0.070313 0.46484 0.21875 0.51562 0.09375 0.042969 0.35938 0.0625 0.79688 0.0625v0.40625l-1.4375-0.03125c-0.10547 0-0.58984 0.011719-1.4531 0.03125v-0.40625c0.51953 0 0.82031-0.035156 0.90625-0.10938l0.03125-0.03125c0.050781-0.070313 0.078125-0.21875 0.078125-0.4375v-6.7656c0-0.33203-0.058594-0.53906-0.17188-0.625h-0.015625c-0.09375-0.050781-0.26172-0.082031-0.5-0.09375h-0.32812v-0.40625z"/>
</symbol>
<symbol id="as" overflow="visible">
<path d="m7.5625-3.3594-0.35938 3.3594h-6.7812v-0.40625h0.3125c0.57031 0 0.89844-0.070312 0.98438-0.21875 0.03125-0.0625 0.046875-0.19141 0.046875-0.39062v-6.8438c0-0.25781-0.054687-0.42578-0.15625-0.5-0.11719-0.070313-0.40625-0.10938-0.875-0.10938h-0.3125v-0.40625c0.3125 0.023438 0.97266 0.03125 1.9844 0.03125 1.1445 0 1.875-0.007812 2.1875-0.03125v0.40625h-0.4375c-0.6875 0-1.0781 0.085938-1.1719 0.25-0.042969 0.0625-0.0625 0.18359-0.0625 0.35938v6.9375c0 0.26172 0.046875 0.41406 0.14062 0.45312h0.015625c0.082031 0.042969 0.24219 0.0625 0.48438 0.0625h1.0625c1.2266 0 2.0078-0.48828 2.3438-1.4688 0.11328-0.32031 0.20312-0.81641 0.26562-1.4844z"/>
</symbol>
<symbol id="ar" overflow="visible">
<path d="m5.0625-3h-3.625c0 0.88672 0.12891 1.5391 0.39062 1.9531 0.41406 0.53125 0.90625 0.82031 1.4688 0.85938 0.60156 0 1.0859-0.23828 1.4531-0.71875 0.125-0.17578 0.22656-0.37891 0.3125-0.60938 0.019531-0.125 0.070312-0.1875 0.15625-0.1875 0.11328 0 0.17188 0.054687 0.17188 0.15625 0 0.1875-0.12109 0.44922-0.35938 0.78125-0.35547 0.49219-0.82422 0.78125-1.4062 0.875-0.125 0.019531-0.26172 0.03125-0.40625 0.03125-0.8125 0-1.5078-0.3125-2.0781-0.9375-0.52344-0.57031-0.78125-1.2578-0.78125-2.0625 0-0.90625 0.3125-1.6484 0.9375-2.2344 0.5-0.48828 1.0859-0.73438 1.7656-0.73438 0.97656 0 1.6641 0.41797 2.0625 1.25 0.17578 0.39844 0.26562 0.82812 0.26562 1.2969 0 0.14844-0.03125 0.23438-0.09375 0.26562-0.023437 0.011719-0.10156 0.015625-0.23438 0.015625zm-3.6094-0.28125h3.0781c0-0.82031-0.18359-1.4414-0.54688-1.8594-0.24219-0.25781-0.54688-0.39062-0.92188-0.39062-0.4375 0-0.80859 0.20312-1.1094 0.60938-0.30469 0.38672-0.46875 0.93359-0.5 1.6406z"/>
</symbol>
<symbol id="aq" overflow="visible">
<path d="m2.3125-5.2031v4.1875c0 0.27344 0.050781 0.4375 0.15625 0.5l0.015625 0.015625c0.125 0.0625 0.39453 0.09375 0.8125 0.09375h0.28125v0.40625c-0.34375-0.019531-0.89844-0.03125-1.6562-0.03125 0.03125 0-0.46484 0.011719-1.4844 0.03125v-0.40625c0.50781 0 0.8125-0.035156 0.90625-0.10938l0.015625-0.03125c0.0625-0.070313 0.09375-0.21875 0.09375-0.4375v-4.2188h-1.0312v-0.40625h1.0312v-1.4844c0-0.80078 0.32812-1.3906 0.98438-1.7656 0.32031-0.20703 0.66406-0.3125 1.0312-0.3125 0.48828 0 0.84375 0.17188 1.0625 0.51562 0.070312 0.125 0.10938 0.26172 0.10938 0.40625 0 0.30469-0.13672 0.48438-0.40625 0.54688-0.054687 0.011719-0.10938 0.015625-0.17188 0.015625-0.28125 0-0.46094-0.13281-0.53125-0.40625h-0.015625v-0.015625-0.125c0-0.25781 0.12891-0.44141 0.39062-0.54688-0.13672-0.0625-0.28125-0.09375-0.4375-0.09375-0.375 0-0.6875 0.21484-0.9375 0.64062-0.16797 0.30469-0.25 0.67969-0.25 1.125v1.5h1.5156v0.40625z"/>
</symbol>
<symbol id="ap" overflow="visible">
<path d="m2.25-5.2031v3.6094c0 0.875 0.25 1.3438 0.75 1.4062h0.125c0.36328 0 0.625-0.23828 0.78125-0.71875 0.050781-0.20703 0.078125-0.45312 0.078125-0.73438v-0.71875h0.32812v0.75c0 0.71094-0.19922 1.2188-0.59375 1.5312-0.1875 0.14453-0.41797 0.21875-0.6875 0.21875-0.73047 0-1.2305-0.26953-1.5-0.8125-0.11719-0.25781-0.17188-0.57031-0.17188-0.9375v-3.5938h-1.1094v-0.28125c0.76953-0.03125 1.2812-0.51562 1.5312-1.4531 0.082031-0.33203 0.12891-0.6875 0.14062-1.0625h0.32812v2.3906h1.8594v0.40625z"/>
</symbol>
<symbol id="ao" overflow="visible">
<path d="m1.2188-2.7969v1.9375c0 0.46875 0.12891 0.71875 0.39062 0.75 0.019531 0.011719 0.046875 0.015625 0.078125 0.015625 0.19531 0 0.33203-0.12891 0.40625-0.39062 0.039062-0.11328 0.0625-0.24219 0.0625-0.39062v-0.39062h0.17188v0.39062c0 0.38672-0.10938 0.66406-0.32812 0.82812-0.10547 0.082031-0.23047 0.125-0.375 0.125-0.38672 0-0.65234-0.14453-0.79688-0.4375-0.0625-0.14453-0.09375-0.31641-0.09375-0.51562v-1.9219h-0.59375v-0.15625c0.40625-0.019531 0.67578-0.28125 0.8125-0.78125 0.050781-0.17578 0.078125-0.36719 0.078125-0.57812h0.1875v1.2969h1v0.21875z"/>
</symbol>
<symbol id="n" overflow="visible">
<path d="m1.2344-3.0938v2.5625c0 0.14844 0.03125 0.23438 0.09375 0.26562 0.050781 0.03125 0.1875 0.046875 0.40625 0.046875v0.21875c-0.48047-0.0078125-0.72656-0.015625-0.73438-0.015625-0.0625 0-0.32031 0.0078125-0.76562 0.015625v-0.21875c0.26953 0 0.42969-0.019531 0.48438-0.0625l0.015625-0.015625c0.03125-0.03125 0.046875-0.10938 0.046875-0.23438v-1.8906c0-0.17578-0.039062-0.28516-0.10938-0.32812h-0.015625v-0.015625c-0.0625-0.019531-0.19531-0.03125-0.39062-0.03125v-0.21875zm0.03125-1.2188c0 0.17969-0.078125 0.29297-0.23438 0.34375-0.042969 0.023438-0.089844 0.03125-0.14062 0.03125-0.15625 0-0.27344-0.078125-0.34375-0.23438-0.011719-0.039063-0.015625-0.085937-0.015625-0.14062 0-0.14453 0.0625-0.25391 0.1875-0.32812 0.050781-0.03125 0.10938-0.046875 0.17188-0.046875 0.16406 0 0.28125 0.074219 0.34375 0.21875 0.019531 0.054688 0.03125 0.10547 0.03125 0.15625z"/>
</symbol>
<symbol id="m" overflow="visible">
<path d="m0.76562-2.4062c0-0.1875-0.03125-0.30078-0.09375-0.34375-0.0625-0.03125-0.16797-0.046875-0.3125-0.046875h-0.14062v-0.21875l1-0.078125v0.73438c0.21875-0.48828 0.5625-0.73438 1.0312-0.73438 0.34375 0 0.58594 0.089844 0.73438 0.26562 0.125 0.13672 0.19141 0.33594 0.20312 0.59375 0.007812 0.085937 0.015625 0.24219 0.015625 0.46875v1.3438c0 0.10547 0.066406 0.16797 0.20312 0.1875 0.050781 0.011719 0.16406 0.015625 0.34375 0.015625v0.21875c-0.48047-0.0078125-0.74219-0.015625-0.78125-0.015625-0.042969 0-0.30859 0.0078125-0.79688 0.015625v-0.21875c0.26953 0 0.42969-0.019531 0.48438-0.0625l0.015625-0.015625c0.03125-0.03125 0.046875-0.10938 0.046875-0.23438v-1.625c0-0.46875-0.13672-0.72266-0.40625-0.76562-0.03125-0.007813-0.070312-0.015625-0.10938-0.015625-0.29297 0-0.53125 0.125-0.71875 0.375-0.15625 0.19922-0.23438 0.44922-0.23438 0.75v1.2812c0 0.15625 0.035156 0.25 0.10938 0.28125 0.050781 0.023438 0.19531 0.03125 0.4375 0.03125v0.21875c-0.48047-0.0078125-0.74219-0.015625-0.78125-0.015625-0.042969 0-0.30859 0.0078125-0.79688 0.015625v-0.21875c0.28125 0 0.44141-0.019531 0.48438-0.0625l0.015625-0.015625c0.03125-0.03125 0.046875-0.10938 0.046875-0.23438z"/>
</symbol>
<symbol id="l" overflow="visible">
<path d="m2.9062-2.3594-1.2344 3c-0.21875 0.53125-0.51562 0.79688-0.89062 0.79688-0.25 0-0.4375-0.09375-0.5625-0.28125-0.054688-0.09375-0.078125-0.1875-0.078125-0.28125 0-0.16797 0.070313-0.26562 0.21875-0.29688 0.019531-0.011719 0.039063-0.015625 0.0625-0.015625 0.14453 0 0.23828 0.066406 0.28125 0.20312 0.007813 0.03125 0.015625 0.0625 0.015625 0.09375 0 0.16406-0.089844 0.26562-0.26562 0.29688 0.082031 0.082031 0.19141 0.125 0.32812 0.125 0.26953 0 0.5-0.20312 0.6875-0.60938 0.019531-0.054687 0.054688-0.14062 0.10938-0.26562 0.0625-0.13672 0.11719-0.27344 0.17188-0.40625l-1.0469-2.5625c-0.0625-0.13281-0.15625-0.20703-0.28125-0.21875-0.085937-0.007812-0.17969-0.015625-0.28125-0.015625v-0.21875c0.20703 0.011719 0.42969 0.015625 0.67188 0.015625 0.14453 0 0.39844-0.003906 0.76562-0.015625v0.21875c-0.26172 0-0.39062 0.058594-0.39062 0.17188 0 0.023438 0.007812 0.070312 0.03125 0.14062l0.78125 1.875 0.70312-1.7188c0.03125-0.0625 0.046875-0.11719 0.046875-0.17188 0-0.17578-0.09375-0.27344-0.28125-0.29688h-0.046875v-0.21875c0.3125 0.011719 0.51562 0.015625 0.60938 0.015625 0.1875 0 0.36328-0.003906 0.53125-0.015625v0.21875c-0.3125 0-0.53125 0.14844-0.65625 0.4375z"/>
</symbol>
<symbol id="an" overflow="visible">
<path d="m4.6562-4.7344 0.14062 1.5781h-0.17188c-0.054688-0.53906-0.13281-0.89062-0.23438-1.0469-0.11719-0.17578-0.35547-0.28125-0.71875-0.3125h-0.3125-0.39062c-0.085938 0.0625-0.13281 0.15625-0.14062 0.28125v3.6875c0 0.125 0.03125 0.21094 0.09375 0.25 0.082031 0.054687 0.29688 0.078125 0.64062 0.078125h0.28125v0.21875c-0.1875-0.0078125-0.63281-0.015625-1.3281-0.015625-0.6875 0-1.125 0.0078125-1.3125 0.015625v-0.21875h0.28125c0.40625 0 0.63281-0.039062 0.6875-0.125 0.019531-0.03125 0.03125-0.0625 0.03125-0.09375 0.007813-0.019531 0.015625-0.054688 0.015625-0.10938v-3.6875c0-0.13281-0.023438-0.21875-0.0625-0.25h-0.03125c-0.011719-0.007813-0.03125-0.019531-0.0625-0.03125h-0.375c-0.48047 0-0.79688 0.070313-0.95312 0.20312l-0.015625 0.03125h-0.015625c-0.125 0.14844-0.21094 0.45312-0.25 0.92188-0.011719 0.054687-0.023437 0.12109-0.03125 0.20312h-0.17188l0.14062-1.5781z"/>
</symbol>
<symbol id="al" overflow="visible">
<path d="m21.453-21.172v18.438c0 0.69922 0.14062 1.1406 0.42188 1.3281 0.35156 0.21875 1.1328 0.32812 2.3438 0.32812h0.84375v1.0781c-0.82422-0.070312-2.5547-0.10938-5.1875-0.10938-2.6172 0-4.3281 0.039062-5.1406 0.10938v-1.0781h0.84375c1.5078 0 2.3828-0.20312 2.625-0.60938 0.09375-0.15625 0.14062-0.50391 0.14062-1.0469v-9.1719h-10.469v9.1719c0 0.69922 0.14062 1.1406 0.42188 1.3281 0.32031 0.21875 1.1016 0.32812 2.3438 0.32812h0.84375v1.0781c-0.82422-0.070312-2.5547-0.10938-5.1875-0.10938-2.6172 0-4.3281 0.039062-5.1406 0.10938v-1.0781h0.84375c1.5078 0 2.3828-0.20312 2.625-0.60938 0.09375-0.15625 0.14062-0.50391 0.14062-1.0469v-18.438c0-0.69531-0.14062-1.1406-0.42188-1.3281-0.33594-0.20703-1.1172-0.3125-2.3438-0.3125h-0.84375v-1.0938c0.8125 0.074219 2.5352 0.10938 5.1719 0.10938 2.6133 0 4.332-0.035156 5.1562-0.10938v1.0938h-0.84375c-1.5234 0-2.3984 0.19922-2.625 0.59375-0.09375 0.15625-0.14062 0.50781-0.14062 1.0469v8.1875h10.469v-8.1875c0-0.69531-0.14062-1.1406-0.42188-1.3281-0.35547-0.20703-1.1367-0.3125-2.3438-0.3125h-0.84375v-1.0938c0.8125 0.074219 2.5391 0.10938 5.1875 0.10938 2.6016 0 4.3164-0.035156 5.1406-0.10938v1.0938h-0.84375c-1.5234 0-2.3984 0.19922-2.625 0.59375-0.09375 0.15625-0.14062 0.50781-0.14062 1.0469z"/>
</symbol>
<symbol id="d" overflow="visible">
<path d="m13.688-2.7656c-0.98047 2.1055-2.4844 3.1562-4.5156 3.1562-2.875 0-4.5703-1.0039-5.0781-3.0156-0.16797-0.60156-0.25-1.5703-0.25-2.9062v-5.25c0-1.5195-0.10547-2.4297-0.3125-2.7344l-0.20312-0.20312c-0.26172-0.1875-0.99609-0.28125-2.2031-0.28125v-1.0781l5.1406-0.39062v11.625c0 1.418 0.25391 2.3594 0.76562 2.8281h0.03125c0.5 0.41797 1.2578 0.625 2.2812 0.625 1.582 0 2.7578-0.78125 3.5312-2.3438 0.46875-0.88281 0.70312-1.9102 0.70312-3.0781v-6.2344c0-0.90625-0.17188-1.4609-0.51562-1.6719h-0.046875c-0.32422-0.1875-1.0469-0.28125-2.1719-0.28125v-1.0781l5.1562-0.39062v12.422c0 0.90625 0.17188 1.4688 0.51562 1.6875h0.046875c0.32031 0.1875 1.0391 0.28125 2.1562 0.28125v1.0781l-5.0312 0.39062z"/>
</symbol>
<symbol id="ag" overflow="visible">
<path d="m7.7656-6.0156c1.0312 0 1.8594-0.46875 2.4844-1.4062 0.375-0.625 0.5625-1.6016 0.5625-2.9375-0.09375-2.8008-1.1094-4.2383-3.0469-4.3125-1.0234 0-1.8516 0.46875-2.4844 1.4062-0.375 0.63672-0.5625 1.6172-0.5625 2.9375 0.09375 2.8047 1.1094 4.2422 3.0469 4.3125zm-3.4531-0.28125c-0.40625 0.46875-0.60938 1.0156-0.60938 1.6406 0 0.96094 0.375 1.6562 1.125 2.0938 0.23828 0.14844 0.48438 0.23047 0.73438 0.25 0.16406 0.023438 1.0391 0.03125 2.625 0.03125 2.4062 0 4.1562 0.21484 5.25 0.64062 0.25781 0.09375 0.51562 0.21094 0.76562 0.34375 1.4258 0.9375 2.1875 2.2656 2.2812 3.9844 0 1.5195-0.98047 2.7109-2.9375 3.5781-1.4062 0.625-3.0156 0.9375-4.8281 0.9375-2.7109 0-4.8242-0.63281-6.3438-1.8906-0.92969-0.74219-1.3906-1.5898-1.3906-2.5469 0-1.168 0.59375-2.125 1.7812-2.875 0.41406-0.28125 0.89453-0.48828 1.4375-0.625-0.96094-0.75-1.4766-1.7852-1.5469-3.1094 0-1.1016 0.36328-2.0703 1.0938-2.9062-1.0547-1.0078-1.6055-2.2109-1.6562-3.6094 0-1.6133 0.70312-2.9297 2.1094-3.9531 1.0195-0.76953 2.207-1.1562 3.5625-1.1562 1.4062 0 2.6445 0.42188 3.7188 1.2656 1.1133-1.1016 2.3477-1.6562 3.7031-1.6562 0.91406 0 1.4883 0.42188 1.7188 1.2656 0.039062 0.13672 0.0625 0.28906 0.0625 0.45312-0.09375 0.60547-0.43359 0.95312-1.0156 1.0469-0.51172 0-0.83594-0.24219-0.96875-0.73438-0.03125-0.09375-0.046875-0.1875-0.046875-0.28125 0-0.48828 0.1875-0.80078 0.5625-0.9375-0.0625-0.019531-0.17969-0.03125-0.34375-0.03125-1.1484 0-2.1992 0.45312-3.1562 1.3594 0.95703 0.88672 1.4375 2.0156 1.4375 3.3906 0 1.6172-0.69922 2.9336-2.0938 3.9531-1.0312 0.77344-2.2266 1.1562-3.5781 1.1562-1.3047 0-2.4531-0.35938-3.4531-1.0781zm4.4375 12.703c2.2188 0 3.8984-0.58594 5.0469-1.75 0.58203-0.58594 0.875-1.2148 0.875-1.8906 0-1.7305-1.3828-2.7109-4.1406-2.9375h-0.03125c-0.60547-0.050781-1.5273-0.078125-2.7656-0.078125h-2.0625c-1.0938 0.074219-1.9219 0.59766-2.4844 1.5781-0.26172 0.44531-0.39062 0.92578-0.39062 1.4375 0 1.0938 0.67578 2.0039 2.0312 2.7344 1.0938 0.60156 2.3984 0.90625 3.9219 0.90625z"/>
</symbol>
<symbol id="af" overflow="visible">
<path d="m13.656-8.0781h-9.7656c0 2.375 0.34766 4.125 1.0469 5.25 1.1133 1.4375 2.4297 2.2188 3.9531 2.3438 1.6133 0 2.9102-0.65625 3.8906-1.9688 0.34375-0.46875 0.61719-1.0156 0.82812-1.6406 0.070313-0.32031 0.22266-0.48438 0.45312-0.48438 0.3125 0 0.46875 0.13672 0.46875 0.40625 0 0.52344-0.32812 1.2266-0.98438 2.1094-0.96094 1.3047-2.2188 2.082-3.7812 2.3438-0.35547 0.070312-0.71484 0.10938-1.0781 0.10938-2.1992 0-4.0703-0.84375-5.6094-2.5312-1.3984-1.5312-2.0938-3.3828-2.0938-5.5625 0-2.4258 0.83594-4.4297 2.5156-6.0156 1.3516-1.3125 2.9414-1.9688 4.7656-1.9688 2.6328 0 4.4766 1.125 5.5312 3.375 0.48828 1.043 0.73438 2.2109 0.73438 3.5 0 0.39844-0.085938 0.625-0.25 0.6875-0.074219 0.03125-0.28125 0.046875-0.625 0.046875zm-9.7344-0.73438h8.2969c0-2.2188-0.49219-3.8906-1.4688-5.0156-0.65625-0.71875-1.4844-1.0781-2.4844-1.0781-1.1992 0-2.2031 0.54688-3.0156 1.6406-0.8125 1.0547-1.2578 2.5391-1.3281 4.4531z"/>
</symbol>
<symbol id="ae" overflow="visible">
<path d="m8.4375-23.141 7.5938 19.609 7.6562-19.703c0.14453-0.375 0.30078-0.58594 0.46875-0.64062 0.11328-0.019531 0.34375-0.03125 0.6875-0.03125h5.9219v1.0938h-0.84375c-1.5117 0-2.3867 0.19922-2.625 0.59375-0.09375 0.15625-0.14062 0.50781-0.14062 1.0469v18.438c0 0.69922 0.14062 1.1406 0.42188 1.3281 0.35156 0.21875 1.1328 0.32812 2.3438 0.32812h0.84375v1.0781c-0.86719-0.070312-2.5312-0.10938-5-0.10938-2.5 0-4.1836 0.039062-5.0469 0.10938v-1.0781h0.84375c1.5078 0 2.3828-0.20312 2.625-0.60938 0.09375-0.15625 0.14062-0.50391 0.14062-1.0469v-20.078h-0.03125l-8.6094 22.141c-0.16797 0.42969-0.38281 0.65234-0.64062 0.67188-0.28125 0-0.51562-0.25391-0.70312-0.76562l-8.4219-21.781h-0.046875v18.875c0 1 0.31641 1.6875 0.95312 2.0625 0.60156 0.35547 1.4883 0.53125 2.6562 0.53125v1.0781c-2.4492-0.070312-3.8125-0.10938-4.0938-0.10938s-1.6484 0.039062-4.0938 0.10938v-1.0781c2.2578 0 3.4453-0.67578 3.5625-2.0312 0.03125-0.14453 0.046875-0.33203 0.046875-0.5625v-17.5c0-0.69531-0.14062-1.1406-0.42188-1.3281-0.33594-0.20703-1.1172-0.3125-2.3438-0.3125h-0.84375v-1.0938h5.9062c0.53906 0 0.86719 0.09375 0.98438 0.28125l0.03125 0.03125 0.046875 0.03125v0.046875c0.039063 0.09375 0.097656 0.21875 0.17188 0.375z"/>
</symbol>
<symbol id="k" overflow="visible">
<path d="m6.1875-24.297v21.641c0 0.79297 0.1875 1.2578 0.5625 1.3906 0.25781 0.125 0.98438 0.1875 2.1719 0.1875v1.0781l-3.875-0.10938c-0.28125 0-1.5781 0.039062-3.8906 0.10938v-1.0781c1.375 0 2.1758-0.10938 2.4062-0.32812l0.078125-0.0625c0.16406-0.1875 0.25-0.58203 0.25-1.1875v-18.203c0-0.90625-0.16797-1.4688-0.5-1.6875h-0.03125c-0.26172-0.13281-0.70312-0.22266-1.3281-0.26562h-0.875v-1.0938z"/>
</symbol>
<symbol id="ad" overflow="visible">
<path d="m6.0625-14v9.7344c0 2.3359 0.67188 3.5781 2.0156 3.7344 0.09375 0.03125 0.20312 0.046875 0.32812 0.046875 1 0 1.6953-0.65625 2.0938-1.9688 0.16406-0.5625 0.25-1.2109 0.25-1.9531v-1.9219h0.875v1.9844c0 1.918-0.53906 3.2969-1.6094 4.1406-0.52344 0.39453-1.1406 0.59375-1.8594 0.59375-1.9609 0-3.3047-0.73438-4.0312-2.2031-0.32422-0.70703-0.48438-1.5508-0.48438-2.5312v-9.6562h-2.9688v-0.76562c2.0703-0.09375 3.4453-1.3984 4.125-3.9219 0.22656-0.88281 0.35938-1.832 0.39062-2.8438h0.875v6.4531h5v1.0781z"/>
</symbol>
<symbol id="ac" overflow="visible">
<path d="m6.1875-15.469v12.844c0 0.71875 0.14062 1.1641 0.42188 1.3281 0.28125 0.14844 0.95703 0.21875 2.0312 0.21875v1.0781c-2.375-0.070312-3.5898-0.10938-3.6406-0.10938-0.32422 0-1.6055 0.039062-3.8438 0.10938v-1.0781c1.375 0 2.1758-0.10938 2.4062-0.32812l0.078125-0.0625c0.16406-0.1875 0.25-0.58203 0.25-1.1875v-9.4219c0-0.92578-0.1875-1.4844-0.5625-1.6719h-0.03125l-0.046875-0.046875c-0.30469-0.13281-0.95312-0.20312-1.9531-0.20312v-1.0781zm0.14062-6.0938c0 0.86719-0.38281 1.4375-1.1406 1.7188-0.24219 0.09375-0.47656 0.14062-0.70312 0.14062-0.82422 0-1.3984-0.375-1.7188-1.125v-0.03125c-0.09375-0.22656-0.14062-0.46094-0.14062-0.70312 0-0.71875 0.32812-1.2539 0.98438-1.6094 0.25-0.16406 0.53906-0.25 0.875-0.25 0.78906 0 1.3477 0.35547 1.6719 1.0625 0.11328 0.25 0.17188 0.51562 0.17188 0.79688z"/>
</symbol>
<symbol id="ab" overflow="visible">
<path d="m12.562-13.516c-0.83594-0.86328-2.0859-1.2969-3.75-1.2969-1.4688 0-2.6484 0.70312-3.5312 2.1094-0.79297 1.2617-1.1875 2.9531-1.1875 5.0781 0 3.3555 1.0039 5.5586 3.0156 6.6094 0.625 0.35547 1.2656 0.53125 1.9219 0.53125 2.2812 0 3.8047-1.2266 4.5781-3.6875 0.070313-0.22656 0.22266-0.34375 0.45312-0.34375 0.3125 0 0.46875 0.11719 0.46875 0.34375 0 0.44922-0.26172 1.0781-0.78125 1.8906-1.1367 1.7812-2.8125 2.6719-5.0312 2.6719-2.1992 0-4.0547-0.86328-5.5625-2.5938-1.3125-1.5195-1.9688-3.3047-1.9688-5.3594 0-2.4062 0.82812-4.4102 2.4844-6.0156 1.4258-1.4062 3.1289-2.1094 5.1094-2.1094 1.9375 0 3.4219 0.52734 4.4531 1.5781 0.60156 0.63672 0.90625 1.3594 0.90625 2.1719 0 0.88672-0.38672 1.4219-1.1562 1.6094-0.13672 0.023437-0.28906 0.03125-0.45312 0.03125-0.8125 0-1.3281-0.36719-1.5469-1.1094-0.042969-0.14453-0.0625-0.3125-0.0625-0.5 0-0.83203 0.40625-1.3438 1.2188-1.5312 0.14453-0.050781 0.28516-0.078125 0.42188-0.078125z"/>
</symbol>
<symbol id="ak" overflow="visible">
<path d="m16.484-7.4844c0 2.3984-0.88672 4.375-2.6562 5.9375-1.4688 1.293-3.1719 1.9375-5.1094 1.9375-2.2422 0-4.1328-0.84375-5.6719-2.5312-1.375-1.5078-2.0625-3.2891-2.0625-5.3438 0-2.3828 0.84766-4.3945 2.5469-6.0312 1.4688-1.4453 3.207-2.1719 5.2188-2.1719 2.2578 0 4.1602 0.90234 5.7031 2.7031 1.3516 1.5625 2.0312 3.3984 2.0312 5.5zm-7.7344 7c1.5625 0 2.7969-0.65625 3.7031-1.9688l0.35938-0.625c0.50781-1.0312 0.76562-2.5938 0.76562-4.6875 0-2.2383-0.30469-3.8633-0.90625-4.875-1-1.4453-2.3203-2.2031-3.9531-2.2656-1.4492 0-2.6406 0.58594-3.5781 1.75-0.15625 0.1875-0.29688 0.38672-0.42188 0.59375-0.55469 1.0234-0.82812 2.6211-0.82812 4.7969 0 2.2617 0.28906 3.9062 0.875 4.9375 0.97656 1.5117 2.3047 2.293 3.9844 2.3438z"/>
</symbol>
<symbol id="aj" overflow="visible">
<path d="m3.8438-12.047c0-0.90625-0.17188-1.4609-0.51562-1.6719-0.28125-0.16406-0.78906-0.25781-1.5156-0.28125h-0.6875v-1.0781l4.9375-0.39062v3.6719c1.0938-2.4453 2.8164-3.6719 5.1719-3.6719 2.7266 0 4.2812 1.1406 4.6562 3.4219 0.69531-1.582 1.7969-2.6289 3.2969-3.1406 0.55078-0.1875 1.1445-0.28125 1.7812-0.28125 1.75 0 2.9727 0.43359 3.6719 1.2969 0.625 0.71875 0.97266 1.7109 1.0469 2.9688 0.019531 0.44922 0.03125 1.2461 0.03125 2.3906v6.6719c0.03125 0.5625 0.36719 0.89062 1.0156 0.98438 0.28125 0.054688 0.85156 0.078125 1.7188 0.078125v1.0781c-2.375-0.070312-3.6836-0.10938-3.9219-0.10938-0.1875 0-1.5078 0.039062-3.9531 0.10938v-1.0781c1.375 0 2.1797-0.10938 2.4219-0.32812l0.0625-0.0625c0.16406-0.1875 0.25-0.58203 0.25-1.1875v-8.1562c0-2.3125-0.66797-3.582-2-3.8125-0.1875-0.050781-0.38672-0.078125-0.59375-0.078125-1.4297 0-2.6172 0.62109-3.5625 1.8594-0.77344 1-1.1562 2.25-1.1562 3.75v6.4375c0 0.79297 0.1875 1.2578 0.5625 1.3906 0.25 0.125 0.96875 0.1875 2.1562 0.1875v1.0781c-2.375-0.070312-3.6797-0.10938-3.9062-0.10938-0.1875 0-1.5117 0.039062-3.9688 0.10938v-1.0781c1.3828 0 2.1914-0.10938 2.4219-0.32812l0.0625-0.0625c0.16406-0.1875 0.25-0.58203 0.25-1.1875v-8.1562c0-2.3125-0.66797-3.582-2-3.8125-0.17969-0.050781-0.375-0.078125-0.59375-0.078125-1.418 0-2.6055 0.62109-3.5625 1.8594-0.77344 1-1.1562 2.25-1.1562 3.75v6.4375c0 0.79297 0.1875 1.2578 0.5625 1.3906 0.25 0.125 0.97266 0.1875 2.1719 0.1875v1.0781c-2.3867-0.070312-3.6953-0.10938-3.9219-0.10938-0.1875 0-1.5078 0.039062-3.9531 0.10938v-1.0781c1.375 0 2.1758-0.10938 2.4062-0.32812l0.078125-0.0625c0.15625-0.1875 0.23438-0.58203 0.23438-1.1875z"/>
</symbol>
<symbol id="ai" overflow="visible">
<path d="m3.8438-12.047c0-0.90625-0.17188-1.4609-0.51562-1.6719-0.28125-0.16406-0.78906-0.25781-1.5156-0.28125h-0.6875v-1.0781l4.9375-0.39062v3.6719c1.0938-2.4453 2.8164-3.6719 5.1719-3.6719 1.75 0 2.9727 0.43359 3.6719 1.2969 0.63281 0.71875 0.98438 1.7109 1.0469 2.9688 0.03125 0.44922 0.046875 1.2461 0.046875 2.3906v6.6719c0.019531 0.5625 0.35938 0.89062 1.0156 0.98438 0.28125 0.054688 0.84766 0.078125 1.7031 0.078125v1.0781c-2.375-0.070312-3.6797-0.10938-3.9062-0.10938-0.1875 0-1.5117 0.039062-3.9688 0.10938v-1.0781c1.3828 0 2.1914-0.10938 2.4219-0.32812l0.0625-0.0625c0.16406-0.1875 0.25-0.58203 0.25-1.1875v-8.1562c0-2.3125-0.66797-3.582-2-3.8125-0.17969-0.050781-0.375-0.078125-0.59375-0.078125-1.418 0-2.6055 0.62109-3.5625 1.8594-0.77344 1-1.1562 2.25-1.1562 3.75v6.4375c0 0.79297 0.1875 1.2578 0.5625 1.3906 0.25 0.125 0.97266 0.1875 2.1719 0.1875v1.0781c-2.3867-0.070312-3.6953-0.10938-3.9219-0.10938-0.1875 0-1.5078 0.039062-3.9531 0.10938v-1.0781c1.375 0 2.1758-0.10938 2.4062-0.32812l0.078125-0.0625c0.15625-0.1875 0.23438-0.58203 0.23438-1.1875z"/>
</symbol>
<symbol id="ah" overflow="visible">
<path d="m7.2812-6.7969c-2.0117-0.39453-3.3281-0.77344-3.9531-1.1406-0.24219-0.125-0.46484-0.28125-0.67188-0.46875-1-0.8125-1.5-1.8008-1.5-2.9688 0-1.6328 0.72266-2.8203 2.1719-3.5625 0.90625-0.5 2.0469-0.75 3.4219-0.75 1.3125 0 2.4102 0.32812 3.2969 0.98438 0.25781-0.20703 0.45703-0.39453 0.59375-0.5625 0.30078-0.28125 0.53516-0.42188 0.70312-0.42188 0.22656 0.21875 0.35156 0.5 0.375 0.84375v3.5312c0 0.5-0.070312 0.77344-0.20312 0.8125h-0.03125l-0.046875 0.03125h-0.17188c-0.25 0-0.39062-0.10156-0.42188-0.3125-0.15625-2.3516-1.125-3.7266-2.9062-4.125-0.36719-0.070312-0.76172-0.10938-1.1875-0.10938-2.1875 0-3.4688 0.67969-3.8438 2.0312-0.054688 0.21094-0.078125 0.41797-0.078125 0.625 0 1.1992 0.89844 2.043 2.7031 2.5312 0.35156 0.09375 0.89062 0.21094 1.6094 0.34375 1.6758 0.32422 2.8789 0.77734 3.6094 1.3594 0.13281 0.09375 0.25781 0.19922 0.375 0.3125 0.97656 0.99219 1.4688 2.1016 1.4688 3.3281 0 1.9922-0.8125 3.3906-2.4375 4.2031-0.89844 0.44531-1.9609 0.67188-3.1875 0.67188-1.5234 0-2.8086-0.50391-3.8594-1.5156l-0.6875 0.8125c-0.46875 0.46875-0.76172 0.70312-0.875 0.70312-0.24219-0.21875-0.37109-0.5-0.39062-0.84375v-4.625c0-0.50781 0.082031-0.78906 0.25-0.84375l0.03125-0.03125h0.17188c0.22656 0 0.37891 0.13281 0.45312 0.39062 0 0.042969 0.007812 0.10938 0.03125 0.20312 0.61328 2.7109 1.7695 4.3086 3.4688 4.7969 0.41406 0.11719 0.88281 0.17188 1.4062 0.17188 2.0938 0 3.3633-0.73438 3.8125-2.2031 0.09375-0.30078 0.14062-0.625 0.14062-0.96875 0-1.707-1.2148-2.7852-3.6406-3.2344z"/>
</symbol>
</defs>
<rect width="476" height="128" fill="#fff"/>
<path transform="scale(14)" d="m0.71429 0.73438h32.562" fill="none" stroke="#000" stroke-linejoin="bevel" stroke-miterlimit="0" stroke-width=".039999"/>
<path transform="scale(14)" d="m0.71429 1.3167h0.039899" fill="none" stroke="#000" stroke-linejoin="bevel" stroke-miterlimit="0" stroke-width="1.125"/>
<g>
<use x="50.019531" y="23.296875" xlink:href="#u"/>
</g>
<g>
<use x="62.851562" y="23.296875" xlink:href="#t"/>
</g>
<g>
<use x="69.851562" y="23.296875" xlink:href="#g"/>
</g>
<g>
<use x="75.296875" y="23.296875" xlink:href="#bm"/>
</g>
<g>
<use x="80.78125" y="23.296875" xlink:href="#f"/>
</g>
<g>
<use x="84.671875" y="23.296875" xlink:href="#bl"/>
</g>
<path transform="scale(14)" d="m9.3943 1.3167h0.0399" fill="none" stroke="#000" stroke-linejoin="bevel" stroke-miterlimit="0" stroke-width="1.125"/>
<g>
<use x="184.996094" y="23.296875" xlink:href="#u"/>
</g>
<g>
<use x="197.832031" y="23.296875" xlink:href="#s"/>
</g>
<g>
<use x="205.609375" y="23.296875" xlink:href="#r"/>
</g>
<g>
<use x="209.496094" y="23.296875" xlink:href="#g"/>
</g>
<g>
<use x="214.941406" y="23.296875" xlink:href="#f"/>
</g>
<g>
<use x="218.832031" y="23.296875" xlink:href="#q"/>
</g>
<g>
<use x="225.050781" y="23.296875" xlink:href="#j"/>
</g>
<g>
<use x="232.050781" y="23.296875" xlink:href="#r"/>
</g>
<g>
<use x="235.941406" y="23.296875" xlink:href="#s"/>
</g>
<g>
<use x="243.71875" y="23.296875" xlink:href="#i"/>
</g>
<g>
<use x="255.386719" y="23.296875" xlink:href="#h"/>
</g>
<g>
<use x="263.164062" y="23.296875" xlink:href="#b"/>
</g>
<path transform="scale(14)" d="m22.972 1.3167h0.0399" fill="none" stroke="#000" stroke-linejoin="bevel" stroke-miterlimit="0" stroke-width="1.125"/>
<g>
<use x="329.164062" y="23.296875" xlink:href="#bq"/>
</g>
<g>
<use x="337.136719" y="23.296875" xlink:href="#j"/>
</g>
<g>
<use x="344.136719" y="23.296875" xlink:href="#h"/>
</g>
<g>
<use x="351.523437" y="23.296875" xlink:href="#g"/>
</g>
<g>
<use x="361.636719" y="23.296875" xlink:href="#b"/>
</g>
<g>
<use x="367.160156" y="23.296875" xlink:href="#f"/>
</g>
<g>
<use x="371.046875" y="23.296875" xlink:href="#bp"/>
</g>
<g>
<use x="377.269531" y="23.296875" xlink:href="#bo"/>
</g>
<g>
<use x="383.492187" y="23.296875" xlink:href="#b"/>
</g>
<g>
<use x="393.679688" y="23.296875" xlink:href="#q"/>
</g>
<g>
<use x="399.902344" y="23.296875" xlink:href="#j"/>
</g>
<g>
<use x="406.902344" y="23.296875" xlink:href="#i"/>
</g>
<g>
<use x="418.570312" y="23.296875" xlink:href="#i"/>
</g>
<g>
<use x="430.238281" y="23.296875" xlink:href="#t"/>
</g>
<g>
<use x="437.238281" y="23.296875" xlink:href="#h"/>
</g>
<g>
<use x="445.015625" y="23.296875" xlink:href="#bn"/>
</g>
<g>
<use x="452.792969" y="23.296875" xlink:href="#b"/>
</g>
<path transform="scale(14)" d="m33.237 1.3167h0.0399" fill="none" stroke="#000" stroke-linejoin="bevel" stroke-miterlimit="0" stroke-width="1.125"/>
<path transform="scale(14)" d="m0.71429 1.8993h32.562" fill="none" stroke="#000" stroke-linejoin="bevel" stroke-miterlimit="0" stroke-width=".039999"/>
<path transform="scale(14)" d="m0.71429 3.7609h0.039899" fill="none" stroke="#000" stroke-linejoin="bevel" stroke-miterlimit="0" stroke-width="3.6833"/>
<g>
<use x="17.558594" y="32.214844" xlink:href="#bk"/>
</g>
<g>
<use x="29.132812" y="39.121094" xlink:href="#am"/>
</g>
<g>
<use x="38.089844" y="41.21875" xlink:href="#aa"/>
</g>
<g>
<use x="42.992188" y="41.21875" xlink:href="#z"/>
</g>
<g>
<use x="62.382813" y="39.121094" xlink:href="#c"/>
</g>
<g>
<use x="68.605469" y="39.121094" xlink:href="#c"/>
</g>
<g>
<use x="74.824219" y="39.121094" xlink:href="#c"/>
</g>
<g>
<use x="93.207031" y="39.121094" xlink:href="#y"/>
</g>
<g>
<use x="102.160156" y="41.21875" xlink:href="#x"/>
</g>
<g>
<use x="107.0625" y="41.21875" xlink:href="#w"/>
</g>
<g>
<use x="29.53125" y="53.390625" xlink:href="#a"/>
</g>
<g>
<use x="38.324219" y="53.390625" xlink:href="#a"/>
</g>
<g>
<use x="47.113281" y="53.390625" xlink:href="#a"/>
</g>
<g>
<use x="55.90625" y="53.390625" xlink:href="#a"/>
</g>
<g>
<use x="64.699219" y="53.390625" xlink:href="#a"/>
</g>
<g>
<use x="73.492188" y="53.390625" xlink:href="#a"/>
</g>
<g>
<use x="82.28125" y="53.390625" xlink:href="#a"/>
</g>
<g>
<use x="91.074219" y="53.390625" xlink:href="#a"/>
</g>
<g>
<use x="99.867188" y="53.390625" xlink:href="#a"/>
</g>
<g>
<use x="108.660156" y="53.390625" xlink:href="#a"/>
</g>
<g>
<use x="28.644531" y="70.308594" xlink:href="#v"/>
</g>
<g>
<use x="37.597656" y="72.410156" xlink:href="#bj"/>
</g>
<g>
<use x="43.480469" y="72.410156" xlink:href="#bi"/>
</g>
<g>
<use x="62.382812" y="70.308594" xlink:href="#e"/>
</g>
<g>
<use x="68.605469" y="70.308594" xlink:href="#e"/>
</g>
<g>
<use x="74.824219" y="70.308594" xlink:href="#e"/>
</g>
<g>
<use x="92.714844" y="70.308594" xlink:href="#bh"/>
</g>
<g>
<use x="101.671875" y="72.410156" xlink:href="#bg"/>
</g>
<g>
<use x="107.554688" y="72.410156" xlink:href="#bf"/>
</g>
<g>
<use x="113.433594" y="32.214844" xlink:href="#be"/>
</g>
<path transform="matrix(14 0 0 14 -3.9551e-6 -3.0961e-6)" d="m9.3943 3.7609h0.0399" fill="none" stroke="#000" stroke-linejoin="bevel" stroke-miterlimit="0" stroke-width="3.6833"/>
<g>
<use x="139.078125" y="56.152344" xlink:href="#bd"/>
</g>
<g>
<use x="151.328125" y="56.152344" xlink:href="#bc"/>
</g>
<g>
<use x="161.128906" y="56.152344" xlink:href="#bb"/>
</g>
<g>
<use x="168.804688" y="56.152344" xlink:href="#p"/>
</g>
<g>
<use x="178.605469" y="56.152344" xlink:href="#ba"/>
</g>
<g>
<use x="193.851563" y="56.152344" xlink:href="#az"/>
</g>
<g>
<use x="208.277344" y="56.152344" xlink:href="#ay"/>
</g>
<g>
<use x="213.722656" y="56.152344" xlink:href="#p"/>
</g>
<g>
<use x="223.523438" y="56.152344" xlink:href="#ax"/>
</g>
<g>
<use x="233.867188" y="56.152344" xlink:href="#aw"/>
</g>
<path transform="matrix(14 0 0 14 -4.9025e-6 -3.4787e-6)" d="m17.749 3.7609h0.040179" fill="none" stroke="#000" stroke-linejoin="bevel" stroke-miterlimit="0" stroke-width="3.6833"/>
<path transform="matrix(14 0 0 14 -4.9025e-6 -3.4787e-6)" d="m17.869 3.7609h0.040178" fill="none" stroke="#000" stroke-linejoin="bevel" stroke-miterlimit="0" stroke-width="3.6833"/>
<path transform="matrix(14 0 0 14 -4.9025e-6 -3.4787e-6)" d="m17.989 3.7609h0.040178" fill="none" stroke="#000" stroke-linejoin="bevel" stroke-miterlimit="0" stroke-width="3.6833"/>
<g>
<use x="259.410156" y="56.152344" xlink:href="#av"/>
</g>
<g>
<use x="264.378906" y="56.152344" xlink:href="#au"/>
</g>
<g>
<use x="274.878906" y="56.152344" xlink:href="#at"/>
</g>
<g>
<use x="281.179688" y="56.152344" xlink:href="#o"/>
</g>
<g>
<use x="284.679688" y="56.152344" xlink:href="#o"/>
</g>
<g>
<use x="292.378906" y="56.152344" xlink:href="#as"/>
</g>
<g>
<use x="300.253906" y="56.152344" xlink:href="#ar"/>
</g>
<g>
<use x="305.855469" y="56.152344" xlink:href="#aq"/>
</g>
<g>
<use x="309.703125" y="56.152344" xlink:href="#ap"/>
</g>
<path transform="matrix(14 0 0 14 -1.04e-5 -4.6687e-6)" d="m22.972 3.7609h0.0399" fill="none" stroke="#000" stroke-linejoin="bevel" stroke-miterlimit="0" stroke-width="3.6833"/>
<g>
<use x="379.351563" y="56.152344" xlink:href="#ao"/>
</g>
<g>
<use x="382.074219" y="56.152344" xlink:href="#n"/>
</g>
<g>
<use x="384.015625" y="56.152344" xlink:href="#m"/>
</g>
<g>
<use x="387.710938" y="56.152344" xlink:href="#l"/>
</g>
<g>
<use x="393.738281" y="56.152344" xlink:href="#an"/>
</g>
<g>
<use x="398.792969" y="56.152344" xlink:href="#n"/>
</g>
<g>
<use x="400.738281" y="56.152344" xlink:href="#m"/>
</g>
<g>
<use x="404.433594" y="56.152344" xlink:href="#l"/>
</g>
<path transform="matrix(14 0 0 14 -1.04e-5 -4.6687e-6)" d="m33.237 3.7609h0.0399" fill="none" stroke="#000" stroke-linejoin="bevel" stroke-miterlimit="0" stroke-width="3.6833"/>
<path transform="matrix(14 0 0 14 -1.04e-5 -4.6687e-6)" d="m0.71429 5.6225h32.562" fill="none" stroke="#000" stroke-linejoin="bevel" stroke-miterlimit="0" stroke-width=".039999"/>
<path transform="matrix(14 0 0 14 -1.04e-5 -4.6687e-6)" d="m0.71429 6.969h0.0399" fill="none" stroke="#000" stroke-linejoin="bevel" stroke-miterlimit="0" stroke-width="2.6528"/>
<g>
<use x="88.117188" y="106.316406" xlink:href="#al"/>
</g>
<g>
<use x="114.367188" y="106.316406" xlink:href="#d"/>
</g>
<g>
<use x="133.8125" y="106.316406" xlink:href="#ag"/>
</g>
<g>
<use x="151.3125" y="106.316406" xlink:href="#af"/>
</g>
<g>
<use x="178.535156" y="106.316406" xlink:href="#ae"/>
</g>
<g>
<use x="210.617188" y="106.316406" xlink:href="#d"/>
</g>
<g>
<use x="230.0625" y="106.316406" xlink:href="#k"/>
</g>
<g>
<use x="239.785156" y="106.316406" xlink:href="#ad"/>
</g>
<g>
<use x="253.394531" y="106.316406" xlink:href="#ac"/>
</g>
<g>
<use x="263.117188" y="106.316406" xlink:href="#ab"/>
</g>
<g>
<use x="278.671875" y="106.316406" xlink:href="#ak"/>
</g>
<g>
<use x="296.171875" y="106.316406" xlink:href="#k"/>
</g>
<g>
<use x="305.894531" y="106.316406" xlink:href="#d"/>
</g>
<g>
<use x="325.339844" y="106.316406" xlink:href="#aj"/>
</g>
<g>
<use x="354.507813" y="106.316406" xlink:href="#ai"/>
</g>
<g>
<use x="373.953125" y="106.316406" xlink:href="#ah"/>
</g>
<path transform="matrix(14 0 0 14 -1.1713e-5 -6.2529e-6)" d="m33.237 6.969h0.039899" fill="none" stroke="#000" stroke-linejoin="bevel" stroke-miterlimit="0" stroke-width="2.6528"/>
<path transform="matrix(14 0 0 14 -1.1713e-5 -6.2529e-6)" d="m0.71429 8.3153h32.562" fill="none" stroke="#000" stroke-linejoin="bevel" stroke-miterlimit="0" stroke-width=".039999"/>
</svg>
