<?xml version="1.0" encoding="UTF-8"?>
<svg width="187pt" height="248pt" version="1.1" viewBox="0 0 187 248" xmlns="http://www.w3.org/2000/svg" xmlns:xlink="http://www.w3.org/1999/xlink">
<defs>
<symbol id="ay" overflow="visible">
<path d="m-12.609 5.375h6.25c0.875 0 1.7188 0.17188 2.5312 0.51562s1.5469 0.82031 2.2031 1.4375c0.64844 0.61328 1.1719 1.3164 1.5781 2.1094 0.023438 0.019531 0.03125 0.046875 0.03125 0.078125v0.42188c0 0.03125-0.0078125 0.054688-0.03125 0.078125-0.019531 0.019531-0.050781 0.03125-0.09375 0.03125h-0.4375c-0.019531 0-0.046875-0.011719-0.078125-0.03125-0.30078-0.48047-0.66406-0.90625-1.0938-1.2812-0.42578-0.36719-0.88281-0.67188-1.375-0.92188-0.48828-0.24219-1.0156-0.42969-1.5781-0.5625-0.57031-0.125-1.1328-0.1875-1.6875-0.1875h-6.2188c-0.03125 0-0.0625-0.015625-0.09375-0.046875-0.03125-0.023437-0.046875-0.042969-0.046875-0.0625v-1.4531c0-0.03125 0.015625-0.0625 0.046875-0.09375 0.03125-0.023438 0.0625-0.03125 0.09375-0.03125z"/>
</symbol>
<symbol id="a" overflow="visible">
<path d="m-4.2188 5.375h4.2344c0.03125 0 0.054688 0.007812 0.078125 0.03125 0.03125 0.019531 0.046875 0.050781 0.046875 0.09375v1.4531c0 0.019531-0.015625 0.039063-0.046875 0.0625-0.023438 0.03125-0.046875 0.046875-0.078125 0.046875h-4.2344c-0.019531 0-0.046875-0.015625-0.078125-0.046875-0.03125-0.023437-0.046875-0.042969-0.046875-0.0625v-1.4531c0-0.085938 0.042969-0.125 0.125-0.125z"/>
</symbol>
<symbol id="ax" overflow="visible">
<path d="m-25.219 5.375h6.0938c0.59375 0 1.1953-0.0625 1.7969-0.1875 0.60547-0.125 1.1797-0.30859 1.7188-0.54688 0.53125-0.24219 1.0312-0.54688 1.5-0.92188 0.46094-0.36719 0.85938-0.79297 1.2031-1.2812 0.023438-0.042969 0.046875-0.0625 0.078125-0.0625h0.4375c0.054687 0 0.085937 0.019531 0.09375 0.0625 0.35547 0.48828 0.76562 0.92188 1.2344 1.2969s0.96875 0.67578 1.5 0.90625c0.52344 0.23828 1.0859 0.42188 1.6875 0.54688 0.60547 0.125 1.1992 0.1875 1.7812 0.1875h6.1094c0.03125 0 0.054688 0.007812 0.078125 0.03125 0.03125 0.019531 0.046875 0.050781 0.046875 0.09375v1.4531c0 0.019531-0.015625 0.039063-0.046875 0.0625-0.023438 0.03125-0.046875 0.046875-0.078125 0.046875h-6.1406c-0.65625 0-1.3008-0.09375-1.9375-0.28125-0.63281-0.1875-1.2344-0.45312-1.7969-0.79688-0.57031-0.34375-1.0859-0.75781-1.5469-1.2344-0.45703-0.46875-0.85156-0.99219-1.1875-1.5625-0.32031 0.55078-0.71875 1.0664-1.1875 1.5469-0.47656 0.48828-1 0.90625-1.5625 1.25s-1.1602 0.60938-1.7969 0.79688c-0.63281 0.1875-1.2852 0.28125-1.9531 0.28125h-6.125c-0.019531 0-0.046875-0.015625-0.078125-0.046875-0.03125-0.023437-0.046875-0.042969-0.046875-0.0625v-1.4531c0-0.085938 0.042969-0.125 0.125-0.125z"/>
</symbol>
<symbol id="aw" overflow="visible">
<path d="m-12.562 9.4375c0.3125-0.59375 0.69531-1.1406 1.1406-1.6406 0.44922-0.49219 0.94922-0.91797 1.5-1.2812 0.54297-0.36719 1.1328-0.64844 1.7656-0.84375 0.625-0.19922 1.2656-0.29688 1.9219-0.29688h6.25c0.03125 0 0.054688 0.007812 0.078125 0.03125 0.03125 0.019531 0.046875 0.050781 0.046875 0.09375v1.4531c0 0.019531-0.015625 0.039063-0.046875 0.0625-0.023438 0.03125-0.046875 0.046875-0.078125 0.046875h-6.2344c-1.1445 0-2.2344 0.25391-3.2656 0.76562-1.0312 0.50781-1.8477 1.2383-2.4531 2.1875-0.03125 0.019531-0.0625 0.03125-0.09375 0.03125h-0.4375c-0.03125 0-0.054688-0.011719-0.078125-0.03125-0.019531-0.023437-0.03125-0.046875-0.03125-0.078125v-0.42188c0-0.03125 0.007813-0.058594 0.015625-0.078125z"/>
</symbol>
<symbol id="av" overflow="visible">
<path d="m1.7344-4v2.7812c0 0.66797 0.19141 1.0234 0.57812 1.0625 0.019531 0.011719 0.050781 0.015625 0.09375 0.015625 0.28125 0 0.47656-0.1875 0.59375-0.5625 0.039062-0.15625 0.0625-0.34375 0.0625-0.5625v-0.54688h0.25v0.57812c0 0.54297-0.15234 0.93359-0.45312 1.1719-0.14844 0.11328-0.32422 0.17188-0.53125 0.17188-0.5625 0-0.94531-0.20703-1.1406-0.625-0.09375-0.19531-0.14062-0.4375-0.14062-0.71875v-2.7656h-0.85938v-0.21875c0.59375-0.03125 0.98828-0.40625 1.1875-1.125 0.0625-0.25 0.097656-0.51953 0.10938-0.8125h0.25v1.8438h1.4219v0.3125z"/>
</symbol>
<symbol id="ac" overflow="visible">
<path d="m4.7031-2.1406c0 0.6875-0.25 1.2578-0.75 1.7031-0.42969 0.36719-0.91797 0.54688-1.4688 0.54688-0.63672 0-1.1719-0.23828-1.6094-0.71875-0.39844-0.4375-0.59375-0.94531-0.59375-1.5312 0-0.67578 0.24219-1.25 0.73438-1.7188 0.41406-0.41406 0.91016-0.625 1.4844-0.625 0.64453 0 1.1875 0.26172 1.625 0.78125 0.38281 0.4375 0.57812 0.96094 0.57812 1.5625zm-2.2031 2c0.44531 0 0.80078-0.1875 1.0625-0.5625l0.09375-0.17188c0.14453-0.28906 0.21875-0.73828 0.21875-1.3438 0-0.64453-0.085938-1.1094-0.25-1.3906-0.29297-0.41406-0.67188-0.63281-1.1406-0.65625-0.40625 0-0.74609 0.16797-1.0156 0.5-0.042969 0.054687-0.085938 0.10938-0.125 0.17188-0.15625 0.29297-0.23438 0.75-0.23438 1.375 0 0.64844 0.082031 1.1172 0.25 1.4062 0.28125 0.4375 0.66016 0.66406 1.1406 0.67188z"/>
</symbol>
<symbol id="ab" overflow="visible">
<path d="m1.7344-4v2.7812c0 0.66797 0.19141 1.0234 0.57812 1.0625 0.019531 0.011719 0.050781 0.015625 0.09375 0.015625 0.28125 0 0.47656-0.1875 0.59375-0.5625 0.039062-0.15625 0.0625-0.34375 0.0625-0.5625v-0.54688h0.25v0.57812c0 0.54297-0.15234 0.93359-0.45312 1.1719-0.14844 0.11328-0.32422 0.17188-0.53125 0.17188-0.5625 0-0.94531-0.20703-1.1406-0.625-0.09375-0.19531-0.14062-0.4375-0.14062-0.71875v-2.7656h-0.85938v-0.21875c0.59375-0.03125 0.98828-0.40625 1.1875-1.125 0.0625-0.25 0.097656-0.51953 0.10938-0.8125h0.25v1.8438h1.4219v0.3125z"/>
</symbol>
<symbol id="aa" overflow="visible">
<path d="m3.3281-0.76562c-0.16797 0.41797-0.46094 0.6875-0.875 0.8125-0.13672 0.039062-0.28125 0.0625-0.4375 0.0625-0.5625 0-1-0.13281-1.3125-0.40625-0.1875-0.17578-0.28125-0.39453-0.28125-0.65625 0-0.50781 0.28125-0.92188 0.84375-1.2344 0.050781-0.019531 0.10156-0.039062 0.15625-0.0625 0.40625-0.19531 1-0.31641 1.7812-0.35938h0.0625v-0.375c0-0.5625-0.20312-0.95312-0.60938-1.1719-0.14844-0.070312-0.29688-0.10938-0.45312-0.10938-0.4375 0-0.77734 0.13281-1.0156 0.39062-0.023438 0.03125-0.042969 0.058594-0.0625 0.078125 0.3125 0.042969 0.47656 0.19531 0.5 0.45312 0 0.23047-0.10547 0.375-0.3125 0.4375-0.042969 0.023438-0.089844 0.03125-0.14062 0.03125-0.24219 0-0.38672-0.10938-0.4375-0.32812-0.023437-0.039063-0.03125-0.085937-0.03125-0.14062 0-0.40625 0.21094-0.71094 0.64062-0.92188 0.25781-0.14453 0.55078-0.21875 0.875-0.21875 0.55078 0 1.0078 0.18359 1.375 0.54688 0.22656 0.25 0.34766 0.58594 0.35938 1v2.1875c0 0.19922 0.054687 0.34375 0.17188 0.4375 0.050781 0.042969 0.11328 0.0625 0.1875 0.0625 0.23828 0 0.36328-0.21094 0.375-0.64062v-0.5625h0.25v0.5625c0 0.49219-0.20312 0.79297-0.60938 0.90625-0.085937 0.03125-0.15625 0.046875-0.21875 0.046875-0.32422 0-0.55859-0.17188-0.70312-0.51562-0.042969-0.09375-0.070312-0.19531-0.078125-0.3125zm-0.0625-1.6406c-1.0312 0.042969-1.6875 0.35938-1.9688 0.95312-0.074219 0.15625-0.10938 0.32422-0.10938 0.5 0 0.33594 0.15625 0.58594 0.46875 0.75 0.125 0.0625 0.26953 0.09375 0.4375 0.09375 0.34375 0 0.62891-0.13281 0.85938-0.40625 0.20703-0.22656 0.3125-0.52344 0.3125-0.89062z"/>
</symbol>
<symbol id="z" overflow="visible">
<path d="m1.7656-6.9375v6.1719c0 0.23047 0.054687 0.36719 0.17188 0.40625 0.070312 0.03125 0.27344 0.046875 0.60938 0.046875v0.3125l-1.1094-0.03125c-0.085938 0-0.45312 0.011719-1.1094 0.03125v-0.3125c0.39453 0 0.625-0.03125 0.6875-0.09375l0.03125-0.015625c0.039063-0.050781 0.0625-0.16406 0.0625-0.34375v-5.1875c0-0.25781-0.046875-0.42188-0.14062-0.48438h-0.015625c-0.074219-0.039062-0.19922-0.066406-0.375-0.078125h-0.25v-0.3125z"/>
</symbol>
<symbol id="y" overflow="visible">
<path d="m4.0938-2.2969v2.7969c0 0.20703-0.070312 0.31641-0.20312 0.32812-0.13672 0-0.20312-0.10938-0.20312-0.32812v-2.7969h-2.7969c-0.21875 0-0.32812-0.066406-0.32812-0.20312 0-0.13281 0.10938-0.20312 0.32812-0.20312h2.7969v-2.7969c0-0.20703 0.066406-0.31641 0.20312-0.32812 0.13281 0 0.20312 0.10938 0.20312 0.32812v2.7969h2.7812c0.21875 0 0.32812 0.070313 0.32812 0.20312 0 0.13672-0.10938 0.20312-0.32812 0.20312z"/>
</symbol>
<symbol id="x" overflow="visible">
<path d="m2.9375-6.4062v5.6094c0 0.21094 0.039062 0.33984 0.125 0.39062 0.11328 0.0625 0.38281 0.09375 0.8125 0.09375h0.3125v0.3125c-0.23047-0.019531-0.77344-0.03125-1.625-0.03125-0.84375 0-1.3828 0.011719-1.6094 0.03125v-0.3125h0.3125c0.51953 0 0.81641-0.054688 0.89062-0.17188v-0.015625c0.03125-0.050781 0.046875-0.14844 0.046875-0.29688v-5.1719c-0.34375 0.17969-0.78125 0.26562-1.3125 0.26562v-0.3125c0.80078 0 1.4062-0.21094 1.8125-0.64062 0.13281 0 0.21094 0.023438 0.23438 0.0625v0.015625 0.17188z"/>
</symbol>
<symbol id="w" overflow="visible">
<path d="m4.1094-8.9531v7.8438c0 0.28125 0.054687 0.46094 0.17188 0.53125 0.15625 0.09375 0.53516 0.14062 1.1406 0.14062h0.4375v0.4375c-0.32422-0.03125-1.0781-0.046875-2.2656-0.046875s-1.9453 0.015625-2.2656 0.046875v-0.4375h0.45312c0.71875 0 1.1289-0.082031 1.2344-0.25l0.015625-0.015625c0.03125-0.070313 0.046875-0.20703 0.046875-0.40625v-7.25c-0.48047 0.24219-1.0898 0.35938-1.8281 0.35938v-0.42188c1.1133 0 1.9609-0.30078 2.5469-0.90625 0.17578 0 0.28125 0.039063 0.3125 0.10938v0.26562z"/>
</symbol>
<symbol id="f" overflow="visible">
<path d="m5.7188-3.2188v3.9219c0 0.28906-0.089844 0.44141-0.26562 0.45312-0.1875 0-0.28125-0.15234-0.28125-0.45312v-3.9219h-3.9219c-0.30469 0-0.46094-0.09375-0.46875-0.28125 0-0.1875 0.15625-0.28125 0.46875-0.28125h3.9219v-3.9219c0-0.28906 0.09375-0.44141 0.28125-0.45312 0.17578 0 0.26562 0.15234 0.26562 0.45312v3.9219h3.9062c0.30078 0 0.45703 0.09375 0.46875 0.28125 0 0.1875-0.15625 0.28125-0.46875 0.28125z"/>
</symbol>
<symbol id="v" overflow="visible">
<path d="m5.2188-5.2969c0.050781-0.3125 0.19531-0.50391 0.4375-0.57812 0.039062-0.019531 0.09375-0.03125 0.15625-0.03125 0.23828 0 0.375 0.125 0.40625 0.375 0 0.054688-0.03125 0.21484-0.09375 0.48438l-0.51562 1.9531c-0.13672 0.58594-0.23438 1.0078-0.29688 1.2656-0.125 0.48047-0.1875 0.82422-0.1875 1.0312 0 0.42969 0.14062 0.64062 0.42188 0.64062 0.35156 0 0.64844-0.375 0.89062-1.125 0.050781-0.15625 0.10938-0.35938 0.17188-0.60938 0.070313-0.15625 0.13281-0.23828 0.1875-0.25 0.11328 0 0.17188 0.046875 0.17188 0.14062 0 0.13672-0.085938 0.46484-0.25 0.98438-0.054688 0.15625-0.10938 0.29297-0.17188 0.40625-0.26172 0.51172-0.60547 0.76562-1.0312 0.76562-0.52344 0-0.90234-0.22266-1.1406-0.67188-0.0625-0.11328-0.10938-0.23828-0.14062-0.375-0.58594 0.69922-1.1875 1.0469-1.8125 1.0469-0.69922 0-1.2148-0.31641-1.5469-0.95312-0.21094-0.375-0.3125-0.80469-0.3125-1.2969 0-1 0.34766-1.9297 1.0469-2.7969 0.65625-0.78125 1.3633-1.207 2.125-1.2812 0.070313-0.007813 0.14062-0.015625 0.20312-0.015625 0.5625 0 0.98828 0.29688 1.2812 0.89062zm-0.90625 3.625 0.70312-2.7344c0.019531-0.14453 0.03125-0.22266 0.03125-0.23438 0-0.19531-0.085937-0.4375-0.25-0.71875-0.19922-0.34375-0.48047-0.51562-0.84375-0.51562-0.49219 0-0.95312 0.32031-1.3906 0.95312-0.085938 0.11719-0.16406 0.24609-0.23438 0.39062-0.27344 0.54297-0.5 1.3125-0.6875 2.3125-0.0625 0.3125-0.09375 0.5625-0.09375 0.75 0 0.63672 0.17969 1.0469 0.54688 1.2344 0.09375 0.054687 0.21094 0.078125 0.35938 0.078125 0.51953 0 1.0469-0.32812 1.5781-0.98438 0.13281-0.15625 0.22266-0.3125 0.26562-0.46875v-0.015625c0.007813-0.019531 0.015625-0.035156 0.015625-0.046875z"/>
</symbol>
<symbol id="u" overflow="visible">
<path d="m3.3438-9.5625-1.0312 4.2188c0.53906-0.5625 1.0859-0.84375 1.6406-0.84375 0.69531 0 1.2188 0.32422 1.5625 0.96875 0.19531 0.375 0.29688 0.79688 0.29688 1.2656 0 0.99219-0.34375 1.918-1.0312 2.7812-0.64844 0.79297-1.3594 1.2266-2.1406 1.3125-0.074219 0.007813-0.14062 0.015625-0.20312 0.015625-0.67969 0-1.1797-0.3125-1.5-0.9375-0.1875-0.35156-0.28125-0.77344-0.28125-1.2656 0-0.3125 0.070312-0.78125 0.21875-1.4062l1.1562-4.5625c0.125-0.55078 0.1875-0.84375 0.1875-0.875 0-0.10156-0.0625-0.17188-0.1875-0.20312-0.11719-0.019531-0.28125-0.03125-0.5-0.03125-0.21094 0-0.32422-0.054688-0.34375-0.17188 0-0.15625 0.085938-0.25 0.26562-0.28125l1.7031-0.14062c0.125 0 0.1875 0.054688 0.1875 0.15625zm-1.3125 5.2969-0.3125 1.2812c-0.14844 0.59375-0.21875 1.0703-0.21875 1.4219 0 0.80469 0.23828 1.2617 0.71875 1.375 0.070312 0.023438 0.14453 0.03125 0.21875 0.03125 0.48828 0 0.95312-0.32812 1.3906-0.98438 0.09375-0.13281 0.17969-0.28516 0.26562-0.45312 0.25-0.53125 0.45703-1.25 0.625-2.1562 0.050781-0.32031 0.078125-0.59375 0.078125-0.8125 0-0.75-0.23047-1.1797-0.6875-1.2969-0.0625-0.007813-0.125-0.015625-0.1875-0.015625-0.5625 0-1.125 0.37109-1.6875 1.1094-0.074219 0.09375-0.14062 0.26172-0.20312 0.5z"/>
</symbol>
<symbol id="t" overflow="visible">
<path d="m1.8594-1.1562c0.082031-0.03125 0.20703-0.046875 0.375-0.046875 0.25 0 0.57812 0.078125 0.98438 0.23438 0.36328 0.125 0.64062 0.1875 0.82812 0.1875 0.48828 0 0.91016-0.17578 1.2656-0.53125 0.1875-0.17578 0.32031-0.39062 0.40625-0.64062 0.0625-0.125 0.12891-0.1875 0.20312-0.1875 0.11328 0 0.17188 0.046875 0.17188 0.14062 0 0.24219-0.15234 0.58594-0.45312 1.0312-0.5 0.75-1.0859 1.125-1.75 1.125-0.3125 0-0.60938-0.17188-0.89062-0.51562-0.26172-0.3125-0.47656-0.48438-0.64062-0.51562-0.042969-0.007812-0.10156-0.015625-0.17188-0.015625-0.41797 0-0.8125 0.28906-1.1875 0.85938-0.074219 0.125-0.15234 0.1875-0.23438 0.1875-0.10547 0-0.15625-0.046875-0.15625-0.14062 0-0.11328 0.21094-0.42969 0.64062-0.95312 0.23828-0.30078 0.50391-0.59375 0.79688-0.875l1.25-1.1875c0.92578-0.78125 1.5781-1.3906 1.9531-1.8281-0.33594 0-0.69531-0.070313-1.0781-0.21875-0.40625-0.13281-0.69922-0.20312-0.875-0.20312-0.54297 0-0.91797 0.17969-1.125 0.53125-0.03125 0.042969-0.058594 0.085938-0.078125 0.125-0.03125 0.10547-0.089844 0.15625-0.17188 0.15625-0.11719 0-0.17188-0.050781-0.17188-0.15625 0-0.20703 0.13281-0.48828 0.40625-0.84375 0.375-0.5 0.80078-0.75 1.2812-0.75 0.3125 0 0.60156 0.16406 0.875 0.48438l0.015625 0.015625c0.019531 0.03125 0.046875 0.0625 0.078125 0.09375 0.22656 0.26172 0.41016 0.40625 0.54688 0.4375 0.0625 0.011719 0.11719 0.015625 0.17188 0.015625 0.3125 0 0.64453-0.26953 1-0.8125l0.046875-0.078125c0.0625-0.10156 0.13281-0.15625 0.21875-0.15625 0.09375 0 0.14062 0.046875 0.14062 0.14062 0 0.11719-0.19531 0.41406-0.57812 0.89062-0.28125 0.34375-0.63281 0.72656-1.0469 1.1406-0.0625 0.054687-0.51172 0.46094-1.3438 1.2188l-0.03125 0.03125c-0.60547 0.53125-1.1641 1.0703-1.6719 1.6094z"/>
</symbol>
<symbol id="n" overflow="visible">
<path d="m2.6875-3.5c0 0.3125-0.14062 0.53906-0.42188 0.67188-0.10547 0.042969-0.21094 0.0625-0.3125 0.0625-0.3125 0-0.53906-0.13281-0.67188-0.40625-0.054688-0.10156-0.078125-0.21094-0.078125-0.32812 0-0.3125 0.14062-0.53516 0.42188-0.67188 0.10156-0.039063 0.21094-0.0625 0.32812-0.0625 0.30078 0 0.52344 0.13672 0.67188 0.40625 0.039062 0.10547 0.0625 0.21484 0.0625 0.32812z"/>
</symbol>
<symbol id="au" overflow="visible">
<path d="m-12.609 5.375h6.2188c0.58594 0 1.1523-0.070312 1.7031-0.20312 0.55469-0.125 1.0742-0.3125 1.5625-0.5625 0.48047-0.24219 0.9375-0.54688 1.375-0.92188 0.4375-0.36719 0.80469-0.78125 1.0938-1.25 0.023438-0.042969 0.046875-0.0625 0.078125-0.0625h0.4375c0.085938 0 0.125 0.046875 0.125 0.14062v0.42188c0 0.007812-0.0078125 0.035156-0.03125 0.078125-0.40625 0.78125-0.92969 1.4727-1.5781 2.0781-0.65625 0.61328-1.3906 1.0938-2.2031 1.4375-0.8125 0.35156-1.6562 0.53125-2.5312 0.53125h-6.25c-0.03125 0-0.0625-0.015625-0.09375-0.046875-0.03125-0.023437-0.046875-0.042969-0.046875-0.0625v-1.4531c0-0.03125 0.015625-0.0625 0.046875-0.09375 0.03125-0.023438 0.0625-0.03125 0.09375-0.03125z"/>
</symbol>
<symbol id="b" overflow="visible">
<path d="m-4.2188 5.375h4.2344c0.03125 0 0.054688 0.007812 0.078125 0.03125 0.03125 0.019531 0.046875 0.050781 0.046875 0.09375v1.4531c0 0.019531-0.015625 0.039063-0.046875 0.0625-0.023438 0.03125-0.046875 0.046875-0.078125 0.046875h-4.2344c-0.019531 0-0.046875-0.015625-0.078125-0.046875-0.03125-0.023437-0.046875-0.042969-0.046875-0.0625v-1.4531c0-0.085938 0.042969-0.125 0.125-0.125z"/>
</symbol>
<symbol id="at" overflow="visible">
<path d="m-25.219 5.375h6.125c0.64844 0 1.2891 0.085938 1.9219 0.26562 0.63672 0.1875 1.2422 0.45312 1.8125 0.79688 0.57422 0.35156 1.1016 0.76953 1.5781 1.25 0.46875 0.48828 0.86719 1.0078 1.1875 1.5625 0.33594-0.57422 0.73047-1.1016 1.1875-1.5781 0.46094-0.46875 0.98047-0.88281 1.5625-1.2344 0.57422-0.34375 1.1836-0.60938 1.8281-0.79688 0.63672-0.17969 1.2656-0.26562 1.8906-0.26562h6.1406c0.03125 0 0.054688 0.007812 0.078125 0.03125 0.03125 0.019531 0.046875 0.050781 0.046875 0.09375v1.4531c0 0.019531-0.015625 0.039063-0.046875 0.0625-0.023438 0.03125-0.046875 0.046875-0.078125 0.046875h-6.1094c-0.82031 0-1.6133 0.10156-2.375 0.3125-0.76953 0.21875-1.4844 0.54688-2.1406 0.98438-0.66406 0.44531-1.2266 1-1.6875 1.6562-0.019531 0.019531-0.050781 0.03125-0.09375 0.03125h-0.4375c-0.019531 0-0.046875-0.011719-0.078125-0.03125-0.45703-0.65625-1.0156-1.2109-1.6719-1.6562-0.66406-0.4375-1.3828-0.76562-2.1562-0.98438-0.76953-0.21094-1.5664-0.3125-2.3906-0.3125h-6.0938c-0.019531 0-0.046875-0.015625-0.078125-0.046875-0.03125-0.023437-0.046875-0.042969-0.046875-0.0625v-1.4531c0-0.085938 0.042969-0.125 0.125-0.125z"/>
</symbol>
<symbol id="as" overflow="visible">
<path d="m-12.469 2.375h0.4375c0.042969 0 0.074219 0.019531 0.09375 0.0625 0.39844 0.61328 0.90234 1.1445 1.5156 1.5938 0.60547 0.44531 1.2656 0.78125 1.9844 1 0.71094 0.22656 1.4492 0.34375 2.2188 0.34375h6.2344c0.03125 0 0.054688 0.007812 0.078125 0.03125 0.03125 0.019531 0.046875 0.050781 0.046875 0.09375v1.4531c0 0.019531-0.015625 0.039063-0.046875 0.0625-0.023438 0.03125-0.046875 0.046875-0.078125 0.046875h-6.25c-0.67578 0-1.3281-0.10547-1.9531-0.3125-0.625-0.19922-1.2031-0.47656-1.7344-0.82812-0.53906-0.35547-1.0352-0.78125-1.4844-1.2812-0.45703-0.5-0.84375-1.043-1.1562-1.625-0.007812-0.042969-0.015625-0.070313-0.015625-0.078125v-0.42188c0-0.09375 0.039063-0.14062 0.10938-0.14062z"/>
</symbol>
<symbol id="ar" overflow="visible">
<path d="m1.7344-4v2.7812c0 0.66797 0.19141 1.0234 0.57812 1.0625 0.019531 0.011719 0.050781 0.015625 0.09375 0.015625 0.28125 0 0.47656-0.1875 0.59375-0.5625 0.039062-0.15625 0.0625-0.34375 0.0625-0.5625v-0.54688h0.25v0.57812c0 0.54297-0.15234 0.93359-0.45312 1.1719-0.14844 0.11328-0.32422 0.17188-0.53125 0.17188-0.5625 0-0.94531-0.20703-1.1406-0.625-0.09375-0.19531-0.14062-0.4375-0.14062-0.71875v-2.7656h-0.85938v-0.21875c0.59375-0.03125 0.98828-0.40625 1.1875-1.125 0.0625-0.25 0.097656-0.51953 0.10938-0.8125h0.25v1.8438h1.4219v0.3125z"/>
</symbol>
<symbol id="aq" overflow="visible">
<path d="m4.7031-2.1406c0 0.6875-0.25 1.2578-0.75 1.7031-0.42969 0.36719-0.91797 0.54688-1.4688 0.54688-0.63672 0-1.1719-0.23828-1.6094-0.71875-0.39844-0.4375-0.59375-0.94531-0.59375-1.5312 0-0.67578 0.24219-1.25 0.73438-1.7188 0.41406-0.41406 0.91016-0.625 1.4844-0.625 0.64453 0 1.1875 0.26172 1.625 0.78125 0.38281 0.4375 0.57812 0.96094 0.57812 1.5625zm-2.2031 2c0.44531 0 0.80078-0.1875 1.0625-0.5625l0.09375-0.17188c0.14453-0.28906 0.21875-0.73828 0.21875-1.3438 0-0.64453-0.085938-1.1094-0.25-1.3906-0.29297-0.41406-0.67188-0.63281-1.1406-0.65625-0.40625 0-0.74609 0.16797-1.0156 0.5-0.042969 0.054687-0.085938 0.10938-0.125 0.17188-0.15625 0.29297-0.23438 0.75-0.23438 1.375 0 0.64844 0.082031 1.1172 0.25 1.4062 0.28125 0.4375 0.66016 0.66406 1.1406 0.67188z"/>
</symbol>
<symbol id="ap" overflow="visible">
<path d="m1.7344-4v2.7812c0 0.66797 0.19141 1.0234 0.57812 1.0625 0.019531 0.011719 0.050781 0.015625 0.09375 0.015625 0.28125 0 0.47656-0.1875 0.59375-0.5625 0.039062-0.15625 0.0625-0.34375 0.0625-0.5625v-0.54688h0.25v0.57812c0 0.54297-0.15234 0.93359-0.45312 1.1719-0.14844 0.11328-0.32422 0.17188-0.53125 0.17188-0.5625 0-0.94531-0.20703-1.1406-0.625-0.09375-0.19531-0.14062-0.4375-0.14062-0.71875v-2.7656h-0.85938v-0.21875c0.59375-0.03125 0.98828-0.40625 1.1875-1.125 0.0625-0.25 0.097656-0.51953 0.10938-0.8125h0.25v1.8438h1.4219v0.3125z"/>
</symbol>
<symbol id="ao" overflow="visible">
<path d="m3.3281-0.76562c-0.16797 0.41797-0.46094 0.6875-0.875 0.8125-0.13672 0.039062-0.28125 0.0625-0.4375 0.0625-0.5625 0-1-0.13281-1.3125-0.40625-0.1875-0.17578-0.28125-0.39453-0.28125-0.65625 0-0.50781 0.28125-0.92188 0.84375-1.2344 0.050781-0.019531 0.10156-0.039062 0.15625-0.0625 0.40625-0.19531 1-0.31641 1.7812-0.35938h0.0625v-0.375c0-0.5625-0.20312-0.95312-0.60938-1.1719-0.14844-0.070312-0.29688-0.10938-0.45312-0.10938-0.4375 0-0.77734 0.13281-1.0156 0.39062-0.023438 0.03125-0.042969 0.058594-0.0625 0.078125 0.3125 0.042969 0.47656 0.19531 0.5 0.45312 0 0.23047-0.10547 0.375-0.3125 0.4375-0.042969 0.023438-0.089844 0.03125-0.14062 0.03125-0.24219 0-0.38672-0.10938-0.4375-0.32812-0.023437-0.039063-0.03125-0.085937-0.03125-0.14062 0-0.40625 0.21094-0.71094 0.64062-0.92188 0.25781-0.14453 0.55078-0.21875 0.875-0.21875 0.55078 0 1.0078 0.18359 1.375 0.54688 0.22656 0.25 0.34766 0.58594 0.35938 1v2.1875c0 0.19922 0.054687 0.34375 0.17188 0.4375 0.050781 0.042969 0.11328 0.0625 0.1875 0.0625 0.23828 0 0.36328-0.21094 0.375-0.64062v-0.5625h0.25v0.5625c0 0.49219-0.20312 0.79297-0.60938 0.90625-0.085937 0.03125-0.15625 0.046875-0.21875 0.046875-0.32422 0-0.55859-0.17188-0.70312-0.51562-0.042969-0.09375-0.070312-0.19531-0.078125-0.3125zm-0.0625-1.6406c-1.0312 0.042969-1.6875 0.35938-1.9688 0.95312-0.074219 0.15625-0.10938 0.32422-0.10938 0.5 0 0.33594 0.15625 0.58594 0.46875 0.75 0.125 0.0625 0.26953 0.09375 0.4375 0.09375 0.34375 0 0.62891-0.13281 0.85938-0.40625 0.20703-0.22656 0.3125-0.52344 0.3125-0.89062z"/>
</symbol>
<symbol id="an" overflow="visible">
<path d="m1.7656-6.9375v6.1719c0 0.23047 0.054687 0.36719 0.17188 0.40625 0.070312 0.03125 0.27344 0.046875 0.60938 0.046875v0.3125l-1.1094-0.03125c-0.085938 0-0.45312 0.011719-1.1094 0.03125v-0.3125c0.39453 0 0.625-0.03125 0.6875-0.09375l0.03125-0.015625c0.039063-0.050781 0.0625-0.16406 0.0625-0.34375v-5.1875c0-0.25781-0.046875-0.42188-0.14062-0.48438h-0.015625c-0.074219-0.039062-0.19922-0.066406-0.375-0.078125h-0.25v-0.3125z"/>
</symbol>
<symbol id="e" overflow="visible">
<path d="m5.2188-5.2969c0.050781-0.3125 0.19531-0.50391 0.4375-0.57812 0.039062-0.019531 0.09375-0.03125 0.15625-0.03125 0.23828 0 0.375 0.125 0.40625 0.375 0 0.054688-0.03125 0.21484-0.09375 0.48438l-0.51562 1.9531c-0.13672 0.58594-0.23438 1.0078-0.29688 1.2656-0.125 0.48047-0.1875 0.82422-0.1875 1.0312 0 0.42969 0.14062 0.64062 0.42188 0.64062 0.35156 0 0.64844-0.375 0.89062-1.125 0.050781-0.15625 0.10938-0.35938 0.17188-0.60938 0.070313-0.15625 0.13281-0.23828 0.1875-0.25 0.11328 0 0.17188 0.046875 0.17188 0.14062 0 0.13672-0.085938 0.46484-0.25 0.98438-0.054688 0.15625-0.10938 0.29297-0.17188 0.40625-0.26172 0.51172-0.60547 0.76562-1.0312 0.76562-0.52344 0-0.90234-0.22266-1.1406-0.67188-0.0625-0.11328-0.10938-0.23828-0.14062-0.375-0.58594 0.69922-1.1875 1.0469-1.8125 1.0469-0.69922 0-1.2148-0.31641-1.5469-0.95312-0.21094-0.375-0.3125-0.80469-0.3125-1.2969 0-1 0.34766-1.9297 1.0469-2.7969 0.65625-0.78125 1.3633-1.207 2.125-1.2812 0.070313-0.007813 0.14062-0.015625 0.20312-0.015625 0.5625 0 0.98828 0.29688 1.2812 0.89062zm-0.90625 3.625 0.70312-2.7344c0.019531-0.14453 0.03125-0.22266 0.03125-0.23438 0-0.19531-0.085937-0.4375-0.25-0.71875-0.19922-0.34375-0.48047-0.51562-0.84375-0.51562-0.49219 0-0.95312 0.32031-1.3906 0.95312-0.085938 0.11719-0.16406 0.24609-0.23438 0.39062-0.27344 0.54297-0.5 1.3125-0.6875 2.3125-0.0625 0.3125-0.09375 0.5625-0.09375 0.75 0 0.63672 0.17969 1.0469 0.54688 1.2344 0.09375 0.054687 0.21094 0.078125 0.35938 0.078125 0.51953 0 1.0469-0.32812 1.5781-0.98438 0.13281-0.15625 0.22266-0.3125 0.26562-0.46875v-0.015625c0.007813-0.019531 0.015625-0.035156 0.015625-0.046875z"/>
</symbol>
<symbol id="d" overflow="visible">
<path d="m3.3438-9.5625-1.0312 4.2188c0.53906-0.5625 1.0859-0.84375 1.6406-0.84375 0.69531 0 1.2188 0.32422 1.5625 0.96875 0.19531 0.375 0.29688 0.79688 0.29688 1.2656 0 0.99219-0.34375 1.918-1.0312 2.7812-0.64844 0.79297-1.3594 1.2266-2.1406 1.3125-0.074219 0.007813-0.14062 0.015625-0.20312 0.015625-0.67969 0-1.1797-0.3125-1.5-0.9375-0.1875-0.35156-0.28125-0.77344-0.28125-1.2656 0-0.3125 0.070312-0.78125 0.21875-1.4062l1.1562-4.5625c0.125-0.55078 0.1875-0.84375 0.1875-0.875 0-0.10156-0.0625-0.17188-0.1875-0.20312-0.11719-0.019531-0.28125-0.03125-0.5-0.03125-0.21094 0-0.32422-0.054688-0.34375-0.17188 0-0.15625 0.085938-0.25 0.26562-0.28125l1.7031-0.14062c0.125 0 0.1875 0.054688 0.1875 0.15625zm-1.3125 5.2969-0.3125 1.2812c-0.14844 0.59375-0.21875 1.0703-0.21875 1.4219 0 0.80469 0.23828 1.2617 0.71875 1.375 0.070312 0.023438 0.14453 0.03125 0.21875 0.03125 0.48828 0 0.95312-0.32812 1.3906-0.98438 0.09375-0.13281 0.17969-0.28516 0.26562-0.45312 0.25-0.53125 0.45703-1.25 0.625-2.1562 0.050781-0.32031 0.078125-0.59375 0.078125-0.8125 0-0.75-0.23047-1.1797-0.6875-1.2969-0.0625-0.007813-0.125-0.015625-0.1875-0.015625-0.5625 0-1.125 0.37109-1.6875 1.1094-0.074219 0.09375-0.14062 0.26172-0.20312 0.5z"/>
</symbol>
<symbol id="m" overflow="visible">
<path d="m9.625-4.5781h-8.3594c-0.30469 0-0.46484-0.09375-0.48438-0.28125 0-0.1875 0.15625-0.28125 0.46875-0.28125h8.375c0.30078 0 0.45703 0.09375 0.46875 0.28125 0 0.1875-0.15625 0.28125-0.46875 0.28125zm0 2.7188h-8.375c-0.30469 0-0.46094-0.09375-0.46875-0.28125 0-0.1875 0.16016-0.28125 0.48438-0.28125h8.3594c0.28906 0 0.44531 0.09375 0.46875 0.28125 0 0.1875-0.15625 0.28125-0.46875 0.28125z"/>
</symbol>
<symbol id="j" overflow="visible">
<path d="m2.6875-5.2969c0 0.3125-0.14062 0.53906-0.42188 0.67188-0.10547 0.054688-0.21094 0.078125-0.3125 0.078125-0.3125 0-0.53906-0.14062-0.67188-0.42188-0.054688-0.10156-0.078125-0.21094-0.078125-0.32812 0-0.30078 0.14062-0.52344 0.42188-0.67188 0.10156-0.039062 0.21094-0.0625 0.32812-0.0625 0.30078 0 0.52344 0.14062 0.67188 0.42188 0.039062 0.10547 0.0625 0.21094 0.0625 0.3125zm-0.26562 5.1406c-0.085937 0.074219-0.20312 0.12109-0.35938 0.14062-0.011719 0.011719-0.046875 0.015625-0.10938 0.015625-0.375 0-0.61719-0.17188-0.71875-0.51562-0.023437-0.070313-0.03125-0.14453-0.03125-0.21875 0-0.33203 0.14062-0.5625 0.42188-0.6875 0.10156-0.039063 0.21094-0.0625 0.32812-0.0625 0.51953 0 0.78125 0.48047 0.78125 1.4375 0 0.91406-0.27344 1.7227-0.8125 2.4219-0.16797 0.21875-0.28906 0.32812-0.35938 0.32812-0.09375 0-0.14062-0.054687-0.14062-0.15625 0-0.042969 0.035156-0.10547 0.10938-0.1875 0.59375-0.6875 0.89062-1.5273 0.89062-2.5156z"/>
</symbol>
<symbol id="ah" overflow="visible">
<path d="m5.5781-9.75 3.0156 8.75c0.09375 0.27344 0.24219 0.4375 0.45312 0.5 0.1875 0.042969 0.42969 0.0625 0.73438 0.0625h0.25v0.4375c-0.58594-0.03125-1.1953-0.046875-1.8281-0.046875-1.0117 0-1.6836 0.015625-2.0156 0.046875v-0.4375c0.76953 0 1.1562-0.14062 1.1562-0.42188 0-0.007813-0.011719-0.070313-0.03125-0.1875l-0.75-2.1406h-3.4531l-0.64062 1.8281c-0.023438 0.042969-0.03125 0.11719-0.03125 0.21875 0 0.30469 0.17969 0.51562 0.54688 0.64062h0.015625c0.13281 0.042969 0.29688 0.0625 0.48438 0.0625v0.4375c-0.89844-0.03125-1.4336-0.046875-1.6094-0.046875-0.3125 0-0.78906 0.015625-1.4219 0.046875v-0.4375c0.78906-0.019531 1.2969-0.30078 1.5156-0.84375 0.019531-0.03125 0.035156-0.0625 0.046875-0.09375l2.8906-8.375c0.0625-0.15625 0.14062-0.24219 0.23438-0.26562 0.03125-0.007813 0.066406-0.015625 0.10938-0.015625 0.13281 0 0.23438 0.070312 0.29688 0.20312v0.03125zm-0.75 1.5781-1.5625 4.5469h3.1406z"/>
</symbol>
<symbol id="ag" overflow="visible">
<path d="m2.4844-9.7188v8.6562c0 0.3125 0.070313 0.5 0.21875 0.5625 0.10156 0.042969 0.39062 0.0625 0.85938 0.0625v0.4375l-1.5469-0.046875c-0.11719 0-0.63281 0.015625-1.5469 0.046875v-0.4375c0.53906 0 0.85938-0.039062 0.95312-0.125l0.03125-0.03125c0.0625-0.070312 0.09375-0.22656 0.09375-0.46875v-7.2812c0-0.36328-0.0625-0.58594-0.1875-0.67188h-0.015625c-0.10547-0.050781-0.28125-0.085937-0.53125-0.10938h-0.34375v-0.4375z"/>
</symbol>
<symbol id="p" overflow="visible">
<path d="m6.5938-3c0 0.96875-0.35547 1.7656-1.0625 2.3906-0.59375 0.51172-1.2773 0.76562-2.0469 0.76562-0.89844 0-1.6523-0.33594-2.2656-1.0156-0.55469-0.60156-0.82812-1.3164-0.82812-2.1406 0-0.94531 0.33594-1.75 1.0156-2.4062 0.59375-0.57031 1.2891-0.85938 2.0938-0.85938 0.90625 0 1.6641 0.35938 2.2812 1.0781 0.53906 0.625 0.8125 1.3555 0.8125 2.1875zm-3.0938 2.7969c0.625 0 1.1172-0.25781 1.4844-0.78125l0.14062-0.25c0.20703-0.40625 0.3125-1.0312 0.3125-1.875 0-0.89453-0.125-1.5391-0.375-1.9375-0.39844-0.58203-0.92188-0.89062-1.5781-0.92188-0.57422 0-1.0469 0.23438-1.4219 0.70312-0.074219 0.074219-0.13281 0.15234-0.17188 0.23438-0.23047 0.41797-0.34375 1.0586-0.34375 1.9219 0 0.90625 0.11719 1.5625 0.35938 1.9688 0.38281 0.61719 0.91406 0.92969 1.5938 0.9375z"/>
</symbol>
<symbol id="o" overflow="visible">
<path d="m1.5469-4.8125c0-0.36328-0.074219-0.58594-0.21875-0.67188-0.11719-0.070313-0.3125-0.10938-0.59375-0.10938h-0.28125v-0.4375l1.9688-0.15625v1.4688c0.4375-0.97656 1.1289-1.4688 2.0781-1.4688 0.69531 0 1.1875 0.17188 1.4688 0.51562 0.25 0.29297 0.39062 0.6875 0.42188 1.1875v0.95312 2.6719c0.007813 0.23047 0.14453 0.35938 0.40625 0.39062 0.11328 0.023438 0.34375 0.03125 0.6875 0.03125v0.4375c-0.94922-0.03125-1.4688-0.046875-1.5625-0.046875-0.074219 0-0.60156 0.015625-1.5781 0.046875v-0.4375c0.55078 0 0.875-0.039062 0.96875-0.125l0.015625-0.03125c0.070313-0.070312 0.10938-0.22656 0.10938-0.46875v-3.2656c0-0.92578-0.26562-1.4375-0.79688-1.5312-0.085937-0.007813-0.16797-0.015625-0.25-0.015625-0.5625 0-1.0391 0.24609-1.4219 0.73438-0.3125 0.40625-0.46875 0.90625-0.46875 1.5v2.5781c0 0.3125 0.078125 0.5 0.23438 0.5625 0.10156 0.042969 0.39062 0.0625 0.85938 0.0625v0.4375c-0.94922-0.03125-1.4688-0.046875-1.5625-0.046875-0.074219 0-0.60156 0.015625-1.5781 0.046875v-0.4375c0.55078 0 0.86719-0.039062 0.95312-0.125l0.03125-0.03125c0.070312-0.070312 0.10938-0.22656 0.10938-0.46875z"/>
</symbol>
<symbol id="af" overflow="visible">
<path d="m3.1094-2.4062c0.40625 0 0.73828-0.1875 1-0.5625 0.14453-0.25 0.21875-0.64062 0.21875-1.1719-0.042969-1.125-0.44922-1.6953-1.2188-1.7188-0.41797 0-0.75 0.18359-1 0.54688-0.14844 0.26172-0.21875 0.65625-0.21875 1.1875 0.039063 1.1172 0.44531 1.6875 1.2188 1.7188zm-1.3906-0.10938c-0.15625 0.1875-0.23438 0.40625-0.23438 0.65625 0 0.38672 0.14844 0.66797 0.45312 0.84375 0.09375 0.054687 0.1875 0.085937 0.28125 0.09375 0.070312 0.011719 0.42578 0.015625 1.0625 0.015625 0.95703 0 1.6562 0.085938 2.0938 0.25 0.10156 0.03125 0.20703 0.078125 0.3125 0.14062 0.5625 0.375 0.86328 0.90625 0.90625 1.5938 0 0.60156-0.39062 1.0781-1.1719 1.4219-0.5625 0.25781-1.2109 0.39062-1.9375 0.39062-1.0859 0-1.9297-0.25781-2.5312-0.76562-0.375-0.29297-0.5625-0.63281-0.5625-1.0156 0-0.46875 0.23828-0.85547 0.71875-1.1562 0.16406-0.10156 0.35938-0.1875 0.57812-0.25-0.38672-0.28906-0.59375-0.70703-0.625-1.25 0-0.4375 0.14453-0.82031 0.4375-1.1562-0.41797-0.39453-0.63672-0.875-0.65625-1.4375 0-0.64453 0.28125-1.1719 0.84375-1.5781 0.40625-0.3125 0.87891-0.46875 1.4219-0.46875 0.5625 0 1.0547 0.16797 1.4844 0.5 0.44531-0.4375 0.94141-0.65625 1.4844-0.65625 0.36328 0 0.59375 0.16797 0.6875 0.5 0.019531 0.0625 0.03125 0.125 0.03125 0.1875-0.042969 0.24219-0.17969 0.38281-0.40625 0.42188-0.21094 0-0.34375-0.097656-0.40625-0.29688v-0.10938c0-0.19531 0.070313-0.32031 0.21875-0.375-0.03125-0.007813-0.078125-0.015625-0.14062-0.015625-0.46094 0-0.88281 0.18359-1.2656 0.54688 0.38281 0.35547 0.57812 0.80859 0.57812 1.3594 0 0.64844-0.28125 1.1719-0.84375 1.5781-0.40625 0.30469-0.88281 0.45312-1.4219 0.45312-0.52344 0-0.98438-0.14062-1.3906-0.42188zm1.7812 5.0781c0.88281 0 1.5547-0.23438 2.0156-0.70312 0.22656-0.23047 0.34375-0.48047 0.34375-0.75 0-0.69922-0.54688-1.0898-1.6406-1.1719h-0.015625c-0.24219-0.019531-0.60938-0.03125-1.1094-0.03125h-0.82812c-0.4375 0.023438-0.76562 0.22656-0.98438 0.625-0.10547 0.17578-0.15625 0.36719-0.15625 0.57812 0 0.4375 0.26953 0.80078 0.8125 1.0938 0.4375 0.23828 0.95703 0.35938 1.5625 0.35938z"/>
</symbol>
<symbol id="ae" overflow="visible">
<path d="m5.3125-0.76562c-0.48047 0.61719-1.1055 0.92188-1.875 0.92188-0.85547 0-1.5781-0.34375-2.1719-1.0312-0.53125-0.60156-0.79688-1.3164-0.79688-2.1406 0-0.96875 0.36328-1.7695 1.0938-2.4062 0.59375-0.50781 1.2695-0.76562 2.0312-0.76562 0.70703 0 1.2969 0.29297 1.7656 0.875v-3.0312c0-0.36328-0.0625-0.58594-0.1875-0.67188h-0.015625c-0.125-0.070313-0.42188-0.10938-0.89062-0.10938v-0.4375l2.0156-0.15625v8.5c0 0.36719 0.070312 0.58984 0.21875 0.67188h0.015625c0.125 0.074219 0.41016 0.10938 0.85938 0.10938v0.4375l-2.0625 0.15625zm0-3.75c0-0.1875-0.042969-0.34375-0.125-0.46875l-0.015625-0.0625c-0.38672-0.55078-0.89062-0.82812-1.5156-0.82812-0.65625 0-1.1836 0.29688-1.5781 0.89062-0.29297 0.44922-0.4375 1.1094-0.4375 1.9844s0.13281 1.5273 0.40625 1.9531c0.375 0.59375 0.86328 0.89062 1.4688 0.89062 0.66406 0 1.207-0.30469 1.625-0.92188l0.03125-0.0625c0.09375-0.1875 0.14062-0.35938 0.14062-0.51562z"/>
</symbol>
<symbol id="h" overflow="visible">
<path d="m2.4844-6.1875v5.1406c0 0.29297 0.050781 0.46875 0.15625 0.53125 0.11328 0.054687 0.38281 0.078125 0.8125 0.078125v0.4375c-0.94922-0.03125-1.4336-0.046875-1.4531-0.046875-0.125 0-0.63672 0.015625-1.5312 0.046875v-0.4375c0.53906 0 0.85938-0.039062 0.95312-0.125l0.03125-0.03125c0.0625-0.070312 0.09375-0.22656 0.09375-0.46875v-3.7656c0-0.375-0.074219-0.59766-0.21875-0.67188h-0.015625l-0.015625-0.015625c-0.11719-0.050781-0.375-0.078125-0.78125-0.078125v-0.4375zm0.046875-2.4375c0 0.34375-0.15234 0.57422-0.45312 0.6875-0.09375 0.042969-0.1875 0.0625-0.28125 0.0625-0.33594 0-0.5625-0.14844-0.6875-0.45312v-0.015625c-0.042969-0.09375-0.0625-0.1875-0.0625-0.28125 0-0.28906 0.12891-0.50391 0.39062-0.64062 0.10156-0.0625 0.22266-0.09375 0.35938-0.09375 0.3125 0 0.53516 0.13672 0.67188 0.40625 0.039062 0.10547 0.0625 0.21484 0.0625 0.32812z"/>
</symbol>
<symbol id="am" overflow="visible">
<path d="m5.8281-4.6562-1.8438 4.5469c-0.074219 0.17578-0.16797 0.26562-0.28125 0.26562-0.11719 0-0.20312-0.058594-0.26562-0.17188 0-0.019531-0.011719-0.050781-0.03125-0.09375l-2.0156-4.9688c-0.10547-0.25-0.21875-0.39453-0.34375-0.4375v-0.015625c-0.125-0.039062-0.38672-0.0625-0.78125-0.0625v-0.4375c0.41406 0.03125 0.86719 0.046875 1.3594 0.046875 0.17578 0 0.6875-0.015625 1.5312-0.046875v0.4375c-0.53125 0-0.79688 0.12109-0.79688 0.35938 0 0.03125 0.023437 0.10938 0.078125 0.23438l1.5625 3.9062 1.4375-3.5625c0.050781-0.16406 0.078125-0.28125 0.078125-0.34375 0-0.32031-0.16406-0.51953-0.48438-0.59375h-0.1875v-0.4375c0.47656 0.03125 0.88281 0.046875 1.2188 0.046875 0.38281 0 0.73438-0.015625 1.0469-0.046875v0.4375c-0.60547 0-1.0234 0.28125-1.25 0.84375v0.015625c-0.011719 0.023437-0.023437 0.046875-0.03125 0.078125z"/>
</symbol>
<symbol id="al" overflow="visible">
<path d="m2.9062-2.7188c-0.80469-0.15625-1.3281-0.30469-1.5781-0.45312-0.09375-0.050781-0.18359-0.11328-0.26562-0.1875-0.39844-0.32031-0.59375-0.71875-0.59375-1.1875 0-0.65625 0.28516-1.1328 0.85938-1.4375 0.36328-0.1875 0.82031-0.28125 1.375-0.28125 0.51953 0 0.95703 0.13281 1.3125 0.39062 0.10156-0.082031 0.17969-0.16016 0.23438-0.23438 0.125-0.10156 0.21875-0.15625 0.28125-0.15625 0.09375 0.085937 0.14453 0.19531 0.15625 0.32812v1.4219c0 0.1875-0.027344 0.29297-0.078125 0.3125h-0.015625l-0.015625 0.015625h-0.0625c-0.10547 0-0.16406-0.039062-0.17188-0.125-0.074219-0.9375-0.46484-1.4883-1.1719-1.6562-0.14844-0.019531-0.30469-0.03125-0.46875-0.03125-0.875 0-1.3906 0.27344-1.5469 0.8125-0.011719 0.085938-0.015625 0.16797-0.015625 0.25 0 0.46875 0.35938 0.80469 1.0781 1 0.13281 0.042969 0.34766 0.089844 0.64062 0.14062 0.66406 0.13672 1.1445 0.32031 1.4375 0.54688 0.050781 0.042969 0.10156 0.085938 0.15625 0.125 0.39453 0.39844 0.59375 0.83984 0.59375 1.3281 0 0.79297-0.32812 1.3555-0.98438 1.6875-0.35547 0.17578-0.78125 0.26562-1.2812 0.26562-0.60547 0-1.1172-0.20312-1.5312-0.60938l-0.28125 0.32812c-0.1875 0.1875-0.30859 0.28125-0.35938 0.28125-0.09375-0.085938-0.14062-0.19531-0.14062-0.34375v-1.8438c0-0.20703 0.03125-0.31641 0.09375-0.32812l0.015625-0.015625h0.0625c0.09375 0 0.15625 0.054688 0.1875 0.15625 0 0.011719 0.003906 0.039062 0.015625 0.078125 0.23828 1.0859 0.69531 1.7266 1.375 1.9219 0.17578 0.042969 0.36328 0.0625 0.5625 0.0625 0.84375 0 1.3516-0.28906 1.5312-0.875 0.039062-0.125 0.0625-0.25391 0.0625-0.39062 0-0.6875-0.49219-1.1172-1.4688-1.2969z"/>
</symbol>
<symbol id="ak" overflow="visible">
<path d="m2.6875-5.2969c0 0.3125-0.14062 0.53906-0.42188 0.67188-0.10547 0.054688-0.21094 0.078125-0.3125 0.078125-0.3125 0-0.53906-0.14062-0.67188-0.42188-0.054688-0.10156-0.078125-0.21094-0.078125-0.32812 0-0.30078 0.14062-0.52344 0.42188-0.67188 0.10156-0.039062 0.21094-0.0625 0.32812-0.0625 0.30078 0 0.52344 0.14062 0.67188 0.42188 0.039062 0.10547 0.0625 0.21094 0.0625 0.3125zm0 4.5625c0 0.30469-0.14062 0.52734-0.42188 0.67188-0.10547 0.042969-0.21094 0.0625-0.3125 0.0625-0.3125 0-0.53906-0.14062-0.67188-0.42188-0.054688-0.10156-0.078125-0.20703-0.078125-0.3125 0-0.3125 0.14062-0.53516 0.42188-0.67188 0.10156-0.050781 0.21094-0.078125 0.32812-0.078125 0.30078 0 0.52344 0.14062 0.67188 0.42188 0.039062 0.10547 0.0625 0.21484 0.0625 0.32812z"/>
</symbol>
<symbol id="s" overflow="visible">
<path d="m5.1406-4.4531c-0.375 0.9375-0.96094 1.4062-1.75 1.4062-0.86719 0-1.5742-0.35156-2.125-1.0625v-0.015625c-0.44922-0.58203-0.67188-1.2656-0.67188-2.0469s0.22656-1.457 0.6875-2.0312l0.20312-0.23438c0.5625-0.59375 1.25-0.89062 2.0625-0.89062 0.92578 0 1.6484 0.45312 2.1719 1.3594 0.44531 0.8125 0.67188 1.9336 0.67188 3.3594 0 1.5938-0.42969 2.875-1.2812 3.8438-0.64844 0.71875-1.3867 1.0781-2.2188 1.0781-0.91797 0-1.5234-0.28906-1.8125-0.85938-0.09375-0.19531-0.14062-0.41406-0.14062-0.65625 0-0.375 0.17188-0.59375 0.51562-0.65625 0.050781-0.007813 0.09375-0.015625 0.125-0.015625 0.30078 0 0.50391 0.13281 0.60938 0.39062 0.019531 0.074219 0.03125 0.15625 0.03125 0.25 0 0.375-0.18359 0.58594-0.54688 0.625-0.0625 0.011719-0.12109 0.015625-0.17188 0.015625 0.26953 0.34375 0.72656 0.51562 1.375 0.51562 0.65625 0 1.1953-0.33203 1.625-1 0.42578-0.67578 0.64062-1.6484 0.64062-2.9219zm-1.7344 1.0781c0.72656 0 1.2344-0.42578 1.5156-1.2812 0.125-0.38281 0.1875-0.79688 0.1875-1.2344 0-0.91406-0.074219-1.5781-0.21875-1.9844-0.25-0.64453-0.64062-1.0039-1.1719-1.0781-0.0625-0.007813-0.12109-0.015625-0.17188-0.015625-0.61719 0-1.0859 0.29297-1.4062 0.875-0.19922 0.34375-0.29688 0.93359-0.29688 1.7656v0.17188c0 0.91797 0.082031 1.5547 0.25 1.9062 0.28906 0.58594 0.72656 0.875 1.3125 0.875z"/>
</symbol>
<symbol id="l" overflow="visible">
<path d="m0.39062-2.3125v-0.4375l4.2969-6.5625c0.070312-0.11328 0.16406-0.17188 0.28125-0.17188 0.13281 0 0.20703 0.054687 0.21875 0.15625v6.5781h1.4062v0.4375h-1.4062v1.2188c0 0.29297 0.054688 0.46875 0.17188 0.53125 0.13281 0.085938 0.4375 0.125 0.90625 0.125h0.28125v0.4375c-0.375-0.03125-1.0117-0.046875-1.9062-0.046875-0.875 0-1.5 0.015625-1.875 0.046875v-0.4375h0.28125c0.58203 0 0.92188-0.078125 1.0156-0.23438 0.03125-0.0625 0.046875-0.20312 0.046875-0.42188v-1.2188zm3.8125-0.4375v-5.2188l-3.4219 5.2188z"/>
</symbol>
<symbol id="c" overflow="visible">
<path d="m4.1094-8.9531v7.8438c0 0.28125 0.054687 0.46094 0.17188 0.53125 0.15625 0.09375 0.53516 0.14062 1.1406 0.14062h0.4375v0.4375c-0.32422-0.03125-1.0781-0.046875-2.2656-0.046875s-1.9453 0.015625-2.2656 0.046875v-0.4375h0.45312c0.71875 0 1.1289-0.082031 1.2344-0.25l0.015625-0.015625c0.03125-0.070313 0.046875-0.20703 0.046875-0.40625v-7.25c-0.48047 0.24219-1.0898 0.35938-1.8281 0.35938v-0.42188c1.1133 0 1.9609-0.30078 2.5469-0.90625 0.17578 0 0.28125 0.039063 0.3125 0.10938v0.26562z"/>
</symbol>
<symbol id="r" overflow="visible">
<path d="m4.0625-4.9219c0.92578 0.1875 1.5977 0.64062 2.0156 1.3594 0.20703 0.36719 0.3125 0.75781 0.3125 1.1719 0 0.79297-0.32422 1.4609-0.96875 2-0.57422 0.46875-1.2422 0.70312-2 0.70312-0.92969 0-1.6719-0.27734-2.2344-0.82812-0.39844-0.39453-0.59375-0.85156-0.59375-1.375 0-0.4375 0.19141-0.69531 0.57812-0.78125 0.070313-0.019531 0.14062-0.03125 0.20312-0.03125 0.35156 0 0.59375 0.15234 0.71875 0.45312 0.03125 0.11719 0.050781 0.22656 0.0625 0.32812 0 0.375-0.16797 0.62109-0.5 0.73438-0.13672 0.042969-0.27734 0.058594-0.42188 0.046875 0.34375 0.57422 0.94141 0.91797 1.7969 1.0312 0.11328 0.023438 0.22656 0.03125 0.34375 0.03125 0.59375 0 1.0312-0.29688 1.3125-0.89062 0.17578-0.375 0.26562-0.84766 0.26562-1.4219 0-1.2383-0.37109-1.9883-1.1094-2.25-0.17969-0.050781-0.35938-0.078125-0.54688-0.078125h-0.625c-0.21094 0-0.32031-0.050781-0.32812-0.15625 0-0.09375 0.066406-0.14844 0.20312-0.17188 0.14453 0 0.32812-0.007813 0.54688-0.03125 0.47656-0.019531 0.85156-0.20312 1.125-0.54688v-0.015625l0.015625-0.015625v-0.015625h0.015625l0.09375-0.14062c0.25781-0.4375 0.39062-0.96875 0.39062-1.5938 0-0.86328-0.33984-1.375-1.0156-1.5312-0.10547-0.019531-0.21484-0.03125-0.32812-0.03125-0.65625 0-1.1875 0.1875-1.5938 0.5625-0.10547 0.085938-0.19531 0.18359-0.26562 0.29688 0.57031 0 0.85938 0.23438 0.85938 0.70312 0 0.33594-0.14844 0.55859-0.4375 0.67188-0.085937 0.03125-0.17188 0.046875-0.26562 0.046875-0.36719 0-0.59375-0.16406-0.6875-0.5v-0.015625c-0.023438-0.070313-0.03125-0.14453-0.03125-0.21875 0-0.625 0.30469-1.125 0.92188-1.5 0.44531-0.26953 0.96094-0.40625 1.5469-0.40625 0.85156 0 1.5391 0.25781 2.0625 0.76562l0.03125 0.015625c0.32031 0.34375 0.48438 0.73047 0.48438 1.1562 0 0.77344-0.32812 1.418-0.98438 1.9375-0.29297 0.23047-0.61719 0.40625-0.96875 0.53125z"/>
</symbol>
<symbol id="k" overflow="visible">
<path d="m6.2812-2.4375-0.39062 2.4375h-5.1875c0-0.22656 0.023437-0.37891 0.078125-0.45312l0.078125-0.0625 2.6875-3c0.97656-1.1016 1.4688-2.1328 1.4688-3.0938 0-0.83203-0.25781-1.4609-0.76562-1.8906l-0.015625-0.015625c-0.30469-0.25-0.66797-0.375-1.0938-0.375-0.67969 0-1.2148 0.29297-1.6094 0.875-0.11719 0.16797-0.21094 0.35156-0.28125 0.54688h0.17188c0.375 0 0.61328 0.16797 0.71875 0.5v0.015625c0.019531 0.0625 0.03125 0.13281 0.03125 0.20312 0 0.375-0.17969 0.61719-0.53125 0.71875-0.074219 0.023438-0.14062 0.03125-0.20312 0.03125-0.34375 0-0.57422-0.14453-0.6875-0.4375-0.03125-0.10156-0.046875-0.22266-0.046875-0.35938 0-0.71875 0.27344-1.332 0.82812-1.8438 0.48828-0.45703 1.082-0.6875 1.7812-0.6875 1.0312 0 1.832 0.35156 2.4062 1.0469 0.32031 0.39844 0.50391 0.87109 0.54688 1.4219 0.007813 0.085937 0.015625 0.16797 0.015625 0.25 0 0.67969-0.25781 1.3281-0.76562 1.9531-0.27344 0.3125-0.69531 0.73047-1.2656 1.25l-0.84375 0.76562-0.14062 0.125-1.4844 1.4375h2.5156c0.82031 0 1.2656-0.035156 1.3281-0.10938 0.09375-0.13281 0.19531-0.55078 0.3125-1.25z"/>
</symbol>
<symbol id="g" overflow="visible">
<path d="m6.2812-2.8125c0 0.96094-0.35938 1.75-1.0781 2.375-0.57422 0.5-1.2305 0.75-1.9688 0.75-0.85547 0-1.5391-0.35938-2.0469-1.0781-0.32422-0.45703-0.48438-0.95312-0.48438-1.4844 0-0.42578 0.19141-0.67188 0.57812-0.73438 0.03125-0.007813 0.066406-0.015625 0.10938-0.015625 0.34375 0 0.56641 0.15625 0.67188 0.46875 0.019531 0.074219 0.03125 0.14844 0.03125 0.21875 0 0.30469-0.13672 0.51172-0.40625 0.625-0.09375 0.042969-0.19531 0.0625-0.29688 0.0625-0.10547 0-0.1875-0.007812-0.25-0.03125 0.17578 0.59375 0.53516 1.0312 1.0781 1.3125 0.3125 0.17969 0.64062 0.26562 0.98438 0.26562 0.625 0 1.125-0.30469 1.5-0.92188 0.22656-0.38281 0.34375-1.0195 0.34375-1.9062 0-0.78906-0.089844-1.3789-0.26562-1.7656-0.26172-0.60156-0.65625-0.90625-1.1875-0.90625-0.75 0-1.3516 0.32812-1.7969 0.98438-0.0625 0.085938-0.125 0.125-0.1875 0.125-0.125 0-0.19531-0.0625-0.20312-0.1875v-4.3125c0-0.21875 0.046875-0.33203 0.14062-0.34375 0.039063 0 0.097656 0.015625 0.17188 0.046875 0.59375 0.26172 1.2109 0.39062 1.8594 0.39062 0.67578 0 1.3125-0.13281 1.9062-0.40625 0.050781-0.03125 0.085937-0.046875 0.10938-0.046875 0.09375 0 0.14062 0.054687 0.14062 0.15625 0 0.125-0.14844 0.32422-0.4375 0.59375-0.63672 0.57422-1.3906 0.85938-2.2656 0.85938-0.38672 0-0.78125-0.054688-1.1875-0.17188v2.7188c0.48828-0.46875 1.082-0.70312 1.7812-0.70312 0.82031 0 1.5 0.35938 2.0312 1.0781 0.41406 0.5625 0.625 1.2266 0.625 1.9844z"/>
</symbol>
<symbol id="q" overflow="visible">
<path d="m6.6562-8.5312-1.875 2.6719c-0.40625 0.55469-0.69922 1.3516-0.875 2.3906-0.10547 0.6875-0.15625 1.4531-0.15625 2.2969v0.70312c0 0.51953-0.21484 0.78125-0.64062 0.78125-0.42969 0-0.64062-0.26172-0.64062-0.78125 0-1.5508 0.45312-3.1133 1.3594-4.6875l0.35938-0.5625 1.5625-2.2188h-2.8906c-0.85547 0-1.3125 0.027344-1.375 0.078125-0.09375 0.085937-0.21094 0.51172-0.34375 1.2812h-0.35938l0.46875-2.8906h0.34375c0.039062 0.16797 0.125 0.27734 0.25 0.32812h0.015625c0.23828 0.085937 0.75 0.125 1.5312 0.125h3.4062c0 0.21875-0.046875 0.38281-0.14062 0.48438z"/>
</symbol>
<symbol id="i" overflow="visible">
<path d="m6.4375-4.4844c0 1.3672-0.17188 2.4219-0.51562 3.1719-0.55469 1.043-1.3672 1.582-2.4375 1.625-0.84375 0-1.5273-0.33594-2.0469-1.0156-0.10547-0.11328-0.19531-0.25-0.26562-0.40625-0.41797-0.76953-0.625-1.8945-0.625-3.375 0-1.3633 0.17188-2.4219 0.51562-3.1719 0.46875-1.0391 1.2227-1.5977 2.2656-1.6719h0.17188c0.83203 0 1.5078 0.33594 2.0312 1v0.015625c0.125 0.16797 0.23828 0.35547 0.34375 0.5625 0.375 0.79297 0.5625 1.8828 0.5625 3.2656zm-2.9531 4.4844c0.59375 0 1.0469-0.28516 1.3594-0.85938 0.13281-0.25 0.22656-0.54688 0.28125-0.89062 0.10156-0.59375 0.15625-1.5547 0.15625-2.8906 0-1.3008-0.046875-2.2109-0.14062-2.7344-0.16797-0.88281-0.60156-1.4141-1.2969-1.5938-0.11719-0.03125-0.23438-0.046875-0.35938-0.046875-0.65625 0-1.1328 0.32812-1.4219 0.98438-0.10547 0.21875-0.1875 0.49219-0.25 0.8125-0.074219 0.5-0.10938 1.3594-0.10938 2.5781 0 1.4062 0.050781 2.3906 0.15625 2.9531 0.16406 0.89844 0.57812 1.4375 1.2344 1.625 0.13281 0.042969 0.26562 0.0625 0.39062 0.0625z"/>
</symbol>
<symbol id="aj" overflow="visible">
<path d="m1.8438-4.5938c0.38281-0.92578 0.96875-1.3906 1.75-1.3906 0.86328 0 1.5703 0.35938 2.125 1.0781 0.30078 0.375 0.50391 0.82422 0.60938 1.3438 0.039063 0.23047 0.0625 0.46484 0.0625 0.70312 0 1.043-0.35938 1.875-1.0781 2.5-0.52344 0.44531-1.1211 0.67188-1.7969 0.67188-0.94922 0-1.6953-0.45312-2.2344-1.3594-0.46094-0.8125-0.6875-1.9375-0.6875-3.375 0-1.6133 0.45312-2.8984 1.3594-3.8594 0.6875-0.69531 1.457-1.0469 2.3125-1.0469 0.8125 0 1.3594 0.28906 1.6406 0.85938 0.09375 0.19922 0.14062 0.41797 0.14062 0.65625 0 0.375-0.17188 0.59375-0.51562 0.65625-0.054688 0.011719-0.09375 0.015625-0.125 0.015625-0.30469 0-0.50781-0.12891-0.60938-0.39062-0.023437-0.070312-0.03125-0.15625-0.03125-0.25 0-0.41406 0.25391-0.625 0.76562-0.625-0.24219-0.375-0.65234-0.5625-1.2344-0.5625-0.65625 0-1.2109 0.29297-1.6562 0.875-0.53125 0.69922-0.79688 1.7578-0.79688 3.1719zm1.6719 4.5156c0.625 0 1.0859-0.30469 1.3906-0.92188 0.15625-0.33203 0.23438-0.95703 0.23438-1.875 0-0.92578-0.085937-1.5625-0.25-1.9062-0.29297-0.58203-0.73047-0.875-1.3125-0.875-0.73047 0-1.2344 0.4375-1.5156 1.3125-0.125 0.36719-0.1875 0.76172-0.1875 1.1875 0 0.90625 0.082031 1.5781 0.25 2.0156 0.17578 0.4375 0.45312 0.75 0.82812 0.9375 0.17578 0.085937 0.36328 0.125 0.5625 0.125z"/>
</symbol>
<symbol id="ai" overflow="visible">
<path d="m2.2812-6.3906 1.7344 1.1094c0.92578-0.53906 1.3906-1.1914 1.3906-1.9531 0-0.61328-0.28125-1.0977-0.84375-1.4531-0.32422-0.1875-0.68359-0.28125-1.0781-0.28125-0.66797 0-1.1953 0.21094-1.5781 0.625l-0.015625 0.015625c-0.21094 0.24219-0.3125 0.50781-0.3125 0.79688 0 0.44922 0.23438 0.82812 0.70312 1.1406zm2.0469 1.3281c0.71875 0.44922 1.1562 0.75781 1.3125 0.92188 0.03125 0.023437 0.054687 0.042969 0.078125 0.0625 0.44531 0.51172 0.67188 1.0859 0.67188 1.7188 0 0.83594-0.34375 1.5117-1.0312 2.0312-0.54297 0.42578-1.168 0.64062-1.875 0.64062-0.88672 0-1.6211-0.27734-2.2031-0.82812-0.46094-0.44531-0.6875-0.97656-0.6875-1.5938 0-1.0508 0.67188-1.9102 2.0156-2.5781-0.58594-0.39453-0.92969-0.64844-1.0312-0.76562-0.40625-0.44531-0.60938-0.95703-0.60938-1.5312 0-0.75 0.3125-1.3594 0.9375-1.8281 0.46875-0.34375 1-0.51562 1.5938-0.51562 0.8125 0 1.4688 0.26172 1.9688 0.78125 0.36328 0.36719 0.54688 0.80469 0.54688 1.3125 0 0.86719-0.5625 1.5898-1.6875 2.1719zm-1.4062 0.57812c-1.043 0.65625-1.5898 1.4492-1.6406 2.375 0 0.67969 0.29688 1.2188 0.89062 1.625 0.39453 0.27344 0.83594 0.40625 1.3281 0.40625 0.72656 0 1.3125-0.22656 1.75-0.6875 0.30078-0.32031 0.45312-0.67969 0.45312-1.0781 0-0.53906-0.30469-1.0234-0.90625-1.4531-0.011719 0-0.0625-0.03125-0.15625-0.09375z"/>
</symbol>
<symbol id="ad" overflow="visible">
<path d="m0.70312 16.234c-0.085937 0-0.125-0.046875-0.125-0.14062 0-0.03125 0.007813-0.058594 0.03125-0.078125 0.66406-0.69922 1.1914-1.4922 1.5781-2.375 0.39453-0.88672 0.67188-1.8203 0.82812-2.7969 0.15625-0.96875 0.23438-1.9766 0.23438-3.0156 0-3.625-0.88281-6.3516-2.6406-8.1719-0.023437-0.019531-0.03125-0.050781-0.03125-0.09375 0-0.082031 0.039063-0.125 0.125-0.125h0.17188c0.019531 0 0.039062 0.011719 0.0625 0.03125 1.1445 0.95703 1.9844 2.1719 2.5156 3.6406 0.53906 1.4766 0.8125 3.0547 0.8125 4.7344 0 1.6641-0.26562 3.2344-0.79688 4.7031s-1.375 2.6875-2.5312 3.6562c-0.023438 0.019531-0.042969 0.03125-0.0625 0.03125z"/>
</symbol>
</defs>
<rect width="187" height="248" fill="#fff"/>
<g>
<use x="127.601562" y="17.621094" xlink:href="#ay"/>
</g>
<g>
<use x="115" y="17.621094" xlink:href="#a"/>
</g>
<g>
<use x="110.800781" y="17.621094" xlink:href="#a"/>
</g>
<g>
<use x="106.601562" y="17.621094" xlink:href="#a"/>
</g>
<g>
<use x="102.402344" y="17.621094" xlink:href="#a"/>
</g>
<g>
<use x="98.199219" y="17.621094" xlink:href="#a"/>
</g>
<g>
<use x="94" y="17.621094" xlink:href="#a"/>
</g>
<g>
<use x="89.800781" y="17.621094" xlink:href="#a"/>
</g>
<g>
<use x="85.601562" y="17.621094" xlink:href="#a"/>
</g>
<g>
<use x="81.402344" y="17.621094" xlink:href="#ax"/>
</g>
<g>
<use x="56.199219" y="17.621094" xlink:href="#a"/>
</g>
<g>
<use x="52" y="17.621094" xlink:href="#a"/>
</g>
<g>
<use x="47.800781" y="17.621094" xlink:href="#a"/>
</g>
<g>
<use x="43.601562" y="17.621094" xlink:href="#a"/>
</g>
<g>
<use x="39.398437" y="17.621094" xlink:href="#a"/>
</g>
<g>
<use x="35.199219" y="17.621094" xlink:href="#a"/>
</g>
<g>
<use x="31" y="17.621094" xlink:href="#a"/>
</g>
<g>
<use x="26.800781" y="17.621094" xlink:href="#a"/>
</g>
<g>
<use x="22.601563" y="17.621094" xlink:href="#aw"/>
</g>
<g>
<use x="49.199219" y="16.804688" xlink:href="#av"/>
</g>
<g>
<use x="53.011719" y="16.804688" xlink:href="#ac"/>
</g>
<g>
<use x="57.910156" y="16.804688" xlink:href="#ab"/>
</g>
<g>
<use x="61.722656" y="16.804688" xlink:href="#aa"/>
</g>
<g>
<use x="66.621094" y="16.804688" xlink:href="#z"/>
</g>
<g>
<use x="72.613281" y="16.804688" xlink:href="#y"/>
</g>
<g>
<use x="83.5" y="16.804688" xlink:href="#x"/>
</g>
<g>
<use x="10" y="39.789063" xlink:href="#w"/>
</g>
<g>
<use x="20.109375" y="39.789063" xlink:href="#f"/>
</g>
<g>
<use x="36.210938" y="39.789063" xlink:href="#v"/>
</g>
<g>
<use x="46.722656" y="39.789063" xlink:href="#f"/>
</g>
<g>
<use x="60.722656" y="39.789063" xlink:href="#u"/>
</g>
<g>
<use x="69.839844" y="39.789063" xlink:href="#f"/>
</g>
<g>
<use x="83.839844" y="39.789063" xlink:href="#n"/>
</g>
<g>
<use x="90.0625" y="39.789063" xlink:href="#n"/>
</g>
<g>
<use x="96.285156" y="39.789063" xlink:href="#n"/>
</g>
<g>
<use x="103.285156" y="39.789063" xlink:href="#f"/>
</g>
<g>
<use x="117.285156" y="39.789063" xlink:href="#t"/>
</g>
<g>
<use x="126.511719" y="40.957031" xlink:href="#au"/>
</g>
<g>
<use x="113.910156" y="40.957031" xlink:href="#b"/>
</g>
<g>
<use x="109.710938" y="40.957031" xlink:href="#b"/>
</g>
<g>
<use x="105.511719" y="40.957031" xlink:href="#b"/>
</g>
<g>
<use x="101.3125" y="40.957031" xlink:href="#b"/>
</g>
<g>
<use x="97.113281" y="40.957031" xlink:href="#b"/>
</g>
<g>
<use x="92.910156" y="40.957031" xlink:href="#at"/>
</g>
<g>
<use x="67.710938" y="40.957031" xlink:href="#b"/>
</g>
<g>
<use x="63.511719" y="40.957031" xlink:href="#b"/>
</g>
<g>
<use x="59.3125" y="40.957031" xlink:href="#b"/>
</g>
<g>
<use x="55.113281" y="40.957031" xlink:href="#b"/>
</g>
<g>
<use x="50.910156" y="40.957031" xlink:href="#b"/>
</g>
<g>
<use x="46.710938" y="40.957031" xlink:href="#as"/>
</g>
<g>
<use x="70.238281" y="60.207031" xlink:href="#ar"/>
</g>
<g>
<use x="74.050781" y="60.207031" xlink:href="#aq"/>
</g>
<g>
<use x="78.949219" y="60.207031" xlink:href="#ap"/>
</g>
<g>
<use x="82.761719" y="60.207031" xlink:href="#ao"/>
</g>
<g>
<use x="87.660156" y="60.207031" xlink:href="#an"/>
</g>
<g>
<use x="11.679688" y="74.59375" xlink:href="#e"/>
</g>
<g>
<use x="19.082031" y="74.59375" xlink:href="#d"/>
</g>
<path transform="matrix(14 -0 0 14 -5.7101e-6 -9.7222)" d="m1.363 5.3281 0.42913 0.69448" fill="none" stroke="#000" stroke-linecap="round" stroke-linejoin="round" stroke-miterlimit="0" stroke-width=".039999"/>
<path transform="matrix(14 -0 0 14 -5.7101e-6 -2.8519e-6)" d="m0.83426 5.7547h0.95787" fill="none" stroke="#000" stroke-linejoin="bevel" stroke-miterlimit="0" stroke-width=".039999"/>
<g>
<use x="15.378906" y="93.667969" xlink:href="#d"/>
</g>
<path transform="matrix(14 -0 0 14 -5.7101e-6 -9.7222)" d="m1.0985 6.6905 0.42913 0.69448" fill="none" stroke="#000" stroke-linejoin="bevel" stroke-miterlimit="0" stroke-width=".039999"/>
<g>
<use x="30.65625" y="84.066406" xlink:href="#m"/>
</g>
<g>
<use x="45.433594" y="84.066406" xlink:href="#e"/>
</g>
<g>
<use x="52.835938" y="84.066406" xlink:href="#j"/>
</g>
<g>
<use x="60.738281" y="74.59375" xlink:href="#e"/>
</g>
<g>
<use x="68.136719" y="74.59375" xlink:href="#d"/>
</g>
<path transform="matrix(14 -0 0 14 -5.7101e-6 -9.7222)" d="m5.296 5.3281-0.42913 0.69448" fill="none" stroke="#000" stroke-linejoin="bevel" stroke-miterlimit="0" stroke-width=".039999"/>
<path transform="matrix(14 -0 0 14 -5.7101e-6 -2.8519e-6)" d="m4.3384 5.7547h0.95759" fill="none" stroke="#000" stroke-linejoin="bevel" stroke-miterlimit="0" stroke-width=".039999"/>
<g>
<use x="64.4375" y="93.667969" xlink:href="#d"/>
</g>
<path transform="matrix(14 -0 0 14 -5.7101e-6 -9.7222)" d="m5.0318 6.6905-0.42913 0.69448" fill="none" stroke="#000" stroke-linejoin="bevel" stroke-miterlimit="0" stroke-width=".039999"/>
<g>
<use x="79.714844" y="84.066406" xlink:href="#m"/>
</g>
<g>
<use x="94.492188" y="84.066406" xlink:href="#e"/>
</g>
<g>
<use x="101.894531" y="84.066406" xlink:href="#j"/>
</g>
<g>
<use x="109.796875" y="74.59375" xlink:href="#e"/>
</g>
<g>
<use x="117.195313" y="74.59375" xlink:href="#d"/>
</g>
<path transform="matrix(14 -0 0 14 -5.7101e-6 -9.7222)" d="m8.3711 5.3281 0.42913 0.69448" fill="none" stroke="#000" stroke-linejoin="bevel" stroke-miterlimit="0" stroke-width=".039999"/>
<path transform="matrix(14 -0 0 14 -5.7101e-6 -9.7222)" d="m8.8002 5.3281-0.42913 0.69448" fill="none" stroke="#000" stroke-linejoin="bevel" stroke-miterlimit="0" stroke-width=".039999"/>
<path transform="matrix(14 -0 0 14 -5.7101e-6 -2.8519e-6)" d="m7.8426 5.7547h0.95759" fill="none" stroke="#000" stroke-linejoin="bevel" stroke-miterlimit="0" stroke-width=".039999"/>
<g>
<use x="113.496094" y="93.667969" xlink:href="#d"/>
</g>
<path transform="matrix(14 -0 0 14 -5.7101e-6 -9.7222)" d="m8.1069 6.6905 0.42913 0.69448" fill="none" stroke="#000" stroke-linejoin="bevel" stroke-miterlimit="0" stroke-width=".039999"/>
<path transform="matrix(14 -0 0 14 -5.7101e-6 -9.7222)" d="m8.536 6.6905-0.42913 0.69448" fill="none" stroke="#000" stroke-linejoin="bevel" stroke-miterlimit="0" stroke-width=".039999"/>
<g>
<use x="128.773438" y="84.066406" xlink:href="#m"/>
</g>
<g>
<use x="143.550781" y="84.066406" xlink:href="#e"/>
</g>
<g>
<use x="150.953125" y="84.066406" xlink:href="#j"/>
</g>
<g>
<use x="10" y="110.992188" xlink:href="#ah"/>
</g>
<g>
<use x="25.167969" y="110.992188" xlink:href="#ag"/>
</g>
<g>
<use x="29.054688" y="110.992188" xlink:href="#p"/>
</g>
<g>
<use x="36.054688" y="110.992188" xlink:href="#o"/>
</g>
<g>
<use x="43.832031" y="110.992188" xlink:href="#af"/>
</g>
<g>
<use x="55.5" y="110.992188" xlink:href="#ae"/>
</g>
<g>
<use x="63.277344" y="110.992188" xlink:href="#h"/>
</g>
<g>
<use x="67.167969" y="110.992188" xlink:href="#am"/>
</g>
<g>
<use x="74.554688" y="110.992188" xlink:href="#h"/>
</g>
<g>
<use x="78.445313" y="110.992188" xlink:href="#al"/>
</g>
<g>
<use x="83.96875" y="110.992188" xlink:href="#h"/>
</g>
<g>
<use x="87.855469" y="110.992188" xlink:href="#p"/>
</g>
<g>
<use x="94.855469" y="110.992188" xlink:href="#o"/>
</g>
<g>
<use x="106.523438" y="110.992188" xlink:href="#ak"/>
</g>
<g>
<use x="155.71875" y="110.992188" xlink:href="#s"/>
</g>
<g>
<use x="162.71875" y="110.992188" xlink:href="#l"/>
</g>
<g>
<use x="169.71875" y="110.992188" xlink:href="#s"/>
</g>
<path transform="matrix(14 -0 0 14 -5.7101e-6 -2.8519e-6)" d="m12.623 7.5837" fill="none" stroke="#000" stroke-linejoin="bevel" stroke-miterlimit="0" stroke-width="1.1194"/>
<g>
<use x="118.96875" y="128.707031" xlink:href="#c"/>
</g>
<g>
<use x="125.96875" y="128.707031" xlink:href="#r"/>
</g>
<path transform="matrix(14 -0 0 14 -5.7101e-6 -2.8519e-6)" d="m9.6643 8.2034h2.9584" fill="none" stroke="#000" stroke-linejoin="bevel" stroke-miterlimit="0" stroke-width=".039999"/>
<g>
<use x="135.300781" y="115.40625" xlink:href="#ad"/>
</g>
<g>
<use x="141.71875" y="128.707031" xlink:href="#c"/>
</g>
<g>
<use x="148.71875" y="128.707031" xlink:href="#k"/>
</g>
<g>
<use x="155.71875" y="128.707031" xlink:href="#r"/>
</g>
<g>
<use x="162.71875" y="128.707031" xlink:href="#l"/>
</g>
<g>
<use x="169.71875" y="128.707031" xlink:href="#g"/>
</g>
<g>
<use x="141.71875" y="146.265625" xlink:href="#c"/>
</g>
<g>
<use x="148.71875" y="146.265625" xlink:href="#c"/>
</g>
<g>
<use x="155.71875" y="146.265625" xlink:href="#q"/>
</g>
<g>
<use x="162.71875" y="146.265625" xlink:href="#i"/>
</g>
<g>
<use x="169.71875" y="146.265625" xlink:href="#i"/>
</g>
<path transform="matrix(14 -0 0 14 -5.7101e-6 -2.8519e-6)" d="m12.623 10.103" fill="none" stroke="#000" stroke-linejoin="bevel" stroke-miterlimit="0" stroke-width="1.1194"/>
<path transform="matrix(14 -0 0 14 -5.7101e-6 -2.8519e-6)" d="m10.123 10.803h2.5" fill="none" stroke="#000" stroke-linejoin="bevel" stroke-miterlimit="0" stroke-width=".039999"/>
<g>
<use x="155.71875" y="164.738281" xlink:href="#aj"/>
</g>
<g>
<use x="162.71875" y="164.738281" xlink:href="#l"/>
</g>
<g>
<use x="169.71875" y="164.738281" xlink:href="#g"/>
</g>
<path transform="matrix(14 -0 0 14 -5.7101e-6 -2.8519e-6)" d="m12.623 11.423" fill="none" stroke="#000" stroke-linejoin="bevel" stroke-miterlimit="0" stroke-width="1.1194"/>
<g>
<use x="155.71875" y="180.410156" xlink:href="#g"/>
</g>
<g>
<use x="162.71875" y="180.410156" xlink:href="#k"/>
</g>
<g>
<use x="169.71875" y="180.410156" xlink:href="#i"/>
</g>
<path transform="matrix(14 -0 0 14 -5.7101e-6 -2.8519e-6)" d="m12.623 12.542" fill="none" stroke="#000" stroke-linejoin="bevel" stroke-miterlimit="0" stroke-width="1.1194"/>
<path transform="matrix(14 -0 0 14 -5.7101e-6 -2.8519e-6)" d="m11.123 13.242h1.5" fill="none" stroke="#000" stroke-linejoin="bevel" stroke-miterlimit="0" stroke-width=".039999"/>
<g>
<use x="155.71875" y="198.882813" xlink:href="#c"/>
</g>
<g>
<use x="162.71875" y="198.882813" xlink:href="#k"/>
</g>
<g>
<use x="169.71875" y="198.882813" xlink:href="#g"/>
</g>
<path transform="matrix(14 -0 0 14 -5.7101e-6 -2.8519e-6)" d="m12.623 13.861" fill="none" stroke="#000" stroke-linejoin="bevel" stroke-miterlimit="0" stroke-width="1.1194"/>
<g>
<use x="155.71875" y="214.554688" xlink:href="#c"/>
</g>
<g>
<use x="162.71875" y="214.554688" xlink:href="#c"/>
</g>
<g>
<use x="169.71875" y="214.554688" xlink:href="#q"/>
</g>
<path transform="matrix(14 -0 0 14 -5.7101e-6 -2.8519e-6)" d="m12.623 14.981" fill="none" stroke="#000" stroke-linejoin="bevel" stroke-miterlimit="0" stroke-width="1.1194"/>
<path transform="matrix(14 -0 0 14 -5.7101e-6 -2.8519e-6)" d="m11.123 15.681h1.5" fill="none" stroke="#000" stroke-linejoin="bevel" stroke-miterlimit="0" stroke-width=".039999"/>
<g>
<use x="169.71875" y="233.027344" xlink:href="#ai"/>
</g>
<path transform="matrix(14 -0 0 14 -5.7101e-6 -2.8519e-6)" d="m12.623 16.3" fill="none" stroke="#000" stroke-linejoin="bevel" stroke-miterlimit="0" stroke-width="1.1194"/>
</svg>
