<?xml version="1.0" encoding="UTF-8"?>
<svg width="146pt" height="181pt" version="1.1" viewBox="0 0 146 181" xmlns="http://www.w3.org/2000/svg" xmlns:xlink="http://www.w3.org/1999/xlink">
<defs>
<symbol id="i" overflow="visible">
<path d="m4.1094-8.9531v7.8438c0 0.28125 0.054687 0.46094 0.17188 0.53125 0.15625 0.09375 0.53516 0.14062 1.1406 0.14062h0.4375v0.4375c-0.32422-0.03125-1.0781-0.046875-2.2656-0.046875s-1.9453 0.015625-2.2656 0.046875v-0.4375h0.45312c0.71875 0 1.1289-0.082031 1.2344-0.25l0.015625-0.015625c0.03125-0.070313 0.046875-0.20703 0.046875-0.40625v-7.25c-0.48047 0.24219-1.0898 0.35938-1.8281 0.35938v-0.42188c1.1133 0 1.9609-0.30078 2.5469-0.90625 0.17578 0 0.28125 0.039063 0.3125 0.10938v0.26562z"/>
</symbol>
<symbol id="h" overflow="visible">
<path d="m6.2812-2.4375-0.39062 2.4375h-5.1875c0-0.22656 0.023437-0.37891 0.078125-0.45312l0.078125-0.0625 2.6875-3c0.97656-1.1016 1.4688-2.1328 1.4688-3.0938 0-0.83203-0.25781-1.4609-0.76562-1.8906l-0.015625-0.015625c-0.30469-0.25-0.66797-0.375-1.0938-0.375-0.67969 0-1.2148 0.29297-1.6094 0.875-0.11719 0.16797-0.21094 0.35156-0.28125 0.54688h0.17188c0.375 0 0.61328 0.16797 0.71875 0.5v0.015625c0.019531 0.0625 0.03125 0.13281 0.03125 0.20312 0 0.375-0.17969 0.61719-0.53125 0.71875-0.074219 0.023438-0.14062 0.03125-0.20312 0.03125-0.34375 0-0.57422-0.14453-0.6875-0.4375-0.03125-0.10156-0.046875-0.22266-0.046875-0.35938 0-0.71875 0.27344-1.332 0.82812-1.8438 0.48828-0.45703 1.082-0.6875 1.7812-0.6875 1.0312 0 1.832 0.35156 2.4062 1.0469 0.32031 0.39844 0.50391 0.87109 0.54688 1.4219 0.007813 0.085937 0.015625 0.16797 0.015625 0.25 0 0.67969-0.25781 1.3281-0.76562 1.9531-0.27344 0.3125-0.69531 0.73047-1.2656 1.25l-0.84375 0.76562-0.14062 0.125-1.4844 1.4375h2.5156c0.82031 0 1.2656-0.035156 1.3281-0.10938 0.09375-0.13281 0.19531-0.55078 0.3125-1.25z"/>
</symbol>
<symbol id="g" overflow="visible">
<path d="m5.7188-3.2188v3.9219c0 0.28906-0.089844 0.44141-0.26562 0.45312-0.1875 0-0.28125-0.15234-0.28125-0.45312v-3.9219h-3.9219c-0.30469 0-0.46094-0.09375-0.46875-0.28125 0-0.1875 0.15625-0.28125 0.46875-0.28125h3.9219v-3.9219c0-0.28906 0.09375-0.44141 0.28125-0.45312 0.17578 0 0.26562 0.15234 0.26562 0.45312v3.9219h3.9062c0.30078 0 0.45703 0.09375 0.46875 0.28125 0 0.1875-0.15625 0.28125-0.46875 0.28125z"/>
</symbol>
<symbol id="f" overflow="visible">
<path d="m5.4531 11.969 5.9219-12.266c0.11328-0.15625 0.20703-0.24219 0.28125-0.26562 0.16406 0 0.25781 0.09375 0.28125 0.28125 0 0.042969-0.027344 0.12109-0.078125 0.23438l-6.3906 13.219c-0.074219 0.14453-0.14844 0.22656-0.21875 0.25-0.03125 0.007813-0.074219 0.015625-0.125 0.015625-0.11719 0-0.1875-0.042969-0.21875-0.125l-0.046875-0.078125-2.7656-6.0938-0.73438 0.54688c-0.085937 0.070312-0.15234 0.10938-0.20312 0.10938-0.09375 0-0.14062-0.054687-0.14062-0.15625 0-0.03125 0.054687-0.09375 0.17188-0.1875l1.3906-1.0625c0.082031-0.074219 0.14453-0.10938 0.1875-0.10938 0.0625 0 0.125 0.066406 0.1875 0.20312z"/>
</symbol>
<symbol id="e" overflow="visible">
<path d="m2.6875-3.5c0 0.3125-0.14062 0.53906-0.42188 0.67188-0.10547 0.042969-0.21094 0.0625-0.3125 0.0625-0.3125 0-0.53906-0.13281-0.67188-0.40625-0.054688-0.10156-0.078125-0.21094-0.078125-0.32812 0-0.3125 0.14062-0.53516 0.42188-0.67188 0.10156-0.039063 0.21094-0.0625 0.32812-0.0625 0.30078 0 0.52344 0.13672 0.67188 0.40625 0.039062 0.10547 0.0625 0.21484 0.0625 0.32812z"/>
</symbol>
<symbol id="ac" overflow="visible">
<path d="m7.1875-0.5625v0.79688h-2.9062v31.984h2.9062v0.8125h-3.7031v-33.594z"/>
</symbol>
<symbol id="ab" overflow="visible">
<path d="m0.92188 19.594c-0.09375 0-0.14062-0.046875-0.14062-0.14062 0-0.042969 0.015625-0.078125 0.046875-0.10938l7.3906-8.6094-7.3906-10.125c-0.03125-0.023437-0.046875-0.042969-0.046875-0.0625v-0.42188c0-0.03125 0.015625-0.0625 0.046875-0.09375 0.03125-0.023438 0.0625-0.03125 0.09375-0.03125h16.797l1.7031 3.9375h-0.40625c-0.4375-1-1.168-1.7422-2.1875-2.2188-1.0117-0.48047-2.0703-0.77734-3.1719-0.89062-1.1055-0.10547-2.3906-0.15625-3.8594-0.15625h-6.4688l6.6094 9.0312c0.019531 0.03125 0.03125 0.0625 0.03125 0.09375s-0.011719 0.066406-0.03125 0.10938l-7.2656 8.4531h7.2656c1.4375 0 2.707-0.058594 3.8125-0.17188 1.1133-0.11719 2.1719-0.41406 3.1719-0.89062 1.0078-0.48047 1.707-1.2148 2.0938-2.2031h0.40625l-1.7031 4.5z"/>
</symbol>
<symbol id="r" overflow="visible">
<path d="m2.8438-6.25c0 0.21094-0.10547 0.36719-0.3125 0.46875-0.074219 0.042969-0.14844 0.0625-0.21875 0.0625-0.19922 0-0.32422-0.085938-0.375-0.26562v-0.09375c0-0.1875 0.085938-0.33594 0.26562-0.45312 0.09375-0.050781 0.17969-0.078125 0.26562-0.078125 0.19531 0 0.31641 0.089844 0.35938 0.26562v0.015625c0.007813 0.023437 0.015625 0.046875 0.015625 0.078125zm-0.76562 3.7656-0.39062 1.0469c-0.1875 0.54297-0.28125 0.875-0.28125 1 0 0.21875 0.078125 0.32812 0.23438 0.32812 0.41406 0 0.74219-0.375 0.98438-1.125l0.03125-0.10938c0.03125-0.11328 0.066406-0.17188 0.10938-0.17188v-0.015625h0.046875c0.082031 0 0.125 0.03125 0.125 0.09375 0 0.125-0.078125 0.33984-0.23438 0.64062-0.28125 0.60547-0.64062 0.90625-1.0781 0.90625-0.35547 0-0.60547-0.14453-0.75-0.4375-0.054688-0.125-0.078125-0.25-0.078125-0.375 0-0.13281 0.078125-0.40625 0.23438-0.8125 0.46875-1.25 0.69531-1.8633 0.6875-1.8438 0.070312-0.1875 0.10938-0.35938 0.10938-0.51562 0-0.21875-0.085937-0.32812-0.25-0.32812-0.36719 0-0.66406 0.30469-0.89062 0.90625v0.015625c-0.042969 0.10547-0.085938 0.21484-0.125 0.32812-0.074219 0.10547-0.125 0.16406-0.15625 0.17188-0.074219 0-0.10938-0.03125-0.10938-0.09375 0-0.125 0.070313-0.33594 0.21875-0.64062 0.28125-0.60156 0.64453-0.90625 1.0938-0.90625 0.35156 0 0.59766 0.15234 0.73438 0.45312 0.0625 0.11719 0.09375 0.24219 0.09375 0.375 0 0.125-0.046875 0.30469-0.14062 0.53125-0.11719 0.30469-0.1875 0.49609-0.21875 0.57812z"/>
</symbol>
<symbol id="o" overflow="visible">
<path d="m5.2188-5.2969c0.050781-0.3125 0.19531-0.50391 0.4375-0.57812 0.039062-0.019531 0.09375-0.03125 0.15625-0.03125 0.23828 0 0.375 0.125 0.40625 0.375 0 0.054688-0.03125 0.21484-0.09375 0.48438l-0.51562 1.9531c-0.13672 0.58594-0.23438 1.0078-0.29688 1.2656-0.125 0.48047-0.1875 0.82422-0.1875 1.0312 0 0.42969 0.14062 0.64062 0.42188 0.64062 0.35156 0 0.64844-0.375 0.89062-1.125 0.050781-0.15625 0.10938-0.35938 0.17188-0.60938 0.070313-0.15625 0.13281-0.23828 0.1875-0.25 0.11328 0 0.17188 0.046875 0.17188 0.14062 0 0.13672-0.085938 0.46484-0.25 0.98438-0.054688 0.15625-0.10938 0.29297-0.17188 0.40625-0.26172 0.51172-0.60547 0.76562-1.0312 0.76562-0.52344 0-0.90234-0.22266-1.1406-0.67188-0.0625-0.11328-0.10938-0.23828-0.14062-0.375-0.58594 0.69922-1.1875 1.0469-1.8125 1.0469-0.69922 0-1.2148-0.31641-1.5469-0.95312-0.21094-0.375-0.3125-0.80469-0.3125-1.2969 0-1 0.34766-1.9297 1.0469-2.7969 0.65625-0.78125 1.3633-1.207 2.125-1.2812 0.070313-0.007813 0.14062-0.015625 0.20312-0.015625 0.5625 0 0.98828 0.29688 1.2812 0.89062zm-0.90625 3.625 0.70312-2.7344c0.019531-0.14453 0.03125-0.22266 0.03125-0.23438 0-0.19531-0.085937-0.4375-0.25-0.71875-0.19922-0.34375-0.48047-0.51562-0.84375-0.51562-0.49219 0-0.95312 0.32031-1.3906 0.95312-0.085938 0.11719-0.16406 0.24609-0.23438 0.39062-0.27344 0.54297-0.5 1.3125-0.6875 2.3125-0.0625 0.3125-0.09375 0.5625-0.09375 0.75 0 0.63672 0.17969 1.0469 0.54688 1.2344 0.09375 0.054687 0.21094 0.078125 0.35938 0.078125 0.51953 0 1.0469-0.32812 1.5781-0.98438 0.13281-0.15625 0.22266-0.3125 0.26562-0.46875v-0.015625c0.007813-0.019531 0.015625-0.035156 0.015625-0.046875z"/>
</symbol>
<symbol id="n" overflow="visible">
<path d="m2.8438-6.25c0 0.21094-0.10547 0.36719-0.3125 0.46875-0.074219 0.042969-0.14844 0.0625-0.21875 0.0625-0.19922 0-0.32422-0.085938-0.375-0.26562v-0.09375c0-0.1875 0.085938-0.33594 0.26562-0.45312 0.09375-0.050781 0.17969-0.078125 0.26562-0.078125 0.19531 0 0.31641 0.089844 0.35938 0.26562v0.015625c0.007813 0.023437 0.015625 0.046875 0.015625 0.078125zm-0.76562 3.7656-0.39062 1.0469c-0.1875 0.54297-0.28125 0.875-0.28125 1 0 0.21875 0.078125 0.32812 0.23438 0.32812 0.41406 0 0.74219-0.375 0.98438-1.125l0.03125-0.10938c0.03125-0.11328 0.066406-0.17188 0.10938-0.17188v-0.015625h0.046875c0.082031 0 0.125 0.03125 0.125 0.09375 0 0.125-0.078125 0.33984-0.23438 0.64062-0.28125 0.60547-0.64062 0.90625-1.0781 0.90625-0.35547 0-0.60547-0.14453-0.75-0.4375-0.054688-0.125-0.078125-0.25-0.078125-0.375 0-0.13281 0.078125-0.40625 0.23438-0.8125 0.46875-1.25 0.69531-1.8633 0.6875-1.8438 0.070312-0.1875 0.10938-0.35938 0.10938-0.51562 0-0.21875-0.085937-0.32812-0.25-0.32812-0.36719 0-0.66406 0.30469-0.89062 0.90625v0.015625c-0.042969 0.10547-0.085938 0.21484-0.125 0.32812-0.074219 0.10547-0.125 0.16406-0.15625 0.17188-0.074219 0-0.10938-0.03125-0.10938-0.09375 0-0.125 0.070313-0.33594 0.21875-0.64062 0.28125-0.60156 0.64453-0.90625 1.0938-0.90625 0.35156 0 0.59766 0.15234 0.73438 0.45312 0.0625 0.11719 0.09375 0.24219 0.09375 0.375 0 0.125-0.046875 0.30469-0.14062 0.53125-0.11719 0.30469-0.1875 0.49609-0.21875 0.57812z"/>
</symbol>
<symbol id="a" overflow="visible">
<path d="m2.0312 8.4219v-8.4375c0.03125-0.19531 0.13281-0.29688 0.3125-0.29688 0.15625 0 0.25 0.10156 0.28125 0.29688v8.4375c-0.03125 0.1875-0.125 0.28125-0.28125 0.28125-0.17969 0-0.28125-0.09375-0.3125-0.28125z"/>
</symbol>
<symbol id="m" overflow="visible">
<path d="m0.92188 19.594c-0.09375 0-0.14062-0.046875-0.14062-0.14062 0-0.042969 0.015625-0.078125 0.046875-0.10938l7.3906-8.6094-7.3906-10.125c-0.03125-0.023437-0.046875-0.042969-0.046875-0.0625v-0.42188c0-0.03125 0.015625-0.0625 0.046875-0.09375 0.03125-0.023438 0.0625-0.03125 0.09375-0.03125h16.797l1.7031 3.9375h-0.40625c-0.4375-1-1.168-1.7422-2.1875-2.2188-1.0117-0.48047-2.0703-0.77734-3.1719-0.89062-1.1055-0.10547-2.3906-0.15625-3.8594-0.15625h-6.4688l6.6094 9.0312c0.019531 0.03125 0.03125 0.0625 0.03125 0.09375s-0.011719 0.066406-0.03125 0.10938l-7.2656 8.4531h7.2656c1.4375 0 2.707-0.058594 3.8125-0.17188 1.1133-0.11719 2.1719-0.41406 3.1719-0.89062 1.0078-0.48047 1.707-1.2148 2.0938-2.2031h0.40625l-1.7031 4.5z"/>
</symbol>
<symbol id="l" overflow="visible">
<path d="m3.9688-6.25c0 0.1875-0.09375 0.33984-0.28125 0.45312-0.085938 0.054687-0.16797 0.078125-0.25 0.078125-0.21094 0-0.33594-0.085938-0.375-0.26562v-0.015625-0.078125c0-0.20703 0.10156-0.36328 0.3125-0.46875 0.070312-0.039063 0.14453-0.0625 0.21875-0.0625 0.19531 0 0.31641 0.089844 0.35938 0.26562 0.007813 0.03125 0.015625 0.0625 0.015625 0.09375zm-2.0156 6.75 0.95312-3.7344c0.039062-0.19531 0.0625-0.36328 0.0625-0.5 0-0.3125-0.10547-0.46875-0.3125-0.46875-0.40625 0-0.77734 0.29688-1.1094 0.89062-0.0625 0.10547-0.11719 0.21484-0.15625 0.32812-0.085937 0.125-0.14844 0.19531-0.1875 0.20312-0.074219 0-0.10938-0.03125-0.10938-0.09375 0-0.09375 0.082031-0.28516 0.25-0.57812 0.39453-0.64453 0.84375-0.96875 1.3438-0.96875 0.36328 0 0.62891 0.15234 0.79688 0.45312 0.070313 0.13672 0.10938 0.29297 0.10938 0.46875 0 0.11719-0.015625 0.24219-0.046875 0.375l-0.92188 3.6562c-0.14844 0.58203-0.49219 1.0156-1.0312 1.2969-0.28125 0.14453-0.5625 0.21875-0.84375 0.21875-0.41797 0-0.6875-0.125-0.8125-0.375-0.039062-0.074219-0.0625-0.15234-0.0625-0.23438 0-0.26172 0.10938-0.4375 0.32812-0.53125 0.070313-0.03125 0.14062-0.046875 0.20312-0.046875 0.20703 0 0.33203 0.085937 0.375 0.26562 0.007812 0.03125 0.015625 0.054688 0.015625 0.078125 0 0.20703-0.09375 0.36328-0.28125 0.46875-0.054687 0.03125-0.10938 0.050781-0.17188 0.0625 0.11328 0.0625 0.24219 0.09375 0.39062 0.09375 0.38281 0 0.71094-0.24219 0.98438-0.71875 0.10156-0.1875 0.17969-0.39062 0.23438-0.60938z"/>
</symbol>
<symbol id="k" overflow="visible">
<path d="m4.6719-4.2344-0.46875 1.9219c-0.15625 0.63672-0.23438 1.0469-0.23438 1.2344 0 0.49219 0.17188 0.78125 0.51562 0.875 0.070313 0.03125 0.15625 0.046875 0.25 0.046875 0.46875 0 0.89062-0.23438 1.2656-0.70312 0.25781-0.28906 0.45703-0.66406 0.59375-1.125 0.03125-0.10156 0.09375-0.15625 0.1875-0.15625 0.10156 0 0.15625 0.046875 0.15625 0.14062 0 0.23047-0.14062 0.5625-0.42188 1-0.51172 0.77344-1.1172 1.1562-1.8125 1.1562-0.63672 0-1.1016-0.26562-1.3906-0.79688-0.054688-0.082031-0.09375-0.17188-0.125-0.26562-0.21875 0.44922-0.52734 0.76172-0.92188 0.9375-0.17969 0.082031-0.35938 0.125-0.54688 0.125-0.5625 0-0.95312-0.16406-1.1719-0.5-0.09375-0.11328-0.14062-0.25391-0.14062-0.42188 0-0.34375 0.14844-0.58594 0.45312-0.73438 0.10156-0.050781 0.20703-0.078125 0.3125-0.078125 0.28125 0 0.45312 0.11719 0.51562 0.34375v0.14062c0 0.32422-0.15625 0.55859-0.46875 0.70312-0.054688 0.03125-0.11719 0.046875-0.1875 0.046875 0.19531 0.125 0.42969 0.1875 0.70312 0.1875 0.5 0 0.89062-0.32812 1.1719-0.98438 0.0625-0.14453 0.11328-0.30078 0.15625-0.46875 0.50781-1.9062 0.76562-3.0156 0.76562-3.3281-0.0625-0.58203-0.32031-0.89453-0.76562-0.9375-0.48047 0-0.92188 0.24609-1.3281 0.73438v0.015625c0 0.011719-0.007813 0.015625-0.015625 0.015625-0.13672 0.1875-0.26172 0.40234-0.375 0.64062-0.042969 0.11719-0.085938 0.23047-0.125 0.34375l-0.03125 0.078125c-0.023438 0.10547-0.078125 0.15625-0.17188 0.15625-0.11719 0-0.17188-0.046875-0.17188-0.14062 0-0.22656 0.14453-0.56641 0.4375-1.0156 0.50781-0.75781 1.1133-1.1406 1.8125-1.1406 0.71875 0 1.2227 0.35547 1.5156 1.0625 0.28906-0.57031 0.6875-0.91406 1.1875-1.0312 0.09375-0.019531 0.1875-0.03125 0.28125-0.03125 0.55078 0 0.9375 0.15625 1.1562 0.46875 0.09375 0.125 0.14062 0.27734 0.14062 0.45312 0 0.38672-0.17188 0.64062-0.51562 0.76562-0.085937 0.03125-0.16406 0.046875-0.23438 0.046875-0.29297 0-0.46484-0.125-0.51562-0.375-0.011719-0.039063-0.015625-0.078125-0.015625-0.10938 0-0.28125 0.13281-0.5 0.40625-0.65625 0.082031-0.050781 0.17188-0.085938 0.26562-0.10938-0.19922-0.11328-0.43359-0.17188-0.70312-0.17188-0.63672 0-1.0859 0.49609-1.3438 1.4844-0.023438 0.054687-0.039062 0.10547-0.046875 0.15625z"/>
</symbol>
<symbol id="j" overflow="visible">
<path d="m2.8438-6.25c0 0.21094-0.10547 0.36719-0.3125 0.46875-0.074219 0.042969-0.14844 0.0625-0.21875 0.0625-0.19922 0-0.32422-0.085938-0.375-0.26562v-0.09375c0-0.1875 0.085938-0.33594 0.26562-0.45312 0.09375-0.050781 0.17969-0.078125 0.26562-0.078125 0.19531 0 0.31641 0.089844 0.35938 0.26562v0.015625c0.007813 0.023437 0.015625 0.046875 0.015625 0.078125zm-0.76562 3.7656-0.39062 1.0469c-0.1875 0.54297-0.28125 0.875-0.28125 1 0 0.21875 0.078125 0.32812 0.23438 0.32812 0.41406 0 0.74219-0.375 0.98438-1.125l0.03125-0.10938c0.03125-0.11328 0.066406-0.17188 0.10938-0.17188v-0.015625h0.046875c0.082031 0 0.125 0.03125 0.125 0.09375 0 0.125-0.078125 0.33984-0.23438 0.64062-0.28125 0.60547-0.64062 0.90625-1.0781 0.90625-0.35547 0-0.60547-0.14453-0.75-0.4375-0.054688-0.125-0.078125-0.25-0.078125-0.375 0-0.13281 0.078125-0.40625 0.23438-0.8125 0.46875-1.25 0.69531-1.8633 0.6875-1.8438 0.070312-0.1875 0.10938-0.35938 0.10938-0.51562 0-0.21875-0.085937-0.32812-0.25-0.32812-0.36719 0-0.66406 0.30469-0.89062 0.90625v0.015625c-0.042969 0.10547-0.085938 0.21484-0.125 0.32812-0.074219 0.10547-0.125 0.16406-0.15625 0.17188-0.074219 0-0.10938-0.03125-0.10938-0.09375 0-0.125 0.070313-0.33594 0.21875-0.64062 0.28125-0.60156 0.64453-0.90625 1.0938-0.90625 0.35156 0 0.59766 0.15234 0.73438 0.45312 0.0625 0.11719 0.09375 0.24219 0.09375 0.375 0 0.125-0.046875 0.30469-0.14062 0.53125-0.11719 0.30469-0.1875 0.49609-0.21875 0.57812z"/>
</symbol>
<symbol id="am" overflow="visible">
<path d="m3.9688-6.25c0 0.1875-0.09375 0.33984-0.28125 0.45312-0.085938 0.054687-0.16797 0.078125-0.25 0.078125-0.21094 0-0.33594-0.085938-0.375-0.26562v-0.015625-0.078125c0-0.20703 0.10156-0.36328 0.3125-0.46875 0.070312-0.039063 0.14453-0.0625 0.21875-0.0625 0.19531 0 0.31641 0.089844 0.35938 0.26562 0.007813 0.03125 0.015625 0.0625 0.015625 0.09375zm-2.0156 6.75 0.95312-3.7344c0.039062-0.19531 0.0625-0.36328 0.0625-0.5 0-0.3125-0.10547-0.46875-0.3125-0.46875-0.40625 0-0.77734 0.29688-1.1094 0.89062-0.0625 0.10547-0.11719 0.21484-0.15625 0.32812-0.085937 0.125-0.14844 0.19531-0.1875 0.20312-0.074219 0-0.10938-0.03125-0.10938-0.09375 0-0.09375 0.082031-0.28516 0.25-0.57812 0.39453-0.64453 0.84375-0.96875 1.3438-0.96875 0.36328 0 0.62891 0.15234 0.79688 0.45312 0.070313 0.13672 0.10938 0.29297 0.10938 0.46875 0 0.11719-0.015625 0.24219-0.046875 0.375l-0.92188 3.6562c-0.14844 0.58203-0.49219 1.0156-1.0312 1.2969-0.28125 0.14453-0.5625 0.21875-0.84375 0.21875-0.41797 0-0.6875-0.125-0.8125-0.375-0.039062-0.074219-0.0625-0.15234-0.0625-0.23438 0-0.26172 0.10938-0.4375 0.32812-0.53125 0.070313-0.03125 0.14062-0.046875 0.20312-0.046875 0.20703 0 0.33203 0.085937 0.375 0.26562 0.007812 0.03125 0.015625 0.054688 0.015625 0.078125 0 0.20703-0.09375 0.36328-0.28125 0.46875-0.054687 0.03125-0.10938 0.050781-0.17188 0.0625 0.11328 0.0625 0.24219 0.09375 0.39062 0.09375 0.38281 0 0.71094-0.24219 0.98438-0.71875 0.10156-0.1875 0.17969-0.39062 0.23438-0.60938z"/>
</symbol>
<symbol id="b" overflow="visible">
<path d="m2.0312 8.4219v-8.4375c0.03125-0.19531 0.13281-0.29688 0.3125-0.29688 0.15625 0 0.25 0.10156 0.28125 0.29688v8.4375c-0.03125 0.1875-0.125 0.28125-0.28125 0.28125-0.17969 0-0.28125-0.09375-0.3125-0.28125z"/>
</symbol>
<symbol id="al" overflow="visible">
<path d="m0.45312 1.2188 1.1094-4.4531c0.050781-0.19531 0.078125-0.36328 0.078125-0.5 0-0.3125-0.10547-0.46875-0.3125-0.46875-0.27344 0-0.49609 0.32031-0.67188 0.95312-0.023438 0.074219-0.042969 0.15234-0.0625 0.23438-0.074219 0.14844-0.125 0.22656-0.15625 0.23438-0.085938 0-0.125-0.03125-0.125-0.09375 0-0.11328 0.054688-0.33594 0.17188-0.67188 0.050781-0.125 0.097656-0.22266 0.14062-0.29688 0.15625-0.33203 0.35156-0.51953 0.59375-0.5625 0.050781-0.007812 0.097656-0.015625 0.14062-0.015625 0.36328 0 0.62891 0.14844 0.79688 0.4375v0.015625c0.050781 0.085938 0.085938 0.18359 0.10938 0.29688 0.41406-0.5 0.84766-0.75 1.2969-0.75 0.47656 0 0.84375 0.21484 1.0938 0.64062 0.14453 0.30469 0.22656 0.625 0.25 0.96875 0 0.71875-0.25781 1.3867-0.76562 2-0.46094 0.55469-0.96484 0.85156-1.5156 0.90625-0.042969 0.007812-0.089844 0.015625-0.14062 0.015625-0.41797 0-0.72656-0.21094-0.92188-0.64062-0.24219 0.88281-0.39844 1.5312-0.46875 1.9375-0.011719 0.03125-0.015625 0.050781-0.015625 0.0625 0 0.070312 0.039063 0.11719 0.125 0.14062h0.015625c0.082031 0.007813 0.20312 0.015625 0.35938 0.015625 0.14453 0 0.22266 0.035156 0.23438 0.10938 0 0.13281-0.058594 0.20312-0.17188 0.20312l-0.98438-0.03125-0.82812 0.03125h-0.015625c-0.082031 0-0.125-0.042969-0.125-0.125 0.03125-0.11719 0.10547-0.17969 0.21875-0.1875 0.25 0 0.39844-0.042969 0.45312-0.125l0.015625-0.015625c0.007812-0.023437 0.019531-0.058594 0.03125-0.10938 0.007812-0.03125 0.023438-0.085938 0.046875-0.15625zm1.75-4.3438-0.48438 1.9688c-0.023438 0.074219-0.03125 0.125-0.03125 0.15625 0 0.15625 0.0625 0.32812 0.1875 0.51562 0.070312 0.125 0.16406 0.22656 0.28125 0.29688 0.09375 0.054688 0.20312 0.078125 0.32812 0.078125 0.33203 0 0.64844-0.21094 0.95312-0.64062 0.082031-0.125 0.16016-0.25391 0.23438-0.39062 0.17578-0.375 0.32812-0.89062 0.45312-1.5469 0.039062-0.22656 0.0625-0.42188 0.0625-0.57812 0-0.51953-0.16406-0.82812-0.48438-0.92188-0.054687-0.007812-0.10547-0.015625-0.15625-0.015625-0.26172 0-0.53125 0.13281-0.8125 0.39062-0.29297 0.24219-0.46875 0.46875-0.53125 0.6875z"/>
</symbol>
<symbol id="ak" overflow="visible">
<path d="m0.1875 33.031v-0.8125h2.9062v-31.984h-2.9062v-0.79688h3.7031v33.594z"/>
</symbol>
<symbol id="aj" overflow="visible">
<path d="m2.9375-6.4062v5.6094c0 0.21094 0.039062 0.33984 0.125 0.39062 0.11328 0.0625 0.38281 0.09375 0.8125 0.09375h0.3125v0.3125c-0.23047-0.019531-0.77344-0.03125-1.625-0.03125-0.84375 0-1.3828 0.011719-1.6094 0.03125v-0.3125h0.3125c0.51953 0 0.81641-0.054688 0.89062-0.17188v-0.015625c0.03125-0.050781 0.046875-0.14844 0.046875-0.29688v-5.1719c-0.34375 0.17969-0.78125 0.26562-1.3125 0.26562v-0.3125c0.80078 0 1.4062-0.21094 1.8125-0.64062 0.13281 0 0.21094 0.023438 0.23438 0.0625v0.015625 0.17188z"/>
</symbol>
<symbol id="ai" overflow="visible">
<path d="m4.3906-7.125-3.4219 9.3906c-0.054688 0.13281-0.10547 0.20703-0.15625 0.21875l-0.015625 0.015625h-0.046875c-0.10547 0-0.16797-0.054688-0.1875-0.15625-0.011719-0.023438-0.015625-0.039062-0.015625-0.046875 0-0.03125 0.015625-0.089844 0.046875-0.17188l3.4688-9.5312c0.039062-0.0625 0.097656-0.09375 0.17188-0.09375 0.11328 0 0.17969 0.054688 0.20312 0.15625v0.046875c0 0.03125-0.015625 0.089844-0.046875 0.17188z"/>
</symbol>
<symbol id="ah" overflow="visible">
<path d="m0.45312 1.2188 1.1094-4.4531c0.050781-0.19531 0.078125-0.36328 0.078125-0.5 0-0.3125-0.10547-0.46875-0.3125-0.46875-0.27344 0-0.49609 0.32031-0.67188 0.95312-0.023438 0.074219-0.042969 0.15234-0.0625 0.23438-0.074219 0.14844-0.125 0.22656-0.15625 0.23438-0.085938 0-0.125-0.03125-0.125-0.09375 0-0.11328 0.054688-0.33594 0.17188-0.67188 0.050781-0.125 0.097656-0.22266 0.14062-0.29688 0.15625-0.33203 0.35156-0.51953 0.59375-0.5625 0.050781-0.007812 0.097656-0.015625 0.14062-0.015625 0.36328 0 0.62891 0.14844 0.79688 0.4375v0.015625c0.050781 0.085938 0.085938 0.18359 0.10938 0.29688 0.41406-0.5 0.84766-0.75 1.2969-0.75 0.47656 0 0.84375 0.21484 1.0938 0.64062 0.14453 0.30469 0.22656 0.625 0.25 0.96875 0 0.71875-0.25781 1.3867-0.76562 2-0.46094 0.55469-0.96484 0.85156-1.5156 0.90625-0.042969 0.007812-0.089844 0.015625-0.14062 0.015625-0.41797 0-0.72656-0.21094-0.92188-0.64062-0.24219 0.88281-0.39844 1.5312-0.46875 1.9375-0.011719 0.03125-0.015625 0.050781-0.015625 0.0625 0 0.070312 0.039063 0.11719 0.125 0.14062h0.015625c0.082031 0.007813 0.20312 0.015625 0.35938 0.015625 0.14453 0 0.22266 0.035156 0.23438 0.10938 0 0.13281-0.058594 0.20312-0.17188 0.20312l-0.98438-0.03125-0.82812 0.03125h-0.015625c-0.082031 0-0.125-0.042969-0.125-0.125 0.03125-0.11719 0.10547-0.17969 0.21875-0.1875 0.25 0 0.39844-0.042969 0.45312-0.125l0.015625-0.015625c0.007812-0.023437 0.019531-0.058594 0.03125-0.10938 0.007812-0.03125 0.023438-0.085938 0.046875-0.15625zm1.75-4.3438-0.48438 1.9688c-0.023438 0.074219-0.03125 0.125-0.03125 0.15625 0 0.15625 0.0625 0.32812 0.1875 0.51562 0.070312 0.125 0.16406 0.22656 0.28125 0.29688 0.09375 0.054688 0.20312 0.078125 0.32812 0.078125 0.33203 0 0.64844-0.21094 0.95312-0.64062 0.082031-0.125 0.16016-0.25391 0.23438-0.39062 0.17578-0.375 0.32812-0.89062 0.45312-1.5469 0.039062-0.22656 0.0625-0.42188 0.0625-0.57812 0-0.51953-0.16406-0.82812-0.48438-0.92188-0.054687-0.007812-0.10547-0.015625-0.15625-0.015625-0.26172 0-0.53125 0.13281-0.8125 0.39062-0.29297 0.24219-0.46875 0.46875-0.53125 0.6875z"/>
</symbol>
<symbol id="ag" overflow="visible">
<path d="m7.1875-0.5625v0.79688h-2.9062v31.984h2.9062v0.8125h-3.7031v-33.594z"/>
</symbol>
<symbol id="af" overflow="visible">
<path d="m0.92188 19.594c-0.09375 0-0.14062-0.046875-0.14062-0.14062 0-0.042969 0.015625-0.078125 0.046875-0.10938l7.3906-8.6094-7.3906-10.125c-0.03125-0.023437-0.046875-0.042969-0.046875-0.0625v-0.42188c0-0.03125 0.015625-0.0625 0.046875-0.09375 0.03125-0.023438 0.0625-0.03125 0.09375-0.03125h16.797l1.7031 3.9375h-0.40625c-0.4375-1-1.168-1.7422-2.1875-2.2188-1.0117-0.48047-2.0703-0.77734-3.1719-0.89062-1.1055-0.10547-2.3906-0.15625-3.8594-0.15625h-6.4688l6.6094 9.0312c0.019531 0.03125 0.03125 0.0625 0.03125 0.09375s-0.011719 0.066406-0.03125 0.10938l-7.2656 8.4531h7.2656c1.4375 0 2.707-0.058594 3.8125-0.17188 1.1133-0.11719 2.1719-0.41406 3.1719-0.89062 1.0078-0.48047 1.707-1.2148 2.0938-2.2031h0.40625l-1.7031 4.5z"/>
</symbol>
<symbol id="ae" overflow="visible">
<path d="m2.8438-6.25c0 0.21094-0.10547 0.36719-0.3125 0.46875-0.074219 0.042969-0.14844 0.0625-0.21875 0.0625-0.19922 0-0.32422-0.085938-0.375-0.26562v-0.09375c0-0.1875 0.085938-0.33594 0.26562-0.45312 0.09375-0.050781 0.17969-0.078125 0.26562-0.078125 0.19531 0 0.31641 0.089844 0.35938 0.26562v0.015625c0.007813 0.023437 0.015625 0.046875 0.015625 0.078125zm-0.76562 3.7656-0.39062 1.0469c-0.1875 0.54297-0.28125 0.875-0.28125 1 0 0.21875 0.078125 0.32812 0.23438 0.32812 0.41406 0 0.74219-0.375 0.98438-1.125l0.03125-0.10938c0.03125-0.11328 0.066406-0.17188 0.10938-0.17188v-0.015625h0.046875c0.082031 0 0.125 0.03125 0.125 0.09375 0 0.125-0.078125 0.33984-0.23438 0.64062-0.28125 0.60547-0.64062 0.90625-1.0781 0.90625-0.35547 0-0.60547-0.14453-0.75-0.4375-0.054688-0.125-0.078125-0.25-0.078125-0.375 0-0.13281 0.078125-0.40625 0.23438-0.8125 0.46875-1.25 0.69531-1.8633 0.6875-1.8438 0.070312-0.1875 0.10938-0.35938 0.10938-0.51562 0-0.21875-0.085937-0.32812-0.25-0.32812-0.36719 0-0.66406 0.30469-0.89062 0.90625v0.015625c-0.042969 0.10547-0.085938 0.21484-0.125 0.32812-0.074219 0.10547-0.125 0.16406-0.15625 0.17188-0.074219 0-0.10938-0.03125-0.10938-0.09375 0-0.125 0.070313-0.33594 0.21875-0.64062 0.28125-0.60156 0.64453-0.90625 1.0938-0.90625 0.35156 0 0.59766 0.15234 0.73438 0.45312 0.0625 0.11719 0.09375 0.24219 0.09375 0.375 0 0.125-0.046875 0.30469-0.14062 0.53125-0.11719 0.30469-0.1875 0.49609-0.21875 0.57812z"/>
</symbol>
<symbol id="ad" overflow="visible">
<path d="m5.2188-5.2969c0.050781-0.3125 0.19531-0.50391 0.4375-0.57812 0.039062-0.019531 0.09375-0.03125 0.15625-0.03125 0.23828 0 0.375 0.125 0.40625 0.375 0 0.054688-0.03125 0.21484-0.09375 0.48438l-0.51562 1.9531c-0.13672 0.58594-0.23438 1.0078-0.29688 1.2656-0.125 0.48047-0.1875 0.82422-0.1875 1.0312 0 0.42969 0.14062 0.64062 0.42188 0.64062 0.35156 0 0.64844-0.375 0.89062-1.125 0.050781-0.15625 0.10938-0.35938 0.17188-0.60938 0.070313-0.15625 0.13281-0.23828 0.1875-0.25 0.11328 0 0.17188 0.046875 0.17188 0.14062 0 0.13672-0.085938 0.46484-0.25 0.98438-0.054688 0.15625-0.10938 0.29297-0.17188 0.40625-0.26172 0.51172-0.60547 0.76562-1.0312 0.76562-0.52344 0-0.90234-0.22266-1.1406-0.67188-0.0625-0.11328-0.10938-0.23828-0.14062-0.375-0.58594 0.69922-1.1875 1.0469-1.8125 1.0469-0.69922 0-1.2148-0.31641-1.5469-0.95312-0.21094-0.375-0.3125-0.80469-0.3125-1.2969 0-1 0.34766-1.9297 1.0469-2.7969 0.65625-0.78125 1.3633-1.207 2.125-1.2812 0.070313-0.007813 0.14062-0.015625 0.20312-0.015625 0.5625 0 0.98828 0.29688 1.2812 0.89062zm-0.90625 3.625 0.70312-2.7344c0.019531-0.14453 0.03125-0.22266 0.03125-0.23438 0-0.19531-0.085937-0.4375-0.25-0.71875-0.19922-0.34375-0.48047-0.51562-0.84375-0.51562-0.49219 0-0.95312 0.32031-1.3906 0.95312-0.085938 0.11719-0.16406 0.24609-0.23438 0.39062-0.27344 0.54297-0.5 1.3125-0.6875 2.3125-0.0625 0.3125-0.09375 0.5625-0.09375 0.75 0 0.63672 0.17969 1.0469 0.54688 1.2344 0.09375 0.054687 0.21094 0.078125 0.35938 0.078125 0.51953 0 1.0469-0.32812 1.5781-0.98438 0.13281-0.15625 0.22266-0.3125 0.26562-0.46875v-0.015625c0.007813-0.019531 0.015625-0.035156 0.015625-0.046875z"/>
</symbol>
<symbol id="aa" overflow="visible">
<path d="m2.8438-6.25c0 0.21094-0.10547 0.36719-0.3125 0.46875-0.074219 0.042969-0.14844 0.0625-0.21875 0.0625-0.19922 0-0.32422-0.085938-0.375-0.26562v-0.09375c0-0.1875 0.085938-0.33594 0.26562-0.45312 0.09375-0.050781 0.17969-0.078125 0.26562-0.078125 0.19531 0 0.31641 0.089844 0.35938 0.26562v0.015625c0.007813 0.023437 0.015625 0.046875 0.015625 0.078125zm-0.76562 3.7656-0.39062 1.0469c-0.1875 0.54297-0.28125 0.875-0.28125 1 0 0.21875 0.078125 0.32812 0.23438 0.32812 0.41406 0 0.74219-0.375 0.98438-1.125l0.03125-0.10938c0.03125-0.11328 0.066406-0.17188 0.10938-0.17188v-0.015625h0.046875c0.082031 0 0.125 0.03125 0.125 0.09375 0 0.125-0.078125 0.33984-0.23438 0.64062-0.28125 0.60547-0.64062 0.90625-1.0781 0.90625-0.35547 0-0.60547-0.14453-0.75-0.4375-0.054688-0.125-0.078125-0.25-0.078125-0.375 0-0.13281 0.078125-0.40625 0.23438-0.8125 0.46875-1.25 0.69531-1.8633 0.6875-1.8438 0.070312-0.1875 0.10938-0.35938 0.10938-0.51562 0-0.21875-0.085937-0.32812-0.25-0.32812-0.36719 0-0.66406 0.30469-0.89062 0.90625v0.015625c-0.042969 0.10547-0.085938 0.21484-0.125 0.32812-0.074219 0.10547-0.125 0.16406-0.15625 0.17188-0.074219 0-0.10938-0.03125-0.10938-0.09375 0-0.125 0.070313-0.33594 0.21875-0.64062 0.28125-0.60156 0.64453-0.90625 1.0938-0.90625 0.35156 0 0.59766 0.15234 0.73438 0.45312 0.0625 0.11719 0.09375 0.24219 0.09375 0.375 0 0.125-0.046875 0.30469-0.14062 0.53125-0.11719 0.30469-0.1875 0.49609-0.21875 0.57812z"/>
</symbol>
<symbol id="d" overflow="visible">
<path d="m2.0312 8.4219v-8.4375c0.03125-0.19531 0.13281-0.29688 0.3125-0.29688 0.15625 0 0.25 0.10156 0.28125 0.29688v8.4375c-0.03125 0.1875-0.125 0.28125-0.28125 0.28125-0.17969 0-0.28125-0.09375-0.3125-0.28125z"/>
</symbol>
<symbol id="z" overflow="visible">
<path d="m0.92188 19.594c-0.09375 0-0.14062-0.046875-0.14062-0.14062 0-0.042969 0.015625-0.078125 0.046875-0.10938l7.3906-8.6094-7.3906-10.125c-0.03125-0.023437-0.046875-0.042969-0.046875-0.0625v-0.42188c0-0.03125 0.015625-0.0625 0.046875-0.09375 0.03125-0.023438 0.0625-0.03125 0.09375-0.03125h16.797l1.7031 3.9375h-0.40625c-0.4375-1-1.168-1.7422-2.1875-2.2188-1.0117-0.48047-2.0703-0.77734-3.1719-0.89062-1.1055-0.10547-2.3906-0.15625-3.8594-0.15625h-6.4688l6.6094 9.0312c0.019531 0.03125 0.03125 0.0625 0.03125 0.09375s-0.011719 0.066406-0.03125 0.10938l-7.2656 8.4531h7.2656c1.4375 0 2.707-0.058594 3.8125-0.17188 1.1133-0.11719 2.1719-0.41406 3.1719-0.89062 1.0078-0.48047 1.707-1.2148 2.0938-2.2031h0.40625l-1.7031 4.5z"/>
</symbol>
<symbol id="y" overflow="visible">
<path d="m3.9688-6.25c0 0.1875-0.09375 0.33984-0.28125 0.45312-0.085938 0.054687-0.16797 0.078125-0.25 0.078125-0.21094 0-0.33594-0.085938-0.375-0.26562v-0.015625-0.078125c0-0.20703 0.10156-0.36328 0.3125-0.46875 0.070312-0.039063 0.14453-0.0625 0.21875-0.0625 0.19531 0 0.31641 0.089844 0.35938 0.26562 0.007813 0.03125 0.015625 0.0625 0.015625 0.09375zm-2.0156 6.75 0.95312-3.7344c0.039062-0.19531 0.0625-0.36328 0.0625-0.5 0-0.3125-0.10547-0.46875-0.3125-0.46875-0.40625 0-0.77734 0.29688-1.1094 0.89062-0.0625 0.10547-0.11719 0.21484-0.15625 0.32812-0.085937 0.125-0.14844 0.19531-0.1875 0.20312-0.074219 0-0.10938-0.03125-0.10938-0.09375 0-0.09375 0.082031-0.28516 0.25-0.57812 0.39453-0.64453 0.84375-0.96875 1.3438-0.96875 0.36328 0 0.62891 0.15234 0.79688 0.45312 0.070313 0.13672 0.10938 0.29297 0.10938 0.46875 0 0.11719-0.015625 0.24219-0.046875 0.375l-0.92188 3.6562c-0.14844 0.58203-0.49219 1.0156-1.0312 1.2969-0.28125 0.14453-0.5625 0.21875-0.84375 0.21875-0.41797 0-0.6875-0.125-0.8125-0.375-0.039062-0.074219-0.0625-0.15234-0.0625-0.23438 0-0.26172 0.10938-0.4375 0.32812-0.53125 0.070313-0.03125 0.14062-0.046875 0.20312-0.046875 0.20703 0 0.33203 0.085937 0.375 0.26562 0.007812 0.03125 0.015625 0.054688 0.015625 0.078125 0 0.20703-0.09375 0.36328-0.28125 0.46875-0.054687 0.03125-0.10938 0.050781-0.17188 0.0625 0.11328 0.0625 0.24219 0.09375 0.39062 0.09375 0.38281 0 0.71094-0.24219 0.98438-0.71875 0.10156-0.1875 0.17969-0.39062 0.23438-0.60938z"/>
</symbol>
<symbol id="x" overflow="visible">
<path d="m4.6719-4.2344-0.46875 1.9219c-0.15625 0.63672-0.23438 1.0469-0.23438 1.2344 0 0.49219 0.17188 0.78125 0.51562 0.875 0.070313 0.03125 0.15625 0.046875 0.25 0.046875 0.46875 0 0.89062-0.23438 1.2656-0.70312 0.25781-0.28906 0.45703-0.66406 0.59375-1.125 0.03125-0.10156 0.09375-0.15625 0.1875-0.15625 0.10156 0 0.15625 0.046875 0.15625 0.14062 0 0.23047-0.14062 0.5625-0.42188 1-0.51172 0.77344-1.1172 1.1562-1.8125 1.1562-0.63672 0-1.1016-0.26562-1.3906-0.79688-0.054688-0.082031-0.09375-0.17188-0.125-0.26562-0.21875 0.44922-0.52734 0.76172-0.92188 0.9375-0.17969 0.082031-0.35938 0.125-0.54688 0.125-0.5625 0-0.95312-0.16406-1.1719-0.5-0.09375-0.11328-0.14062-0.25391-0.14062-0.42188 0-0.34375 0.14844-0.58594 0.45312-0.73438 0.10156-0.050781 0.20703-0.078125 0.3125-0.078125 0.28125 0 0.45312 0.11719 0.51562 0.34375v0.14062c0 0.32422-0.15625 0.55859-0.46875 0.70312-0.054688 0.03125-0.11719 0.046875-0.1875 0.046875 0.19531 0.125 0.42969 0.1875 0.70312 0.1875 0.5 0 0.89062-0.32812 1.1719-0.98438 0.0625-0.14453 0.11328-0.30078 0.15625-0.46875 0.50781-1.9062 0.76562-3.0156 0.76562-3.3281-0.0625-0.58203-0.32031-0.89453-0.76562-0.9375-0.48047 0-0.92188 0.24609-1.3281 0.73438v0.015625c0 0.011719-0.007813 0.015625-0.015625 0.015625-0.13672 0.1875-0.26172 0.40234-0.375 0.64062-0.042969 0.11719-0.085938 0.23047-0.125 0.34375l-0.03125 0.078125c-0.023438 0.10547-0.078125 0.15625-0.17188 0.15625-0.11719 0-0.17188-0.046875-0.17188-0.14062 0-0.22656 0.14453-0.56641 0.4375-1.0156 0.50781-0.75781 1.1133-1.1406 1.8125-1.1406 0.71875 0 1.2227 0.35547 1.5156 1.0625 0.28906-0.57031 0.6875-0.91406 1.1875-1.0312 0.09375-0.019531 0.1875-0.03125 0.28125-0.03125 0.55078 0 0.9375 0.15625 1.1562 0.46875 0.09375 0.125 0.14062 0.27734 0.14062 0.45312 0 0.38672-0.17188 0.64062-0.51562 0.76562-0.085937 0.03125-0.16406 0.046875-0.23438 0.046875-0.29297 0-0.46484-0.125-0.51562-0.375-0.011719-0.039063-0.015625-0.078125-0.015625-0.10938 0-0.28125 0.13281-0.5 0.40625-0.65625 0.082031-0.050781 0.17188-0.085938 0.26562-0.10938-0.19922-0.11328-0.43359-0.17188-0.70312-0.17188-0.63672 0-1.0859 0.49609-1.3438 1.4844-0.023438 0.054687-0.039062 0.10547-0.046875 0.15625z"/>
</symbol>
<symbol id="w" overflow="visible">
<path d="m2.8438-6.25c0 0.21094-0.10547 0.36719-0.3125 0.46875-0.074219 0.042969-0.14844 0.0625-0.21875 0.0625-0.19922 0-0.32422-0.085938-0.375-0.26562v-0.09375c0-0.1875 0.085938-0.33594 0.26562-0.45312 0.09375-0.050781 0.17969-0.078125 0.26562-0.078125 0.19531 0 0.31641 0.089844 0.35938 0.26562v0.015625c0.007813 0.023437 0.015625 0.046875 0.015625 0.078125zm-0.76562 3.7656-0.39062 1.0469c-0.1875 0.54297-0.28125 0.875-0.28125 1 0 0.21875 0.078125 0.32812 0.23438 0.32812 0.41406 0 0.74219-0.375 0.98438-1.125l0.03125-0.10938c0.03125-0.11328 0.066406-0.17188 0.10938-0.17188v-0.015625h0.046875c0.082031 0 0.125 0.03125 0.125 0.09375 0 0.125-0.078125 0.33984-0.23438 0.64062-0.28125 0.60547-0.64062 0.90625-1.0781 0.90625-0.35547 0-0.60547-0.14453-0.75-0.4375-0.054688-0.125-0.078125-0.25-0.078125-0.375 0-0.13281 0.078125-0.40625 0.23438-0.8125 0.46875-1.25 0.69531-1.8633 0.6875-1.8438 0.070312-0.1875 0.10938-0.35938 0.10938-0.51562 0-0.21875-0.085937-0.32812-0.25-0.32812-0.36719 0-0.66406 0.30469-0.89062 0.90625v0.015625c-0.042969 0.10547-0.085938 0.21484-0.125 0.32812-0.074219 0.10547-0.125 0.16406-0.15625 0.17188-0.074219 0-0.10938-0.03125-0.10938-0.09375 0-0.125 0.070313-0.33594 0.21875-0.64062 0.28125-0.60156 0.64453-0.90625 1.0938-0.90625 0.35156 0 0.59766 0.15234 0.73438 0.45312 0.0625 0.11719 0.09375 0.24219 0.09375 0.375 0 0.125-0.046875 0.30469-0.14062 0.53125-0.11719 0.30469-0.1875 0.49609-0.21875 0.57812z"/>
</symbol>
<symbol id="v" overflow="visible">
<path d="m3.9688-6.25c0 0.1875-0.09375 0.33984-0.28125 0.45312-0.085938 0.054687-0.16797 0.078125-0.25 0.078125-0.21094 0-0.33594-0.085938-0.375-0.26562v-0.015625-0.078125c0-0.20703 0.10156-0.36328 0.3125-0.46875 0.070312-0.039063 0.14453-0.0625 0.21875-0.0625 0.19531 0 0.31641 0.089844 0.35938 0.26562 0.007813 0.03125 0.015625 0.0625 0.015625 0.09375zm-2.0156 6.75 0.95312-3.7344c0.039062-0.19531 0.0625-0.36328 0.0625-0.5 0-0.3125-0.10547-0.46875-0.3125-0.46875-0.40625 0-0.77734 0.29688-1.1094 0.89062-0.0625 0.10547-0.11719 0.21484-0.15625 0.32812-0.085937 0.125-0.14844 0.19531-0.1875 0.20312-0.074219 0-0.10938-0.03125-0.10938-0.09375 0-0.09375 0.082031-0.28516 0.25-0.57812 0.39453-0.64453 0.84375-0.96875 1.3438-0.96875 0.36328 0 0.62891 0.15234 0.79688 0.45312 0.070313 0.13672 0.10938 0.29297 0.10938 0.46875 0 0.11719-0.015625 0.24219-0.046875 0.375l-0.92188 3.6562c-0.14844 0.58203-0.49219 1.0156-1.0312 1.2969-0.28125 0.14453-0.5625 0.21875-0.84375 0.21875-0.41797 0-0.6875-0.125-0.8125-0.375-0.039062-0.074219-0.0625-0.15234-0.0625-0.23438 0-0.26172 0.10938-0.4375 0.32812-0.53125 0.070313-0.03125 0.14062-0.046875 0.20312-0.046875 0.20703 0 0.33203 0.085937 0.375 0.26562 0.007812 0.03125 0.015625 0.054688 0.015625 0.078125 0 0.20703-0.09375 0.36328-0.28125 0.46875-0.054687 0.03125-0.10938 0.050781-0.17188 0.0625 0.11328 0.0625 0.24219 0.09375 0.39062 0.09375 0.38281 0 0.71094-0.24219 0.98438-0.71875 0.10156-0.1875 0.17969-0.39062 0.23438-0.60938z"/>
</symbol>
<symbol id="c" overflow="visible">
<path d="m2.0312 8.4219v-8.4375c0.03125-0.19531 0.13281-0.29688 0.3125-0.29688 0.15625 0 0.25 0.10156 0.28125 0.29688v8.4375c-0.03125 0.1875-0.125 0.28125-0.28125 0.28125-0.17969 0-0.28125-0.09375-0.3125-0.28125z"/>
</symbol>
<symbol id="u" overflow="visible">
<path d="m0.45312 1.2188 1.1094-4.4531c0.050781-0.19531 0.078125-0.36328 0.078125-0.5 0-0.3125-0.10547-0.46875-0.3125-0.46875-0.27344 0-0.49609 0.32031-0.67188 0.95312-0.023438 0.074219-0.042969 0.15234-0.0625 0.23438-0.074219 0.14844-0.125 0.22656-0.15625 0.23438-0.085938 0-0.125-0.03125-0.125-0.09375 0-0.11328 0.054688-0.33594 0.17188-0.67188 0.050781-0.125 0.097656-0.22266 0.14062-0.29688 0.15625-0.33203 0.35156-0.51953 0.59375-0.5625 0.050781-0.007812 0.097656-0.015625 0.14062-0.015625 0.36328 0 0.62891 0.14844 0.79688 0.4375v0.015625c0.050781 0.085938 0.085938 0.18359 0.10938 0.29688 0.41406-0.5 0.84766-0.75 1.2969-0.75 0.47656 0 0.84375 0.21484 1.0938 0.64062 0.14453 0.30469 0.22656 0.625 0.25 0.96875 0 0.71875-0.25781 1.3867-0.76562 2-0.46094 0.55469-0.96484 0.85156-1.5156 0.90625-0.042969 0.007812-0.089844 0.015625-0.14062 0.015625-0.41797 0-0.72656-0.21094-0.92188-0.64062-0.24219 0.88281-0.39844 1.5312-0.46875 1.9375-0.011719 0.03125-0.015625 0.050781-0.015625 0.0625 0 0.070312 0.039063 0.11719 0.125 0.14062h0.015625c0.082031 0.007813 0.20312 0.015625 0.35938 0.015625 0.14453 0 0.22266 0.035156 0.23438 0.10938 0 0.13281-0.058594 0.20312-0.17188 0.20312l-0.98438-0.03125-0.82812 0.03125h-0.015625c-0.082031 0-0.125-0.042969-0.125-0.125 0.03125-0.11719 0.10547-0.17969 0.21875-0.1875 0.25 0 0.39844-0.042969 0.45312-0.125l0.015625-0.015625c0.007812-0.023437 0.019531-0.058594 0.03125-0.10938 0.007812-0.03125 0.023438-0.085938 0.046875-0.15625zm1.75-4.3438-0.48438 1.9688c-0.023438 0.074219-0.03125 0.125-0.03125 0.15625 0 0.15625 0.0625 0.32812 0.1875 0.51562 0.070312 0.125 0.16406 0.22656 0.28125 0.29688 0.09375 0.054688 0.20312 0.078125 0.32812 0.078125 0.33203 0 0.64844-0.21094 0.95312-0.64062 0.082031-0.125 0.16016-0.25391 0.23438-0.39062 0.17578-0.375 0.32812-0.89062 0.45312-1.5469 0.039062-0.22656 0.0625-0.42188 0.0625-0.57812 0-0.51953-0.16406-0.82812-0.48438-0.92188-0.054687-0.007812-0.10547-0.015625-0.15625-0.015625-0.26172 0-0.53125 0.13281-0.8125 0.39062-0.29297 0.24219-0.46875 0.46875-0.53125 0.6875z"/>
</symbol>
<symbol id="t" overflow="visible">
<path d="m0.1875 33.031v-0.8125h2.9062v-31.984h-2.9062v-0.79688h3.7031v33.594z"/>
</symbol>
<symbol id="s" overflow="visible">
<path d="m2.9375-6.4062v5.6094c0 0.21094 0.039062 0.33984 0.125 0.39062 0.11328 0.0625 0.38281 0.09375 0.8125 0.09375h0.3125v0.3125c-0.23047-0.019531-0.77344-0.03125-1.625-0.03125-0.84375 0-1.3828 0.011719-1.6094 0.03125v-0.3125h0.3125c0.51953 0 0.81641-0.054688 0.89062-0.17188v-0.015625c0.03125-0.050781 0.046875-0.14844 0.046875-0.29688v-5.1719c-0.34375 0.17969-0.78125 0.26562-1.3125 0.26562v-0.3125c0.80078 0 1.4062-0.21094 1.8125-0.64062 0.13281 0 0.21094 0.023438 0.23438 0.0625v0.015625 0.17188z"/>
</symbol>
<symbol id="q" overflow="visible">
<path d="m4.3906-7.125-3.4219 9.3906c-0.054688 0.13281-0.10547 0.20703-0.15625 0.21875l-0.015625 0.015625h-0.046875c-0.10547 0-0.16797-0.054688-0.1875-0.15625-0.011719-0.023438-0.015625-0.039062-0.015625-0.046875 0-0.03125 0.015625-0.089844 0.046875-0.17188l3.4688-9.5312c0.039062-0.0625 0.097656-0.09375 0.17188-0.09375 0.11328 0 0.17969 0.054688 0.20312 0.15625v0.046875c0 0.03125-0.015625 0.089844-0.046875 0.17188z"/>
</symbol>
<symbol id="p" overflow="visible">
<path d="m0.45312 1.2188 1.1094-4.4531c0.050781-0.19531 0.078125-0.36328 0.078125-0.5 0-0.3125-0.10547-0.46875-0.3125-0.46875-0.27344 0-0.49609 0.32031-0.67188 0.95312-0.023438 0.074219-0.042969 0.15234-0.0625 0.23438-0.074219 0.14844-0.125 0.22656-0.15625 0.23438-0.085938 0-0.125-0.03125-0.125-0.09375 0-0.11328 0.054688-0.33594 0.17188-0.67188 0.050781-0.125 0.097656-0.22266 0.14062-0.29688 0.15625-0.33203 0.35156-0.51953 0.59375-0.5625 0.050781-0.007812 0.097656-0.015625 0.14062-0.015625 0.36328 0 0.62891 0.14844 0.79688 0.4375v0.015625c0.050781 0.085938 0.085938 0.18359 0.10938 0.29688 0.41406-0.5 0.84766-0.75 1.2969-0.75 0.47656 0 0.84375 0.21484 1.0938 0.64062 0.14453 0.30469 0.22656 0.625 0.25 0.96875 0 0.71875-0.25781 1.3867-0.76562 2-0.46094 0.55469-0.96484 0.85156-1.5156 0.90625-0.042969 0.007812-0.089844 0.015625-0.14062 0.015625-0.41797 0-0.72656-0.21094-0.92188-0.64062-0.24219 0.88281-0.39844 1.5312-0.46875 1.9375-0.011719 0.03125-0.015625 0.050781-0.015625 0.0625 0 0.070312 0.039063 0.11719 0.125 0.14062h0.015625c0.082031 0.007813 0.20312 0.015625 0.35938 0.015625 0.14453 0 0.22266 0.035156 0.23438 0.10938 0 0.13281-0.058594 0.20312-0.17188 0.20312l-0.98438-0.03125-0.82812 0.03125h-0.015625c-0.082031 0-0.125-0.042969-0.125-0.125 0.03125-0.11719 0.10547-0.17969 0.21875-0.1875 0.25 0 0.39844-0.042969 0.45312-0.125l0.015625-0.015625c0.007812-0.023437 0.019531-0.058594 0.03125-0.10938 0.007812-0.03125 0.023438-0.085938 0.046875-0.15625zm1.75-4.3438-0.48438 1.9688c-0.023438 0.074219-0.03125 0.125-0.03125 0.15625 0 0.15625 0.0625 0.32812 0.1875 0.51562 0.070312 0.125 0.16406 0.22656 0.28125 0.29688 0.09375 0.054688 0.20312 0.078125 0.32812 0.078125 0.33203 0 0.64844-0.21094 0.95312-0.64062 0.082031-0.125 0.16016-0.25391 0.23438-0.39062 0.17578-0.375 0.32812-0.89062 0.45312-1.5469 0.039062-0.22656 0.0625-0.42188 0.0625-0.57812 0-0.51953-0.16406-0.82812-0.48438-0.92188-0.054687-0.007812-0.10547-0.015625-0.15625-0.015625-0.26172 0-0.53125 0.13281-0.8125 0.39062-0.29297 0.24219-0.46875 0.46875-0.53125 0.6875z"/>
</symbol>
</defs>
<rect width="146" height="181" fill="#fff"/>
<g>
<use x="69.5" y="19.023438" xlink:href="#i"/>
</g>
<path transform="scale(14)" d="m0.71429 1.7852h9" fill="none" stroke="#000" stroke-linejoin="bevel" stroke-miterlimit="0" stroke-width=".039999"/>
<g>
<use x="10" y="33.867188" xlink:href="#f"/>
</g>
<path transform="scale(14)" d="m1.5477 2.399h0.55552" fill="none" stroke="#000" stroke-linejoin="bevel" stroke-miterlimit="0" stroke-width=".039999"/>
<g>
<use x="21.667969" y="45.445312" xlink:href="#h"/>
</g>
<g>
<use x="32.554688" y="45.445312" xlink:href="#g"/>
</g>
<g>
<use x="87.777344" y="35.976562" xlink:href="#i"/>
</g>
<path transform="scale(14)" d="m3.3253 2.9961h6.389" fill="none" stroke="#000" stroke-linejoin="bevel" stroke-miterlimit="0" stroke-width=".039999"/>
<g>
<use x="46.554688" y="50.820312" xlink:href="#f"/>
</g>
<path transform="scale(14)" d="m4.1588 3.6099h0.55552" fill="none" stroke="#000" stroke-linejoin="bevel" stroke-miterlimit="0" stroke-width=".039999"/>
<g>
<use x="58.222656" y="62.398438" xlink:href="#h"/>
</g>
<g>
<use x="69.109375" y="62.398438" xlink:href="#g"/>
</g>
<g>
<use x="106.054688" y="52.929687" xlink:href="#i"/>
</g>
<path transform="scale(14)" d="m5.9367 4.207h3.7776" fill="none" stroke="#000" stroke-linejoin="bevel" stroke-miterlimit="0" stroke-width=".039999"/>
<g>
<use x="83.113281" y="61.980469" xlink:href="#f"/>
</g>
<path transform="scale(14)" d="m6.7698 4.4071h0.55552" fill="none" stroke="#000" stroke-linejoin="bevel" stroke-miterlimit="0" stroke-width=".039999"/>
<g>
<use x="94.777344" y="73.5625" xlink:href="#h"/>
</g>
<g>
<use x="105.667969" y="73.5625" xlink:href="#g"/>
</g>
<g>
<use x="119.667969" y="73.5625" xlink:href="#e"/>
</g>
<g>
<use x="125.890625" y="73.5625" xlink:href="#e"/>
</g>
<g>
<use x="132.113281" y="73.5625" xlink:href="#e"/>
</g>
<g>
<use x="10" y="84.210937" xlink:href="#ac"/>
</g>
<g>
<use x="17.390625" y="89.253906" xlink:href="#ab"/>
</g>
<g>
<use x="25.8125" y="119.050781" xlink:href="#r"/>
</g>
<g>
<use x="39.945312" y="103.953125" xlink:href="#o"/>
</g>
<g>
<use x="47.34375" y="106.054688" xlink:href="#n"/>
</g>
<g>
<use x="50.722656" y="83.652344" xlink:href="#a"/>
</g>
<g>
<use x="50.722656" y="92.050781" xlink:href="#a"/>
</g>
<g>
<use x="50.722656" y="100.453125" xlink:href="#a"/>
</g>
<g>
<use x="50.722656" y="108.851563" xlink:href="#a"/>
</g>
<g>
<use x="55.386719" y="89.253906" xlink:href="#m"/>
</g>
<g>
<use x="63.480469" y="119.050781" xlink:href="#l"/>
</g>
<g>
<use x="77.941406" y="103.953125" xlink:href="#k"/>
</g>
<g>
<use x="85.945313" y="106.054688" xlink:href="#j"/>
</g>
<g>
<use x="89.320313" y="106.054688" xlink:href="#am"/>
</g>
<g>
<use x="93.917969" y="83.652344" xlink:href="#b"/>
</g>
<g>
<use x="93.917969" y="92.050781" xlink:href="#b"/>
</g>
<g>
<use x="93.917969" y="100.453125" xlink:href="#b"/>
</g>
<g>
<use x="93.917969" y="108.851563" xlink:href="#b"/>
</g>
<g>
<use x="98.585938" y="87.4375" xlink:href="#al"/>
</g>
<g>
<use x="104.015625" y="84.210938" xlink:href="#ak"/>
</g>
<g>
<use x="111.402344" y="87.4375" xlink:href="#aj"/>
</g>
<g>
<use x="116.304688" y="87.4375" xlink:href="#ai"/>
</g>
<g>
<use x="121.203125" y="87.4375" xlink:href="#ah"/>
</g>
<g>
<use x="10" y="131.148438" xlink:href="#ag"/>
</g>
<g>
<use x="17.390625" y="136.1875" xlink:href="#af"/>
</g>
<g>
<use x="25.8125" y="165.984375" xlink:href="#ae"/>
</g>
<g>
<use x="39.945312" y="150.886719" xlink:href="#ad"/>
</g>
<g>
<use x="47.34375" y="152.988281" xlink:href="#aa"/>
</g>
<g>
<use x="50.722656" y="134.789063" xlink:href="#d"/>
</g>
<g>
<use x="50.722656" y="143.1875" xlink:href="#d"/>
</g>
<g>
<use x="50.722656" y="151.589844" xlink:href="#d"/>
</g>
<g>
<use x="55.386719" y="136.1875" xlink:href="#z"/>
</g>
<g>
<use x="63.480469" y="165.984375" xlink:href="#y"/>
</g>
<g>
<use x="77.941406" y="150.886719" xlink:href="#x"/>
</g>
<g>
<use x="85.945312" y="152.988281" xlink:href="#w"/>
</g>
<g>
<use x="89.320312" y="152.988281" xlink:href="#v"/>
</g>
<g>
<use x="93.917969" y="134.789063" xlink:href="#c"/>
</g>
<g>
<use x="93.917969" y="143.1875" xlink:href="#c"/>
</g>
<g>
<use x="93.917969" y="151.589844" xlink:href="#c"/>
</g>
<g>
<use x="98.585938" y="138.570313" xlink:href="#u"/>
</g>
<g>
<use x="104.015625" y="131.148438" xlink:href="#t"/>
</g>
<g>
<use x="111.402344" y="134.371094" xlink:href="#s"/>
</g>
<g>
<use x="116.304688" y="134.371094" xlink:href="#q"/>
</g>
<g>
<use x="121.203125" y="134.371094" xlink:href="#p"/>
</g>
</svg>
