<?xml version="1.0" encoding="UTF-8"?>
<svg width="124pt" height="189pt" version="1.1" viewBox="0 0 124 189" xmlns="http://www.w3.org/2000/svg" xmlns:xlink="http://www.w3.org/1999/xlink">
<defs>
<symbol id="bb" overflow="visible">
<path d="m0.92188 14c-0.09375 0-0.14062-0.054688-0.14062-0.15625 0-0.042969 0.015625-0.074219 0.046875-0.09375l5.0938-6.2344-5.0938-7.0156c-0.03125-0.023438-0.046875-0.042969-0.046875-0.0625v-0.3125c0-0.03125 0.015625-0.0625 0.046875-0.09375 0.03125-0.023438 0.0625-0.03125 0.09375-0.03125h11.859l1.2031 3.2812h-0.40625c-0.23047-0.64844-0.58594-1.1562-1.0625-1.5312-0.46875-0.375-1.0078-0.65234-1.6094-0.82812-0.60547-0.16797-1.1953-0.27344-1.7656-0.3125-0.57422-0.03125-1.2734-0.046875-2.0938-0.046875h-4.6875l4.625 6.3438c0.03125 0.03125 0.046875 0.0625 0.046875 0.09375 0 0.039062-0.015625 0.070312-0.046875 0.09375l-5 6.1094h5.1406c0.8125 0 1.5-0.023437 2.0625-0.0625 0.57031-0.042969 1.1602-0.14844 1.7656-0.3125 0.60156-0.16797 1.1328-0.44531 1.5938-0.82812 0.46875-0.375 0.8125-0.88281 1.0312-1.5156h0.40625l-1.2031 3.5156z"/>
</symbol>
<symbol id="ba" overflow="visible">
<path d="m0.875-0.59375 0.57812-2.3125c0.11328-0.42578 0.17188-0.70312 0.17188-0.82812 0-0.3125-0.10547-0.46875-0.3125-0.46875-0.27344 0-0.49609 0.32031-0.67188 0.95312-0.023437 0.074219-0.042969 0.15234-0.0625 0.23438-0.074219 0.14844-0.13281 0.22656-0.17188 0.23438-0.074219 0-0.10938-0.03125-0.10938-0.09375 0-0.11328 0.0625-0.35156 0.1875-0.71875v-0.015625c0-0.007813 0.003906-0.015625 0.015625-0.015625v-0.015625l0.09375-0.20312c0.14453-0.26953 0.29688-0.4375 0.45312-0.5 0.09375-0.050781 0.19141-0.078125 0.29688-0.078125 0.375 0 0.64453 0.15625 0.8125 0.46875 0.050781 0.125 0.085938 0.26172 0.10938 0.40625 0.42578-0.58203 0.94141-0.875 1.5469-0.875 0.58203 0 0.94531 0.21875 1.0938 0.65625 0.039062 0.125 0.0625 0.26562 0.0625 0.42188 0 0.33594-0.20312 1.0625-0.60938 2.1875-0.11719 0.30469-0.17188 0.54297-0.17188 0.71875 0 0.21875 0.078125 0.32812 0.23438 0.32812 0.4375 0 0.77344-0.41016 1.0156-1.2344 0.03125-0.11328 0.066406-0.17188 0.10938-0.17188v-0.015625h0.046875c0.070312 0 0.10938 0.03125 0.10938 0.09375 0 0.11719-0.070313 0.32812-0.20312 0.64062-0.29297 0.60547-0.65625 0.90625-1.0938 0.90625-0.34375 0-0.58984-0.14062-0.73438-0.42188-0.0625-0.125-0.09375-0.25391-0.09375-0.39062 0-0.13281 0.035156-0.28906 0.10938-0.46875 0.42578-1.1641 0.64062-1.9414 0.64062-2.3281 0-0.46875-0.17969-0.70312-0.53125-0.70312-0.60547 0-1.1094 0.33594-1.5156 1-0.054688 0.074219-0.09375 0.14844-0.125 0.21875l-0.125 0.5c-0.03125 0.15625-0.089844 0.38281-0.17188 0.67188l-0.21875 0.90625c-0.11719 0.46094-0.17969 0.70312-0.1875 0.73438-0.0625 0.17578-0.1875 0.26953-0.375 0.28125-0.16797-0.03125-0.26172-0.11719-0.28125-0.26562 0 0.011719 0.023437-0.13281 0.078125-0.4375z"/>
</symbol>
<symbol id="ao" overflow="visible">
<path d="m6.75-2.2812-5.5469 2.6094c-0.085937 0.050781-0.14062 0.078125-0.17188 0.078125-0.10547 0-0.16797-0.054688-0.1875-0.15625-0.011719-0.023438-0.015625-0.039062-0.015625-0.046875 0-0.085937 0.0625-0.15625 0.1875-0.21875l5.25-2.4844-5.25-2.4844c-0.125-0.0625-0.1875-0.13281-0.1875-0.21875 0-0.10156 0.050781-0.16406 0.15625-0.1875 0.019531-0.007813 0.035156-0.015625 0.046875-0.015625 0.03125 0 0.085938 0.027344 0.17188 0.078125l5.5469 2.6094c0.125 0.0625 0.1875 0.13672 0.1875 0.21875 0 0.085938-0.0625 0.15625-0.1875 0.21875z"/>
</symbol>
<symbol id="ac" overflow="visible">
<path d="m4.5938-3.2031c0 0.98047-0.12109 1.7344-0.35938 2.2656-0.39844 0.75-0.98047 1.1328-1.75 1.1562-0.60547 0-1.0898-0.23828-1.4531-0.71875-0.074219-0.082031-0.13672-0.17969-0.1875-0.29688-0.30469-0.55078-0.45312-1.3516-0.45312-2.4062 0-0.97656 0.125-1.7344 0.375-2.2656 0.33203-0.75 0.86719-1.1445 1.6094-1.1875h0.125c0.59375 0 1.0781 0.23438 1.4531 0.70312v0.015625c0.09375 0.11719 0.17578 0.24609 0.25 0.39062 0.25781 0.57422 0.39062 1.3555 0.39062 2.3438zm-2.1094 3.2031c0.42578 0 0.75-0.20312 0.96875-0.60938 0.09375-0.17578 0.16016-0.39062 0.20312-0.64062 0.070312-0.42578 0.10938-1.1133 0.10938-2.0625 0-0.92578-0.03125-1.5781-0.09375-1.9531-0.125-0.63281-0.43359-1.0156-0.92188-1.1406-0.085938-0.019531-0.17188-0.03125-0.26562-0.03125-0.46094 0-0.79688 0.23438-1.0156 0.70312-0.074219 0.15625-0.13281 0.35156-0.17188 0.57812-0.054687 0.35547-0.078125 0.96875-0.078125 1.8438 0 1 0.035156 1.7031 0.10938 2.1094 0.125 0.63672 0.41406 1.0234 0.875 1.1562 0.09375 0.03125 0.1875 0.046875 0.28125 0.046875z"/>
</symbol>
<symbol id="r" overflow="visible">
<path d="m1.8594-1.1562c0.082031-0.03125 0.20703-0.046875 0.375-0.046875 0.25 0 0.57812 0.078125 0.98438 0.23438 0.36328 0.125 0.64062 0.1875 0.82812 0.1875 0.48828 0 0.91016-0.17578 1.2656-0.53125 0.1875-0.17578 0.32031-0.39062 0.40625-0.64062 0.0625-0.125 0.12891-0.1875 0.20312-0.1875 0.11328 0 0.17188 0.046875 0.17188 0.14062 0 0.24219-0.15234 0.58594-0.45312 1.0312-0.5 0.75-1.0859 1.125-1.75 1.125-0.3125 0-0.60938-0.17188-0.89062-0.51562-0.26172-0.3125-0.47656-0.48438-0.64062-0.51562-0.042969-0.007812-0.10156-0.015625-0.17188-0.015625-0.41797 0-0.8125 0.28906-1.1875 0.85938-0.074219 0.125-0.15234 0.1875-0.23438 0.1875-0.10547 0-0.15625-0.046875-0.15625-0.14062 0-0.11328 0.21094-0.42969 0.64062-0.95312 0.23828-0.30078 0.50391-0.59375 0.79688-0.875l1.25-1.1875c0.92578-0.78125 1.5781-1.3906 1.9531-1.8281-0.33594 0-0.69531-0.070313-1.0781-0.21875-0.40625-0.13281-0.69922-0.20312-0.875-0.20312-0.54297 0-0.91797 0.17969-1.125 0.53125-0.03125 0.042969-0.058594 0.085938-0.078125 0.125-0.03125 0.10547-0.089844 0.15625-0.17188 0.15625-0.11719 0-0.17188-0.050781-0.17188-0.15625 0-0.20703 0.13281-0.48828 0.40625-0.84375 0.375-0.5 0.80078-0.75 1.2812-0.75 0.3125 0 0.60156 0.16406 0.875 0.48438l0.015625 0.015625c0.019531 0.03125 0.046875 0.0625 0.078125 0.09375 0.22656 0.26172 0.41016 0.40625 0.54688 0.4375 0.0625 0.011719 0.11719 0.015625 0.17188 0.015625 0.3125 0 0.64453-0.26953 1-0.8125l0.046875-0.078125c0.0625-0.10156 0.13281-0.15625 0.21875-0.15625 0.09375 0 0.14062 0.046875 0.14062 0.14062 0 0.11719-0.19531 0.41406-0.57812 0.89062-0.28125 0.34375-0.63281 0.72656-1.0469 1.1406-0.0625 0.054687-0.51172 0.46094-1.3438 1.2188l-0.03125 0.03125c-0.60547 0.53125-1.1641 1.0703-1.6719 1.6094z"/>
</symbol>
<symbol id="f" overflow="visible">
<path d="m0.875-0.59375 0.57812-2.3125c0.11328-0.42578 0.17188-0.70312 0.17188-0.82812 0-0.3125-0.10547-0.46875-0.3125-0.46875-0.27344 0-0.49609 0.32031-0.67188 0.95312-0.023437 0.074219-0.042969 0.15234-0.0625 0.23438-0.074219 0.14844-0.13281 0.22656-0.17188 0.23438-0.074219 0-0.10938-0.03125-0.10938-0.09375 0-0.11328 0.0625-0.35156 0.1875-0.71875v-0.015625c0-0.007813 0.003906-0.015625 0.015625-0.015625v-0.015625l0.09375-0.20312c0.14453-0.26953 0.29688-0.4375 0.45312-0.5 0.09375-0.050781 0.19141-0.078125 0.29688-0.078125 0.375 0 0.64453 0.15625 0.8125 0.46875 0.050781 0.125 0.085938 0.26172 0.10938 0.40625 0.42578-0.58203 0.94141-0.875 1.5469-0.875 0.58203 0 0.94531 0.21875 1.0938 0.65625 0.039062 0.125 0.0625 0.26562 0.0625 0.42188 0 0.33594-0.20312 1.0625-0.60938 2.1875-0.11719 0.30469-0.17188 0.54297-0.17188 0.71875 0 0.21875 0.078125 0.32812 0.23438 0.32812 0.4375 0 0.77344-0.41016 1.0156-1.2344 0.03125-0.11328 0.066406-0.17188 0.10938-0.17188v-0.015625h0.046875c0.070312 0 0.10938 0.03125 0.10938 0.09375 0 0.11719-0.070313 0.32812-0.20312 0.64062-0.29297 0.60547-0.65625 0.90625-1.0938 0.90625-0.34375 0-0.58984-0.14062-0.73438-0.42188-0.0625-0.125-0.09375-0.25391-0.09375-0.39062 0-0.13281 0.035156-0.28906 0.10938-0.46875 0.42578-1.1641 0.64062-1.9414 0.64062-2.3281 0-0.46875-0.17969-0.70312-0.53125-0.70312-0.60547 0-1.1094 0.33594-1.5156 1-0.054688 0.074219-0.09375 0.14844-0.125 0.21875l-0.125 0.5c-0.03125 0.15625-0.089844 0.38281-0.17188 0.67188l-0.21875 0.90625c-0.11719 0.46094-0.17969 0.70312-0.1875 0.73438-0.0625 0.17578-0.1875 0.26953-0.375 0.28125-0.16797-0.03125-0.26172-0.11719-0.28125-0.26562 0 0.011719 0.023437-0.13281 0.078125-0.4375z"/>
</symbol>
<symbol id="d" overflow="visible">
<path d="m0.78125 14v-0.5625c0.96875 0 1.4531-0.3125 1.4531-0.9375v-11c0-0.625-0.48438-0.9375-1.4531-0.9375v-0.5625h11.641v0.5625c-0.96094 0-1.4375 0.3125-1.4375 0.9375v11c0 0.625 0.47656 0.9375 1.4375 0.9375v0.5625h-4.2969v-0.5625c0.95703 0 1.4375-0.3125 1.4375-0.9375v-11.938h-5.9219v11.938c0 0.625 0.47656 0.9375 1.4375 0.9375v0.5625z"/>
</symbol>
<symbol id="c" overflow="visible">
<path d="m2.9375-6.4062v5.6094c0 0.21094 0.039062 0.33984 0.125 0.39062 0.11328 0.0625 0.38281 0.09375 0.8125 0.09375h0.3125v0.3125c-0.23047-0.019531-0.77344-0.03125-1.625-0.03125-0.84375 0-1.3828 0.011719-1.6094 0.03125v-0.3125h0.3125c0.51953 0 0.81641-0.054688 0.89062-0.17188v-0.015625c0.03125-0.050781 0.046875-0.14844 0.046875-0.29688v-5.1719c-0.34375 0.17969-0.78125 0.26562-1.3125 0.26562v-0.3125c0.80078 0 1.4062-0.21094 1.8125-0.64062 0.13281 0 0.21094 0.023438 0.23438 0.0625v0.015625 0.17188z"/>
</symbol>
<symbol id="b" overflow="visible">
<path d="m6.7656-5.9531-5.2656 2.5 5.25 2.4688c0.11328 0.09375 0.17578 0.16797 0.1875 0.21875 0 0.10547-0.046875 0.16797-0.14062 0.1875-0.023437 0.011719-0.042969 0.015625-0.0625 0.015625-0.03125 0-0.089844-0.019531-0.17188-0.0625l-5.5469-2.625c-0.125-0.050781-0.1875-0.11719-0.1875-0.20312 0-0.09375 0.0625-0.17188 0.1875-0.23438l5.5625-2.6094c0.070313-0.039063 0.125-0.0625 0.15625-0.0625 0.11328 0 0.17969 0.054687 0.20312 0.15625v0.046875c0 0.09375-0.058594 0.16406-0.17188 0.20312zm-0.15625 7.3281h-5.4531c-0.21094 0-0.32031-0.070312-0.32812-0.20312 0-0.13672 0.11328-0.20312 0.34375-0.20312h5.4219c0.21875 0 0.33203 0.066406 0.34375 0.20312 0 0.13281-0.10938 0.20312-0.32812 0.20312z"/>
</symbol>
<symbol id="a" overflow="visible">
<path d="m2.875-6.8281-1.0469 4.2188c0.28906-0.11328 0.66016-0.42578 1.1094-0.9375 0.53125-0.58203 1.0195-0.875 1.4688-0.875 0.3125 0 0.52344 0.13672 0.64062 0.40625 0.019531 0.074219 0.03125 0.14844 0.03125 0.21875 0 0.28125-0.11719 0.47656-0.34375 0.57812-0.074219 0.023438-0.14062 0.03125-0.20312 0.03125-0.21094 0-0.33594-0.085938-0.375-0.26562v-0.078125c0-0.1875 0.082031-0.33203 0.25-0.4375v-0.015625c0.09375-0.050781 0.19531-0.078125 0.3125-0.078125l-0.03125-0.046875c-0.0625-0.039063-0.13672-0.066406-0.21875-0.078125-0.011719-0.007812-0.042969-0.015625-0.09375-0.015625-0.35547 0-0.78125 0.27344-1.2812 0.8125-0.03125 0.03125-0.058594 0.0625-0.078125 0.09375l-0.0625 0.0625c-0.34375 0.35547-0.63281 0.60156-0.85938 0.73438 0.97656 0.125 1.4688 0.47656 1.4688 1.0469 0 0.09375-0.011719 0.19922-0.03125 0.3125-0.054688 0.21875-0.078125 0.40625-0.078125 0.5625 0 0.3125 0.10156 0.46875 0.3125 0.46875 0.3125 0 0.5625-0.27344 0.75-0.82812 0.039063-0.11328 0.082031-0.25 0.125-0.40625 0.050781-0.11328 0.097656-0.17578 0.14062-0.1875 0.082031 0 0.125 0.03125 0.125 0.09375 0 0.11719-0.070312 0.33594-0.20312 0.65625-0.054687 0.13672-0.10547 0.25781-0.15625 0.35938-0.21875 0.35547-0.48438 0.53125-0.79688 0.53125-0.36719 0-0.63281-0.16016-0.79688-0.48438-0.085937-0.14453-0.125-0.3125-0.125-0.5 0-0.070312 0.015625-0.19141 0.046875-0.35938 0.019531-0.0625 0.03125-0.12891 0.03125-0.20312 0-0.41406-0.30469-0.6875-0.90625-0.8125-0.085938-0.019531-0.17188-0.035156-0.26562-0.046875-0.33594 1.3984-0.51562 2.1328-0.54688 2.2031-0.074219 0.125-0.1875 0.19141-0.34375 0.20312-0.16797 0-0.26172-0.070312-0.28125-0.20312-0.011719-0.03125-0.015625-0.054688-0.015625-0.078125 0-0.050781 0.015625-0.125 0.046875-0.21875l1.4531-5.7656 0.015625-0.1875c0-0.070312-0.042969-0.11719-0.125-0.14062-0.085938-0.019531-0.21094-0.03125-0.375-0.03125-0.14844 0-0.22656-0.039063-0.23438-0.125 0-0.11328 0.0625-0.17969 0.1875-0.20312l1.2188-0.09375c0.09375 0 0.14062 0.039062 0.14062 0.10938z"/>
</symbol>
<symbol id="az" overflow="visible">
<path d="m6.7656-5.9531-5.2656 2.5 5.25 2.4688c0.11328 0.09375 0.17578 0.16797 0.1875 0.21875 0 0.10547-0.046875 0.16797-0.14062 0.1875-0.023437 0.011719-0.042969 0.015625-0.0625 0.015625-0.03125 0-0.089844-0.019531-0.17188-0.0625l-5.5469-2.625c-0.125-0.050781-0.1875-0.11719-0.1875-0.20312 0-0.09375 0.0625-0.17188 0.1875-0.23438l5.5625-2.6094c0.070313-0.039063 0.125-0.0625 0.15625-0.0625 0.11328 0 0.17969 0.054687 0.20312 0.15625v0.046875c0 0.09375-0.058594 0.16406-0.17188 0.20312zm-0.15625 7.3281h-5.4531c-0.21094 0-0.32031-0.070312-0.32812-0.20312 0-0.13672 0.11328-0.20312 0.34375-0.20312h5.4219c0.21875 0 0.33203 0.066406 0.34375 0.20312 0 0.13281-0.10938 0.20312-0.32812 0.20312z"/>
</symbol>
<symbol id="ay" overflow="visible">
<path d="m0.875-0.59375 0.57812-2.3125c0.11328-0.42578 0.17188-0.70312 0.17188-0.82812 0-0.3125-0.10547-0.46875-0.3125-0.46875-0.27344 0-0.49609 0.32031-0.67188 0.95312-0.023437 0.074219-0.042969 0.15234-0.0625 0.23438-0.074219 0.14844-0.13281 0.22656-0.17188 0.23438-0.074219 0-0.10938-0.03125-0.10938-0.09375 0-0.11328 0.0625-0.35156 0.1875-0.71875v-0.015625c0-0.007813 0.003906-0.015625 0.015625-0.015625v-0.015625l0.09375-0.20312c0.14453-0.26953 0.29688-0.4375 0.45312-0.5 0.09375-0.050781 0.19141-0.078125 0.29688-0.078125 0.375 0 0.64453 0.15625 0.8125 0.46875 0.050781 0.125 0.085938 0.26172 0.10938 0.40625 0.42578-0.58203 0.94141-0.875 1.5469-0.875 0.58203 0 0.94531 0.21875 1.0938 0.65625 0.039062 0.125 0.0625 0.26562 0.0625 0.42188 0 0.33594-0.20312 1.0625-0.60938 2.1875-0.11719 0.30469-0.17188 0.54297-0.17188 0.71875 0 0.21875 0.078125 0.32812 0.23438 0.32812 0.4375 0 0.77344-0.41016 1.0156-1.2344 0.03125-0.11328 0.066406-0.17188 0.10938-0.17188v-0.015625h0.046875c0.070312 0 0.10938 0.03125 0.10938 0.09375 0 0.11719-0.070313 0.32812-0.20312 0.64062-0.29297 0.60547-0.65625 0.90625-1.0938 0.90625-0.34375 0-0.58984-0.14062-0.73438-0.42188-0.0625-0.125-0.09375-0.25391-0.09375-0.39062 0-0.13281 0.035156-0.28906 0.10938-0.46875 0.42578-1.1641 0.64062-1.9414 0.64062-2.3281 0-0.46875-0.17969-0.70312-0.53125-0.70312-0.60547 0-1.1094 0.33594-1.5156 1-0.054688 0.074219-0.09375 0.14844-0.125 0.21875l-0.125 0.5c-0.03125 0.15625-0.089844 0.38281-0.17188 0.67188l-0.21875 0.90625c-0.11719 0.46094-0.17969 0.70312-0.1875 0.73438-0.0625 0.17578-0.1875 0.26953-0.375 0.28125-0.16797-0.03125-0.26172-0.11719-0.28125-0.26562 0 0.011719 0.023437-0.13281 0.078125-0.4375z"/>
</symbol>
<symbol id="ax" overflow="visible">
<path d="m4.6406 3.3594c0 0.09375-0.046875 0.14062-0.14062 0.14062-0.11719 0-0.36719-0.19531-0.75-0.57812-0.57422-0.57422-1.0547-1.2578-1.4375-2.0469-0.61719-1.2695-0.92188-2.7266-0.92188-4.375 0-1.5703 0.28906-2.9922 0.875-4.2656 0.48828-1.0391 1.1016-1.875 1.8438-2.5 0.19531-0.15625 0.32812-0.23438 0.39062-0.23438 0.09375 0 0.14062 0.046875 0.14062 0.14062 0 0.042969-0.0625 0.12109-0.1875 0.23438-1.5 1.5312-2.25 3.7422-2.25 6.625 0 2.875 0.72656 5.0547 2.1875 6.5469 0.16406 0.16406 0.25 0.26953 0.25 0.3125z"/>
</symbol>
<symbol id="aw" overflow="visible">
<path d="m4.1094-8.9531v7.8438c0 0.28125 0.054687 0.46094 0.17188 0.53125 0.15625 0.09375 0.53516 0.14062 1.1406 0.14062h0.4375v0.4375c-0.32422-0.03125-1.0781-0.046875-2.2656-0.046875s-1.9453 0.015625-2.2656 0.046875v-0.4375h0.45312c0.71875 0 1.1289-0.082031 1.2344-0.25l0.015625-0.015625c0.03125-0.070313 0.046875-0.20703 0.046875-0.40625v-7.25c-0.48047 0.24219-1.0898 0.35938-1.8281 0.35938v-0.42188c1.1133 0 1.9609-0.30078 2.5469-0.90625 0.17578 0 0.28125 0.039063 0.3125 0.10938v0.26562z"/>
</symbol>
<symbol id="av" overflow="visible">
<path d="m9.25-3.2188h-7.625c-0.30469 0-0.46094-0.09375-0.46875-0.28125 0-0.1875 0.15625-0.28125 0.46875-0.28125h7.625c0.30078 0 0.45703 0.09375 0.46875 0.28125 0 0.1875-0.15625 0.28125-0.46875 0.28125z"/>
</symbol>
<symbol id="au" overflow="visible">
<path d="m6.3281-6.0312-1.9375 7.7812c-0.03125 0.16406-0.046875 0.26953-0.046875 0.3125 0 0.10156 0.054688 0.16406 0.17188 0.1875 0.10156 0.019531 0.26953 0.03125 0.5 0.03125 0.21875 0 0.33594 0.050781 0.35938 0.15625 0 0.1875-0.085938 0.28125-0.25 0.28125l-1.4219-0.046875h-0.015625l-1.3906 0.046875h-0.015625c-0.125 0-0.1875-0.054688-0.1875-0.15625 0.082031-0.17969 0.19141-0.27344 0.32812-0.28125 0.48828-0.011719 0.78125-0.074219 0.875-0.1875 0.050781-0.054688 0.097656-0.14844 0.14062-0.28125l0.625-2.5c-0.5625 0.5625-1.1172 0.84375-1.6562 0.84375-0.65625 0-1.1562-0.29688-1.5-0.89062-0.23047-0.375-0.34375-0.82812-0.34375-1.3594 0-0.98828 0.34766-1.9141 1.0469-2.7812 0.64453-0.78906 1.3516-1.2227 2.125-1.2969 0.070313-0.007813 0.14062-0.015625 0.20312-0.015625 0.59375 0 1.0234 0.32812 1.2969 0.98438 0.19531-0.34375 0.44531-0.63281 0.75-0.875l0.03125-0.015625c0.070313-0.050781 0.12891-0.078125 0.17188-0.078125 0.09375 0 0.14062 0.046875 0.14062 0.14062zm-3.875 5.875c0.48828 0 0.99219-0.30078 1.5156-0.90625 0.10156-0.14453 0.19141-0.26953 0.26562-0.375 0.050781-0.070312 0.30078-1.0508 0.75-2.9375 0.039063-0.16406 0.0625-0.25391 0.0625-0.26562 0-0.20703-0.089844-0.44531-0.26562-0.71875-0.19922-0.34375-0.48047-0.51562-0.84375-0.51562-0.46094 0-0.89844 0.28125-1.3125 0.84375-0.16797 0.24219-0.30859 0.5-0.42188 0.78125-0.26172 0.64844-0.46094 1.3984-0.59375 2.25-0.042969 0.21094-0.0625 0.38672-0.0625 0.53125 0 0.60547 0.16406 1.0078 0.5 1.2031l0.015625 0.015625c0.10156 0.0625 0.23438 0.09375 0.39062 0.09375z"/>
</symbol>
<symbol id="at" overflow="visible">
<path d="m2.875-6.8281-1.0469 4.2188c0.28906-0.11328 0.66016-0.42578 1.1094-0.9375 0.53125-0.58203 1.0195-0.875 1.4688-0.875 0.3125 0 0.52344 0.13672 0.64062 0.40625 0.019531 0.074219 0.03125 0.14844 0.03125 0.21875 0 0.28125-0.11719 0.47656-0.34375 0.57812-0.074219 0.023438-0.14062 0.03125-0.20312 0.03125-0.21094 0-0.33594-0.085938-0.375-0.26562v-0.078125c0-0.1875 0.082031-0.33203 0.25-0.4375v-0.015625c0.09375-0.050781 0.19531-0.078125 0.3125-0.078125l-0.03125-0.046875c-0.0625-0.039063-0.13672-0.066406-0.21875-0.078125-0.011719-0.007812-0.042969-0.015625-0.09375-0.015625-0.35547 0-0.78125 0.27344-1.2812 0.8125-0.03125 0.03125-0.058594 0.0625-0.078125 0.09375l-0.0625 0.0625c-0.34375 0.35547-0.63281 0.60156-0.85938 0.73438 0.97656 0.125 1.4688 0.47656 1.4688 1.0469 0 0.09375-0.011719 0.19922-0.03125 0.3125-0.054688 0.21875-0.078125 0.40625-0.078125 0.5625 0 0.3125 0.10156 0.46875 0.3125 0.46875 0.3125 0 0.5625-0.27344 0.75-0.82812 0.039063-0.11328 0.082031-0.25 0.125-0.40625 0.050781-0.11328 0.097656-0.17578 0.14062-0.1875 0.082031 0 0.125 0.03125 0.125 0.09375 0 0.11719-0.070312 0.33594-0.20312 0.65625-0.054687 0.13672-0.10547 0.25781-0.15625 0.35938-0.21875 0.35547-0.48438 0.53125-0.79688 0.53125-0.36719 0-0.63281-0.16016-0.79688-0.48438-0.085937-0.14453-0.125-0.3125-0.125-0.5 0-0.070312 0.015625-0.19141 0.046875-0.35938 0.019531-0.0625 0.03125-0.12891 0.03125-0.20312 0-0.41406-0.30469-0.6875-0.90625-0.8125-0.085938-0.019531-0.17188-0.035156-0.26562-0.046875-0.33594 1.3984-0.51562 2.1328-0.54688 2.2031-0.074219 0.125-0.1875 0.19141-0.34375 0.20312-0.16797 0-0.26172-0.070312-0.28125-0.20312-0.011719-0.03125-0.015625-0.054688-0.015625-0.078125 0-0.050781 0.015625-0.125 0.046875-0.21875l1.4531-5.7656 0.015625-0.1875c0-0.070312-0.042969-0.11719-0.125-0.14062-0.085938-0.019531-0.21094-0.03125-0.375-0.03125-0.14844 0-0.22656-0.039063-0.23438-0.125 0-0.11328 0.0625-0.17969 0.1875-0.20312l1.2188-0.09375c0.09375 0 0.14062 0.039062 0.14062 0.10938z"/>
</symbol>
<symbol id="as" overflow="visible">
<path d="m4.0469-3.5c0 1.5742-0.29688 2.9961-0.89062 4.2656-0.48047 1.0391-1.0938 1.875-1.8438 2.5-0.19922 0.15625-0.32422 0.23438-0.375 0.23438-0.09375 0-0.14062-0.046875-0.14062-0.14062 0-0.042969 0.0625-0.12109 0.1875-0.23438 1.5-1.5312 2.25-3.7383 2.25-6.625 0-2.8438-0.69922-5-2.0938-6.4688l-0.078125-0.0625c-0.17969-0.17578-0.26562-0.28516-0.26562-0.32812 0-0.09375 0.046875-0.14062 0.14062-0.14062 0.11328 0 0.36328 0.19531 0.75 0.57812 0.57031 0.57422 1.0508 1.2578 1.4375 2.0469 0.61328 1.2734 0.92188 2.7305 0.92188 4.375z"/>
</symbol>
<symbol id="ar" overflow="visible">
<path d="m0.92188 19.594c-0.09375 0-0.14062-0.046875-0.14062-0.14062 0-0.042969 0.015625-0.078125 0.046875-0.10938l7.3906-8.6094-7.3906-10.125c-0.03125-0.023437-0.046875-0.042969-0.046875-0.0625v-0.42188c0-0.03125 0.015625-0.0625 0.046875-0.09375 0.03125-0.023438 0.0625-0.03125 0.09375-0.03125h16.797l1.7031 3.9375h-0.40625c-0.4375-1-1.168-1.7422-2.1875-2.2188-1.0117-0.48047-2.0703-0.77734-3.1719-0.89062-1.1055-0.10547-2.3906-0.15625-3.8594-0.15625h-6.4688l6.6094 9.0312c0.019531 0.03125 0.03125 0.0625 0.03125 0.09375s-0.011719 0.066406-0.03125 0.10938l-7.2656 8.4531h7.2656c1.4375 0 2.707-0.058594 3.8125-0.17188 1.1133-0.11719 2.1719-0.41406 3.1719-0.89062 1.0078-0.48047 1.707-1.2148 2.0938-2.2031h0.40625l-1.7031 4.5z"/>
</symbol>
<symbol id="aq" overflow="visible">
<path d="m0.875-0.59375 0.57812-2.3125c0.11328-0.42578 0.17188-0.70312 0.17188-0.82812 0-0.3125-0.10547-0.46875-0.3125-0.46875-0.27344 0-0.49609 0.32031-0.67188 0.95312-0.023437 0.074219-0.042969 0.15234-0.0625 0.23438-0.074219 0.14844-0.13281 0.22656-0.17188 0.23438-0.074219 0-0.10938-0.03125-0.10938-0.09375 0-0.11328 0.0625-0.35156 0.1875-0.71875v-0.015625c0-0.007813 0.003906-0.015625 0.015625-0.015625v-0.015625l0.09375-0.20312c0.14453-0.26953 0.29688-0.4375 0.45312-0.5 0.09375-0.050781 0.19141-0.078125 0.29688-0.078125 0.375 0 0.64453 0.15625 0.8125 0.46875 0.050781 0.125 0.085938 0.26172 0.10938 0.40625 0.42578-0.58203 0.94141-0.875 1.5469-0.875 0.58203 0 0.94531 0.21875 1.0938 0.65625 0.039062 0.125 0.0625 0.26562 0.0625 0.42188 0 0.33594-0.20312 1.0625-0.60938 2.1875-0.11719 0.30469-0.17188 0.54297-0.17188 0.71875 0 0.21875 0.078125 0.32812 0.23438 0.32812 0.4375 0 0.77344-0.41016 1.0156-1.2344 0.03125-0.11328 0.066406-0.17188 0.10938-0.17188v-0.015625h0.046875c0.070312 0 0.10938 0.03125 0.10938 0.09375 0 0.11719-0.070313 0.32812-0.20312 0.64062-0.29297 0.60547-0.65625 0.90625-1.0938 0.90625-0.34375 0-0.58984-0.14062-0.73438-0.42188-0.0625-0.125-0.09375-0.25391-0.09375-0.39062 0-0.13281 0.035156-0.28906 0.10938-0.46875 0.42578-1.1641 0.64062-1.9414 0.64062-2.3281 0-0.46875-0.17969-0.70312-0.53125-0.70312-0.60547 0-1.1094 0.33594-1.5156 1-0.054688 0.074219-0.09375 0.14844-0.125 0.21875l-0.125 0.5c-0.03125 0.15625-0.089844 0.38281-0.17188 0.67188l-0.21875 0.90625c-0.11719 0.46094-0.17969 0.70312-0.1875 0.73438-0.0625 0.17578-0.1875 0.26953-0.375 0.28125-0.16797-0.03125-0.26172-0.11719-0.28125-0.26562 0 0.011719 0.023437-0.13281 0.078125-0.4375z"/>
</symbol>
<symbol id="ap" overflow="visible">
<path d="m6.75-2.2812-5.5469 2.6094c-0.085937 0.050781-0.14062 0.078125-0.17188 0.078125-0.10547 0-0.16797-0.054688-0.1875-0.15625-0.011719-0.023438-0.015625-0.039062-0.015625-0.046875 0-0.085937 0.0625-0.15625 0.1875-0.21875l5.25-2.4844-5.25-2.4844c-0.125-0.0625-0.1875-0.13281-0.1875-0.21875 0-0.10156 0.050781-0.16406 0.15625-0.1875 0.019531-0.007813 0.035156-0.015625 0.046875-0.015625 0.03125 0 0.085938 0.027344 0.17188 0.078125l5.5469 2.6094c0.125 0.0625 0.1875 0.13672 0.1875 0.21875 0 0.085938-0.0625 0.15625-0.1875 0.21875z"/>
</symbol>
<symbol id="an" overflow="visible">
<path d="m4.5938-3.2031c0 0.98047-0.12109 1.7344-0.35938 2.2656-0.39844 0.75-0.98047 1.1328-1.75 1.1562-0.60547 0-1.0898-0.23828-1.4531-0.71875-0.074219-0.082031-0.13672-0.17969-0.1875-0.29688-0.30469-0.55078-0.45312-1.3516-0.45312-2.4062 0-0.97656 0.125-1.7344 0.375-2.2656 0.33203-0.75 0.86719-1.1445 1.6094-1.1875h0.125c0.59375 0 1.0781 0.23438 1.4531 0.70312v0.015625c0.09375 0.11719 0.17578 0.24609 0.25 0.39062 0.25781 0.57422 0.39062 1.3555 0.39062 2.3438zm-2.1094 3.2031c0.42578 0 0.75-0.20312 0.96875-0.60938 0.09375-0.17578 0.16016-0.39062 0.20312-0.64062 0.070312-0.42578 0.10938-1.1133 0.10938-2.0625 0-0.92578-0.03125-1.5781-0.09375-1.9531-0.125-0.63281-0.43359-1.0156-0.92188-1.1406-0.085938-0.019531-0.17188-0.03125-0.26562-0.03125-0.46094 0-0.79688 0.23438-1.0156 0.70312-0.074219 0.15625-0.13281 0.35156-0.17188 0.57812-0.054687 0.35547-0.078125 0.96875-0.078125 1.8438 0 1 0.035156 1.7031 0.10938 2.1094 0.125 0.63672 0.41406 1.0234 0.875 1.1562 0.09375 0.03125 0.1875 0.046875 0.28125 0.046875z"/>
</symbol>
<symbol id="am" overflow="visible">
<path d="m1.8594-1.1562c0.082031-0.03125 0.20703-0.046875 0.375-0.046875 0.25 0 0.57812 0.078125 0.98438 0.23438 0.36328 0.125 0.64062 0.1875 0.82812 0.1875 0.48828 0 0.91016-0.17578 1.2656-0.53125 0.1875-0.17578 0.32031-0.39062 0.40625-0.64062 0.0625-0.125 0.12891-0.1875 0.20312-0.1875 0.11328 0 0.17188 0.046875 0.17188 0.14062 0 0.24219-0.15234 0.58594-0.45312 1.0312-0.5 0.75-1.0859 1.125-1.75 1.125-0.3125 0-0.60938-0.17188-0.89062-0.51562-0.26172-0.3125-0.47656-0.48438-0.64062-0.51562-0.042969-0.007812-0.10156-0.015625-0.17188-0.015625-0.41797 0-0.8125 0.28906-1.1875 0.85938-0.074219 0.125-0.15234 0.1875-0.23438 0.1875-0.10547 0-0.15625-0.046875-0.15625-0.14062 0-0.11328 0.21094-0.42969 0.64062-0.95312 0.23828-0.30078 0.50391-0.59375 0.79688-0.875l1.25-1.1875c0.92578-0.78125 1.5781-1.3906 1.9531-1.8281-0.33594 0-0.69531-0.070313-1.0781-0.21875-0.40625-0.13281-0.69922-0.20312-0.875-0.20312-0.54297 0-0.91797 0.17969-1.125 0.53125-0.03125 0.042969-0.058594 0.085938-0.078125 0.125-0.03125 0.10547-0.089844 0.15625-0.17188 0.15625-0.11719 0-0.17188-0.050781-0.17188-0.15625 0-0.20703 0.13281-0.48828 0.40625-0.84375 0.375-0.5 0.80078-0.75 1.2812-0.75 0.3125 0 0.60156 0.16406 0.875 0.48438l0.015625 0.015625c0.019531 0.03125 0.046875 0.0625 0.078125 0.09375 0.22656 0.26172 0.41016 0.40625 0.54688 0.4375 0.0625 0.011719 0.11719 0.015625 0.17188 0.015625 0.3125 0 0.64453-0.26953 1-0.8125l0.046875-0.078125c0.0625-0.10156 0.13281-0.15625 0.21875-0.15625 0.09375 0 0.14062 0.046875 0.14062 0.14062 0 0.11719-0.19531 0.41406-0.57812 0.89062-0.28125 0.34375-0.63281 0.72656-1.0469 1.1406-0.0625 0.054687-0.51172 0.46094-1.3438 1.2188l-0.03125 0.03125c-0.60547 0.53125-1.1641 1.0703-1.6719 1.6094z"/>
</symbol>
<symbol id="al" overflow="visible">
<path d="m0.875-0.59375 0.57812-2.3125c0.11328-0.42578 0.17188-0.70312 0.17188-0.82812 0-0.3125-0.10547-0.46875-0.3125-0.46875-0.27344 0-0.49609 0.32031-0.67188 0.95312-0.023437 0.074219-0.042969 0.15234-0.0625 0.23438-0.074219 0.14844-0.13281 0.22656-0.17188 0.23438-0.074219 0-0.10938-0.03125-0.10938-0.09375 0-0.11328 0.0625-0.35156 0.1875-0.71875v-0.015625c0-0.007813 0.003906-0.015625 0.015625-0.015625v-0.015625l0.09375-0.20312c0.14453-0.26953 0.29688-0.4375 0.45312-0.5 0.09375-0.050781 0.19141-0.078125 0.29688-0.078125 0.375 0 0.64453 0.15625 0.8125 0.46875 0.050781 0.125 0.085938 0.26172 0.10938 0.40625 0.42578-0.58203 0.94141-0.875 1.5469-0.875 0.58203 0 0.94531 0.21875 1.0938 0.65625 0.039062 0.125 0.0625 0.26562 0.0625 0.42188 0 0.33594-0.20312 1.0625-0.60938 2.1875-0.11719 0.30469-0.17188 0.54297-0.17188 0.71875 0 0.21875 0.078125 0.32812 0.23438 0.32812 0.4375 0 0.77344-0.41016 1.0156-1.2344 0.03125-0.11328 0.066406-0.17188 0.10938-0.17188v-0.015625h0.046875c0.070312 0 0.10938 0.03125 0.10938 0.09375 0 0.11719-0.070313 0.32812-0.20312 0.64062-0.29297 0.60547-0.65625 0.90625-1.0938 0.90625-0.34375 0-0.58984-0.14062-0.73438-0.42188-0.0625-0.125-0.09375-0.25391-0.09375-0.39062 0-0.13281 0.035156-0.28906 0.10938-0.46875 0.42578-1.1641 0.64062-1.9414 0.64062-2.3281 0-0.46875-0.17969-0.70312-0.53125-0.70312-0.60547 0-1.1094 0.33594-1.5156 1-0.054688 0.074219-0.09375 0.14844-0.125 0.21875l-0.125 0.5c-0.03125 0.15625-0.089844 0.38281-0.17188 0.67188l-0.21875 0.90625c-0.11719 0.46094-0.17969 0.70312-0.1875 0.73438-0.0625 0.17578-0.1875 0.26953-0.375 0.28125-0.16797-0.03125-0.26172-0.11719-0.28125-0.26562 0 0.011719 0.023437-0.13281 0.078125-0.4375z"/>
</symbol>
<symbol id="ak" overflow="visible">
<path d="m0.78125 19.594v-0.75c1.5312 0 2.2969-0.46484 2.2969-1.3906v-15.297c0-0.92969-0.76562-1.3906-2.2969-1.3906v-0.76562h16.312v0.76562c-1.5312 0-2.2969 0.46094-2.2969 1.3906v15.297c0 0.92578 0.76562 1.3906 2.2969 1.3906v0.75h-6.7969v-0.75c1.5312 0 2.2969-0.46484 2.2969-1.3906v-16.688h-7.3125v16.688c0 0.92578 0.76562 1.3906 2.2969 1.3906v0.75z"/>
</symbol>
<symbol id="aj" overflow="visible">
<path d="m2.9375-6.4062v5.6094c0 0.21094 0.039062 0.33984 0.125 0.39062 0.11328 0.0625 0.38281 0.09375 0.8125 0.09375h0.3125v0.3125c-0.23047-0.019531-0.77344-0.03125-1.625-0.03125-0.84375 0-1.3828 0.011719-1.6094 0.03125v-0.3125h0.3125c0.51953 0 0.81641-0.054688 0.89062-0.17188v-0.015625c0.03125-0.050781 0.046875-0.14844 0.046875-0.29688v-5.1719c-0.34375 0.17969-0.78125 0.26562-1.3125 0.26562v-0.3125c0.80078 0 1.4062-0.21094 1.8125-0.64062 0.13281 0 0.21094 0.023438 0.23438 0.0625v0.015625 0.17188z"/>
</symbol>
<symbol id="ai" overflow="visible">
<path d="m6.7656-5.9531-5.2656 2.5 5.25 2.4688c0.11328 0.09375 0.17578 0.16797 0.1875 0.21875 0 0.10547-0.046875 0.16797-0.14062 0.1875-0.023437 0.011719-0.042969 0.015625-0.0625 0.015625-0.03125 0-0.089844-0.019531-0.17188-0.0625l-5.5469-2.625c-0.125-0.050781-0.1875-0.11719-0.1875-0.20312 0-0.09375 0.0625-0.17188 0.1875-0.23438l5.5625-2.6094c0.070313-0.039063 0.125-0.0625 0.15625-0.0625 0.11328 0 0.17969 0.054687 0.20312 0.15625v0.046875c0 0.09375-0.058594 0.16406-0.17188 0.20312zm-0.15625 7.3281h-5.4531c-0.21094 0-0.32031-0.070312-0.32812-0.20312 0-0.13672 0.11328-0.20312 0.34375-0.20312h5.4219c0.21875 0 0.33203 0.066406 0.34375 0.20312 0 0.13281-0.10938 0.20312-0.32812 0.20312z"/>
</symbol>
<symbol id="ah" overflow="visible">
<path d="m2.875-6.8281-1.0469 4.2188c0.28906-0.11328 0.66016-0.42578 1.1094-0.9375 0.53125-0.58203 1.0195-0.875 1.4688-0.875 0.3125 0 0.52344 0.13672 0.64062 0.40625 0.019531 0.074219 0.03125 0.14844 0.03125 0.21875 0 0.28125-0.11719 0.47656-0.34375 0.57812-0.074219 0.023438-0.14062 0.03125-0.20312 0.03125-0.21094 0-0.33594-0.085938-0.375-0.26562v-0.078125c0-0.1875 0.082031-0.33203 0.25-0.4375v-0.015625c0.09375-0.050781 0.19531-0.078125 0.3125-0.078125l-0.03125-0.046875c-0.0625-0.039063-0.13672-0.066406-0.21875-0.078125-0.011719-0.007812-0.042969-0.015625-0.09375-0.015625-0.35547 0-0.78125 0.27344-1.2812 0.8125-0.03125 0.03125-0.058594 0.0625-0.078125 0.09375l-0.0625 0.0625c-0.34375 0.35547-0.63281 0.60156-0.85938 0.73438 0.97656 0.125 1.4688 0.47656 1.4688 1.0469 0 0.09375-0.011719 0.19922-0.03125 0.3125-0.054688 0.21875-0.078125 0.40625-0.078125 0.5625 0 0.3125 0.10156 0.46875 0.3125 0.46875 0.3125 0 0.5625-0.27344 0.75-0.82812 0.039063-0.11328 0.082031-0.25 0.125-0.40625 0.050781-0.11328 0.097656-0.17578 0.14062-0.1875 0.082031 0 0.125 0.03125 0.125 0.09375 0 0.11719-0.070312 0.33594-0.20312 0.65625-0.054687 0.13672-0.10547 0.25781-0.15625 0.35938-0.21875 0.35547-0.48438 0.53125-0.79688 0.53125-0.36719 0-0.63281-0.16016-0.79688-0.48438-0.085937-0.14453-0.125-0.3125-0.125-0.5 0-0.070312 0.015625-0.19141 0.046875-0.35938 0.019531-0.0625 0.03125-0.12891 0.03125-0.20312 0-0.41406-0.30469-0.6875-0.90625-0.8125-0.085938-0.019531-0.17188-0.035156-0.26562-0.046875-0.33594 1.3984-0.51562 2.1328-0.54688 2.2031-0.074219 0.125-0.1875 0.19141-0.34375 0.20312-0.16797 0-0.26172-0.070312-0.28125-0.20312-0.011719-0.03125-0.015625-0.054688-0.015625-0.078125 0-0.050781 0.015625-0.125 0.046875-0.21875l1.4531-5.7656 0.015625-0.1875c0-0.070312-0.042969-0.11719-0.125-0.14062-0.085938-0.019531-0.21094-0.03125-0.375-0.03125-0.14844 0-0.22656-0.039063-0.23438-0.125 0-0.11328 0.0625-0.17969 0.1875-0.20312l1.2188-0.09375c0.09375 0 0.14062 0.039062 0.14062 0.10938z"/>
</symbol>
<symbol id="ag" overflow="visible">
<path d="m6.7656-5.9531-5.2656 2.5 5.25 2.4688c0.11328 0.09375 0.17578 0.16797 0.1875 0.21875 0 0.10547-0.046875 0.16797-0.14062 0.1875-0.023437 0.011719-0.042969 0.015625-0.0625 0.015625-0.03125 0-0.089844-0.019531-0.17188-0.0625l-5.5469-2.625c-0.125-0.050781-0.1875-0.11719-0.1875-0.20312 0-0.09375 0.0625-0.17188 0.1875-0.23438l5.5625-2.6094c0.070313-0.039063 0.125-0.0625 0.15625-0.0625 0.11328 0 0.17969 0.054687 0.20312 0.15625v0.046875c0 0.09375-0.058594 0.16406-0.17188 0.20312zm-0.15625 7.3281h-5.4531c-0.21094 0-0.32031-0.070312-0.32812-0.20312 0-0.13672 0.11328-0.20312 0.34375-0.20312h5.4219c0.21875 0 0.33203 0.066406 0.34375 0.20312 0 0.13281-0.10938 0.20312-0.32812 0.20312z"/>
</symbol>
<symbol id="af" overflow="visible">
<path d="m0.875-0.59375 0.57812-2.3125c0.11328-0.42578 0.17188-0.70312 0.17188-0.82812 0-0.3125-0.10547-0.46875-0.3125-0.46875-0.27344 0-0.49609 0.32031-0.67188 0.95312-0.023437 0.074219-0.042969 0.15234-0.0625 0.23438-0.074219 0.14844-0.13281 0.22656-0.17188 0.23438-0.074219 0-0.10938-0.03125-0.10938-0.09375 0-0.11328 0.0625-0.35156 0.1875-0.71875v-0.015625c0-0.007813 0.003906-0.015625 0.015625-0.015625v-0.015625l0.09375-0.20312c0.14453-0.26953 0.29688-0.4375 0.45312-0.5 0.09375-0.050781 0.19141-0.078125 0.29688-0.078125 0.375 0 0.64453 0.15625 0.8125 0.46875 0.050781 0.125 0.085938 0.26172 0.10938 0.40625 0.42578-0.58203 0.94141-0.875 1.5469-0.875 0.58203 0 0.94531 0.21875 1.0938 0.65625 0.039062 0.125 0.0625 0.26562 0.0625 0.42188 0 0.33594-0.20312 1.0625-0.60938 2.1875-0.11719 0.30469-0.17188 0.54297-0.17188 0.71875 0 0.21875 0.078125 0.32812 0.23438 0.32812 0.4375 0 0.77344-0.41016 1.0156-1.2344 0.03125-0.11328 0.066406-0.17188 0.10938-0.17188v-0.015625h0.046875c0.070312 0 0.10938 0.03125 0.10938 0.09375 0 0.11719-0.070313 0.32812-0.20312 0.64062-0.29297 0.60547-0.65625 0.90625-1.0938 0.90625-0.34375 0-0.58984-0.14062-0.73438-0.42188-0.0625-0.125-0.09375-0.25391-0.09375-0.39062 0-0.13281 0.035156-0.28906 0.10938-0.46875 0.42578-1.1641 0.64062-1.9414 0.64062-2.3281 0-0.46875-0.17969-0.70312-0.53125-0.70312-0.60547 0-1.1094 0.33594-1.5156 1-0.054688 0.074219-0.09375 0.14844-0.125 0.21875l-0.125 0.5c-0.03125 0.15625-0.089844 0.38281-0.17188 0.67188l-0.21875 0.90625c-0.11719 0.46094-0.17969 0.70312-0.1875 0.73438-0.0625 0.17578-0.1875 0.26953-0.375 0.28125-0.16797-0.03125-0.26172-0.11719-0.28125-0.26562 0 0.011719 0.023437-0.13281 0.078125-0.4375z"/>
</symbol>
<symbol id="ae" overflow="visible">
<path d="m4.6406 3.3594c0 0.09375-0.046875 0.14062-0.14062 0.14062-0.11719 0-0.36719-0.19531-0.75-0.57812-0.57422-0.57422-1.0547-1.2578-1.4375-2.0469-0.61719-1.2695-0.92188-2.7266-0.92188-4.375 0-1.5703 0.28906-2.9922 0.875-4.2656 0.48828-1.0391 1.1016-1.875 1.8438-2.5 0.19531-0.15625 0.32812-0.23438 0.39062-0.23438 0.09375 0 0.14062 0.046875 0.14062 0.14062 0 0.042969-0.0625 0.12109-0.1875 0.23438-1.5 1.5312-2.25 3.7422-2.25 6.625 0 2.875 0.72656 5.0547 2.1875 6.5469 0.16406 0.16406 0.25 0.26953 0.25 0.3125z"/>
</symbol>
<symbol id="ad" overflow="visible">
<path d="m4.1094-8.9531v7.8438c0 0.28125 0.054687 0.46094 0.17188 0.53125 0.15625 0.09375 0.53516 0.14062 1.1406 0.14062h0.4375v0.4375c-0.32422-0.03125-1.0781-0.046875-2.2656-0.046875s-1.9453 0.015625-2.2656 0.046875v-0.4375h0.45312c0.71875 0 1.1289-0.082031 1.2344-0.25l0.015625-0.015625c0.03125-0.070313 0.046875-0.20703 0.046875-0.40625v-7.25c-0.48047 0.24219-1.0898 0.35938-1.8281 0.35938v-0.42188c1.1133 0 1.9609-0.30078 2.5469-0.90625 0.17578 0 0.28125 0.039063 0.3125 0.10938v0.26562z"/>
</symbol>
<symbol id="ab" overflow="visible">
<path d="m9.25-3.2188h-7.625c-0.30469 0-0.46094-0.09375-0.46875-0.28125 0-0.1875 0.15625-0.28125 0.46875-0.28125h7.625c0.30078 0 0.45703 0.09375 0.46875 0.28125 0 0.1875-0.15625 0.28125-0.46875 0.28125z"/>
</symbol>
<symbol id="aa" overflow="visible">
<path d="m6.3281-6.0312-1.9375 7.7812c-0.03125 0.16406-0.046875 0.26953-0.046875 0.3125 0 0.10156 0.054688 0.16406 0.17188 0.1875 0.10156 0.019531 0.26953 0.03125 0.5 0.03125 0.21875 0 0.33594 0.050781 0.35938 0.15625 0 0.1875-0.085938 0.28125-0.25 0.28125l-1.4219-0.046875h-0.015625l-1.3906 0.046875h-0.015625c-0.125 0-0.1875-0.054688-0.1875-0.15625 0.082031-0.17969 0.19141-0.27344 0.32812-0.28125 0.48828-0.011719 0.78125-0.074219 0.875-0.1875 0.050781-0.054688 0.097656-0.14844 0.14062-0.28125l0.625-2.5c-0.5625 0.5625-1.1172 0.84375-1.6562 0.84375-0.65625 0-1.1562-0.29688-1.5-0.89062-0.23047-0.375-0.34375-0.82812-0.34375-1.3594 0-0.98828 0.34766-1.9141 1.0469-2.7812 0.64453-0.78906 1.3516-1.2227 2.125-1.2969 0.070313-0.007813 0.14062-0.015625 0.20312-0.015625 0.59375 0 1.0234 0.32812 1.2969 0.98438 0.19531-0.34375 0.44531-0.63281 0.75-0.875l0.03125-0.015625c0.070313-0.050781 0.12891-0.078125 0.17188-0.078125 0.09375 0 0.14062 0.046875 0.14062 0.14062zm-3.875 5.875c0.48828 0 0.99219-0.30078 1.5156-0.90625 0.10156-0.14453 0.19141-0.26953 0.26562-0.375 0.050781-0.070312 0.30078-1.0508 0.75-2.9375 0.039063-0.16406 0.0625-0.25391 0.0625-0.26562 0-0.20703-0.089844-0.44531-0.26562-0.71875-0.19922-0.34375-0.48047-0.51562-0.84375-0.51562-0.46094 0-0.89844 0.28125-1.3125 0.84375-0.16797 0.24219-0.30859 0.5-0.42188 0.78125-0.26172 0.64844-0.46094 1.3984-0.59375 2.25-0.042969 0.21094-0.0625 0.38672-0.0625 0.53125 0 0.60547 0.16406 1.0078 0.5 1.2031l0.015625 0.015625c0.10156 0.0625 0.23438 0.09375 0.39062 0.09375z"/>
</symbol>
<symbol id="z" overflow="visible">
<path d="m2.875-6.8281-1.0469 4.2188c0.28906-0.11328 0.66016-0.42578 1.1094-0.9375 0.53125-0.58203 1.0195-0.875 1.4688-0.875 0.3125 0 0.52344 0.13672 0.64062 0.40625 0.019531 0.074219 0.03125 0.14844 0.03125 0.21875 0 0.28125-0.11719 0.47656-0.34375 0.57812-0.074219 0.023438-0.14062 0.03125-0.20312 0.03125-0.21094 0-0.33594-0.085938-0.375-0.26562v-0.078125c0-0.1875 0.082031-0.33203 0.25-0.4375v-0.015625c0.09375-0.050781 0.19531-0.078125 0.3125-0.078125l-0.03125-0.046875c-0.0625-0.039063-0.13672-0.066406-0.21875-0.078125-0.011719-0.007812-0.042969-0.015625-0.09375-0.015625-0.35547 0-0.78125 0.27344-1.2812 0.8125-0.03125 0.03125-0.058594 0.0625-0.078125 0.09375l-0.0625 0.0625c-0.34375 0.35547-0.63281 0.60156-0.85938 0.73438 0.97656 0.125 1.4688 0.47656 1.4688 1.0469 0 0.09375-0.011719 0.19922-0.03125 0.3125-0.054688 0.21875-0.078125 0.40625-0.078125 0.5625 0 0.3125 0.10156 0.46875 0.3125 0.46875 0.3125 0 0.5625-0.27344 0.75-0.82812 0.039063-0.11328 0.082031-0.25 0.125-0.40625 0.050781-0.11328 0.097656-0.17578 0.14062-0.1875 0.082031 0 0.125 0.03125 0.125 0.09375 0 0.11719-0.070312 0.33594-0.20312 0.65625-0.054687 0.13672-0.10547 0.25781-0.15625 0.35938-0.21875 0.35547-0.48438 0.53125-0.79688 0.53125-0.36719 0-0.63281-0.16016-0.79688-0.48438-0.085937-0.14453-0.125-0.3125-0.125-0.5 0-0.070312 0.015625-0.19141 0.046875-0.35938 0.019531-0.0625 0.03125-0.12891 0.03125-0.20312 0-0.41406-0.30469-0.6875-0.90625-0.8125-0.085938-0.019531-0.17188-0.035156-0.26562-0.046875-0.33594 1.3984-0.51562 2.1328-0.54688 2.2031-0.074219 0.125-0.1875 0.19141-0.34375 0.20312-0.16797 0-0.26172-0.070312-0.28125-0.20312-0.011719-0.03125-0.015625-0.054688-0.015625-0.078125 0-0.050781 0.015625-0.125 0.046875-0.21875l1.4531-5.7656 0.015625-0.1875c0-0.070312-0.042969-0.11719-0.125-0.14062-0.085938-0.019531-0.21094-0.03125-0.375-0.03125-0.14844 0-0.22656-0.039063-0.23438-0.125 0-0.11328 0.0625-0.17969 0.1875-0.20312l1.2188-0.09375c0.09375 0 0.14062 0.039062 0.14062 0.10938z"/>
</symbol>
<symbol id="y" overflow="visible">
<path d="m4.0469-3.5c0 1.5742-0.29688 2.9961-0.89062 4.2656-0.48047 1.0391-1.0938 1.875-1.8438 2.5-0.19922 0.15625-0.32422 0.23438-0.375 0.23438-0.09375 0-0.14062-0.046875-0.14062-0.14062 0-0.042969 0.0625-0.12109 0.1875-0.23438 1.5-1.5312 2.25-3.7383 2.25-6.625 0-2.8438-0.69922-5-2.0938-6.4688l-0.078125-0.0625c-0.17969-0.17578-0.26562-0.28516-0.26562-0.32812 0-0.09375 0.046875-0.14062 0.14062-0.14062 0.11328 0 0.36328 0.19531 0.75 0.57812 0.57031 0.57422 1.0508 1.2578 1.4375 2.0469 0.61328 1.2734 0.92188 2.7305 0.92188 4.375z"/>
</symbol>
<symbol id="x" overflow="visible">
<path d="m0.92188 19.594c-0.09375 0-0.14062-0.046875-0.14062-0.14062 0-0.042969 0.015625-0.078125 0.046875-0.10938l7.3906-8.6094-7.3906-10.125c-0.03125-0.023437-0.046875-0.042969-0.046875-0.0625v-0.42188c0-0.03125 0.015625-0.0625 0.046875-0.09375 0.03125-0.023438 0.0625-0.03125 0.09375-0.03125h16.797l1.7031 3.9375h-0.40625c-0.4375-1-1.168-1.7422-2.1875-2.2188-1.0117-0.48047-2.0703-0.77734-3.1719-0.89062-1.1055-0.10547-2.3906-0.15625-3.8594-0.15625h-6.4688l6.6094 9.0312c0.019531 0.03125 0.03125 0.0625 0.03125 0.09375s-0.011719 0.066406-0.03125 0.10938l-7.2656 8.4531h7.2656c1.4375 0 2.707-0.058594 3.8125-0.17188 1.1133-0.11719 2.1719-0.41406 3.1719-0.89062 1.0078-0.48047 1.707-1.2148 2.0938-2.2031h0.40625l-1.7031 4.5z"/>
</symbol>
<symbol id="w" overflow="visible">
<path d="m0.875-0.59375 0.57812-2.3125c0.11328-0.42578 0.17188-0.70312 0.17188-0.82812 0-0.3125-0.10547-0.46875-0.3125-0.46875-0.27344 0-0.49609 0.32031-0.67188 0.95312-0.023437 0.074219-0.042969 0.15234-0.0625 0.23438-0.074219 0.14844-0.13281 0.22656-0.17188 0.23438-0.074219 0-0.10938-0.03125-0.10938-0.09375 0-0.11328 0.0625-0.35156 0.1875-0.71875v-0.015625c0-0.007813 0.003906-0.015625 0.015625-0.015625v-0.015625l0.09375-0.20312c0.14453-0.26953 0.29688-0.4375 0.45312-0.5 0.09375-0.050781 0.19141-0.078125 0.29688-0.078125 0.375 0 0.64453 0.15625 0.8125 0.46875 0.050781 0.125 0.085938 0.26172 0.10938 0.40625 0.42578-0.58203 0.94141-0.875 1.5469-0.875 0.58203 0 0.94531 0.21875 1.0938 0.65625 0.039062 0.125 0.0625 0.26562 0.0625 0.42188 0 0.33594-0.20312 1.0625-0.60938 2.1875-0.11719 0.30469-0.17188 0.54297-0.17188 0.71875 0 0.21875 0.078125 0.32812 0.23438 0.32812 0.4375 0 0.77344-0.41016 1.0156-1.2344 0.03125-0.11328 0.066406-0.17188 0.10938-0.17188v-0.015625h0.046875c0.070312 0 0.10938 0.03125 0.10938 0.09375 0 0.11719-0.070313 0.32812-0.20312 0.64062-0.29297 0.60547-0.65625 0.90625-1.0938 0.90625-0.34375 0-0.58984-0.14062-0.73438-0.42188-0.0625-0.125-0.09375-0.25391-0.09375-0.39062 0-0.13281 0.035156-0.28906 0.10938-0.46875 0.42578-1.1641 0.64062-1.9414 0.64062-2.3281 0-0.46875-0.17969-0.70312-0.53125-0.70312-0.60547 0-1.1094 0.33594-1.5156 1-0.054688 0.074219-0.09375 0.14844-0.125 0.21875l-0.125 0.5c-0.03125 0.15625-0.089844 0.38281-0.17188 0.67188l-0.21875 0.90625c-0.11719 0.46094-0.17969 0.70312-0.1875 0.73438-0.0625 0.17578-0.1875 0.26953-0.375 0.28125-0.16797-0.03125-0.26172-0.11719-0.28125-0.26562 0 0.011719 0.023437-0.13281 0.078125-0.4375z"/>
</symbol>
<symbol id="v" overflow="visible">
<path d="m6.75-2.2812-5.5469 2.6094c-0.085937 0.050781-0.14062 0.078125-0.17188 0.078125-0.10547 0-0.16797-0.054688-0.1875-0.15625-0.011719-0.023438-0.015625-0.039062-0.015625-0.046875 0-0.085937 0.0625-0.15625 0.1875-0.21875l5.25-2.4844-5.25-2.4844c-0.125-0.0625-0.1875-0.13281-0.1875-0.21875 0-0.10156 0.050781-0.16406 0.15625-0.1875 0.019531-0.007813 0.035156-0.015625 0.046875-0.015625 0.03125 0 0.085938 0.027344 0.17188 0.078125l5.5469 2.6094c0.125 0.0625 0.1875 0.13672 0.1875 0.21875 0 0.085938-0.0625 0.15625-0.1875 0.21875z"/>
</symbol>
<symbol id="u" overflow="visible">
<path d="m4.5938-3.2031c0 0.98047-0.12109 1.7344-0.35938 2.2656-0.39844 0.75-0.98047 1.1328-1.75 1.1562-0.60547 0-1.0898-0.23828-1.4531-0.71875-0.074219-0.082031-0.13672-0.17969-0.1875-0.29688-0.30469-0.55078-0.45312-1.3516-0.45312-2.4062 0-0.97656 0.125-1.7344 0.375-2.2656 0.33203-0.75 0.86719-1.1445 1.6094-1.1875h0.125c0.59375 0 1.0781 0.23438 1.4531 0.70312v0.015625c0.09375 0.11719 0.17578 0.24609 0.25 0.39062 0.25781 0.57422 0.39062 1.3555 0.39062 2.3438zm-2.1094 3.2031c0.42578 0 0.75-0.20312 0.96875-0.60938 0.09375-0.17578 0.16016-0.39062 0.20312-0.64062 0.070312-0.42578 0.10938-1.1133 0.10938-2.0625 0-0.92578-0.03125-1.5781-0.09375-1.9531-0.125-0.63281-0.43359-1.0156-0.92188-1.1406-0.085938-0.019531-0.17188-0.03125-0.26562-0.03125-0.46094 0-0.79688 0.23438-1.0156 0.70312-0.074219 0.15625-0.13281 0.35156-0.17188 0.57812-0.054687 0.35547-0.078125 0.96875-0.078125 1.8438 0 1 0.035156 1.7031 0.10938 2.1094 0.125 0.63672 0.41406 1.0234 0.875 1.1562 0.09375 0.03125 0.1875 0.046875 0.28125 0.046875z"/>
</symbol>
<symbol id="t" overflow="visible">
<path d="m1.8594-1.1562c0.082031-0.03125 0.20703-0.046875 0.375-0.046875 0.25 0 0.57812 0.078125 0.98438 0.23438 0.36328 0.125 0.64062 0.1875 0.82812 0.1875 0.48828 0 0.91016-0.17578 1.2656-0.53125 0.1875-0.17578 0.32031-0.39062 0.40625-0.64062 0.0625-0.125 0.12891-0.1875 0.20312-0.1875 0.11328 0 0.17188 0.046875 0.17188 0.14062 0 0.24219-0.15234 0.58594-0.45312 1.0312-0.5 0.75-1.0859 1.125-1.75 1.125-0.3125 0-0.60938-0.17188-0.89062-0.51562-0.26172-0.3125-0.47656-0.48438-0.64062-0.51562-0.042969-0.007812-0.10156-0.015625-0.17188-0.015625-0.41797 0-0.8125 0.28906-1.1875 0.85938-0.074219 0.125-0.15234 0.1875-0.23438 0.1875-0.10547 0-0.15625-0.046875-0.15625-0.14062 0-0.11328 0.21094-0.42969 0.64062-0.95312 0.23828-0.30078 0.50391-0.59375 0.79688-0.875l1.25-1.1875c0.92578-0.78125 1.5781-1.3906 1.9531-1.8281-0.33594 0-0.69531-0.070313-1.0781-0.21875-0.40625-0.13281-0.69922-0.20312-0.875-0.20312-0.54297 0-0.91797 0.17969-1.125 0.53125-0.03125 0.042969-0.058594 0.085938-0.078125 0.125-0.03125 0.10547-0.089844 0.15625-0.17188 0.15625-0.11719 0-0.17188-0.050781-0.17188-0.15625 0-0.20703 0.13281-0.48828 0.40625-0.84375 0.375-0.5 0.80078-0.75 1.2812-0.75 0.3125 0 0.60156 0.16406 0.875 0.48438l0.015625 0.015625c0.019531 0.03125 0.046875 0.0625 0.078125 0.09375 0.22656 0.26172 0.41016 0.40625 0.54688 0.4375 0.0625 0.011719 0.11719 0.015625 0.17188 0.015625 0.3125 0 0.64453-0.26953 1-0.8125l0.046875-0.078125c0.0625-0.10156 0.13281-0.15625 0.21875-0.15625 0.09375 0 0.14062 0.046875 0.14062 0.14062 0 0.11719-0.19531 0.41406-0.57812 0.89062-0.28125 0.34375-0.63281 0.72656-1.0469 1.1406-0.0625 0.054687-0.51172 0.46094-1.3438 1.2188l-0.03125 0.03125c-0.60547 0.53125-1.1641 1.0703-1.6719 1.6094z"/>
</symbol>
<symbol id="s" overflow="visible">
<path d="m0.875-0.59375 0.57812-2.3125c0.11328-0.42578 0.17188-0.70312 0.17188-0.82812 0-0.3125-0.10547-0.46875-0.3125-0.46875-0.27344 0-0.49609 0.32031-0.67188 0.95312-0.023437 0.074219-0.042969 0.15234-0.0625 0.23438-0.074219 0.14844-0.13281 0.22656-0.17188 0.23438-0.074219 0-0.10938-0.03125-0.10938-0.09375 0-0.11328 0.0625-0.35156 0.1875-0.71875v-0.015625c0-0.007813 0.003906-0.015625 0.015625-0.015625v-0.015625l0.09375-0.20312c0.14453-0.26953 0.29688-0.4375 0.45312-0.5 0.09375-0.050781 0.19141-0.078125 0.29688-0.078125 0.375 0 0.64453 0.15625 0.8125 0.46875 0.050781 0.125 0.085938 0.26172 0.10938 0.40625 0.42578-0.58203 0.94141-0.875 1.5469-0.875 0.58203 0 0.94531 0.21875 1.0938 0.65625 0.039062 0.125 0.0625 0.26562 0.0625 0.42188 0 0.33594-0.20312 1.0625-0.60938 2.1875-0.11719 0.30469-0.17188 0.54297-0.17188 0.71875 0 0.21875 0.078125 0.32812 0.23438 0.32812 0.4375 0 0.77344-0.41016 1.0156-1.2344 0.03125-0.11328 0.066406-0.17188 0.10938-0.17188v-0.015625h0.046875c0.070312 0 0.10938 0.03125 0.10938 0.09375 0 0.11719-0.070313 0.32812-0.20312 0.64062-0.29297 0.60547-0.65625 0.90625-1.0938 0.90625-0.34375 0-0.58984-0.14062-0.73438-0.42188-0.0625-0.125-0.09375-0.25391-0.09375-0.39062 0-0.13281 0.035156-0.28906 0.10938-0.46875 0.42578-1.1641 0.64062-1.9414 0.64062-2.3281 0-0.46875-0.17969-0.70312-0.53125-0.70312-0.60547 0-1.1094 0.33594-1.5156 1-0.054688 0.074219-0.09375 0.14844-0.125 0.21875l-0.125 0.5c-0.03125 0.15625-0.089844 0.38281-0.17188 0.67188l-0.21875 0.90625c-0.11719 0.46094-0.17969 0.70312-0.1875 0.73438-0.0625 0.17578-0.1875 0.26953-0.375 0.28125-0.16797-0.03125-0.26172-0.11719-0.28125-0.26562 0 0.011719 0.023437-0.13281 0.078125-0.4375z"/>
</symbol>
<symbol id="q" overflow="visible">
<path d="m0.78125 19.594v-0.75c1.5312 0 2.2969-0.46484 2.2969-1.3906v-15.297c0-0.92969-0.76562-1.3906-2.2969-1.3906v-0.76562h16.312v0.76562c-1.5312 0-2.2969 0.46094-2.2969 1.3906v15.297c0 0.92578 0.76562 1.3906 2.2969 1.3906v0.75h-6.7969v-0.75c1.5312 0 2.2969-0.46484 2.2969-1.3906v-16.688h-7.3125v16.688c0 0.92578 0.76562 1.3906 2.2969 1.3906v0.75z"/>
</symbol>
<symbol id="p" overflow="visible">
<path d="m2.9375-6.4062v5.6094c0 0.21094 0.039062 0.33984 0.125 0.39062 0.11328 0.0625 0.38281 0.09375 0.8125 0.09375h0.3125v0.3125c-0.23047-0.019531-0.77344-0.03125-1.625-0.03125-0.84375 0-1.3828 0.011719-1.6094 0.03125v-0.3125h0.3125c0.51953 0 0.81641-0.054688 0.89062-0.17188v-0.015625c0.03125-0.050781 0.046875-0.14844 0.046875-0.29688v-5.1719c-0.34375 0.17969-0.78125 0.26562-1.3125 0.26562v-0.3125c0.80078 0 1.4062-0.21094 1.8125-0.64062 0.13281 0 0.21094 0.023438 0.23438 0.0625v0.015625 0.17188z"/>
</symbol>
<symbol id="o" overflow="visible">
<path d="m6.7656-5.9531-5.2656 2.5 5.25 2.4688c0.11328 0.09375 0.17578 0.16797 0.1875 0.21875 0 0.10547-0.046875 0.16797-0.14062 0.1875-0.023437 0.011719-0.042969 0.015625-0.0625 0.015625-0.03125 0-0.089844-0.019531-0.17188-0.0625l-5.5469-2.625c-0.125-0.050781-0.1875-0.11719-0.1875-0.20312 0-0.09375 0.0625-0.17188 0.1875-0.23438l5.5625-2.6094c0.070313-0.039063 0.125-0.0625 0.15625-0.0625 0.11328 0 0.17969 0.054687 0.20312 0.15625v0.046875c0 0.09375-0.058594 0.16406-0.17188 0.20312zm-0.15625 7.3281h-5.4531c-0.21094 0-0.32031-0.070312-0.32812-0.20312 0-0.13672 0.11328-0.20312 0.34375-0.20312h5.4219c0.21875 0 0.33203 0.066406 0.34375 0.20312 0 0.13281-0.10938 0.20312-0.32812 0.20312z"/>
</symbol>
<symbol id="n" overflow="visible">
<path d="m2.875-6.8281-1.0469 4.2188c0.28906-0.11328 0.66016-0.42578 1.1094-0.9375 0.53125-0.58203 1.0195-0.875 1.4688-0.875 0.3125 0 0.52344 0.13672 0.64062 0.40625 0.019531 0.074219 0.03125 0.14844 0.03125 0.21875 0 0.28125-0.11719 0.47656-0.34375 0.57812-0.074219 0.023438-0.14062 0.03125-0.20312 0.03125-0.21094 0-0.33594-0.085938-0.375-0.26562v-0.078125c0-0.1875 0.082031-0.33203 0.25-0.4375v-0.015625c0.09375-0.050781 0.19531-0.078125 0.3125-0.078125l-0.03125-0.046875c-0.0625-0.039063-0.13672-0.066406-0.21875-0.078125-0.011719-0.007812-0.042969-0.015625-0.09375-0.015625-0.35547 0-0.78125 0.27344-1.2812 0.8125-0.03125 0.03125-0.058594 0.0625-0.078125 0.09375l-0.0625 0.0625c-0.34375 0.35547-0.63281 0.60156-0.85938 0.73438 0.97656 0.125 1.4688 0.47656 1.4688 1.0469 0 0.09375-0.011719 0.19922-0.03125 0.3125-0.054688 0.21875-0.078125 0.40625-0.078125 0.5625 0 0.3125 0.10156 0.46875 0.3125 0.46875 0.3125 0 0.5625-0.27344 0.75-0.82812 0.039063-0.11328 0.082031-0.25 0.125-0.40625 0.050781-0.11328 0.097656-0.17578 0.14062-0.1875 0.082031 0 0.125 0.03125 0.125 0.09375 0 0.11719-0.070312 0.33594-0.20312 0.65625-0.054687 0.13672-0.10547 0.25781-0.15625 0.35938-0.21875 0.35547-0.48438 0.53125-0.79688 0.53125-0.36719 0-0.63281-0.16016-0.79688-0.48438-0.085937-0.14453-0.125-0.3125-0.125-0.5 0-0.070312 0.015625-0.19141 0.046875-0.35938 0.019531-0.0625 0.03125-0.12891 0.03125-0.20312 0-0.41406-0.30469-0.6875-0.90625-0.8125-0.085938-0.019531-0.17188-0.035156-0.26562-0.046875-0.33594 1.3984-0.51562 2.1328-0.54688 2.2031-0.074219 0.125-0.1875 0.19141-0.34375 0.20312-0.16797 0-0.26172-0.070312-0.28125-0.20312-0.011719-0.03125-0.015625-0.054688-0.015625-0.078125 0-0.050781 0.015625-0.125 0.046875-0.21875l1.4531-5.7656 0.015625-0.1875c0-0.070312-0.042969-0.11719-0.125-0.14062-0.085938-0.019531-0.21094-0.03125-0.375-0.03125-0.14844 0-0.22656-0.039063-0.23438-0.125 0-0.11328 0.0625-0.17969 0.1875-0.20312l1.2188-0.09375c0.09375 0 0.14062 0.039062 0.14062 0.10938z"/>
</symbol>
<symbol id="m" overflow="visible">
<path d="m6.7656-5.9531-5.2656 2.5 5.25 2.4688c0.11328 0.09375 0.17578 0.16797 0.1875 0.21875 0 0.10547-0.046875 0.16797-0.14062 0.1875-0.023437 0.011719-0.042969 0.015625-0.0625 0.015625-0.03125 0-0.089844-0.019531-0.17188-0.0625l-5.5469-2.625c-0.125-0.050781-0.1875-0.11719-0.1875-0.20312 0-0.09375 0.0625-0.17188 0.1875-0.23438l5.5625-2.6094c0.070313-0.039063 0.125-0.0625 0.15625-0.0625 0.11328 0 0.17969 0.054687 0.20312 0.15625v0.046875c0 0.09375-0.058594 0.16406-0.17188 0.20312zm-0.15625 7.3281h-5.4531c-0.21094 0-0.32031-0.070312-0.32812-0.20312 0-0.13672 0.11328-0.20312 0.34375-0.20312h5.4219c0.21875 0 0.33203 0.066406 0.34375 0.20312 0 0.13281-0.10938 0.20312-0.32812 0.20312z"/>
</symbol>
<symbol id="l" overflow="visible">
<path d="m0.875-0.59375 0.57812-2.3125c0.11328-0.42578 0.17188-0.70312 0.17188-0.82812 0-0.3125-0.10547-0.46875-0.3125-0.46875-0.27344 0-0.49609 0.32031-0.67188 0.95312-0.023437 0.074219-0.042969 0.15234-0.0625 0.23438-0.074219 0.14844-0.13281 0.22656-0.17188 0.23438-0.074219 0-0.10938-0.03125-0.10938-0.09375 0-0.11328 0.0625-0.35156 0.1875-0.71875v-0.015625c0-0.007813 0.003906-0.015625 0.015625-0.015625v-0.015625l0.09375-0.20312c0.14453-0.26953 0.29688-0.4375 0.45312-0.5 0.09375-0.050781 0.19141-0.078125 0.29688-0.078125 0.375 0 0.64453 0.15625 0.8125 0.46875 0.050781 0.125 0.085938 0.26172 0.10938 0.40625 0.42578-0.58203 0.94141-0.875 1.5469-0.875 0.58203 0 0.94531 0.21875 1.0938 0.65625 0.039062 0.125 0.0625 0.26562 0.0625 0.42188 0 0.33594-0.20312 1.0625-0.60938 2.1875-0.11719 0.30469-0.17188 0.54297-0.17188 0.71875 0 0.21875 0.078125 0.32812 0.23438 0.32812 0.4375 0 0.77344-0.41016 1.0156-1.2344 0.03125-0.11328 0.066406-0.17188 0.10938-0.17188v-0.015625h0.046875c0.070312 0 0.10938 0.03125 0.10938 0.09375 0 0.11719-0.070313 0.32812-0.20312 0.64062-0.29297 0.60547-0.65625 0.90625-1.0938 0.90625-0.34375 0-0.58984-0.14062-0.73438-0.42188-0.0625-0.125-0.09375-0.25391-0.09375-0.39062 0-0.13281 0.035156-0.28906 0.10938-0.46875 0.42578-1.1641 0.64062-1.9414 0.64062-2.3281 0-0.46875-0.17969-0.70312-0.53125-0.70312-0.60547 0-1.1094 0.33594-1.5156 1-0.054688 0.074219-0.09375 0.14844-0.125 0.21875l-0.125 0.5c-0.03125 0.15625-0.089844 0.38281-0.17188 0.67188l-0.21875 0.90625c-0.11719 0.46094-0.17969 0.70312-0.1875 0.73438-0.0625 0.17578-0.1875 0.26953-0.375 0.28125-0.16797-0.03125-0.26172-0.11719-0.28125-0.26562 0 0.011719 0.023437-0.13281 0.078125-0.4375z"/>
</symbol>
<symbol id="k" overflow="visible">
<path d="m4.6406 3.3594c0 0.09375-0.046875 0.14062-0.14062 0.14062-0.11719 0-0.36719-0.19531-0.75-0.57812-0.57422-0.57422-1.0547-1.2578-1.4375-2.0469-0.61719-1.2695-0.92188-2.7266-0.92188-4.375 0-1.5703 0.28906-2.9922 0.875-4.2656 0.48828-1.0391 1.1016-1.875 1.8438-2.5 0.19531-0.15625 0.32812-0.23438 0.39062-0.23438 0.09375 0 0.14062 0.046875 0.14062 0.14062 0 0.042969-0.0625 0.12109-0.1875 0.23438-1.5 1.5312-2.25 3.7422-2.25 6.625 0 2.875 0.72656 5.0547 2.1875 6.5469 0.16406 0.16406 0.25 0.26953 0.25 0.3125z"/>
</symbol>
<symbol id="j" overflow="visible">
<path d="m4.1094-8.9531v7.8438c0 0.28125 0.054687 0.46094 0.17188 0.53125 0.15625 0.09375 0.53516 0.14062 1.1406 0.14062h0.4375v0.4375c-0.32422-0.03125-1.0781-0.046875-2.2656-0.046875s-1.9453 0.015625-2.2656 0.046875v-0.4375h0.45312c0.71875 0 1.1289-0.082031 1.2344-0.25l0.015625-0.015625c0.03125-0.070313 0.046875-0.20703 0.046875-0.40625v-7.25c-0.48047 0.24219-1.0898 0.35938-1.8281 0.35938v-0.42188c1.1133 0 1.9609-0.30078 2.5469-0.90625 0.17578 0 0.28125 0.039063 0.3125 0.10938v0.26562z"/>
</symbol>
<symbol id="i" overflow="visible">
<path d="m9.25-3.2188h-7.625c-0.30469 0-0.46094-0.09375-0.46875-0.28125 0-0.1875 0.15625-0.28125 0.46875-0.28125h7.625c0.30078 0 0.45703 0.09375 0.46875 0.28125 0 0.1875-0.15625 0.28125-0.46875 0.28125z"/>
</symbol>
<symbol id="h" overflow="visible">
<path d="m6.3281-6.0312-1.9375 7.7812c-0.03125 0.16406-0.046875 0.26953-0.046875 0.3125 0 0.10156 0.054688 0.16406 0.17188 0.1875 0.10156 0.019531 0.26953 0.03125 0.5 0.03125 0.21875 0 0.33594 0.050781 0.35938 0.15625 0 0.1875-0.085938 0.28125-0.25 0.28125l-1.4219-0.046875h-0.015625l-1.3906 0.046875h-0.015625c-0.125 0-0.1875-0.054688-0.1875-0.15625 0.082031-0.17969 0.19141-0.27344 0.32812-0.28125 0.48828-0.011719 0.78125-0.074219 0.875-0.1875 0.050781-0.054688 0.097656-0.14844 0.14062-0.28125l0.625-2.5c-0.5625 0.5625-1.1172 0.84375-1.6562 0.84375-0.65625 0-1.1562-0.29688-1.5-0.89062-0.23047-0.375-0.34375-0.82812-0.34375-1.3594 0-0.98828 0.34766-1.9141 1.0469-2.7812 0.64453-0.78906 1.3516-1.2227 2.125-1.2969 0.070313-0.007813 0.14062-0.015625 0.20312-0.015625 0.59375 0 1.0234 0.32812 1.2969 0.98438 0.19531-0.34375 0.44531-0.63281 0.75-0.875l0.03125-0.015625c0.070313-0.050781 0.12891-0.078125 0.17188-0.078125 0.09375 0 0.14062 0.046875 0.14062 0.14062zm-3.875 5.875c0.48828 0 0.99219-0.30078 1.5156-0.90625 0.10156-0.14453 0.19141-0.26953 0.26562-0.375 0.050781-0.070312 0.30078-1.0508 0.75-2.9375 0.039063-0.16406 0.0625-0.25391 0.0625-0.26562 0-0.20703-0.089844-0.44531-0.26562-0.71875-0.19922-0.34375-0.48047-0.51562-0.84375-0.51562-0.46094 0-0.89844 0.28125-1.3125 0.84375-0.16797 0.24219-0.30859 0.5-0.42188 0.78125-0.26172 0.64844-0.46094 1.3984-0.59375 2.25-0.042969 0.21094-0.0625 0.38672-0.0625 0.53125 0 0.60547 0.16406 1.0078 0.5 1.2031l0.015625 0.015625c0.10156 0.0625 0.23438 0.09375 0.39062 0.09375z"/>
</symbol>
<symbol id="g" overflow="visible">
<path d="m2.875-6.8281-1.0469 4.2188c0.28906-0.11328 0.66016-0.42578 1.1094-0.9375 0.53125-0.58203 1.0195-0.875 1.4688-0.875 0.3125 0 0.52344 0.13672 0.64062 0.40625 0.019531 0.074219 0.03125 0.14844 0.03125 0.21875 0 0.28125-0.11719 0.47656-0.34375 0.57812-0.074219 0.023438-0.14062 0.03125-0.20312 0.03125-0.21094 0-0.33594-0.085938-0.375-0.26562v-0.078125c0-0.1875 0.082031-0.33203 0.25-0.4375v-0.015625c0.09375-0.050781 0.19531-0.078125 0.3125-0.078125l-0.03125-0.046875c-0.0625-0.039063-0.13672-0.066406-0.21875-0.078125-0.011719-0.007812-0.042969-0.015625-0.09375-0.015625-0.35547 0-0.78125 0.27344-1.2812 0.8125-0.03125 0.03125-0.058594 0.0625-0.078125 0.09375l-0.0625 0.0625c-0.34375 0.35547-0.63281 0.60156-0.85938 0.73438 0.97656 0.125 1.4688 0.47656 1.4688 1.0469 0 0.09375-0.011719 0.19922-0.03125 0.3125-0.054688 0.21875-0.078125 0.40625-0.078125 0.5625 0 0.3125 0.10156 0.46875 0.3125 0.46875 0.3125 0 0.5625-0.27344 0.75-0.82812 0.039063-0.11328 0.082031-0.25 0.125-0.40625 0.050781-0.11328 0.097656-0.17578 0.14062-0.1875 0.082031 0 0.125 0.03125 0.125 0.09375 0 0.11719-0.070312 0.33594-0.20312 0.65625-0.054687 0.13672-0.10547 0.25781-0.15625 0.35938-0.21875 0.35547-0.48438 0.53125-0.79688 0.53125-0.36719 0-0.63281-0.16016-0.79688-0.48438-0.085937-0.14453-0.125-0.3125-0.125-0.5 0-0.070312 0.015625-0.19141 0.046875-0.35938 0.019531-0.0625 0.03125-0.12891 0.03125-0.20312 0-0.41406-0.30469-0.6875-0.90625-0.8125-0.085938-0.019531-0.17188-0.035156-0.26562-0.046875-0.33594 1.3984-0.51562 2.1328-0.54688 2.2031-0.074219 0.125-0.1875 0.19141-0.34375 0.20312-0.16797 0-0.26172-0.070312-0.28125-0.20312-0.011719-0.03125-0.015625-0.054688-0.015625-0.078125 0-0.050781 0.015625-0.125 0.046875-0.21875l1.4531-5.7656 0.015625-0.1875c0-0.070312-0.042969-0.11719-0.125-0.14062-0.085938-0.019531-0.21094-0.03125-0.375-0.03125-0.14844 0-0.22656-0.039063-0.23438-0.125 0-0.11328 0.0625-0.17969 0.1875-0.20312l1.2188-0.09375c0.09375 0 0.14062 0.039062 0.14062 0.10938z"/>
</symbol>
<symbol id="e" overflow="visible">
<path d="m4.0469-3.5c0 1.5742-0.29688 2.9961-0.89062 4.2656-0.48047 1.0391-1.0938 1.875-1.8438 2.5-0.19922 0.15625-0.32422 0.23438-0.375 0.23438-0.09375 0-0.14062-0.046875-0.14062-0.14062 0-0.042969 0.0625-0.12109 0.1875-0.23438 1.5-1.5312 2.25-3.7383 2.25-6.625 0-2.8438-0.69922-5-2.0938-6.4688l-0.078125-0.0625c-0.17969-0.17578-0.26562-0.28516-0.26562-0.32812 0-0.09375 0.046875-0.14062 0.14062-0.14062 0.11328 0 0.36328 0.19531 0.75 0.57812 0.57031 0.57422 1.0508 1.2578 1.4375 2.0469 0.61328 1.2734 0.92188 2.7305 0.92188 4.375z"/>
</symbol>
</defs>
<rect width="124" height="189" fill="#fff"/>
<g>
<use x="33.175781" y="10" xlink:href="#bb"/>
</g>
<g>
<use x="47.953125" y="24.488281" xlink:href="#ba"/>
</g>
<g>
<use x="53.835938" y="24.488281" xlink:href="#ao"/>
</g>
<g>
<use x="61.457031" y="24.488281" xlink:href="#ac"/>
</g>
<g>
<use x="71.800781" y="20.5" xlink:href="#r"/>
</g>
<g>
<use x="78.929688" y="15.417969" xlink:href="#f"/>
</g>
<path transform="matrix(14 0 0 14 -1.6497e-6 -6.0552e-7)" d="m0.83426 1.9166h6.7946" fill="none" stroke="#000" stroke-linejoin="bevel" stroke-miterlimit="0" stroke-width=".039999"/>
<g>
<use x="11.679687" y="29.4375" xlink:href="#d"/>
</g>
<g>
<use x="24.902344" y="43.925781" xlink:href="#c"/>
</g>
<g>
<use x="29.800781" y="43.925781" xlink:href="#b"/>
</g>
<g>
<use x="37.425781" y="43.925781" xlink:href="#a"/>
</g>
<g>
<use x="42.835938" y="43.925781" xlink:href="#az"/>
</g>
<g>
<use x="50.457031" y="43.925781" xlink:href="#ay"/>
</g>
<g>
<use x="59.449219" y="39.9375" xlink:href="#ax"/>
</g>
<g>
<use x="64.894531" y="39.9375" xlink:href="#aw"/>
</g>
<g>
<use x="75.007813" y="39.9375" xlink:href="#av"/>
</g>
<g>
<use x="89.007813" y="39.9375" xlink:href="#au"/>
</g>
<g>
<use x="95.757813" y="35.890625" xlink:href="#at"/>
</g>
<g>
<use x="101.359375" y="39.9375" xlink:href="#as"/>
</g>
<g>
<use x="33.042969" y="51.324219" xlink:href="#ar"/>
</g>
<g>
<use x="33.953125" y="80.976563" xlink:href="#aq"/>
</g>
<g>
<use x="39.835938" y="80.976563" xlink:href="#ap"/>
</g>
<g>
<use x="47.457031" y="80.976563" xlink:href="#an"/>
</g>
<g>
<use x="55.597656" y="66.027344" xlink:href="#am"/>
</g>
<g>
<use x="62.726563" y="60.246094" xlink:href="#al"/>
</g>
<path transform="matrix(14 0 0 14 -4.8182e-6 -4.4113e-6)" d="m0.83426 6.0513h5.6281" fill="none" stroke="#000" stroke-linejoin="bevel" stroke-miterlimit="0" stroke-width=".039999"/>
<g>
<use x="18.453125" y="88.078125" xlink:href="#ak"/>
</g>
<g>
<use x="11.679687" y="118.21875" xlink:href="#aj"/>
</g>
<g>
<use x="16.578125" y="118.21875" xlink:href="#ai"/>
</g>
<g>
<use x="24.203125" y="118.21875" xlink:href="#ah"/>
</g>
<g>
<use x="29.613281" y="118.21875" xlink:href="#ag"/>
</g>
<g>
<use x="37.234375" y="118.21875" xlink:href="#af"/>
</g>
<g>
<use x="43.117188" y="102.777344" xlink:href="#ae"/>
</g>
<g>
<use x="48.5625" y="102.777344" xlink:href="#ad"/>
</g>
<g>
<use x="58.671875" y="102.777344" xlink:href="#ab"/>
</g>
<g>
<use x="72.671875" y="102.777344" xlink:href="#aa"/>
</g>
<g>
<use x="79.425781" y="96.996094" xlink:href="#z"/>
</g>
<g>
<use x="85.027344" y="102.777344" xlink:href="#y"/>
</g>
<g>
<use x="32.785156" y="127.015625" xlink:href="#x"/>
</g>
<g>
<use x="53.007813" y="148.507813" xlink:href="#w"/>
</g>
<g>
<use x="58.890625" y="148.507813" xlink:href="#v"/>
</g>
<g>
<use x="66.511719" y="148.507813" xlink:href="#u"/>
</g>
<g>
<use x="76.855469" y="141.714844" xlink:href="#t"/>
</g>
<g>
<use x="83.984375" y="135.9375" xlink:href="#s"/>
</g>
<path transform="matrix(14 0 0 14 -7.9594e-6 -1.3059e-5)" d="m0.83426 10.775h7.1281" fill="none" stroke="#000" stroke-linejoin="bevel" stroke-miterlimit="0" stroke-width=".039999"/>
<g>
<use x="11.679687" y="154.210938" xlink:href="#q"/>
</g>
<g>
<use x="29.570312" y="175.699219" xlink:href="#p"/>
</g>
<g>
<use x="34.46875" y="175.699219" xlink:href="#o"/>
</g>
<g>
<use x="42.089844" y="175.699219" xlink:href="#n"/>
</g>
<g>
<use x="47.5" y="175.699219" xlink:href="#m"/>
</g>
<g>
<use x="55.125" y="175.699219" xlink:href="#l"/>
</g>
<g>
<use x="64.117188" y="168.910156" xlink:href="#k"/>
</g>
<g>
<use x="69.5625" y="168.910156" xlink:href="#j"/>
</g>
<g>
<use x="79.671875" y="168.910156" xlink:href="#i"/>
</g>
<g>
<use x="93.671875" y="168.910156" xlink:href="#h"/>
</g>
<g>
<use x="100.425781" y="163.128906" xlink:href="#g"/>
</g>
<g>
<use x="106.027344" y="168.910156" xlink:href="#e"/>
</g>
</svg>
