<?xml version="1.0" encoding="UTF-8"?>
<svg width="257pt" height="33pt" version="1.1" viewBox="0 0 257 33" xmlns="http://www.w3.org/2000/svg" xmlns:xlink="http://www.w3.org/1999/xlink">
<defs>
<symbol id="d" overflow="visible">
<path d="m2.5-1.6094 4.875-8.1719c0.09375-0.15625 0.21094-0.23828 0.35938-0.25 0.14453 0 0.22656 0.046875 0.25 0.14062 0.007813 0.03125 0.019531 0.10156 0.03125 0.20312l0.84375 8.75c0.03125 0.23047 0.085937 0.37109 0.17188 0.42188h0.015625v0.015625c0.11328 0.042969 0.35156 0.0625 0.71875 0.0625 0.20703 0 0.31641 0.054688 0.32812 0.15625 0 0.1875-0.085938 0.28125-0.25 0.28125l-1.5625-0.046875h-0.015625l-1.7344 0.046875h-0.015625c-0.13672 0-0.20312-0.050781-0.20312-0.15625 0.070312-0.17578 0.1875-0.26953 0.34375-0.28125 0.66406 0 1-0.14844 1-0.45312 0 0.011719-0.074219-0.76953-0.21875-2.3438h-3.5156l-1.0625 1.7969c-0.13672 0.23047-0.20312 0.40234-0.20312 0.51562 0 0.29297 0.21875 0.45312 0.65625 0.48438 0.15625 0 0.23438 0.058594 0.23438 0.17188 0 0.17969-0.089844 0.26562-0.26562 0.26562l-1.3438-0.046875h-0.0625l-1.1719 0.046875h-0.03125c-0.125 0-0.1875-0.050781-0.1875-0.15625 0-0.16406 0.070313-0.25391 0.21875-0.26562v-0.015625h0.078125c0.59375-0.03125 1.0703-0.28125 1.4375-0.75 0.09375-0.125 0.1875-0.26562 0.28125-0.42188zm1.6875-2.0625h3.2031l-0.45312-4.6094z"/>
</symbol>
<symbol id="c" overflow="visible">
<path d="m2.2344-1.0938 1.875-7.5156c0.039063-0.14453 0.0625-0.23438 0.0625-0.26562 0-0.11328-0.074219-0.1875-0.21875-0.21875h-0.03125-0.125c-0.15625-0.019531-0.33594-0.03125-0.53125-0.03125-0.25 0-0.38281-0.050781-0.39062-0.15625 0-0.16406 0.066406-0.25781 0.20312-0.28125h4.9062c1.0703 0 1.8359 0.32031 2.2969 0.95312 0.19531 0.30469 0.29688 0.63281 0.29688 0.98438 0 0.75-0.41797 1.4062-1.25 1.9688-0.011719 0-0.023437 0.007812-0.03125 0.015625-0.5 0.3125-1.0469 0.52734-1.6406 0.64062 0.95703 0.11719 1.6133 0.49219 1.9688 1.125 0.13281 0.26172 0.20312 0.54297 0.20312 0.84375 0 0.6875-0.32812 1.3281-0.98438 1.9219l-0.015625 0.015625c-0.80469 0.73047-1.7578 1.0938-2.8594 1.0938h-5c-0.24219 0-0.36719-0.050781-0.375-0.15625 0-0.16406 0.066406-0.25781 0.20312-0.28125h0.17188c0.60156 0 0.96875-0.0625 1.0938-0.1875 0.050781-0.070312 0.10156-0.20312 0.15625-0.39062 0-0.007813 0.003906-0.035156 0.015625-0.078125zm2.125-4.0312h2.0312c0.92578 0 1.6914-0.33203 2.2969-1 0.41406-0.47656 0.625-1 0.625-1.5625 0-0.67578-0.28125-1.1172-0.84375-1.3281-0.19922-0.070313-0.42969-0.10938-0.6875-0.10938h-1.7969c-0.34375 0-0.55469 0.046875-0.625 0.14062v0.015625h-0.015625v0.015625c-0.03125 0.054687-0.074219 0.17188-0.125 0.35938zm-0.64062 4.6875h1.9062c0.89453 0 1.6406-0.33203 2.2344-1 0.44531-0.51953 0.67188-1.0977 0.67188-1.7344 0-0.6875-0.24609-1.1719-0.73438-1.4531-0.24219-0.125-0.53125-0.1875-0.875-0.1875h-2.6562l-0.96875 3.9062c-0.042969 0.16797-0.0625 0.27344-0.0625 0.3125 0 0.085938 0.039063 0.13281 0.125 0.14062h0.0625c0.050781 0.011719 0.14844 0.015625 0.29688 0.015625z"/>
</symbol>
<symbol id="b" overflow="visible">
<path d="m10.641-9.7344-0.875 3.5781c-0.054687 0.16797-0.10156 0.25781-0.14062 0.26562l-0.015625 0.015625h-0.10938c-0.13672 0-0.20312-0.046875-0.20312-0.14062l0.046875-0.6875v-0.03125c0-1.1562-0.36719-1.9531-1.0938-2.3906l-0.015625-0.015625c-0.33594-0.19531-0.71875-0.29688-1.1562-0.29688-0.99219 0-1.9297 0.37109-2.8125 1.1094-0.21875 0.17969-0.41797 0.375-0.59375 0.59375-0.88672 1.0312-1.4336 2.3438-1.6406 3.9375-0.042969 0.29297-0.0625 0.54688-0.0625 0.76562 0 1.3047 0.49219 2.1836 1.4844 2.6406 0.38281 0.17969 0.80469 0.26562 1.2656 0.26562 0.875 0 1.7344-0.33594 2.5781-1.0156 0.65625-0.55078 1.125-1.2891 1.4062-2.2188 0.019531-0.09375 0.082031-0.14062 0.1875-0.14062 0.11328 0 0.17188 0.046875 0.17188 0.14062 0 0.16797-0.10938 0.46484-0.32812 0.89062-0.29297 0.59375-0.69922 1.1211-1.2188 1.5781-0.92969 0.80469-1.9336 1.2031-3.0156 1.2031-1.1992 0-2.1562-0.41016-2.875-1.2344-0.61719-0.69531-0.92188-1.5664-0.92188-2.6094 0-1.3828 0.50391-2.6875 1.5156-3.9062 0.94531-1.125 2.0664-1.8672 3.3594-2.2344 0.46875-0.13281 0.92969-0.20312 1.3906-0.20312 1.0195 0 1.7969 0.41797 2.3281 1.25l0.98438-1.0781c0.10156-0.11328 0.17188-0.17188 0.20312-0.17188 0.10156 0 0.15625 0.046875 0.15625 0.14062z"/>
</symbol>
<symbol id="a" overflow="visible">
<path d="m2.2188-1.0938 1.8906-7.5156c0.03125-0.14453 0.046875-0.23438 0.046875-0.26562 0-0.11328-0.074219-0.1875-0.21875-0.21875h-0.015625-0.078125c-0.21875-0.019531-0.41797-0.03125-0.59375-0.03125-0.24219 0-0.37109-0.035156-0.39062-0.10938-0.011719-0.019531-0.015625-0.039063-0.015625-0.0625 0-0.15625 0.078125-0.24219 0.23438-0.26562h4.8906c1.207 0 2.1133 0.47656 2.7188 1.4219 0.375 0.59375 0.5625 1.3047 0.5625 2.125 0 1.3555-0.46875 2.6211-1.4062 3.7969-0.89844 1.0859-1.9531 1.7773-3.1719 2.0781-0.36719 0.09375-0.72656 0.14062-1.0781 0.14062h-4.6406c-0.23047 0-0.35547-0.035156-0.375-0.10938-0.011719-0.007813-0.015625-0.03125-0.015625-0.0625 0-0.15625 0.070312-0.24219 0.21875-0.26562h0.17188c0.60156 0 0.96875-0.0625 1.0938-0.1875 0.050781-0.070312 0.10938-0.20312 0.17188-0.39062v-0.078125zm3.0312-7.5-1.9219 7.6875c-0.042969 0.16797-0.0625 0.27344-0.0625 0.3125 0 0.085938 0.039063 0.13281 0.125 0.14062h0.046875c0.0625 0.011719 0.16406 0.015625 0.3125 0.015625h1.5781c1.1562 0 2.1562-0.42969 3-1.2969 0.082031-0.09375 0.16016-0.1875 0.23438-0.28125 0.75-0.96875 1.2227-2.2383 1.4219-3.8125 0.03125-0.28906 0.046875-0.52344 0.046875-0.70312 0-1.25-0.49219-2.0547-1.4688-2.4219-0.3125-0.11328-0.66797-0.17188-1.0625-0.17188h-1.5c-0.33594 0-0.53906 0.046875-0.60938 0.14062v0.015625h-0.015625v0.015625c-0.042969 0.054687-0.085938 0.17188-0.125 0.35938z"/>
</symbol>
<symbol id="h" overflow="visible">
<path d="m6.2656-10.297-5.5469 11.875c-0.11719 0.25-0.26172 0.34766-0.4375 0.29688-0.17969-0.085938-0.1875-0.27734-0.03125-0.57812l5.4844-11.766c0.13281-0.30078 0.28906-0.41406 0.46875-0.34375 0.16406 0.074219 0.1875 0.24609 0.0625 0.51562zm2.7344 0.23438-5.5 11.766c-0.13672 0.30078-0.29297 0.41406-0.46875 0.34375-0.16797-0.074219-0.1875-0.24609-0.0625-0.51562l5.5312-11.891c0.125-0.25 0.27344-0.34375 0.45312-0.28125 0.16406 0.074219 0.17969 0.26562 0.046875 0.57812z"/>
</symbol>
<symbol id="g" overflow="visible">
<path d="m6.2656-10.297-5.5469 11.875c-0.11719 0.25-0.26172 0.34766-0.4375 0.29688-0.17969-0.085938-0.1875-0.27734-0.03125-0.57812l5.4844-11.766c0.13281-0.30078 0.28906-0.41406 0.46875-0.34375 0.16406 0.074219 0.1875 0.24609 0.0625 0.51562zm2.7344 0.23438-5.5 11.766c-0.13672 0.30078-0.29297 0.41406-0.46875 0.34375-0.16797-0.074219-0.1875-0.24609-0.0625-0.51562l5.5312-11.891c0.125-0.25 0.27344-0.34375 0.45312-0.28125 0.16406 0.074219 0.17969 0.26562 0.046875 0.57812zm-1.6562 6.1406h-5.5938c-0.21875 0-0.33594-0.09375-0.34375-0.28125 0-0.1875 0.11328-0.28125 0.34375-0.28125h5.5938c0.21875 0 0.32812 0.09375 0.32812 0.28125s-0.10938 0.28125-0.32812 0.28125z"/>
</symbol>
<symbol id="f" overflow="visible">
<path d="m6.9688-10.297-2.8906 6.5625c-0.11719 0.25-0.26172 0.35156-0.4375 0.29688-0.17969-0.082031-0.1875-0.27344-0.03125-0.57812l2.8281-6.4531c0.13281-0.30078 0.28516-0.41406 0.45312-0.34375 0.16406 0.074219 0.19141 0.24609 0.078125 0.51562zm2.7344 0.23438-2.8281 6.4531c-0.14844 0.30469-0.30859 0.41406-0.48438 0.32812-0.16797-0.070312-0.1875-0.24219-0.0625-0.51562l2.875-6.5625c0.125-0.25 0.27344-0.34375 0.45312-0.28125 0.16406 0.074219 0.17969 0.26562 0.046875 0.57812zm-0.28125 10.125h-7.8125c-0.30469 0-0.46094-0.09375-0.46875-0.28125 0-0.1875 0.16016-0.28125 0.48438-0.28125h7.7969c0.28906 0 0.44531 0.09375 0.46875 0.28125 0 0.1875-0.15625 0.28125-0.46875 0.28125zm0-2.0156h-7.8125c-0.30469 0-0.46094-0.09375-0.46875-0.28125 0-0.1875 0.15625-0.28125 0.46875-0.28125h7.8125c0.30078 0 0.45703 0.09375 0.46875 0.28125 0 0.1875-0.15625 0.28125-0.46875 0.28125z"/>
</symbol>
<symbol id="e" overflow="visible">
<path d="m12.297-8.4062-2.5312 8.4219h-9.8125l2.5312-8.4219zm-9.4844 0.42188-2.2812 7.5938h8.9219l2.2812-7.5938z"/>
</symbol>
</defs>
<g>
<rect width="257" height="33" fill="#fff"/>
<g>
<use x="10" y="20.5" xlink:href="#d"/>
</g>
<g>
<use x="20.5" y="20.5" xlink:href="#c"/>
</g>
<g>
<use x="31.820312" y="20.5" xlink:href="#h"/>
</g>
<g>
<use x="41.621094" y="20.5" xlink:href="#b"/>
</g>
<g>
<use x="52.628906" y="20.5" xlink:href="#a"/>
</g>
<g>
<use x="69.277344" y="20.5" xlink:href="#d"/>
</g>
<g>
<use x="79.777344" y="20.5" xlink:href="#c"/>
</g>
<g>
<use x="91.097656" y="20.5" xlink:href="#g"/>
</g>
<g>
<use x="100.898438" y="20.5" xlink:href="#b"/>
</g>
<g>
<use x="111.90625" y="20.5" xlink:href="#a"/>
</g>
<g>
<use x="128.550781" y="20.5" xlink:href="#d"/>
</g>
<g>
<use x="139.050781" y="20.5" xlink:href="#c"/>
</g>
<g>
<use x="150.371094" y="20.5" xlink:href="#f"/>
</g>
<g>
<use x="161.574219" y="20.5" xlink:href="#b"/>
</g>
<g>
<use x="172.582031" y="20.5" xlink:href="#a"/>
</g>
<g>
<use x="189.226562" y="20.5" xlink:href="#e"/>
</g>
<g>
<use x="201.5625" y="20.5" xlink:href="#d"/>
</g>
<g>
<use x="212.0625" y="20.5" xlink:href="#c"/>
</g>
<g>
<use x="223.382812" y="20.5" xlink:href="#b"/>
</g>
<g>
<use x="234.390625" y="20.5" xlink:href="#a"/>
</g>
</g>
</svg>
