<?xml version="1.0" encoding="UTF-8"?>
<svg width="81pt" height="63pt" version="1.1" viewBox="0 0 81 63" xmlns="http://www.w3.org/2000/svg" xmlns:xlink="http://www.w3.org/1999/xlink">
<defs>
<symbol id="g" overflow="visible">
<path d="m0.95312-9.9688h10.375v1.6719h-4.5625v8.2969h-1.6719v-8.2969h-4.1406z"/>
</symbol>
<symbol id="f" overflow="visible">
<path d="m0.82812-6.6406c0-2.2188 1.6602-3.3281 4.9844-3.3281h4.9844v1.6719h-4.9844c-2.2109 0-3.3125 0.55469-3.3125 1.6562v0.60938c0.80078-0.40625 1.9062-0.60938 3.3125-0.60938h3.3125v1.6562h-3.3125c-2.1562 0-3.2617 0.52734-3.3125 1.5781v0.09375c0 1.0938 1.1016 1.6406 3.3125 1.6406h4.9844v1.6719h-4.9844c-3.3242 0-4.9844-1.1016-4.9844-3.3125z"/>
</symbol>
<symbol id="e" overflow="visible">
<path d="m1.1562-0.82812c0-1.9688 0.58203-3.3516 1.75-4.1562-1.168-0.78906-1.75-2.1719-1.75-4.1406v-0.84375h1.6719v0.84375c0 2.2109 1.1016 3.3125 3.3125 3.3125 2.207 0 3.3125-1.1016 3.3125-3.3125v-0.84375h1.6719v0.84375c0 1.9688-0.58984 3.3516-1.7656 4.1406 1.1758 0.80469 1.7656 2.1875 1.7656 4.1562v0.82812h-1.6719v-0.82812c0-2.207-1.1055-3.3125-3.3125-3.3125-2.2109 0-3.3125 1.1055-3.3125 3.3125v0.82812h-1.6719z"/>
</symbol>
<symbol id="d" overflow="visible">
<path d="m7.4531-24.328h0.17188c0.72656 0.88672 1.1719 1.3281 1.3281 1.3281 1.0078-0.34375 2.0039-0.51562 2.9844-0.51562h0.17188c0.86328 0 1.8906 0.17188 3.0781 0.51562 0.070312 0 0.49219-0.44141 1.2656-1.3281h0.17188v0.17188l-0.98438 1.2969v0.17188c0.67578 0.1875 1.4727 0.89062 2.3906 2.1094 0.71875 1.3359 1.0781 2.3984 1.0781 3.1875l-0.20312 0.09375h-13.719l-0.1875-0.09375c0-1.0703 0.50391-2.3672 1.5156-3.8906 0.53125-0.5625 1.1797-1.0703 1.9531-1.5312v-0.046875c-0.67969-0.83203-1.0156-1.3203-1.0156-1.4688zm-1.2656 5.8438c0.050781 0.074219 0.078125 0.13281 0.078125 0.17188h11.578v-0.09375c-0.09375-0.78906-0.58594-1.6641-1.4688-2.625-1.0938-0.9375-2.4336-1.4062-4.0156-1.4062h-0.70312c-2.6172 0-4.3672 1.1484-5.25 3.4375-0.074219 0.34375-0.14844 0.51562-0.21875 0.51562zm2.7031-2.8594c0.50781 0 0.8125 0.3125 0.90625 0.9375 0 0.39844-0.30469 0.65234-0.90625 0.76562-0.41797 0-0.6875-0.28906-0.8125-0.875 0.14453-0.55078 0.41406-0.82812 0.8125-0.82812zm6.2969 0c0.53906 0.21094 0.8125 0.51172 0.8125 0.90625-0.21094 0.53125-0.5 0.79688-0.875 0.79688-0.42969 0-0.71875-0.28906-0.875-0.875 0.1875-0.55078 0.5-0.82812 0.9375-0.82812zm-12.766 4.0469h0.14062c0.8125 0 1.2852 0.52734 1.4219 1.5781v5.9844c-0.09375 1.0547-0.61719 1.5781-1.5625 1.5781-0.82422 0-1.3047-0.52344-1.4375-1.5781v-5.9844c0.13281-1.0508 0.61328-1.5781 1.4375-1.5781zm19.141 0h0.10938c0.83203 0 1.3203 0.52734 1.4688 1.5781v5.9844c-0.125 1.0547-0.65234 1.5781-1.5781 1.5781-0.84375 0-1.3359-0.52344-1.4688-1.5781v-5.9844c0.13281-1.0508 0.625-1.5781 1.4688-1.5781zm-19.562 1.5781v5.9844c0 0.375 0.1875 0.5625 0.5625 0.5625 0.30078-0.09375 0.45312-0.28125 0.45312-0.5625v-5.9844c0-0.375-0.19922-0.5625-0.59375-0.5625-0.28125 0.09375-0.42188 0.28125-0.42188 0.5625zm19.109 0v5.9844c0 0.375 0.1875 0.5625 0.5625 0.5625 0.30078-0.09375 0.45312-0.28125 0.45312-0.5625v-5.9844c0-0.375-0.1875-0.5625-0.5625-0.5625-0.30469 0.09375-0.45312 0.28125-0.45312 0.5625zm-15.922-0.5625h13.781c0.070312 0 0.12891 0.074219 0.17188 0.21875v9.625c0 1.0938-0.24609 1.6406-0.73438 1.6406h-1.7188v2.4844c0 1.5234-0.52344 2.2812-1.5625 2.2812-0.86719 0-1.3711-0.55078-1.5156-1.6562v-3.1094h-3.0781v3.1875c-0.09375 1.0547-0.62109 1.5781-1.5781 1.5781-0.8125 0-1.2891-0.52344-1.4219-1.5781v-3.1875h-1.7188c-0.44922 0-0.71875-0.33594-0.8125-1.0156v-10.25c0-0.070312 0.0625-0.14453 0.1875-0.21875zm0.82812 1.0156v9.4531h2.3125c0.070313 0 0.14453 0.074219 0.21875 0.21875v3.9844c0 0.375 0.17969 0.5625 0.54688 0.5625 0.28125-0.09375 0.42188-0.28125 0.42188-0.5625v-3.9844c0-0.070312 0.070313-0.14453 0.21875-0.21875h4.75c0.070313 0 0.14453 0.074219 0.21875 0.21875v4.2344c0.09375 0.21094 0.25391 0.3125 0.48438 0.3125h0.078125c0.25-0.11328 0.375-0.30078 0.375-0.5625v-3.9844c0-0.070312 0.054687-0.14453 0.17188-0.21875h2.2812v-9.4531z"/>
</symbol>
<symbol id="c" overflow="visible">
<path d="m0.95312-9.9688h10.375v1.6719h-4.5625v8.2969h-1.6719v-8.2969h-4.1406z"/>
</symbol>
<symbol id="b" overflow="visible">
<path d="m0.82812-6.6406c0-2.2188 1.6602-3.3281 4.9844-3.3281h4.9844v1.6719h-4.9844c-2.2109 0-3.3125 0.55469-3.3125 1.6562v0.60938c0.80078-0.40625 1.9062-0.60938 3.3125-0.60938h3.3125v1.6562h-3.3125c-2.1562 0-3.2617 0.52734-3.3125 1.5781v0.09375c0 1.0938 1.1016 1.6406 3.3125 1.6406h4.9844v1.6719h-4.9844c-3.3242 0-4.9844-1.1016-4.9844-3.3125z"/>
</symbol>
<symbol id="a" overflow="visible">
<path d="m1.1562-0.82812c0-1.9688 0.58203-3.3516 1.75-4.1562-1.168-0.78906-1.75-2.1719-1.75-4.1406v-0.84375h1.6719v0.84375c0 2.2109 1.1016 3.3125 3.3125 3.3125 2.207 0 3.3125-1.1016 3.3125-3.3125v-0.84375h1.6719v0.84375c0 1.9688-0.58984 3.3516-1.7656 4.1406 1.1758 0.80469 1.7656 2.1875 1.7656 4.1562v0.82812h-1.6719v-0.82812c0-2.207-1.1055-3.3125-3.3125-3.3125-2.2109 0-3.3125 1.1055-3.3125 3.3125v0.82812h-1.6719z"/>
</symbol>
</defs>
<g>
<rect width="81" height="63" fill="#fff"/>
<g>
<use x="10" y="21.761719" xlink:href="#g"/>
</g>
<g>
<use x="21.84375" y="21.761719" xlink:href="#f"/>
</g>
<g>
<use x="33.6875" y="21.761719" xlink:href="#e"/>
</g>
<g>
<use x="10" y="51.179688" xlink:href="#d"/>
</g>
<g>
<use x="34.675781" y="51.179687" xlink:href="#c"/>
</g>
<g>
<use x="46.519531" y="51.179687" xlink:href="#b"/>
</g>
<g>
<use x="58.363281" y="51.179687" xlink:href="#a"/>
</g>
</g>
</svg>
