<?xml version="1.0" encoding="UTF-8"?>
<svg width="131pt" height="55pt" version="1.1" viewBox="0 0 131 55" xmlns="http://www.w3.org/2000/svg" xmlns:xlink="http://www.w3.org/1999/xlink">
<defs>
<symbol id="o" overflow="visible">
<path d="m1.4844 30.391c0.22656 0.22656 0.51562 0.34375 0.85938 0.34375 0.33203 0 0.63281-0.23047 0.90625-0.6875 0.28125-0.46094 0.52344-1.0391 0.73438-1.7344 0.21875-0.6875 0.375-1.2656 0.46875-1.7344s0.21094-1.0742 0.35938-1.8125c0.13281-0.6875 0.26562-1.3828 0.39062-2.0781 0.125-0.6875 0.25-1.4219 0.375-2.2031 0.13281-0.78125 0.26953-1.5742 0.40625-2.375 0.14453-0.80469 0.3125-1.6641 0.5-2.5781 0.23828-1.1875 0.41016-2.043 0.51562-2.5625 0.11328-0.51172 0.28125-1.25 0.5-2.2188s0.36328-1.6094 0.4375-1.9219c0.070312-0.30469 0.26953-1.1406 0.59375-2.5156l0.1875-0.73438c0.20703-0.8125 0.36719-1.4336 0.48438-1.8594 0.11328-0.41797 0.28906-0.93359 0.53125-1.5469 0.23828-0.60547 0.51953-1.1211 0.84375-1.5469 0.32031-0.41797 0.67969-0.625 1.0781-0.625 0.26953 0 0.51953 0.0625 0.75 0.1875 0.23828 0.125 0.42969 0.28906 0.57812 0.5 0.14453 0.21875 0.21875 0.46094 0.21875 0.73438 0 0.20703-0.070313 0.375-0.20312 0.5-0.13672 0.13281-0.30469 0.20312-0.5 0.20312-0.19922 0-0.37109-0.070312-0.51562-0.20312-0.13672-0.125-0.20312-0.29297-0.20312-0.5 0-0.19922 0.066406-0.36719 0.20312-0.5 0.14453-0.13672 0.31641-0.20312 0.51562-0.20312-0.24219-0.24219-0.52344-0.35938-0.84375-0.35938-0.16797 0-0.35547 0.25-0.5625 0.75-0.21094 0.50781-0.40234 1.1094-0.57812 1.7969-0.17969 0.6875-0.3125 1.2578-0.40625 1.7188-0.09375 0.45703-0.20312 1.0312-0.32812 1.7188-0.15625 0.78125-0.28906 1.457-0.39062 2.0312-0.10547 0.58203-0.23047 1.3008-0.375 2.1562-0.14844 0.85156-0.29297 1.6602-0.4375 2.4219-0.13672 0.76953-0.29688 1.6406-0.48438 2.6094-0.125 0.61328-0.30469 1.4727-0.53125 2.5781-0.23047 1.1016-0.38672 1.8203-0.46875 2.1562-0.074219 0.33203-0.26562 1.1445-0.57812 2.4375-0.30469 1.2891-0.46484 1.9766-0.48438 2.0625l-0.17188 0.64062c-0.24219 0.98828-0.48438 1.8594-0.73438 2.6094-0.24219 0.75-0.59375 1.4453-1.0625 2.0938-0.46875 0.64453-1.043 0.96875-1.7188 0.96875-0.40625 0-0.77344-0.13672-1.0938-0.40625-0.3125-0.27344-0.46875-0.60547-0.46875-1 0-0.21094 0.066406-0.38281 0.20312-0.51562 0.14453-0.13672 0.31641-0.20312 0.51562-0.20312 0.13281 0 0.25391 0.03125 0.35938 0.09375 0.10156 0.0625 0.1875 0.14453 0.25 0.25 0.0625 0.11328 0.09375 0.23828 0.09375 0.375 0 0.19531-0.070313 0.35938-0.20312 0.48438-0.13672 0.13281-0.30859 0.20312-0.51562 0.20312z"/>
</symbol>
<symbol id="n" overflow="visible">
<path d="m4.0938-2.2969v2.7969c0 0.20703-0.070312 0.31641-0.20312 0.32812-0.13672 0-0.20312-0.10938-0.20312-0.32812v-2.7969h-2.7969c-0.21875 0-0.32812-0.066406-0.32812-0.20312 0-0.13281 0.10938-0.20312 0.32812-0.20312h2.7969v-2.7969c0-0.20703 0.066406-0.31641 0.20312-0.32812 0.13281 0 0.20312 0.10938 0.20312 0.32812v2.7969h2.7812c0.21875 0 0.32812 0.070313 0.32812 0.20312 0 0.13672-0.10938 0.20312-0.32812 0.20312z"/>
</symbol>
<symbol id="m" overflow="visible">
<path d="m5.0781-2.7188c0.39453-0.66406 0.875-1.1445 1.4375-1.4375 0.33203-0.17578 0.67578-0.26562 1.0312-0.26562 0.63281 0 1.1328 0.29688 1.5 0.89062 0.25781 0.40625 0.39062 0.86719 0.39062 1.375 0 0.6875-0.21484 1.2578-0.64062 1.7031-0.35547 0.375-0.78125 0.5625-1.2812 0.5625-0.59375 0-1.1641-0.22656-1.7031-0.6875-0.14844-0.125-0.37109-0.36719-0.67188-0.73438l-0.23438-0.28125c-0.39844 0.66797-0.875 1.1484-1.4375 1.4375-0.33594 0.17578-0.67188 0.26562-1.0156 0.26562-0.64844 0-1.1523-0.29688-1.5156-0.89062-0.25-0.40625-0.375-0.86328-0.375-1.375 0-0.6875 0.21094-1.2539 0.64062-1.7031 0.35156-0.375 0.78125-0.5625 1.2812-0.5625 0.58203 0 1.1484 0.23047 1.7031 0.6875 0.14453 0.125 0.36328 0.37109 0.65625 0.73438l0.046875 0.046875c0.039063 0.054687 0.10156 0.13281 0.1875 0.23438zm0.26562 0.34375 0.95312 1.2344c0.007813 0 0.015625 0.007813 0.015625 0.015625l0.03125 0.03125c0.44531 0.48047 0.89062 0.71875 1.3281 0.71875 0.47656 0 0.875-0.21094 1.1875-0.64062 0.22656-0.33203 0.34375-0.71094 0.34375-1.1406 0-0.59375-0.17188-1.082-0.51562-1.4688-0.26172-0.28125-0.57812-0.4375-0.95312-0.46875h-0.125c-0.84375 0-1.5859 0.54688-2.2188 1.6406-0.011719 0.023437-0.027344 0.046875-0.046875 0.078125zm-0.6875 0.4375-0.96875-1.2344v-0.015625l-0.046875-0.03125c-0.4375-0.47656-0.88281-0.71875-1.3281-0.71875-0.48047 0-0.875 0.21484-1.1875 0.64062-0.23047 0.33594-0.34375 0.71484-0.34375 1.1406 0 0.59375 0.17578 1.0859 0.53125 1.4688 0.28125 0.32422 0.63281 0.48438 1.0625 0.48438 0.84375 0 1.582-0.54688 2.2188-1.6406 0.019531-0.03125 0.039062-0.0625 0.0625-0.09375z"/>
</symbol>
<symbol id="l" overflow="visible">
<path d="m0.875-0.59375 0.57812-2.3125c0.11328-0.42578 0.17188-0.70312 0.17188-0.82812 0-0.3125-0.10547-0.46875-0.3125-0.46875-0.27344 0-0.49609 0.32031-0.67188 0.95312-0.023437 0.074219-0.042969 0.15234-0.0625 0.23438-0.074219 0.14844-0.13281 0.22656-0.17188 0.23438-0.074219 0-0.10938-0.03125-0.10938-0.09375 0-0.11328 0.0625-0.35156 0.1875-0.71875v-0.015625c0-0.007813 0.003906-0.015625 0.015625-0.015625v-0.015625l0.09375-0.20312c0.14453-0.26953 0.29688-0.4375 0.45312-0.5 0.09375-0.050781 0.19141-0.078125 0.29688-0.078125 0.375 0 0.64453 0.15625 0.8125 0.46875 0.050781 0.125 0.085938 0.26172 0.10938 0.40625 0.42578-0.58203 0.94141-0.875 1.5469-0.875 0.58203 0 0.94531 0.21875 1.0938 0.65625 0.039062 0.125 0.0625 0.26562 0.0625 0.42188 0 0.33594-0.20312 1.0625-0.60938 2.1875-0.11719 0.30469-0.17188 0.54297-0.17188 0.71875 0 0.21875 0.078125 0.32812 0.23438 0.32812 0.4375 0 0.77344-0.41016 1.0156-1.2344 0.03125-0.11328 0.066406-0.17188 0.10938-0.17188v-0.015625h0.046875c0.070312 0 0.10938 0.03125 0.10938 0.09375 0 0.11719-0.070313 0.32812-0.20312 0.64062-0.29297 0.60547-0.65625 0.90625-1.0938 0.90625-0.34375 0-0.58984-0.14062-0.73438-0.42188-0.0625-0.125-0.09375-0.25391-0.09375-0.39062 0-0.13281 0.035156-0.28906 0.10938-0.46875 0.42578-1.1641 0.64062-1.9414 0.64062-2.3281 0-0.46875-0.17969-0.70312-0.53125-0.70312-0.60547 0-1.1094 0.33594-1.5156 1-0.054688 0.074219-0.09375 0.14844-0.125 0.21875l-0.125 0.5c-0.03125 0.15625-0.089844 0.38281-0.17188 0.67188l-0.21875 0.90625c-0.11719 0.46094-0.17969 0.70312-0.1875 0.73438-0.0625 0.17578-0.1875 0.26953-0.375 0.28125-0.16797-0.03125-0.26172-0.11719-0.28125-0.26562 0 0.011719 0.023437-0.13281 0.078125-0.4375z"/>
</symbol>
<symbol id="k" overflow="visible">
<path d="m4.6875-2.7344c0 0.71094-0.27344 1.3555-0.8125 1.9375-0.51172 0.5625-1.0859 0.85938-1.7188 0.89062-0.054688 0.007812-0.10156 0.015625-0.14062 0.015625-0.58594 0-1.0273-0.22656-1.3281-0.6875-0.1875-0.28906-0.28125-0.625-0.28125-1 0-0.6875 0.26562-1.3203 0.79688-1.9062 0.50781-0.5625 1.0859-0.86719 1.7344-0.92188 0.050781-0.007812 0.10156-0.015625 0.15625-0.015625 0.57031 0 1.0078 0.22656 1.3125 0.67188 0.1875 0.29297 0.28125 0.63281 0.28125 1.0156zm-2.6719 2.625c0.39453 0 0.76562-0.19141 1.1094-0.57812 0.09375-0.10156 0.17578-0.21875 0.25-0.34375 0.28125-0.47656 0.46875-1.0703 0.5625-1.7812 0.007812-0.0625 0.015625-0.11719 0.015625-0.17188v-0.14062c0-0.48828-0.16406-0.81641-0.48438-0.98438-0.11719-0.0625-0.24609-0.09375-0.39062-0.09375-0.40625 0-0.78906 0.21484-1.1406 0.64062-0.054688 0.0625-0.10156 0.125-0.14062 0.1875-0.023437 0.03125-0.042969 0.0625-0.0625 0.09375-0.24219 0.38672-0.41797 0.92969-0.53125 1.625-0.03125 0.1875-0.046875 0.33984-0.046875 0.45312 0 0.55469 0.19141 0.90234 0.57812 1.0469 0.09375 0.03125 0.1875 0.046875 0.28125 0.046875z"/>
</symbol>
<symbol id="j" overflow="visible">
<path d="m4.625-3.3906-0.42188 1.6875c-0.074219 0.26172-0.10938 0.5-0.10938 0.71875 0.050781 0.55469 0.29688 0.84375 0.73438 0.875 0.44531 0 0.81641-0.28906 1.1094-0.875 0.21875-0.45703 0.38281-0.96875 0.5-1.5312 0.03125-0.125 0.046875-0.22266 0.046875-0.29688 0-0.33203-0.12109-0.61719-0.35938-0.85938-0.10547-0.082031-0.15625-0.17188-0.15625-0.26562 0-0.16406 0.085938-0.30078 0.26562-0.40625 0.070313-0.050781 0.14844-0.078125 0.23438-0.078125 0.1875 0 0.31641 0.12109 0.39062 0.35938 0.03125 0.09375 0.046875 0.21094 0.046875 0.34375 0 0.41797-0.13281 1.0469-0.39062 1.8906-0.09375 0.27344-0.18359 0.50781-0.26562 0.70312-0.35547 0.82422-0.83984 1.2344-1.4531 1.2344-0.64844 0-1.0625-0.23438-1.25-0.70312-0.26172 0.46875-0.60547 0.70312-1.0312 0.70312-0.65625 0-1.0938-0.22266-1.3125-0.67188-0.074219-0.16406-0.10938-0.36328-0.10938-0.59375 0-0.33203 0.17578-0.97656 0.53125-1.9375 0.007812-0.019531 0.019531-0.046875 0.03125-0.078125 0.11328-0.28906 0.17188-0.52344 0.17188-0.70312 0-0.21875-0.085937-0.32812-0.25-0.32812-0.40625 0-0.73047 0.37109-0.96875 1.1094-0.011719 0.042969-0.027344 0.089844-0.046875 0.14062-0.074219 0.10547-0.125 0.16406-0.15625 0.17188-0.074219 0-0.10938-0.03125-0.10938-0.09375 0-0.125 0.066406-0.33594 0.20312-0.64062 0.28906-0.60156 0.66016-0.90625 1.1094-0.90625 0.34375 0 0.58594 0.14844 0.73438 0.4375 0.0625 0.11719 0.09375 0.24609 0.09375 0.39062 0 0.11719-0.058594 0.32812-0.17188 0.64062-0.35547 0.90625-0.53125 1.5547-0.53125 1.9375 0 0.59375 0.26953 0.89844 0.8125 0.90625 0.36328 0 0.66406-0.28125 0.90625-0.84375v-0.17188c0-0.1875 0.03125-0.41016 0.09375-0.67188l0.5625-2.2344c0.0625-0.17578 0.1875-0.26953 0.375-0.28125 0.16406 0.03125 0.25781 0.12109 0.28125 0.26562l-0.14062 0.65625z"/>
</symbol>
<symbol id="i" overflow="visible">
<path d="m5.5938-5.8594 3.2344 4.75c0.25 0.36719 0.52344 0.57812 0.82812 0.64062h0.03125c0.13281 0.023438 0.33594 0.03125 0.60938 0.03125v0.4375c-0.58594-0.03125-1.1211-0.046875-1.6094-0.046875-1 0-1.668 0.015625-2 0.046875v-0.4375c0.55078 0 0.82812-0.14062 0.82812-0.42188 0-0.10156-0.070313-0.25781-0.20312-0.46875l-2.5312-3.75-1.625 1.5312v2.4531c0 0.28125 0.050781 0.46094 0.15625 0.53125 0.13281 0.085938 0.44531 0.125 0.9375 0.125h0.34375v0.4375c-0.32422-0.03125-1.0156-0.046875-2.0781-0.046875-1.043 0-1.7266 0.015625-2.0469 0.046875v-0.4375h0.32812c0.60156 0 0.95312-0.078125 1.0469-0.23438 0.039062-0.0625 0.0625-0.20312 0.0625-0.42188v-7.375c0-0.28125-0.058594-0.45703-0.17188-0.53125-0.125-0.082031-0.4375-0.125-0.9375-0.125h-0.32812v-0.4375c0.32031 0.03125 1.0078 0.046875 2.0625 0.046875 1.0508 0 1.7383-0.015625 2.0625-0.046875v0.4375h-0.34375c-0.60547 0-0.95312 0.078125-1.0469 0.23438-0.03125 0.0625-0.046875 0.20312-0.046875 0.42188v4.4531l4.375-4.1875c0.16406-0.14453 0.25-0.30078 0.25-0.46875 0-0.21875-0.14062-0.35938-0.42188-0.42188-0.0625-0.019531-0.13672-0.03125-0.21875-0.03125v-0.4375c0.3125 0.03125 0.90625 0.046875 1.7812 0.046875 0.55078 0 0.94531-0.015625 1.1875-0.046875v0.4375c-0.76172 0.011719-1.4219 0.29297-1.9844 0.84375z"/>
</symbol>
<symbol id="a" overflow="visible">
<path d="m5.4531-3.2344h-3.9062c0 0.94922 0.14062 1.6484 0.42188 2.0938 0.44531 0.58594 0.97656 0.89844 1.5938 0.9375 0.63281 0 1.1484-0.25781 1.5469-0.78125 0.13281-0.1875 0.25-0.40625 0.34375-0.65625 0.019531-0.125 0.078125-0.1875 0.17188-0.1875 0.125 0 0.1875 0.054687 0.1875 0.15625 0 0.21094-0.13281 0.49219-0.39062 0.84375-0.38672 0.52344-0.89062 0.83203-1.5156 0.9375-0.13672 0.03125-0.28125 0.046875-0.4375 0.046875-0.875 0-1.6211-0.33594-2.2344-1.0156-0.5625-0.61328-0.84375-1.3516-0.84375-2.2188 0-0.96875 0.33594-1.7695 1.0156-2.4062 0.53906-0.51953 1.1719-0.78125 1.8906-0.78125 1.0625 0 1.8008 0.44922 2.2188 1.3438 0.19531 0.41797 0.29688 0.88281 0.29688 1.3906 0 0.15625-0.03125 0.25-0.09375 0.28125-0.03125 0.011719-0.12109 0.015625-0.26562 0.015625zm-3.8906-0.29688h3.3281c0-0.88281-0.19922-1.5508-0.59375-2-0.26172-0.28906-0.59375-0.4375-1-0.4375-0.46875 0-0.87109 0.21875-1.2031 0.65625-0.32422 0.42969-0.5 1.0234-0.53125 1.7812z"/>
</symbol>
<symbol id="h" overflow="visible">
<path d="m2.4531-4.7188v3.125c0 0.1875 0.035156 0.33984 0.10938 0.45312l0.078125 0.125c0.375 0.57422 0.86328 0.85938 1.4688 0.85938 0.59375 0 1.0859-0.30469 1.4844-0.92188 0.35156-0.53906 0.53125-1.1914 0.53125-1.9531 0-0.95703-0.26172-1.7188-0.78125-2.2812-0.32422-0.35156-0.6875-0.53125-1.0938-0.53125-0.66797 0-1.2148 0.29688-1.6406 0.89062-0.0625 0.074219-0.11719 0.15234-0.15625 0.23438zm0 3.8906v2.4844c0 0.3125 0.070313 0.5 0.21875 0.5625 0.10156 0.039062 0.39453 0.0625 0.875 0.0625v0.4375c-0.98047-0.03125-1.5117-0.046875-1.5938-0.046875-0.09375 0-0.61719 0.015625-1.5625 0.046875v-0.4375c0.55078 0 0.875-0.042969 0.96875-0.125l0.03125-0.03125c0.0625-0.085938 0.09375-0.24219 0.09375-0.46875v-6.5625c0-0.32031-0.070313-0.51953-0.20312-0.59375-0.11719-0.0625-0.41406-0.09375-0.89062-0.09375v-0.4375l2.0156-0.15625v0.92188c0.5625-0.61328 1.2188-0.92188 1.9688-0.92188 0.84375 0 1.5547 0.33984 2.1406 1.0156 0.51953 0.61719 0.78125 1.3281 0.78125 2.1406 0 0.98047-0.35938 1.7891-1.0781 2.4219-0.60547 0.51172-1.2891 0.76562-2.0469 0.76562-0.65625 0-1.1797-0.23828-1.5625-0.71875-0.085937-0.10156-0.13672-0.19141-0.15625-0.26562z"/>
</symbol>
<symbol id="g" overflow="visible">
<path d="m2.4219-5.5938v3.8906c0 0.92969 0.26953 1.4297 0.8125 1.5h0.125c0.40625 0 0.6875-0.25781 0.84375-0.78125 0.0625-0.21875 0.09375-0.47656 0.09375-0.78125v-0.76562h0.34375v0.79688c0 0.76172-0.21484 1.3125-0.64062 1.6562-0.19922 0.15625-0.44531 0.23438-0.73438 0.23438-0.78125 0-1.3203-0.29688-1.6094-0.89062-0.13672-0.26953-0.20312-0.60156-0.20312-1v-3.8594h-1.1875v-0.3125c0.83203-0.039062 1.3828-0.5625 1.6562-1.5625 0.09375-0.36328 0.14453-0.74219 0.15625-1.1406h0.34375v2.5781h2v0.4375z"/>
</symbol>
<symbol id="f" overflow="visible">
<path d="m2.4062-1.0938c0 0.29297 0.054688 0.46875 0.17188 0.53125l0.015625 0.015625c0.125 0.074219 0.41406 0.10938 0.875 0.10938h0.29688v0.4375c-0.375-0.03125-0.96875-0.046875-1.7812-0.046875 0.03125 0-0.5 0.015625-1.5938 0.046875v-0.4375c0.55078 0 0.875-0.039062 0.96875-0.125l0.03125-0.03125c0.0625-0.070312 0.09375-0.22656 0.09375-0.46875v-3.75c0-0.36328-0.070313-0.58594-0.20312-0.67188-0.11719-0.070313-0.32031-0.10938-0.60938-0.10938h-0.28125v-0.4375l1.9531-0.15625v1.5469c0.25-0.78906 0.66016-1.2852 1.2344-1.4844 0.15625-0.039062 0.31641-0.0625 0.48438-0.0625 0.4375 0 0.75 0.16406 0.9375 0.48438 0.0625 0.11719 0.09375 0.24219 0.09375 0.375 0 0.32422-0.15234 0.52344-0.45312 0.59375-0.054687 0.011719-0.10156 0.015625-0.14062 0.015625-0.29297 0-0.48047-0.125-0.5625-0.375-0.03125-0.0625-0.046875-0.13281-0.046875-0.21875 0-0.25781 0.10938-0.44141 0.32812-0.54688-0.023438-0.007813-0.074219-0.015625-0.15625-0.015625-0.625 0-1.0898 0.38281-1.3906 1.1406-0.17969 0.4375-0.26562 0.93359-0.26562 1.4844z"/>
</symbol>
<symbol id="e" overflow="visible">
<path d="m5.8125-4.7031-2.4688 5.9844c-0.44922 1.0625-1.0469 1.5938-1.7969 1.5938-0.48047 0-0.84375-0.1875-1.0938-0.5625-0.125-0.17969-0.1875-0.37109-0.1875-0.57812 0-0.32422 0.14844-0.52344 0.45312-0.59375h0.14062c0.28125 0 0.46094 0.12891 0.54688 0.39062 0.019531 0.0625 0.03125 0.125 0.03125 0.1875 0 0.33203-0.18359 0.53125-0.54688 0.59375 0.17578 0.16406 0.39453 0.25 0.65625 0.25 0.55078 0 1.0078-0.40234 1.375-1.2031 0.0625-0.125 0.14062-0.30469 0.23438-0.53125 0.125-0.28125 0.23828-0.55859 0.34375-0.82812l-2.0938-5.1094c-0.11719-0.26953-0.29688-0.42578-0.54688-0.46875-0.17969-0.007813-0.375-0.015625-0.59375-0.015625v-0.4375c0.41406 0.03125 0.86719 0.046875 1.3594 0.046875 0.28906 0 0.80078-0.015625 1.5312-0.046875v0.4375c-0.53125 0-0.79688 0.12109-0.79688 0.35938 0 0.03125 0.03125 0.11719 0.09375 0.25l1.5469 3.7656 1.4219-3.4375c0.050781-0.13281 0.078125-0.25 0.078125-0.34375 0-0.35156-0.19531-0.55078-0.57812-0.59375h-0.078125v-0.4375c0.61328 0.03125 1.0195 0.046875 1.2188 0.046875 0.38281 0 0.73438-0.015625 1.0469-0.046875v0.4375c-0.625 0-1.0586 0.29688-1.2969 0.89062z"/>
</symbol>
<symbol id="d" overflow="visible">
<path d="m2.4844-6.1875v5.1406c0 0.29297 0.050781 0.46875 0.15625 0.53125 0.11328 0.054687 0.38281 0.078125 0.8125 0.078125v0.4375c-0.94922-0.03125-1.4336-0.046875-1.4531-0.046875-0.125 0-0.63672 0.015625-1.5312 0.046875v-0.4375c0.53906 0 0.85938-0.039062 0.95312-0.125l0.03125-0.03125c0.0625-0.070312 0.09375-0.22656 0.09375-0.46875v-3.7656c0-0.375-0.074219-0.59766-0.21875-0.67188h-0.015625l-0.015625-0.015625c-0.11719-0.050781-0.375-0.078125-0.78125-0.078125v-0.4375zm0.046875-2.4375c0 0.34375-0.15234 0.57422-0.45312 0.6875-0.09375 0.042969-0.1875 0.0625-0.28125 0.0625-0.33594 0-0.5625-0.14844-0.6875-0.45312v-0.015625c-0.042969-0.09375-0.0625-0.1875-0.0625-0.28125 0-0.28906 0.12891-0.50391 0.39062-0.64062 0.10156-0.0625 0.22266-0.09375 0.35938-0.09375 0.3125 0 0.53516 0.13672 0.67188 0.40625 0.039062 0.10547 0.0625 0.21484 0.0625 0.32812z"/>
</symbol>
<symbol id="c" overflow="visible">
<path d="m1.5469-4.8125c0-0.36328-0.074219-0.58594-0.21875-0.67188-0.11719-0.070313-0.3125-0.10938-0.59375-0.10938h-0.28125v-0.4375l1.9688-0.15625v1.4688c0.4375-0.97656 1.1289-1.4688 2.0781-1.4688 0.69531 0 1.1875 0.17188 1.4688 0.51562 0.25 0.29297 0.39062 0.6875 0.42188 1.1875v0.95312 2.6719c0.007813 0.23047 0.14453 0.35938 0.40625 0.39062 0.11328 0.023438 0.34375 0.03125 0.6875 0.03125v0.4375c-0.94922-0.03125-1.4688-0.046875-1.5625-0.046875-0.074219 0-0.60156 0.015625-1.5781 0.046875v-0.4375c0.55078 0 0.875-0.039062 0.96875-0.125l0.015625-0.03125c0.070313-0.070312 0.10938-0.22656 0.10938-0.46875v-3.2656c0-0.92578-0.26562-1.4375-0.79688-1.5312-0.085937-0.007813-0.16797-0.015625-0.25-0.015625-0.5625 0-1.0391 0.24609-1.4219 0.73438-0.3125 0.40625-0.46875 0.90625-0.46875 1.5v2.5781c0 0.3125 0.078125 0.5 0.23438 0.5625 0.10156 0.042969 0.39062 0.0625 0.85938 0.0625v0.4375c-0.94922-0.03125-1.4688-0.046875-1.5625-0.046875-0.074219 0-0.60156 0.015625-1.5781 0.046875v-0.4375c0.55078 0 0.86719-0.039062 0.95312-0.125l0.03125-0.03125c0.070312-0.070312 0.10938-0.22656 0.10938-0.46875z"/>
</symbol>
<symbol id="b" overflow="visible">
<path d="m3.1094-2.4062c0.40625 0 0.73828-0.1875 1-0.5625 0.14453-0.25 0.21875-0.64062 0.21875-1.1719-0.042969-1.125-0.44922-1.6953-1.2188-1.7188-0.41797 0-0.75 0.18359-1 0.54688-0.14844 0.26172-0.21875 0.65625-0.21875 1.1875 0.039063 1.1172 0.44531 1.6875 1.2188 1.7188zm-1.3906-0.10938c-0.15625 0.1875-0.23438 0.40625-0.23438 0.65625 0 0.38672 0.14844 0.66797 0.45312 0.84375 0.09375 0.054687 0.1875 0.085937 0.28125 0.09375 0.070312 0.011719 0.42578 0.015625 1.0625 0.015625 0.95703 0 1.6562 0.085938 2.0938 0.25 0.10156 0.03125 0.20703 0.078125 0.3125 0.14062 0.5625 0.375 0.86328 0.90625 0.90625 1.5938 0 0.60156-0.39062 1.0781-1.1719 1.4219-0.5625 0.25781-1.2109 0.39062-1.9375 0.39062-1.0859 0-1.9297-0.25781-2.5312-0.76562-0.375-0.29297-0.5625-0.63281-0.5625-1.0156 0-0.46875 0.23828-0.85547 0.71875-1.1562 0.16406-0.10156 0.35938-0.1875 0.57812-0.25-0.38672-0.28906-0.59375-0.70703-0.625-1.25 0-0.4375 0.14453-0.82031 0.4375-1.1562-0.41797-0.39453-0.63672-0.875-0.65625-1.4375 0-0.64453 0.28125-1.1719 0.84375-1.5781 0.40625-0.3125 0.87891-0.46875 1.4219-0.46875 0.5625 0 1.0547 0.16797 1.4844 0.5 0.44531-0.4375 0.94141-0.65625 1.4844-0.65625 0.36328 0 0.59375 0.16797 0.6875 0.5 0.019531 0.0625 0.03125 0.125 0.03125 0.1875-0.042969 0.24219-0.17969 0.38281-0.40625 0.42188-0.21094 0-0.34375-0.097656-0.40625-0.29688v-0.10938c0-0.19531 0.070313-0.32031 0.21875-0.375-0.03125-0.007813-0.078125-0.015625-0.14062-0.015625-0.46094 0-0.88281 0.18359-1.2656 0.54688 0.38281 0.35547 0.57812 0.80859 0.57812 1.3594 0 0.64844-0.28125 1.1719-0.84375 1.5781-0.40625 0.30469-0.88281 0.45312-1.4219 0.45312-0.52344 0-0.98438-0.14062-1.3906-0.42188zm1.7812 5.0781c0.88281 0 1.5547-0.23438 2.0156-0.70312 0.22656-0.23047 0.34375-0.48047 0.34375-0.75 0-0.69922-0.54688-1.0898-1.6406-1.1719h-0.015625c-0.24219-0.019531-0.60938-0.03125-1.1094-0.03125h-0.82812c-0.4375 0.023438-0.76562 0.22656-0.98438 0.625-0.10547 0.17578-0.15625 0.36719-0.15625 0.57812 0 0.4375 0.26953 0.80078 0.8125 1.0938 0.4375 0.23828 0.95703 0.35938 1.5625 0.35938z"/>
</symbol>
</defs>
<g>
<rect width="131" height="55" fill="#fff"/>
<g>
<use x="10" y="11.933594" xlink:href="#o"/>
</g>
<g>
<use x="24" y="15.714844" xlink:href="#n"/>
</g>
<g>
<use x="31.621094" y="15.714844" xlink:href="#m"/>
</g>
<g>
<use x="17.777344" y="43.535156" xlink:href="#l"/>
</g>
<g>
<use x="23.660156" y="43.535156" xlink:href="#k"/>
</g>
<g>
<use x="28.410156" y="43.535156" xlink:href="#j"/>
</g>
<g>
<use x="47.367188" y="30.988281" xlink:href="#i"/>
</g>
<g>
<use x="58.253906" y="30.988281" xlink:href="#a"/>
</g>
<g>
<use x="64.476563" y="30.988281" xlink:href="#a"/>
</g>
<g>
<use x="70.699219" y="30.988281" xlink:href="#h"/>
</g>
<g>
<use x="83.144531" y="30.988281" xlink:href="#g"/>
</g>
<g>
<use x="88.589844" y="30.988281" xlink:href="#f"/>
</g>
<g>
<use x="94.074219" y="30.988281" xlink:href="#e"/>
</g>
<g>
<use x="101.460938" y="30.988281" xlink:href="#d"/>
</g>
<g>
<use x="105.351563" y="30.988281" xlink:href="#c"/>
</g>
<g>
<use x="113.128906" y="30.988281" xlink:href="#b"/>
</g>
</g>
</svg>
