<?xml version="1.0" encoding="UTF-8"?>
<svg width="184pt" height="46pt" version="1.1" viewBox="0 0 184 46" xmlns="http://www.w3.org/2000/svg" xmlns:xlink="http://www.w3.org/1999/xlink">
<defs>
<symbol id="l" overflow="visible">
<path d="m2.9062-3.5156c0.66406 0.13672 1.1445 0.46094 1.4375 0.96875 0.14453 0.26172 0.21875 0.54297 0.21875 0.84375 0 0.5625-0.23047 1.0391-0.6875 1.4219-0.40625 0.33203-0.88672 0.5-1.4375 0.5-0.65625 0-1.1875-0.19922-1.5938-0.59375-0.28125-0.28125-0.42188-0.60156-0.42188-0.96875 0-0.3125 0.14062-0.5 0.42188-0.5625 0.039062-0.019531 0.085938-0.03125 0.14062-0.03125 0.25 0 0.41406 0.10938 0.5 0.32812 0.03125 0.085937 0.050781 0.16406 0.0625 0.23438 0 0.27344-0.12109 0.44922-0.35938 0.53125-0.09375 0.03125-0.19922 0.042969-0.3125 0.03125 0.25 0.40625 0.67578 0.65234 1.2812 0.73438 0.09375 0.011719 0.17578 0.015625 0.25 0.015625 0.42578 0 0.73828-0.20703 0.9375-0.625 0.13281-0.26953 0.20312-0.60938 0.20312-1.0156 0-0.89453-0.27344-1.4297-0.8125-1.6094-0.11719-0.039062-0.24609-0.0625-0.39062-0.0625h-0.4375c-0.14844 0-0.22656-0.035156-0.23438-0.10938 0-0.0625 0.046875-0.097656 0.14062-0.10938 0.10156 0 0.23438-0.007812 0.39062-0.03125 0.34375-0.019531 0.61328-0.14844 0.8125-0.39062v-0.03125h0.03125l0.046875-0.10938c0.1875-0.3125 0.28125-0.69141 0.28125-1.1406 0-0.61328-0.24219-0.97266-0.71875-1.0781-0.074219-0.019531-0.15234-0.03125-0.23438-0.03125-0.46875 0-0.85156 0.13281-1.1406 0.39062-0.074219 0.074219-0.13672 0.14844-0.1875 0.21875 0.40625 0 0.60938 0.16797 0.60938 0.5 0 0.24219-0.10156 0.40234-0.29688 0.48438-0.0625 0.023438-0.13281 0.03125-0.20312 0.03125-0.26172 0-0.42969-0.11328-0.5-0.34375v-0.015625c-0.011719-0.050781-0.015625-0.10156-0.015625-0.15625 0-0.44531 0.21875-0.80469 0.65625-1.0781 0.32031-0.1875 0.69141-0.28125 1.1094-0.28125 0.61328 0 1.1094 0.17969 1.4844 0.53125l0.015625 0.03125c0.22656 0.24219 0.34375 0.51172 0.34375 0.8125 0 0.55469-0.23438 1.0156-0.70312 1.3906-0.21094 0.15625-0.4375 0.28125-0.6875 0.375z"/>
</symbol>
<symbol id="k" overflow="visible">
<path d="m8.4844 23.203-4.5156-10.5-1.4062 1.0781-0.35938-0.35938 2.8594-2.2188 4.2188 9.8125 10.375-21.625c0.0625-0.125 0.17578-0.1875 0.34375-0.1875 0.11328 0 0.20703 0.042969 0.28125 0.125 0.082031 0.074219 0.125 0.16406 0.125 0.26562 0 0.074219-0.011719 0.12109-0.03125 0.14062l-11.156 23.281c-0.054688 0.125-0.15234 0.1875-0.29688 0.1875z"/>
</symbol>
<symbol id="j" overflow="visible">
<path d="m6.625 4.7969c0 0.13281-0.070312 0.20312-0.20312 0.20312-0.15625 0-0.51172-0.27344-1.0625-0.8125-0.82422-0.83594-1.5117-1.8203-2.0625-2.9531-0.875-1.8125-1.3125-3.8906-1.3125-6.2344 0-2.25 0.41406-4.2812 1.25-6.0938 0.69531-1.4766 1.5781-2.6641 2.6406-3.5625 0.28125-0.22656 0.46094-0.34375 0.54688-0.34375 0.13281 0 0.20312 0.070312 0.20312 0.20312 0 0.0625-0.089844 0.17969-0.26562 0.34375-2.1484 2.1797-3.2188 5.3281-3.2188 9.4531 0 4.1055 1.0469 7.2227 3.1406 9.3594 0.22656 0.22656 0.34375 0.375 0.34375 0.4375z"/>
</symbol>
<symbol id="i" overflow="visible">
<path d="m5.7812-5c0 2.25-0.42188 4.2812-1.2656 6.0938-0.6875 1.4766-1.5703 2.6641-2.6406 3.5625-0.28125 0.22656-0.46094 0.34375-0.53125 0.34375-0.13672 0-0.20312-0.070312-0.20312-0.20312 0-0.0625 0.085937-0.17969 0.26562-0.34375 2.1445-2.1797 3.2188-5.3281 3.2188-9.4531 0-4.0625-1-7.1406-3-9.2344l-0.10938-0.10938c-0.25-0.23828-0.375-0.39062-0.375-0.45312 0-0.13281 0.066406-0.20312 0.20312-0.20312 0.15625 0 0.50781 0.27344 1.0625 0.8125 0.82031 0.83594 1.5039 1.8203 2.0469 2.9531 0.88281 1.8125 1.3281 3.8906 1.3281 6.2344z"/>
</symbol>
<symbol id="h" overflow="visible">
<path d="m6.6875-6.0469-0.6875 2.75c-0.23047 0.90625-0.34375 1.4922-0.34375 1.75 0 0.69922 0.25 1.1211 0.75 1.2656 0.10156 0.042969 0.22266 0.0625 0.35938 0.0625 0.66406 0 1.2695-0.33203 1.8125-1 0.36328-0.42578 0.64453-0.96875 0.84375-1.625 0.039063-0.14453 0.12891-0.21875 0.26562-0.21875 0.15625 0 0.23438 0.070312 0.23438 0.20312 0 0.33594-0.21094 0.8125-0.625 1.4375-0.71875 1.0938-1.5781 1.6406-2.5781 1.6406-0.90625 0-1.5703-0.37891-1.9844-1.1406-0.074219-0.11328-0.13281-0.23828-0.17188-0.375-0.32422 0.63672-0.76562 1.0859-1.3281 1.3438-0.25 0.11328-0.51172 0.17188-0.78125 0.17188-0.79297 0-1.3516-0.23438-1.6719-0.70312-0.13672-0.16406-0.20312-0.36719-0.20312-0.60938 0-0.5 0.21094-0.84766 0.64062-1.0469 0.14453-0.082031 0.30078-0.125 0.46875-0.125 0.39453 0 0.63281 0.16797 0.71875 0.5 0.007812 0.074219 0.015625 0.14062 0.015625 0.20312 0 0.46094-0.23047 0.79297-0.6875 1-0.074219 0.042969-0.15625 0.070312-0.25 0.078125 0.28125 0.17969 0.61328 0.26562 1 0.26562 0.70703 0 1.2656-0.47266 1.6719-1.4219 0.082031-0.19531 0.15625-0.41406 0.21875-0.65625 0.71875-2.7188 1.0781-4.3047 1.0781-4.7656-0.074219-0.82031-0.43359-1.2695-1.0781-1.3438-0.6875 0-1.3203 0.35547-1.8906 1.0625v0.03125c0 0.011719-0.011719 0.015625-0.03125 0.015625-0.19922 0.26172-0.375 0.57031-0.53125 0.92188-0.074219 0.15625-0.13672 0.3125-0.1875 0.46875l-0.03125 0.125c-0.03125 0.14844-0.12109 0.21875-0.26562 0.21875-0.15625 0-0.23438-0.066406-0.23438-0.20312 0-0.33203 0.21094-0.8125 0.64062-1.4375 0.71875-1.0938 1.5781-1.6406 2.5781-1.6406 1.0195 0 1.7383 0.51172 2.1562 1.5312 0.42578-0.83203 0.99219-1.3281 1.7031-1.4844 0.13281-0.03125 0.26953-0.046875 0.40625-0.046875 0.78125 0 1.332 0.21875 1.6562 0.65625 0.13281 0.1875 0.20312 0.41406 0.20312 0.67188 0 0.54297-0.25 0.90625-0.75 1.0938-0.11719 0.042969-0.23047 0.0625-0.34375 0.0625-0.40625 0-0.65234-0.17969-0.73438-0.54688-0.011719-0.050781-0.015625-0.10156-0.015625-0.15625 0-0.39453 0.19141-0.70703 0.57812-0.9375 0.11328-0.0625 0.23828-0.10938 0.375-0.14062-0.28125-0.17578-0.61719-0.26562-1-0.26562-0.90625 0-1.5469 0.71094-1.9219 2.125-0.023437 0.085938-0.039063 0.16406-0.046875 0.23438z"/>
</symbol>
<symbol id="g" overflow="visible">
<path d="m9.7188-7.625-1.9219 7.6406c-0.32422 1.3125-1.0391 2.375-2.1406 3.1875-0.8125 0.59375-1.6562 0.89062-2.5312 0.89062-0.89844 0-1.5312-0.30469-1.9062-0.90625-0.14844-0.26172-0.21875-0.53906-0.21875-0.82812 0-0.67969 0.26953-1.1016 0.8125-1.2656 0.11328-0.023438 0.21875-0.03125 0.3125-0.03125 0.42578 0 0.66406 0.1875 0.71875 0.5625 0.007812 0.039062 0.015625 0.085938 0.015625 0.14062 0 0.30078-0.13672 0.57031-0.40625 0.8125-0.17969 0.15625-0.46484 0.23438-0.85938 0.23438 0.23828 0.5625 0.75 0.84375 1.5312 0.84375 0.82031 0 1.5508-0.41797 2.1875-1.25 0.51953-0.69922 0.9375-1.6406 1.25-2.8281 0.007812-0.050781 0.03125-0.14062 0.0625-0.26562-0.60547 0.60547-1.2812 0.90625-2.0312 0.90625-1.0625 0-1.7891-0.39062-2.1719-1.1719-0.17969-0.35156-0.26562-0.75391-0.26562-1.2031 0-0.73828 0.35156-2.0508 1.0625-3.9375 0.03125-0.082031 0.0625-0.17188 0.09375-0.26562 0.22656-0.61328 0.34375-1.082 0.34375-1.4062 0-0.42578-0.16797-0.64062-0.5-0.64062-0.73047 0-1.3281 0.60938-1.7969 1.8281v0.015625c-0.085937 0.19922-0.15625 0.41406-0.21875 0.64062-0.14844 0.23047-0.25781 0.35156-0.32812 0.35938-0.15625 0-0.23438-0.066406-0.23438-0.20312 0-0.23828 0.14062-0.65625 0.42188-1.25 0.58203-1.2188 1.3203-1.8281 2.2188-1.8281 0.70703 0 1.2031 0.30469 1.4844 0.90625 0.10156 0.23047 0.15625 0.47656 0.15625 0.73438 0 0.28125-0.13672 0.76172-0.40625 1.4375-0.67969 1.7617-1.0156 3.0703-1.0156 3.9219 0 1.0859 0.41406 1.625 1.25 1.625 0.76953 0 1.4414-0.41016 2.0156-1.2344 0.13281-0.20703 0.21094-0.36328 0.23438-0.46875l0.90625-3.5938c0.09375-0.44531 0.22266-0.98438 0.39062-1.6094 0.13281-0.57031 0.22656-0.92969 0.28125-1.0781 0.17578-0.28125 0.41016-0.42188 0.70312-0.42188 0.33203 0.074219 0.52344 0.25781 0.57812 0.54688 0 0.11719-0.027344 0.26562-0.078125 0.45312z"/>
</symbol>
<symbol id="f" overflow="visible">
<path d="m13.219-4.5938h-10.906c-0.41797 0-0.63672-0.13281-0.65625-0.40625 0-0.26953 0.21875-0.40625 0.65625-0.40625h10.906c0.42578 0 0.64453 0.13672 0.65625 0.40625 0 0.27344-0.21875 0.40625-0.65625 0.40625z"/>
</symbol>
<symbol id="e" overflow="visible">
<path d="m4.0625-4.9219c0.92578 0.1875 1.5977 0.64062 2.0156 1.3594 0.20703 0.36719 0.3125 0.75781 0.3125 1.1719 0 0.79297-0.32422 1.4609-0.96875 2-0.57422 0.46875-1.2422 0.70312-2 0.70312-0.92969 0-1.6719-0.27734-2.2344-0.82812-0.39844-0.39453-0.59375-0.85156-0.59375-1.375 0-0.4375 0.19141-0.69531 0.57812-0.78125 0.070313-0.019531 0.14062-0.03125 0.20312-0.03125 0.35156 0 0.59375 0.15234 0.71875 0.45312 0.03125 0.11719 0.050781 0.22656 0.0625 0.32812 0 0.375-0.16797 0.62109-0.5 0.73438-0.13672 0.042969-0.27734 0.058594-0.42188 0.046875 0.34375 0.57422 0.94141 0.91797 1.7969 1.0312 0.11328 0.023438 0.22656 0.03125 0.34375 0.03125 0.59375 0 1.0312-0.29688 1.3125-0.89062 0.17578-0.375 0.26562-0.84766 0.26562-1.4219 0-1.2383-0.37109-1.9883-1.1094-2.25-0.17969-0.050781-0.35938-0.078125-0.54688-0.078125h-0.625c-0.21094 0-0.32031-0.050781-0.32812-0.15625 0-0.09375 0.066406-0.14844 0.20312-0.17188 0.14453 0 0.32812-0.007813 0.54688-0.03125 0.47656-0.019531 0.85156-0.20312 1.125-0.54688v-0.015625l0.015625-0.015625v-0.015625h0.015625l0.09375-0.14062c0.25781-0.4375 0.39062-0.96875 0.39062-1.5938 0-0.86328-0.33984-1.375-1.0156-1.5312-0.10547-0.019531-0.21484-0.03125-0.32812-0.03125-0.65625 0-1.1875 0.1875-1.5938 0.5625-0.10547 0.085938-0.19531 0.18359-0.26562 0.29688 0.57031 0 0.85938 0.23438 0.85938 0.70312 0 0.33594-0.14844 0.55859-0.4375 0.67188-0.085937 0.03125-0.17188 0.046875-0.26562 0.046875-0.36719 0-0.59375-0.16406-0.6875-0.5v-0.015625c-0.023438-0.070313-0.03125-0.14453-0.03125-0.21875 0-0.625 0.30469-1.125 0.92188-1.5 0.44531-0.26953 0.96094-0.40625 1.5469-0.40625 0.85156 0 1.5391 0.25781 2.0625 0.76562l0.03125 0.015625c0.32031 0.34375 0.48438 0.73047 0.48438 1.1562 0 0.77344-0.32812 1.418-0.98438 1.9375-0.29297 0.23047-0.61719 0.40625-0.96875 0.53125z"/>
</symbol>
<symbol id="d" overflow="visible">
<path d="m13.734-6.5469h-11.938c-0.42969 0-0.65234-0.12891-0.67188-0.39062 0-0.26953 0.21875-0.40625 0.65625-0.40625h11.984c0.42578 0 0.64453 0.13672 0.65625 0.40625 0 0.26172-0.23047 0.39062-0.6875 0.39062zm0.03125 3.8906h-11.984c-0.42969 0-0.64844-0.13281-0.65625-0.40625 0-0.25781 0.22266-0.39062 0.67188-0.39062h11.938c0.42578 0 0.65625 0.13281 0.6875 0.39062 0 0.27344-0.21875 0.40625-0.65625 0.40625z"/>
</symbol>
<symbol id="c" overflow="visible">
<path d="m6.6875-6.0469-0.6875 2.75c-0.23047 0.90625-0.34375 1.4922-0.34375 1.75 0 0.69922 0.25 1.1211 0.75 1.2656 0.10156 0.042969 0.22266 0.0625 0.35938 0.0625 0.66406 0 1.2695-0.33203 1.8125-1 0.36328-0.42578 0.64453-0.96875 0.84375-1.625 0.039063-0.14453 0.12891-0.21875 0.26562-0.21875 0.15625 0 0.23438 0.070312 0.23438 0.20312 0 0.33594-0.21094 0.8125-0.625 1.4375-0.71875 1.0938-1.5781 1.6406-2.5781 1.6406-0.90625 0-1.5703-0.37891-1.9844-1.1406-0.074219-0.11328-0.13281-0.23828-0.17188-0.375-0.32422 0.63672-0.76562 1.0859-1.3281 1.3438-0.25 0.11328-0.51172 0.17188-0.78125 0.17188-0.79297 0-1.3516-0.23438-1.6719-0.70312-0.13672-0.16406-0.20312-0.36719-0.20312-0.60938 0-0.5 0.21094-0.84766 0.64062-1.0469 0.14453-0.082031 0.30078-0.125 0.46875-0.125 0.39453 0 0.63281 0.16797 0.71875 0.5 0.007812 0.074219 0.015625 0.14062 0.015625 0.20312 0 0.46094-0.23047 0.79297-0.6875 1-0.074219 0.042969-0.15625 0.070312-0.25 0.078125 0.28125 0.17969 0.61328 0.26562 1 0.26562 0.70703 0 1.2656-0.47266 1.6719-1.4219 0.082031-0.19531 0.15625-0.41406 0.21875-0.65625 0.71875-2.7188 1.0781-4.3047 1.0781-4.7656-0.074219-0.82031-0.43359-1.2695-1.0781-1.3438-0.6875 0-1.3203 0.35547-1.8906 1.0625v0.03125c0 0.011719-0.011719 0.015625-0.03125 0.015625-0.19922 0.26172-0.375 0.57031-0.53125 0.92188-0.074219 0.15625-0.13672 0.3125-0.1875 0.46875l-0.03125 0.125c-0.03125 0.14844-0.12109 0.21875-0.26562 0.21875-0.15625 0-0.23438-0.066406-0.23438-0.20312 0-0.33203 0.21094-0.8125 0.64062-1.4375 0.71875-1.0938 1.5781-1.6406 2.5781-1.6406 1.0195 0 1.7383 0.51172 2.1562 1.5312 0.42578-0.83203 0.99219-1.3281 1.7031-1.4844 0.13281-0.03125 0.26953-0.046875 0.40625-0.046875 0.78125 0 1.332 0.21875 1.6562 0.65625 0.13281 0.1875 0.20312 0.41406 0.20312 0.67188 0 0.54297-0.25 0.90625-0.75 1.0938-0.11719 0.042969-0.23047 0.0625-0.34375 0.0625-0.40625 0-0.65234-0.17969-0.73438-0.54688-0.011719-0.050781-0.015625-0.10156-0.015625-0.15625 0-0.39453 0.19141-0.70703 0.57812-0.9375 0.11328-0.0625 0.23828-0.10938 0.375-0.14062-0.28125-0.17578-0.61719-0.26562-1-0.26562-0.90625 0-1.5469 0.71094-1.9219 2.125-0.023437 0.085938-0.039063 0.16406-0.046875 0.23438z"/>
</symbol>
<symbol id="b" overflow="visible">
<path d="m9.7188-7.625-1.9219 7.6406c-0.32422 1.3125-1.0391 2.375-2.1406 3.1875-0.8125 0.59375-1.6562 0.89062-2.5312 0.89062-0.89844 0-1.5312-0.30469-1.9062-0.90625-0.14844-0.26172-0.21875-0.53906-0.21875-0.82812 0-0.67969 0.26953-1.1016 0.8125-1.2656 0.11328-0.023438 0.21875-0.03125 0.3125-0.03125 0.42578 0 0.66406 0.1875 0.71875 0.5625 0.007812 0.039062 0.015625 0.085938 0.015625 0.14062 0 0.30078-0.13672 0.57031-0.40625 0.8125-0.17969 0.15625-0.46484 0.23438-0.85938 0.23438 0.23828 0.5625 0.75 0.84375 1.5312 0.84375 0.82031 0 1.5508-0.41797 2.1875-1.25 0.51953-0.69922 0.9375-1.6406 1.25-2.8281 0.007812-0.050781 0.03125-0.14062 0.0625-0.26562-0.60547 0.60547-1.2812 0.90625-2.0312 0.90625-1.0625 0-1.7891-0.39062-2.1719-1.1719-0.17969-0.35156-0.26562-0.75391-0.26562-1.2031 0-0.73828 0.35156-2.0508 1.0625-3.9375 0.03125-0.082031 0.0625-0.17188 0.09375-0.26562 0.22656-0.61328 0.34375-1.082 0.34375-1.4062 0-0.42578-0.16797-0.64062-0.5-0.64062-0.73047 0-1.3281 0.60938-1.7969 1.8281v0.015625c-0.085937 0.19922-0.15625 0.41406-0.21875 0.64062-0.14844 0.23047-0.25781 0.35156-0.32812 0.35938-0.15625 0-0.23438-0.066406-0.23438-0.20312 0-0.23828 0.14062-0.65625 0.42188-1.25 0.58203-1.2188 1.3203-1.8281 2.2188-1.8281 0.70703 0 1.2031 0.30469 1.4844 0.90625 0.10156 0.23047 0.15625 0.47656 0.15625 0.73438 0 0.28125-0.13672 0.76172-0.40625 1.4375-0.67969 1.7617-1.0156 3.0703-1.0156 3.9219 0 1.0859 0.41406 1.625 1.25 1.625 0.76953 0 1.4414-0.41016 2.0156-1.2344 0.13281-0.20703 0.21094-0.36328 0.23438-0.46875l0.90625-3.5938c0.09375-0.44531 0.22266-0.98438 0.39062-1.6094 0.13281-0.57031 0.22656-0.92969 0.28125-1.0781 0.17578-0.28125 0.41016-0.42188 0.70312-0.42188 0.33203 0.074219 0.52344 0.25781 0.57812 0.54688 0 0.11719-0.027344 0.26562-0.078125 0.45312z"/>
</symbol>
<symbol id="a" overflow="visible">
<path d="m13.219-4.5938h-10.906c-0.41797 0-0.63672-0.13281-0.65625-0.40625 0-0.26953 0.21875-0.40625 0.65625-0.40625h10.906c0.42578 0 0.64453 0.13672 0.65625 0.40625 0 0.27344-0.21875 0.40625-0.65625 0.40625z"/>
</symbol>
</defs>
<rect width="184" height="46" fill="#fff"/>
<g>
<use x="16.109375" y="21.160156" xlink:href="#l"/>
</g>
<g>
<use x="10" y="11.601562" xlink:href="#k"/>
</g>
<path transform="scale(20)" d="m1.5 0.55996h3.5283" fill="none" stroke="#000" stroke-linejoin="bevel" stroke-miterlimit="0" stroke-width=".039999"/>
<g>
<use x="30" y="29.675781" xlink:href="#j"/>
</g>
<g>
<use x="37.777344" y="29.675781" xlink:href="#h"/>
</g>
<g>
<use x="53.652344" y="29.675781" xlink:href="#f"/>
</g>
<g>
<use x="73.652344" y="29.675781" xlink:href="#g"/>
</g>
<g>
<use x="84.175781" y="29.675781" xlink:href="#i"/>
</g>
<g>
<use x="91.953125" y="23.898438" xlink:href="#e"/>
</g>
<g>
<use x="106.121094" y="29.675781" xlink:href="#d"/>
</g>
<g>
<use x="127.230469" y="29.675781" xlink:href="#c"/>
</g>
<g>
<use x="143.105469" y="29.675781" xlink:href="#a"/>
</g>
<g>
<use x="163.105469" y="29.675781" xlink:href="#b"/>
</g>
</svg>
