<?xml version="1.0" encoding="UTF-8"?>
<svg width="499pt" height="71pt" version="1.1" viewBox="0 0 499 71" xmlns="http://www.w3.org/2000/svg" xmlns:xlink="http://www.w3.org/1999/xlink">
<defs>
<symbol id="ar" overflow="visible">
<path d="m12.719-8.1875-2.6719 8.2188c-0.10547 0.16406-0.19922 0.25781-0.28125 0.28125-0.11719 0-0.20312-0.089844-0.26562-0.26562l-2.3125-7.125-2.3125 7.1094c-0.10547 0.16406-0.19922 0.25781-0.28125 0.28125-0.125 0-0.21484-0.089844-0.26562-0.26562l-2.7969-8.5938c-0.085938-0.26953-0.1875-0.42969-0.3125-0.48438-0.13672-0.0625-0.46094-0.09375-0.96875-0.09375v-0.4375c1.1445 0.03125 1.7109 0.046875 1.7031 0.046875 0.98828 0 1.6562-0.015625 2-0.046875v0.4375c-0.79297 0-1.1875 0.14062-1.1875 0.42188 0 0.0625 0.007813 0.12109 0.03125 0.17188l2.25 6.8906 1.9531-6-0.3125-0.98438c-0.09375-0.26953-0.26562-0.42578-0.51562-0.46875-0.125-0.019531-0.37109-0.03125-0.73438-0.03125v-0.4375c1.1445 0.03125 1.7109 0.046875 1.7031 0.046875 0.98828 0 1.6484-0.015625 1.9844-0.046875v0.4375c-0.78125 0-1.1719 0.14062-1.1719 0.42188 0 0.023437 0.015625 0.089844 0.046875 0.20312l2.2344 6.8594 2.0938-6.4688c0.050781-0.13281 0.078125-0.22656 0.078125-0.28125 0-0.25-0.15625-0.44141-0.46875-0.57812-0.19922-0.10156-0.44922-0.15625-0.75-0.15625v-0.4375c0.72656 0.03125 1.2852 0.046875 1.6719 0.046875 0.42578 0 0.84766-0.015625 1.2656-0.046875v0.4375c-0.74219 0-1.2109 0.3125-1.4062 0.9375z"/>
</symbol>
<symbol id="m" overflow="visible">
<path d="m6.3906-3.5312v2.6719c0.007813 0.23047 0.14453 0.35938 0.40625 0.39062 0.11328 0.023438 0.34375 0.03125 0.6875 0.03125v0.4375c-0.94922-0.03125-1.4688-0.046875-1.5625-0.046875-0.074219 0-0.60156 0.015625-1.5781 0.046875v-0.4375c0.55078 0 0.875-0.039062 0.96875-0.125l0.015625-0.03125c0.070313-0.070312 0.10938-0.22656 0.10938-0.46875v-3.2656c0-0.92578-0.26562-1.4375-0.79688-1.5312-0.085937-0.007813-0.16797-0.015625-0.25-0.015625-0.5625 0-1.0391 0.24609-1.4219 0.73438-0.3125 0.40625-0.46875 0.90625-0.46875 1.5v2.5781c0 0.3125 0.078125 0.5 0.23438 0.5625 0.10156 0.042969 0.39062 0.0625 0.85938 0.0625v0.4375c-0.94922-0.03125-1.4688-0.046875-1.5625-0.046875-0.074219 0-0.60156 0.015625-1.5781 0.046875v-0.4375c0.55078 0 0.86719-0.039062 0.95312-0.125l0.03125-0.03125c0.070312-0.070312 0.10938-0.22656 0.10938-0.46875v-7.2812c0-0.36328-0.070313-0.58594-0.20312-0.67188h-0.015625c-0.10547-0.050781-0.28125-0.085937-0.53125-0.10938h-0.34375v-0.4375l2.0156-0.15625v4.875h0.015625c0.25-0.57031 0.64844-0.96875 1.2031-1.1875 0.28125-0.09375 0.55078-0.14453 0.8125-0.15625 0.69531 0 1.1875 0.17188 1.4688 0.51562 0.25 0.29297 0.39062 0.6875 0.42188 1.1875v0.95312z"/>
</symbol>
<symbol id="b" overflow="visible">
<path d="m4.6562-1.0625c-0.23047 0.57422-0.63672 0.94922-1.2188 1.125-0.1875 0.0625-0.39062 0.09375-0.60938 0.09375-0.79297 0-1.4023-0.19141-1.8281-0.57812-0.27344-0.23828-0.40625-0.53906-0.40625-0.90625 0-0.71875 0.39453-1.2891 1.1875-1.7188 0.0625-0.039063 0.12891-0.078125 0.20312-0.10938 0.57031-0.26953 1.4102-0.4375 2.5156-0.5h0.0625v-0.51562c0-0.78906-0.28906-1.3359-0.85938-1.6406-0.1875-0.10156-0.39844-0.15625-0.625-0.15625-0.61719 0-1.0898 0.18359-1.4219 0.54688-0.03125 0.042969-0.0625 0.078125-0.09375 0.10938 0.4375 0.054688 0.67578 0.26562 0.71875 0.64062 0 0.3125-0.14844 0.51562-0.4375 0.60938-0.0625 0.023438-0.13281 0.03125-0.20312 0.03125-0.33594 0-0.54297-0.15625-0.625-0.46875-0.011719-0.039062-0.015625-0.10156-0.015625-0.1875 0-0.5625 0.28906-0.99219 0.875-1.2969 0.36328-0.1875 0.77344-0.28125 1.2344-0.28125 0.75781 0 1.3984 0.25781 1.9219 0.76562 0.32031 0.33594 0.48828 0.79688 0.5 1.3906v3.0625c0 0.27344 0.082031 0.46875 0.25 0.59375 0.070312 0.074219 0.16016 0.10938 0.26562 0.10938 0.32031 0 0.48828-0.30078 0.5-0.90625v-0.78125h0.35938v0.78125c0 0.6875-0.28125 1.1172-0.84375 1.2812-0.11719 0.03125-0.21875 0.046875-0.3125 0.046875-0.46094 0-0.78125-0.23828-0.96875-0.71875-0.0625-0.13281-0.10547-0.27344-0.125-0.42188zm-0.09375-2.2969c-1.4375 0.054687-2.3555 0.49219-2.75 1.3125-0.09375 0.23047-0.14062 0.46484-0.14062 0.70312 0 0.48047 0.21094 0.82812 0.64062 1.0469 0.1875 0.09375 0.39062 0.14062 0.60938 0.14062 0.48828 0 0.89453-0.19141 1.2188-0.57812 0.28125-0.3125 0.42188-0.71875 0.42188-1.2188z"/>
</symbol>
<symbol id="c" overflow="visible">
<path d="m2.4219-5.5938v3.8906c0 0.92969 0.26953 1.4297 0.8125 1.5h0.125c0.40625 0 0.6875-0.25781 0.84375-0.78125 0.0625-0.21875 0.09375-0.47656 0.09375-0.78125v-0.76562h0.34375v0.79688c0 0.76172-0.21484 1.3125-0.64062 1.6562-0.19922 0.15625-0.44531 0.23438-0.73438 0.23438-0.78125 0-1.3203-0.29688-1.6094-0.89062-0.13672-0.26953-0.20312-0.60156-0.20312-1v-3.8594h-1.1875v-0.3125c0.83203-0.039062 1.3828-0.5625 1.6562-1.5625 0.09375-0.36328 0.14453-0.74219 0.15625-1.1406h0.34375v2.5781h2v0.4375z"/>
</symbol>
<symbol id="i" overflow="visible">
<path d="m2.4844-6.1875v5.1406c0 0.29297 0.050781 0.46875 0.15625 0.53125 0.11328 0.054687 0.38281 0.078125 0.8125 0.078125v0.4375c-0.94922-0.03125-1.4336-0.046875-1.4531-0.046875-0.125 0-0.63672 0.015625-1.5312 0.046875v-0.4375c0.53906 0 0.85938-0.039062 0.95312-0.125l0.03125-0.03125c0.0625-0.070312 0.09375-0.22656 0.09375-0.46875v-3.7656c0-0.375-0.074219-0.59766-0.21875-0.67188h-0.015625l-0.015625-0.015625c-0.11719-0.050781-0.375-0.078125-0.78125-0.078125v-0.4375zm0.046875-2.4375c0 0.34375-0.15234 0.57422-0.45312 0.6875-0.09375 0.042969-0.1875 0.0625-0.28125 0.0625-0.33594 0-0.5625-0.14844-0.6875-0.45312v-0.015625c-0.042969-0.09375-0.0625-0.1875-0.0625-0.28125 0-0.28906 0.12891-0.50391 0.39062-0.64062 0.10156-0.0625 0.22266-0.09375 0.35938-0.09375 0.3125 0 0.53516 0.13672 0.67188 0.40625 0.039062 0.10547 0.0625 0.21484 0.0625 0.32812z"/>
</symbol>
<symbol id="h" overflow="visible">
<path d="m2.9062-2.7188c-0.80469-0.15625-1.3281-0.30469-1.5781-0.45312-0.09375-0.050781-0.18359-0.11328-0.26562-0.1875-0.39844-0.32031-0.59375-0.71875-0.59375-1.1875 0-0.65625 0.28516-1.1328 0.85938-1.4375 0.36328-0.1875 0.82031-0.28125 1.375-0.28125 0.51953 0 0.95703 0.13281 1.3125 0.39062 0.10156-0.082031 0.17969-0.16016 0.23438-0.23438 0.125-0.10156 0.21875-0.15625 0.28125-0.15625 0.09375 0.085937 0.14453 0.19531 0.15625 0.32812v1.4219c0 0.1875-0.027344 0.29297-0.078125 0.3125h-0.015625l-0.015625 0.015625h-0.0625c-0.10547 0-0.16406-0.039062-0.17188-0.125-0.074219-0.9375-0.46484-1.4883-1.1719-1.6562-0.14844-0.019531-0.30469-0.03125-0.46875-0.03125-0.875 0-1.3906 0.27344-1.5469 0.8125-0.011719 0.085938-0.015625 0.16797-0.015625 0.25 0 0.46875 0.35938 0.80469 1.0781 1 0.13281 0.042969 0.34766 0.089844 0.64062 0.14062 0.66406 0.13672 1.1445 0.32031 1.4375 0.54688 0.050781 0.042969 0.10156 0.085938 0.15625 0.125 0.39453 0.39844 0.59375 0.83984 0.59375 1.3281 0 0.79297-0.32812 1.3555-0.98438 1.6875-0.35547 0.17578-0.78125 0.26562-1.2812 0.26562-0.60547 0-1.1172-0.20312-1.5312-0.60938l-0.28125 0.32812c-0.1875 0.1875-0.30859 0.28125-0.35938 0.28125-0.09375-0.085938-0.14062-0.19531-0.14062-0.34375v-1.8438c0-0.20703 0.03125-0.31641 0.09375-0.32812l0.015625-0.015625h0.0625c0.09375 0 0.15625 0.054688 0.1875 0.15625 0 0.011719 0.003906 0.039062 0.015625 0.078125 0.23828 1.0859 0.69531 1.7266 1.375 1.9219 0.17578 0.042969 0.36328 0.0625 0.5625 0.0625 0.84375 0 1.3516-0.28906 1.5312-0.875 0.039062-0.125 0.0625-0.25391 0.0625-0.39062 0-0.6875-0.49219-1.1172-1.4688-1.2969z"/>
</symbol>
<symbol id="f" overflow="visible">
<path d="m2.4062-1.0938c0 0.29297 0.054688 0.46875 0.17188 0.53125l0.015625 0.015625c0.125 0.074219 0.41406 0.10938 0.875 0.10938h0.29688v0.4375c-0.375-0.03125-0.96875-0.046875-1.7812-0.046875 0.03125 0-0.5 0.015625-1.5938 0.046875v-0.4375c0.55078 0 0.875-0.039062 0.96875-0.125l0.03125-0.03125c0.0625-0.070312 0.09375-0.22656 0.09375-0.46875v-3.75c0-0.36328-0.070313-0.58594-0.20312-0.67188-0.11719-0.070313-0.32031-0.10938-0.60938-0.10938h-0.28125v-0.4375l1.9531-0.15625v1.5469c0.25-0.78906 0.66016-1.2852 1.2344-1.4844 0.15625-0.039062 0.31641-0.0625 0.48438-0.0625 0.4375 0 0.75 0.16406 0.9375 0.48438 0.0625 0.11719 0.09375 0.24219 0.09375 0.375 0 0.32422-0.15234 0.52344-0.45312 0.59375-0.054687 0.011719-0.10156 0.015625-0.14062 0.015625-0.29297 0-0.48047-0.125-0.5625-0.375-0.03125-0.0625-0.046875-0.13281-0.046875-0.21875 0-0.25781 0.10938-0.44141 0.32812-0.54688-0.023438-0.007813-0.074219-0.015625-0.15625-0.015625-0.625 0-1.0898 0.38281-1.3906 1.1406-0.17969 0.4375-0.26562 0.93359-0.26562 1.4844z"/>
</symbol>
<symbol id="a" overflow="visible">
<path d="m5.4531-3.2344h-3.9062c0 0.94922 0.14062 1.6484 0.42188 2.0938 0.44531 0.58594 0.97656 0.89844 1.5938 0.9375 0.63281 0 1.1484-0.25781 1.5469-0.78125 0.13281-0.1875 0.25-0.40625 0.34375-0.65625 0.019531-0.125 0.078125-0.1875 0.17188-0.1875 0.125 0 0.1875 0.054687 0.1875 0.15625 0 0.21094-0.13281 0.49219-0.39062 0.84375-0.38672 0.52344-0.89062 0.83203-1.5156 0.9375-0.13672 0.03125-0.28125 0.046875-0.4375 0.046875-0.875 0-1.6211-0.33594-2.2344-1.0156-0.5625-0.61328-0.84375-1.3516-0.84375-2.2188 0-0.96875 0.33594-1.7695 1.0156-2.4062 0.53906-0.51953 1.1719-0.78125 1.8906-0.78125 1.0625 0 1.8008 0.44922 2.2188 1.3438 0.19531 0.41797 0.29688 0.88281 0.29688 1.3906 0 0.15625-0.03125 0.25-0.09375 0.28125-0.03125 0.011719-0.12109 0.015625-0.26562 0.015625zm-3.8906-0.29688h3.3281c0-0.88281-0.19922-1.5508-0.59375-2-0.26172-0.28906-0.59375-0.4375-1-0.4375-0.46875 0-0.87109 0.21875-1.2031 0.65625-0.32422 0.42969-0.5 1.0234-0.53125 1.7812z"/>
</symbol>
<symbol id="d" overflow="visible">
<path d="m2.4844-9.7188v8.6562c0 0.3125 0.070313 0.5 0.21875 0.5625 0.10156 0.042969 0.39062 0.0625 0.85938 0.0625v0.4375l-1.5469-0.046875c-0.11719 0-0.63281 0.015625-1.5469 0.046875v-0.4375c0.53906 0 0.85938-0.039062 0.95312-0.125l0.03125-0.03125c0.0625-0.070312 0.09375-0.22656 0.09375-0.46875v-7.2812c0-0.36328-0.0625-0.58594-0.1875-0.67188h-0.015625c-0.10547-0.050781-0.28125-0.085937-0.53125-0.10938h-0.34375v-0.4375z"/>
</symbol>
<symbol id="ab" overflow="visible">
<path d="m3.2969-3.4844v0.48438c0 0.23047-0.042969 0.35547-0.125 0.375h-0.0625c-0.10547 0-0.16406-0.046875-0.17188-0.14062v-0.8125c0-0.96875 0.28516-1.8633 0.85938-2.6875 0.11328-0.16406 0.23828-0.32031 0.375-0.46875 0.25-0.25 0.39844-0.54688 0.45312-0.89062 0.007812-0.13281 0.015625-0.28125 0.015625-0.4375 0-0.57031-0.13281-0.96094-0.39062-1.1719v-0.015625c-0.25-0.20703-0.625-0.3125-1.125-0.3125-0.78125 0-1.3594 0.27344-1.7344 0.8125h-0.015625l-0.09375 0.14062c0.53125 0 0.79688 0.21094 0.79688 0.625 0 0.32422-0.14844 0.53125-0.4375 0.625-0.0625 0.011719-0.13672 0.015625-0.21875 0.015625-0.33594 0-0.53906-0.14844-0.60938-0.45312v-0.015625c-0.023438-0.050781-0.03125-0.11719-0.03125-0.20312 0-0.55078 0.25781-1.0156 0.78125-1.3906 0.4375-0.3125 0.96875-0.46875 1.5938-0.46875 1.3438 0 2.1875 0.41406 2.5312 1.2344 0.082031 0.21094 0.125 0.42969 0.125 0.65625 0 0.5625-0.21094 1.0078-0.625 1.3281-0.011719 0.023438-0.027344 0.039062-0.046875 0.046875-0.88672 0.65625-1.4531 1.3672-1.7031 2.125-0.09375 0.32422-0.14062 0.65625-0.14062 1zm0.54688 2.75c0 0.30469-0.13672 0.52734-0.40625 0.67188-0.10547 0.042969-0.21484 0.0625-0.32812 0.0625-0.3125 0-0.53906-0.14062-0.67188-0.42188-0.054688-0.10156-0.078125-0.20703-0.078125-0.3125 0-0.3125 0.14062-0.53516 0.42188-0.67188 0.10156-0.050781 0.21094-0.078125 0.32812-0.078125 0.30078 0 0.52344 0.14062 0.67188 0.42188 0.039062 0.10547 0.0625 0.21484 0.0625 0.32812z"/>
</symbol>
<symbol id="aq" overflow="visible">
<path d="m8.5781-8.4688v7.375c0 0.28125 0.054687 0.46094 0.17188 0.53125 0.13281 0.085938 0.44531 0.125 0.9375 0.125h0.34375v0.4375c-0.33594-0.03125-1.0273-0.046875-2.0781-0.046875-1.043 0-1.7305 0.015625-2.0625 0.046875v-0.4375h0.34375c0.60156 0 0.95312-0.078125 1.0469-0.23438 0.039062-0.0625 0.0625-0.20312 0.0625-0.42188v-3.6719h-4.1875v3.6719c0 0.28125 0.050781 0.46094 0.15625 0.53125 0.13281 0.085938 0.44531 0.125 0.9375 0.125h0.34375v0.4375c-0.32422-0.03125-1.0156-0.046875-2.0781-0.046875-1.043 0-1.7266 0.015625-2.0469 0.046875v-0.4375h0.32812c0.60156 0 0.95312-0.078125 1.0469-0.23438 0.039062-0.0625 0.0625-0.20312 0.0625-0.42188v-7.375c0-0.28125-0.058594-0.45703-0.17188-0.53125-0.125-0.082031-0.4375-0.125-0.9375-0.125h-0.32812v-0.4375c0.32031 0.03125 1.0078 0.046875 2.0625 0.046875 1.0508 0 1.7383-0.015625 2.0625-0.046875v0.4375h-0.34375c-0.60547 0-0.95312 0.078125-1.0469 0.23438-0.03125 0.0625-0.046875 0.20312-0.046875 0.42188v3.2812h4.1875v-3.2812c0-0.28125-0.058594-0.45703-0.17188-0.53125-0.14844-0.082031-0.46094-0.125-0.9375-0.125h-0.34375v-0.4375c0.33203 0.03125 1.0234 0.046875 2.0781 0.046875 1.0391 0 1.7266-0.015625 2.0625-0.046875v0.4375h-0.34375c-0.60547 0-0.95312 0.078125-1.0469 0.23438-0.042969 0.0625-0.0625 0.20312-0.0625 0.42188z"/>
</symbol>
<symbol id="g" overflow="visible">
<path d="m6.5938-3c0 0.96875-0.35547 1.7656-1.0625 2.3906-0.59375 0.51172-1.2773 0.76562-2.0469 0.76562-0.89844 0-1.6523-0.33594-2.2656-1.0156-0.55469-0.60156-0.82812-1.3164-0.82812-2.1406 0-0.94531 0.33594-1.75 1.0156-2.4062 0.59375-0.57031 1.2891-0.85938 2.0938-0.85938 0.90625 0 1.6641 0.35938 2.2812 1.0781 0.53906 0.625 0.8125 1.3555 0.8125 2.1875zm-3.0938 2.7969c0.625 0 1.1172-0.25781 1.4844-0.78125l0.14062-0.25c0.20703-0.40625 0.3125-1.0312 0.3125-1.875 0-0.89453-0.125-1.5391-0.375-1.9375-0.39844-0.58203-0.92188-0.89062-1.5781-0.92188-0.57422 0-1.0469 0.23438-1.4219 0.70312-0.074219 0.074219-0.13281 0.15234-0.17188 0.23438-0.23047 0.41797-0.34375 1.0586-0.34375 1.9219 0 0.90625 0.11719 1.5625 0.35938 1.9688 0.38281 0.61719 0.91406 0.92969 1.5938 0.9375z"/>
</symbol>
<symbol id="o" overflow="visible">
<path d="m8.6719-4.7031-1.6406 4.5938c-0.0625 0.15625-0.15625 0.24219-0.28125 0.26562-0.125 0-0.21875-0.089844-0.28125-0.26562l-1.4219-3.9844-1.4219 3.9688c-0.054688 0.15625-0.11719 0.24219-0.1875 0.26562-0.03125 0.007813-0.0625 0.015625-0.09375 0.015625-0.125 0-0.21484-0.078125-0.26562-0.23438-0.011719-0.0078125-0.023437-0.035156-0.03125-0.078125l-1.7656-4.9531c-0.09375-0.25-0.23047-0.39844-0.40625-0.45312-0.11719-0.019531-0.32422-0.03125-0.625-0.03125v-0.4375c0.50781 0.03125 0.94141 0.046875 1.2969 0.046875 0.17578 0 0.6875-0.015625 1.5312-0.046875v0.4375c-0.55469 0-0.82812 0.125-0.82812 0.375 0 0.054688 0.023438 0.13672 0.078125 0.25l1.3281 3.7344 1.2031-3.3906c-0.16797-0.45703-0.27734-0.71094-0.32812-0.76562-0.16797-0.13281-0.46094-0.20312-0.875-0.20312v-0.4375c0.41406 0.03125 0.83203 0.046875 1.25 0.046875 0.15625 0 0.64062-0.015625 1.4531-0.046875v0.4375c-0.55469 0-0.82812 0.125-0.82812 0.375 0 0.03125 0.019531 0.12109 0.0625 0.26562l1.3906 3.9062 1.2812-3.5938c0.039063-0.11328 0.0625-0.20703 0.0625-0.28125 0-0.36328-0.20312-0.58594-0.60938-0.67188h-0.20312v-0.4375c0.53125 0.03125 0.96094 0.046875 1.2969 0.046875 0.375 0 0.71875-0.015625 1.0312-0.046875v0.4375c-0.58594 0.011719-0.97656 0.30859-1.1719 0.89062z"/>
</symbol>
<symbol id="n" overflow="visible">
<path d="m5.3125-0.76562c-0.48047 0.61719-1.1055 0.92188-1.875 0.92188-0.85547 0-1.5781-0.34375-2.1719-1.0312-0.53125-0.60156-0.79688-1.3164-0.79688-2.1406 0-0.96875 0.36328-1.7695 1.0938-2.4062 0.59375-0.50781 1.2695-0.76562 2.0312-0.76562 0.70703 0 1.2969 0.29297 1.7656 0.875v-3.0312c0-0.36328-0.0625-0.58594-0.1875-0.67188h-0.015625c-0.125-0.070313-0.42188-0.10938-0.89062-0.10938v-0.4375l2.0156-0.15625v8.5c0 0.36719 0.070312 0.58984 0.21875 0.67188h0.015625c0.125 0.074219 0.41016 0.10938 0.85938 0.10938v0.4375l-2.0625 0.15625zm0-3.75c0-0.1875-0.042969-0.34375-0.125-0.46875l-0.015625-0.0625c-0.38672-0.55078-0.89062-0.82812-1.5156-0.82812-0.65625 0-1.1836 0.29688-1.5781 0.89062-0.29297 0.44922-0.4375 1.1094-0.4375 1.9844s0.13281 1.5273 0.40625 1.9531c0.375 0.59375 0.86328 0.89062 1.4688 0.89062 0.66406 0 1.207-0.30469 1.625-0.92188l0.03125-0.0625c0.09375-0.1875 0.14062-0.35938 0.14062-0.51562z"/>
</symbol>
<symbol id="j" overflow="visible">
<path d="m5.8125-4.7031-2.4688 5.9844c-0.44922 1.0625-1.0469 1.5938-1.7969 1.5938-0.48047 0-0.84375-0.1875-1.0938-0.5625-0.125-0.17969-0.1875-0.37109-0.1875-0.57812 0-0.32422 0.14844-0.52344 0.45312-0.59375h0.14062c0.28125 0 0.46094 0.12891 0.54688 0.39062 0.019531 0.0625 0.03125 0.125 0.03125 0.1875 0 0.33203-0.18359 0.53125-0.54688 0.59375 0.17578 0.16406 0.39453 0.25 0.65625 0.25 0.55078 0 1.0078-0.40234 1.375-1.2031 0.0625-0.125 0.14062-0.30469 0.23438-0.53125 0.125-0.28125 0.23828-0.55859 0.34375-0.82812l-2.0938-5.1094c-0.11719-0.26953-0.29688-0.42578-0.54688-0.46875-0.17969-0.007813-0.375-0.015625-0.59375-0.015625v-0.4375c0.41406 0.03125 0.86719 0.046875 1.3594 0.046875 0.28906 0 0.80078-0.015625 1.5312-0.046875v0.4375c-0.53125 0-0.79688 0.12109-0.79688 0.35938 0 0.03125 0.03125 0.11719 0.09375 0.25l1.5469 3.7656 1.4219-3.4375c0.050781-0.13281 0.078125-0.25 0.078125-0.34375 0-0.35156-0.19531-0.55078-0.57812-0.59375h-0.078125v-0.4375c0.61328 0.03125 1.0195 0.046875 1.2188 0.046875 0.38281 0 0.73438-0.015625 1.0469-0.046875v0.4375c-0.625 0-1.0586 0.29688-1.2969 0.89062z"/>
</symbol>
<symbol id="k" overflow="visible">
<path d="m5.4688-1.1094c-0.38672 0.84375-0.98438 1.2656-1.7969 1.2656-1.1484 0-1.8242-0.39844-2.0312-1.2031-0.0625-0.23828-0.09375-0.62891-0.09375-1.1719v-2.0938c0-0.60156-0.046875-0.96875-0.14062-1.0938l-0.078125-0.078125c-0.10547-0.070313-0.39844-0.10938-0.875-0.10938v-0.4375l2.0469-0.15625v4.6406c0 0.57422 0.10156 0.95312 0.3125 1.1406h0.015625c0.19531 0.16797 0.5 0.25 0.90625 0.25 0.63281 0 1.1094-0.3125 1.4219-0.9375 0.1875-0.35156 0.28125-0.76562 0.28125-1.2344v-2.4844c0-0.36328-0.074219-0.58594-0.21875-0.67188h-0.015625c-0.125-0.070313-0.41406-0.10938-0.85938-0.10938v-0.4375l2.0469-0.15625v4.9688c0 0.36719 0.070313 0.58984 0.21875 0.67188h0.015625c0.125 0.074219 0.41016 0.10938 0.85938 0.10938v0.4375l-2.0156 0.15625z"/>
</symbol>
<symbol id="ap" overflow="visible">
<path d="m4.625-5.5938h-2.2188v4.5312c0 0.3125 0.070312 0.5 0.21875 0.5625 0.10156 0.042969 0.39453 0.0625 0.875 0.0625v0.4375l-1.5469-0.046875c-0.11719 0-0.63672 0.015625-1.5625 0.046875v-0.4375c0.55078 0 0.875-0.039062 0.96875-0.125l0.03125-0.03125c0.0625-0.070312 0.09375-0.22656 0.09375-0.46875v-4.5312h-1.1094v-0.4375h1.1094v-1.5938c0-0.83203 0.4375-1.457 1.3125-1.875 0.50781-0.25 1.0625-0.375 1.6562-0.375 0.72656 0 1.2539 0.23438 1.5781 0.70312 0.15625 0.21875 0.23438 0.46094 0.23438 0.71875 0 0.3125-0.14844 0.51562-0.4375 0.60938-0.074219 0.023438-0.14844 0.03125-0.21875 0.03125-0.28125 0-0.46875-0.11719-0.5625-0.35938-0.042969-0.070313-0.0625-0.16406-0.0625-0.28125 0-0.39453 0.21875-0.60938 0.65625-0.64062-0.27344-0.3125-0.67188-0.46875-1.2031-0.46875-0.63672 0-1.1562 0.21094-1.5625 0.625l-0.015625 0.015625v0.015625c-0.33594 0.34375-0.5 0.77734-0.5 1.2969v1.5781h1.6562c0.14453 0 0.22656-0.003906 0.25-0.015625l0.25-0.03125 1.7656-0.125v5.1406c0 0.3125 0.078125 0.5 0.23438 0.5625 0.09375 0.042969 0.37891 0.0625 0.85938 0.0625v0.4375l-1.5469-0.046875c-0.11719 0-0.63672 0.015625-1.5625 0.046875v-0.4375c0.55078 0 0.875-0.039062 0.96875-0.125l0.03125-0.03125c0.0625-0.070312 0.09375-0.22656 0.09375-0.46875v-3.7812c0-0.375-0.085937-0.60156-0.25-0.6875-0.10547-0.039062-0.26562-0.0625-0.48438-0.0625z"/>
</symbol>
<symbol id="e" overflow="visible">
<path d="m1.5469-4.8125c0-0.36328-0.074219-0.58594-0.21875-0.67188-0.11719-0.070313-0.3125-0.10938-0.59375-0.10938h-0.28125v-0.4375l1.9688-0.15625v1.4688c0.4375-0.97656 1.1289-1.4688 2.0781-1.4688 0.69531 0 1.1875 0.17188 1.4688 0.51562 0.25 0.29297 0.39062 0.6875 0.42188 1.1875v0.95312 2.6719c0.007813 0.23047 0.14453 0.35938 0.40625 0.39062 0.11328 0.023438 0.34375 0.03125 0.6875 0.03125v0.4375c-0.94922-0.03125-1.4688-0.046875-1.5625-0.046875-0.074219 0-0.60156 0.015625-1.5781 0.046875v-0.4375c0.55078 0 0.875-0.039062 0.96875-0.125l0.015625-0.03125c0.070313-0.070312 0.10938-0.22656 0.10938-0.46875v-3.2656c0-0.92578-0.26562-1.4375-0.79688-1.5312-0.085937-0.007813-0.16797-0.015625-0.25-0.015625-0.5625 0-1.0391 0.24609-1.4219 0.73438-0.3125 0.40625-0.46875 0.90625-0.46875 1.5v2.5781c0 0.3125 0.078125 0.5 0.23438 0.5625 0.10156 0.042969 0.39062 0.0625 0.85938 0.0625v0.4375c-0.94922-0.03125-1.4688-0.046875-1.5625-0.046875-0.074219 0-0.60156 0.015625-1.5781 0.046875v-0.4375c0.55078 0 0.86719-0.039062 0.95312-0.125l0.03125-0.03125c0.070312-0.070312 0.10938-0.22656 0.10938-0.46875z"/>
</symbol>
<symbol id="aa" overflow="visible">
<path d="m2.6875-6.2656c0 0.33594-0.14062 0.5625-0.42188 0.6875-0.10547 0.042969-0.21094 0.0625-0.3125 0.0625-0.4375 0-0.73047-0.27344-0.875-0.82812-0.042969-0.19531-0.0625-0.41016-0.0625-0.64062 0-0.91406 0.30078-1.707 0.90625-2.375 0.19531-0.22656 0.33203-0.34375 0.40625-0.34375 0.09375 0 0.14062 0.054687 0.14062 0.15625 0 0.042969-0.058594 0.12109-0.17188 0.23438-0.65625 0.64844-0.98438 1.4219-0.98438 2.3281 0 0.16797 0.007812 0.25 0.03125 0.25 0.019531 0 0.035156-0.015625 0.046875-0.046875 0.14453-0.14453 0.33203-0.21875 0.5625-0.21875 0.36328 0 0.59766 0.17188 0.70312 0.51562 0.019531 0.074219 0.03125 0.14844 0.03125 0.21875z"/>
</symbol>
<symbol id="r" overflow="visible">
<path d="m2.8906-8.25c0 0.91797-0.30859 1.7148-0.92188 2.3906-0.1875 0.21875-0.32422 0.32812-0.40625 0.32812-0.09375 0-0.14062-0.050781-0.14062-0.15625 0-0.039062 0.054687-0.11719 0.17188-0.23438 0.65625-0.64453 0.98438-1.4219 0.98438-2.3281 0-0.16406-0.011719-0.25-0.03125-0.25-0.023437 0-0.039063 0.015625-0.046875 0.046875-0.14844 0.14844-0.32812 0.21875-0.54688 0.21875-0.375 0-0.61719-0.17188-0.71875-0.51562-0.023437-0.070312-0.03125-0.14453-0.03125-0.21875 0-0.33203 0.14062-0.5625 0.42188-0.6875 0.10156-0.039062 0.21094-0.0625 0.32812-0.0625 0.42578 0 0.71094 0.27734 0.85938 0.82812 0.050781 0.19922 0.078125 0.41406 0.078125 0.64062z"/>
</symbol>
<symbol id="ao" overflow="visible">
<path d="m3.1562-8.4688v7.375c0 0.28125 0.050781 0.46094 0.15625 0.53125h0.03125v0.015625h0.015625c0.13281 0.074219 0.44531 0.10938 0.9375 0.10938h0.35938v0.4375c-0.32422-0.03125-1.0391-0.046875-2.1406-0.046875-1.0938 0-1.8047 0.015625-2.125 0.046875v-0.4375h0.35938c0.625 0 0.98438-0.078125 1.0781-0.23438 0.050781-0.070313 0.078125-0.21094 0.078125-0.42188v-7.375c0-0.28125-0.058594-0.45703-0.17188-0.53125h-0.015625c-0.13672-0.082031-0.46094-0.125-0.96875-0.125h-0.35938v-0.4375c0.32031 0.03125 1.0352 0.046875 2.1406 0.046875 1.0938 0 1.8008-0.015625 2.125-0.046875v0.4375h-0.35938c-0.625 0-0.98438 0.078125-1.0781 0.23438-0.042969 0.074219-0.0625 0.21484-0.0625 0.42188z"/>
</symbol>
<symbol id="z" overflow="visible">
<path d="m2.4844-5.5938v4.5c0 0.29297 0.054687 0.46875 0.17188 0.53125l0.015625 0.015625c0.13281 0.074219 0.42969 0.10938 0.89062 0.10938h0.28125v0.4375c-0.36719-0.03125-0.95312-0.046875-1.7656-0.046875 0.019531 0-0.51562 0.015625-1.6094 0.046875v-0.4375c0.55078 0 0.875-0.039062 0.96875-0.125l0.03125-0.03125c0.0625-0.070312 0.09375-0.22656 0.09375-0.46875v-4.5312h-1.0938v-0.4375h1.0938v-1.6094c0-0.86328 0.35156-1.5 1.0625-1.9062 0.35156-0.21875 0.72266-0.32812 1.1094-0.32812 0.51953 0 0.89844 0.18359 1.1406 0.54688 0.082031 0.13672 0.125 0.28125 0.125 0.4375 0 0.32422-0.14844 0.52734-0.4375 0.60938h-0.1875c-0.30469 0-0.49219-0.14062-0.5625-0.42188l-0.015625-0.015625v-0.015625c-0.011719-0.050781-0.015625-0.097656-0.015625-0.14062 0-0.28125 0.14062-0.47656 0.42188-0.59375-0.14844-0.0625-0.30469-0.09375-0.46875-0.09375-0.40625 0-0.74219 0.23047-1 0.6875-0.1875 0.33594-0.28125 0.74219-0.28125 1.2188v1.625h1.6406v0.4375z"/>
</symbol>
<symbol id="an" overflow="visible">
<path d="m4.0156-3.6875 1.7812 2.5156c0.3125 0.4375 0.63281 0.67969 0.96875 0.71875 0.082031 0.011719 0.21094 0.015625 0.39062 0.015625v0.4375c-0.40625-0.03125-0.8125-0.046875-1.2188-0.046875-0.23047 0-0.73438 0.015625-1.5156 0.046875v-0.4375c0.33203 0 0.5-0.10156 0.5-0.3125 0-0.15625-0.375-0.75391-1.125-1.7969 0.28906 0.41797 0.125 0.1875-0.5-0.6875l-0.03125-0.046875-0.90625 0.78125v1.4375c0 0.3125 0.078125 0.5 0.23438 0.5625 0.10156 0.042969 0.39062 0.0625 0.85938 0.0625v0.4375c-0.55469-0.03125-1.0625-0.046875-1.5312-0.046875-0.09375 0-0.60547 0.015625-1.5312 0.046875v-0.4375c0.55078 0 0.875-0.039062 0.96875-0.125l0.03125-0.03125c0.0625-0.070312 0.09375-0.22656 0.09375-0.46875v-7.2812c0-0.36328-0.070313-0.58594-0.20312-0.67188-0.10547-0.050781-0.28906-0.085937-0.54688-0.10938h-0.34375v-0.4375l2.0156-0.15625v6.7188l1.9688-1.7031c0.20703-0.17578 0.3125-0.35938 0.3125-0.54688s-0.10547-0.30078-0.3125-0.34375h-0.09375v-0.4375c0.39453 0.03125 0.92188 0.046875 1.5781 0.046875 0.375 0 0.69531-0.015625 0.96875-0.046875v0.4375c-0.58594 0.023438-1.1719 0.27344-1.7656 0.75-0.53125 0.41797-0.89844 0.74219-1.0938 0.96875l-0.03125 0.03125z"/>
</symbol>
<symbol id="y" overflow="visible">
<path d="m3.1094-2.4062c0.40625 0 0.73828-0.1875 1-0.5625 0.14453-0.25 0.21875-0.64062 0.21875-1.1719-0.042969-1.125-0.44922-1.6953-1.2188-1.7188-0.41797 0-0.75 0.18359-1 0.54688-0.14844 0.26172-0.21875 0.65625-0.21875 1.1875 0.039063 1.1172 0.44531 1.6875 1.2188 1.7188zm-1.3906-0.10938c-0.15625 0.1875-0.23438 0.40625-0.23438 0.65625 0 0.38672 0.14844 0.66797 0.45312 0.84375 0.09375 0.054687 0.1875 0.085937 0.28125 0.09375 0.070312 0.011719 0.42578 0.015625 1.0625 0.015625 0.95703 0 1.6562 0.085938 2.0938 0.25 0.10156 0.03125 0.20703 0.078125 0.3125 0.14062 0.5625 0.375 0.86328 0.90625 0.90625 1.5938 0 0.60156-0.39062 1.0781-1.1719 1.4219-0.5625 0.25781-1.2109 0.39062-1.9375 0.39062-1.0859 0-1.9297-0.25781-2.5312-0.76562-0.375-0.29297-0.5625-0.63281-0.5625-1.0156 0-0.46875 0.23828-0.85547 0.71875-1.1562 0.16406-0.10156 0.35938-0.1875 0.57812-0.25-0.38672-0.28906-0.59375-0.70703-0.625-1.25 0-0.4375 0.14453-0.82031 0.4375-1.1562-0.41797-0.39453-0.63672-0.875-0.65625-1.4375 0-0.64453 0.28125-1.1719 0.84375-1.5781 0.40625-0.3125 0.87891-0.46875 1.4219-0.46875 0.5625 0 1.0547 0.16797 1.4844 0.5 0.44531-0.4375 0.94141-0.65625 1.4844-0.65625 0.36328 0 0.59375 0.16797 0.6875 0.5 0.019531 0.0625 0.03125 0.125 0.03125 0.1875-0.042969 0.24219-0.17969 0.38281-0.40625 0.42188-0.21094 0-0.34375-0.097656-0.40625-0.29688v-0.10938c0-0.19531 0.070313-0.32031 0.21875-0.375-0.03125-0.007813-0.078125-0.015625-0.14062-0.015625-0.46094 0-0.88281 0.18359-1.2656 0.54688 0.38281 0.35547 0.57812 0.80859 0.57812 1.3594 0 0.64844-0.28125 1.1719-0.84375 1.5781-0.40625 0.30469-0.88281 0.45312-1.4219 0.45312-0.52344 0-0.98438-0.14062-1.3906-0.42188zm1.7812 5.0781c0.88281 0 1.5547-0.23438 2.0156-0.70312 0.22656-0.23047 0.34375-0.48047 0.34375-0.75 0-0.69922-0.54688-1.0898-1.6406-1.1719h-0.015625c-0.24219-0.019531-0.60938-0.03125-1.1094-0.03125h-0.82812c-0.4375 0.023438-0.76562 0.22656-0.98438 0.625-0.10547 0.17578-0.15625 0.36719-0.15625 0.57812 0 0.4375 0.26953 0.80078 0.8125 1.0938 0.4375 0.23828 0.95703 0.35938 1.5625 0.35938z"/>
</symbol>
<symbol id="q" overflow="visible">
<path d="m2.4062-5.2812c0.53906-0.60156 1.1797-0.90625 1.9219-0.90625 0.85156 0 1.582 0.33984 2.1875 1.0156 0.51953 0.61719 0.78125 1.3281 0.78125 2.1406 0 0.98047-0.35938 1.7891-1.0781 2.4219-0.60547 0.51172-1.2891 0.76562-2.0469 0.76562-0.75 0-1.3516-0.32031-1.7969-0.96875-0.011719-0.019531-0.023438-0.039062-0.03125-0.0625l-0.51562 0.875h-0.34375v-8.3438c0-0.36328-0.070313-0.58594-0.20312-0.67188-0.10547-0.050781-0.28906-0.085937-0.54688-0.10938h-0.34375v-0.4375l2.0156-0.15625zm0.046875 3.6875c0 0.1875 0.046875 0.35156 0.14062 0.48438v0.015625l0.046875 0.078125c0.375 0.57422 0.86328 0.85938 1.4688 0.85938 0.65625 0 1.1875-0.29688 1.5938-0.89062 0.28125-0.44531 0.42188-1.1094 0.42188-1.9844s-0.13672-1.5234-0.40625-1.9531c-0.36719-0.59375-0.85547-0.89062-1.4688-0.89062-0.64844 0-1.1797 0.27344-1.5938 0.8125l-0.046875 0.078125c-0.10547 0.21094-0.15625 0.375-0.15625 0.5z"/>
</symbol>
<symbol id="l" overflow="visible">
<path d="m5.0312-5.4062c-0.34375-0.34375-0.84375-0.51562-1.5-0.51562-0.59375 0-1.0703 0.28125-1.4219 0.84375-0.3125 0.5-0.46875 1.1797-0.46875 2.0312 0 1.3438 0.39844 2.2266 1.2031 2.6406 0.25 0.13672 0.50391 0.20312 0.76562 0.20312 0.91406 0 1.5312-0.48828 1.8438-1.4688 0.019531-0.09375 0.078125-0.14062 0.17188-0.14062 0.125 0 0.1875 0.046875 0.1875 0.14062 0 0.17969-0.10547 0.43359-0.3125 0.76562-0.46094 0.71094-1.1328 1.0625-2.0156 1.0625-0.875 0-1.6172-0.34375-2.2188-1.0312-0.53125-0.61328-0.79688-1.332-0.79688-2.1562 0-0.95703 0.33203-1.7578 1-2.4062 0.57031-0.55078 1.2539-0.82812 2.0469-0.82812 0.76953 0 1.3633 0.21094 1.7812 0.625 0.23828 0.25 0.35938 0.53906 0.35938 0.85938 0 0.36719-0.15625 0.58594-0.46875 0.65625-0.054688 0.011719-0.10938 0.015625-0.17188 0.015625-0.33594 0-0.54297-0.14844-0.625-0.45312-0.011719-0.050781-0.015625-0.11719-0.015625-0.20312 0-0.33203 0.16016-0.53516 0.48438-0.60938 0.050781-0.019531 0.10938-0.03125 0.17188-0.03125z"/>
</symbol>
<symbol id="x" overflow="visible">
<path d="m1.5469-4.8125c0-0.36328-0.074219-0.58594-0.21875-0.67188-0.11719-0.070313-0.3125-0.10938-0.59375-0.10938h-0.28125v-0.4375l1.9688-0.15625v1.4688c0.4375-0.97656 1.1289-1.4688 2.0781-1.4688 1.082 0 1.7031 0.46094 1.8594 1.375 0.28125-0.63281 0.71875-1.0547 1.3125-1.2656 0.22656-0.070313 0.46875-0.10938 0.71875-0.10938 0.69531 0 1.1875 0.17188 1.4688 0.51562 0.25 0.29297 0.39062 0.6875 0.42188 1.1875 0.007812 0.17969 0.015625 0.49609 0.015625 0.95312v2.6719c0 0.23047 0.13281 0.35938 0.40625 0.39062 0.10156 0.023438 0.32812 0.03125 0.67188 0.03125v0.4375c-0.94922-0.03125-1.4688-0.046875-1.5625-0.046875-0.074219 0-0.60156 0.015625-1.5781 0.046875v-0.4375c0.55078 0 0.875-0.039062 0.96875-0.125l0.015625-0.03125c0.070312-0.070312 0.10938-0.22656 0.10938-0.46875v-3.2656c0-0.92578-0.26562-1.4375-0.79688-1.5312-0.085938-0.007813-0.16797-0.015625-0.25-0.015625-0.5625 0-1.0391 0.24609-1.4219 0.73438-0.3125 0.40625-0.46875 0.90625-0.46875 1.5v2.5781c0 0.3125 0.078125 0.5 0.23438 0.5625 0.10156 0.042969 0.39062 0.0625 0.85938 0.0625v0.4375c-0.94922-0.03125-1.4688-0.046875-1.5625-0.046875-0.074219 0-0.60156 0.015625-1.5781 0.046875v-0.4375c0.55078 0 0.875-0.039062 0.96875-0.125l0.015625-0.03125c0.070313-0.070312 0.10938-0.22656 0.10938-0.46875v-3.2656c0-0.92578-0.26562-1.4375-0.79688-1.5312-0.085937-0.007813-0.16797-0.015625-0.25-0.015625-0.5625 0-1.0391 0.24609-1.4219 0.73438-0.3125 0.40625-0.46875 0.90625-0.46875 1.5v2.5781c0 0.3125 0.078125 0.5 0.23438 0.5625 0.10156 0.042969 0.39062 0.0625 0.85938 0.0625v0.4375c-0.94922-0.03125-1.4688-0.046875-1.5625-0.046875-0.074219 0-0.60156 0.015625-1.5781 0.046875v-0.4375c0.55078 0 0.86719-0.039062 0.95312-0.125l0.03125-0.03125c0.070312-0.070312 0.10938-0.22656 0.10938-0.46875z"/>
</symbol>
<symbol id="w" overflow="visible">
<path d="m2.4531-4.7188v3.125c0 0.1875 0.035156 0.33984 0.10938 0.45312l0.078125 0.125c0.375 0.57422 0.86328 0.85938 1.4688 0.85938 0.59375 0 1.0859-0.30469 1.4844-0.92188 0.35156-0.53906 0.53125-1.1914 0.53125-1.9531 0-0.95703-0.26172-1.7188-0.78125-2.2812-0.32422-0.35156-0.6875-0.53125-1.0938-0.53125-0.66797 0-1.2148 0.29688-1.6406 0.89062-0.0625 0.074219-0.11719 0.15234-0.15625 0.23438zm0 3.8906v2.4844c0 0.3125 0.070313 0.5 0.21875 0.5625 0.10156 0.039062 0.39453 0.0625 0.875 0.0625v0.4375c-0.98047-0.03125-1.5117-0.046875-1.5938-0.046875-0.09375 0-0.61719 0.015625-1.5625 0.046875v-0.4375c0.55078 0 0.875-0.042969 0.96875-0.125l0.03125-0.03125c0.0625-0.085938 0.09375-0.24219 0.09375-0.46875v-6.5625c0-0.32031-0.070313-0.51953-0.20312-0.59375-0.11719-0.0625-0.41406-0.09375-0.89062-0.09375v-0.4375l2.0156-0.15625v0.92188c0.5625-0.61328 1.2188-0.92188 1.9688-0.92188 0.84375 0 1.5547 0.33984 2.1406 1.0156 0.51953 0.61719 0.78125 1.3281 0.78125 2.1406 0 0.98047-0.35938 1.7891-1.0781 2.4219-0.60547 0.51172-1.2891 0.76562-2.0469 0.76562-0.65625 0-1.1797-0.23828-1.5625-0.71875-0.085937-0.10156-0.13672-0.19141-0.15625-0.26562z"/>
</symbol>
<symbol id="p" overflow="visible">
<path d="m2.8438-0.015625c0 0.90625-0.29688 1.6953-0.89062 2.375-0.15625 0.1875-0.28906 0.30078-0.39062 0.34375-0.09375 0-0.14062-0.054687-0.14062-0.15625 0-0.042969 0.050781-0.11719 0.15625-0.21875 0.5625-0.5625 0.875-1.25 0.9375-2.0625 0.007813-0.09375 0.015625-0.1875 0.015625-0.28125 0-0.13281-0.011719-0.20312-0.03125-0.20312-0.011719 0-0.03125 0.011719-0.0625 0.03125-0.13672 0.125-0.29688 0.1875-0.48438 0.1875-0.35547 0-0.58594-0.15625-0.6875-0.46875-0.042969-0.09375-0.0625-0.17969-0.0625-0.26562 0-0.34375 0.14453-0.57031 0.4375-0.6875 0.09375-0.039063 0.19531-0.0625 0.3125-0.0625 0.40625 0 0.67578 0.27344 0.8125 0.8125 0.050781 0.19922 0.078125 0.41797 0.078125 0.65625z"/>
</symbol>
<symbol id="am" overflow="visible">
<path d="m2.6875-0.73438c0 0.30469-0.14062 0.52734-0.42188 0.67188-0.10547 0.042969-0.21094 0.0625-0.3125 0.0625-0.3125 0-0.53906-0.14062-0.67188-0.42188-0.054688-0.10156-0.078125-0.20703-0.078125-0.3125 0-0.3125 0.14062-0.53516 0.42188-0.67188 0.10156-0.050781 0.21094-0.078125 0.32812-0.078125 0.30078 0 0.52344 0.14062 0.67188 0.42188 0.039062 0.10547 0.0625 0.21484 0.0625 0.32812z"/>
</symbol>
<symbol id="al" overflow="visible">
<path d="m1-6.25h12.594v1.1562h-12.594z"/>
</symbol>
<symbol id="v" overflow="visible">
<path d="m7.6406-1.8438 3.3594-7.4062c0.070312-0.15625 0.14844-0.25391 0.23438-0.29688 0.082031-0.039063 0.21094-0.0625 0.39062-0.0625h3.0938v0.65625h-1.5156v8.2969h1.5156v0.65625c-0.34375-0.03125-1.1484-0.046875-2.4062-0.046875-1.25 0-2.043 0.015625-2.375 0.046875v-0.65625h1.5156v-8.2969h-0.015625l-3.9062 8.6094c-0.10547 0.23047-0.25781 0.34375-0.45312 0.34375-0.1875 0-0.33594-0.11328-0.4375-0.34375l-3.8125-8.4219h-0.015625v7.7031c0 0.15625 0.015625 0.25 0.046875 0.28125 0.039063 0.03125 0.16406 0.058594 0.375 0.078125 0.25 0.03125 0.49219 0.046875 0.73438 0.046875h0.35938v0.65625c-0.38672-0.03125-1.0156-0.046875-1.8906-0.046875-0.89844 0-1.5234 0.015625-1.875 0.046875v-0.65625h0.34375c0.28125 0 0.53516-0.015625 0.76562-0.046875 0.1875-0.019531 0.30078-0.046875 0.34375-0.078125 0.039063-0.03125 0.0625-0.125 0.0625-0.28125v-7.8906h-1.5156v-0.65625h3.1094c0.11328 0 0.19531 0.007813 0.25 0.015625 0.0625 0.011719 0.125 0.042969 0.1875 0.09375 0.070313 0.054688 0.12891 0.13672 0.17188 0.25z"/>
</symbol>
<symbol id="ag" overflow="visible">
<path d="m7.5938-3.0469c0 0.90625-0.3125 1.6562-0.9375 2.25-0.625 0.58594-1.5078 0.875-2.6406 0.875-1.125 0-2-0.28906-2.625-0.875-0.625-0.59375-0.9375-1.3438-0.9375-2.25 0-0.96875 0.3125-1.7578 0.9375-2.375 0.63281-0.61328 1.5078-0.92188 2.625-0.92188 1.1133 0 1.9883 0.30859 2.625 0.92188 0.63281 0.61719 0.95312 1.4062 0.95312 2.375zm-4.3281 2.4688c0.20703 0.074219 0.45703 0.10938 0.75 0.10938 0.28906 0 0.53906-0.035156 0.75-0.10938 0.20703-0.070313 0.375-0.1875 0.5-0.34375s0.22266-0.30078 0.29688-0.4375c0.082031-0.14453 0.14062-0.34766 0.17188-0.60938 0.03125-0.25781 0.046875-0.45703 0.046875-0.59375 0.007812-0.14453 0.015625-0.35938 0.015625-0.64062 0-0.95703-0.10156-1.5977-0.29688-1.9219-0.30469-0.47656-0.79688-0.71875-1.4844-0.71875-0.75 0-1.2617 0.27344-1.5312 0.8125-0.16797 0.32422-0.25 0.93359-0.25 1.8281v0.64062c0.007813 0.13672 0.03125 0.33594 0.0625 0.59375 0.039063 0.26172 0.097656 0.46484 0.17188 0.60938 0.070312 0.13672 0.17188 0.28125 0.29688 0.4375s0.28906 0.27344 0.5 0.34375z"/>
</symbol>
<symbol id="u" overflow="visible">
<path d="m4.2188 0c-0.34375-0.03125-0.99219-0.046875-1.9375-0.046875-0.19922 0-0.78906 0.015625-1.7656 0.046875v-0.65625h0.96875v-4.3281c0-0.25781-0.054687-0.41406-0.15625-0.46875-0.09375-0.050781-0.36719-0.078125-0.8125-0.078125v-0.65625l2.3281-0.10938v1.5781c0.38281-1.0508 1.0039-1.5781 1.8594-1.5781 0.39453 0 0.73828 0.10547 1.0312 0.3125 0.30078 0.19922 0.45312 0.47656 0.45312 0.82812 0 0.26172-0.089844 0.46875-0.26562 0.625-0.16797 0.15625-0.36719 0.23438-0.59375 0.23438-0.21875 0-0.41797-0.070313-0.59375-0.21875-0.16797-0.15625-0.25-0.36719-0.25-0.64062 0-0.25 0.085937-0.46094 0.26562-0.64062-0.33594 0-0.62109 0.09375-0.85938 0.28125-0.24219 0.17969-0.42188 0.41406-0.54688 0.70312-0.125 0.29297-0.21484 0.57812-0.26562 0.85938-0.054687 0.28125-0.078125 0.5625-0.078125 0.84375v2.4531h1.2188z"/>
</symbol>
<symbol id="af" overflow="visible">
<path d="m3.0781-4.6094v2.9688c0 0.14844 0.003906 0.24219 0.015625 0.28125 0.019531 0.03125 0.066406 0.09375 0.14062 0.1875 0.41406 0.5 0.91016 0.75 1.4844 0.75 0.50781 0 0.95312-0.21875 1.3281-0.65625 0.375-0.44531 0.5625-1.1289 0.5625-2.0469 0-0.83203-0.16797-1.4727-0.5-1.9219-0.32422-0.45703-0.73047-0.6875-1.2188-0.6875-0.63672 0-1.168 0.21875-1.5938 0.65625-0.10547 0.10547-0.16797 0.17969-0.1875 0.21875-0.023437 0.042969-0.03125 0.125-0.03125 0.25zm0.96875 7.3281c-0.78125-0.03125-1.3711-0.046875-1.7656-0.046875-0.39844 0-0.98438 0.015625-1.7656 0.046875v-0.65625h0.96875v-7.0625c0-0.25781-0.054687-0.41016-0.15625-0.45312-0.09375-0.050781-0.36719-0.078125-0.8125-0.078125v-0.65625l2.4844-0.10938v0.6875c0.58203-0.45703 1.2852-0.6875 2.1094-0.6875 1 0 1.7969 0.29688 2.3906 0.89062 0.60156 0.58594 0.90625 1.3438 0.90625 2.2812 0 0.96875-0.32812 1.7461-0.98438 2.3281-0.64844 0.58594-1.4961 0.875-2.5469 0.875-0.6875 0-1.2891-0.20703-1.7969-0.625v2.6094h0.96875z"/>
</symbol>
<symbol id="t" overflow="visible">
<path d="m8.6094 0c-0.78125-0.03125-1.3711-0.046875-1.7656-0.046875-0.38672 0-0.97656 0.015625-1.7656 0.046875v-0.65625h0.96875v-3.7812c0-0.5-0.070313-0.84766-0.20312-1.0469-0.125-0.20703-0.3125-0.3125-0.5625-0.3125-0.51172 0-0.99219 0.19531-1.4375 0.57812-0.4375 0.38672-0.65625 0.93359-0.65625 1.6406v2.9219h0.96875v0.65625c-0.78125-0.03125-1.3711-0.046875-1.7656-0.046875-0.38672 0-0.97656 0.015625-1.7656 0.046875v-0.65625h0.96875v-7.75c0-0.25781-0.054688-0.41406-0.15625-0.46875-0.09375-0.050781-0.36719-0.078125-0.8125-0.078125v-0.65625l2.4844-0.10938v4.7656h0.015625c0.51953-0.89453 1.3047-1.3438 2.3594-1.3438 0.71875 0 1.2539 0.15625 1.6094 0.46875 0.36328 0.3125 0.54688 0.82812 0.54688 1.5469v3.625h0.96875z"/>
</symbol>
<symbol id="s" overflow="visible">
<path d="m6.4688-3.0469h-4.2344c0 1.7188 0.66406 2.5781 2 2.5781 0.44531 0 0.85156-0.10156 1.2188-0.3125 0.36328-0.20703 0.625-0.47656 0.78125-0.8125 0.039063-0.125 0.078125-0.20312 0.10938-0.23438 0.039062-0.039063 0.11719-0.0625 0.23438-0.0625 0.22656 0 0.34375 0.085937 0.34375 0.25 0 0.085937-0.046875 0.21094-0.14062 0.375-0.09375 0.16797-0.24219 0.35938-0.4375 0.57812-0.1875 0.21094-0.48047 0.39062-0.875 0.54688-0.39844 0.14453-0.85156 0.21875-1.3594 0.21875-1.1172 0-2.0078-0.29688-2.6719-0.89062-0.65625-0.60156-0.98438-1.3828-0.98438-2.3438 0-0.90625 0.30078-1.6602 0.90625-2.2656 0.61328-0.61328 1.4609-0.92188 2.5469-0.92188 0.95703 0 1.6953 0.25 2.2188 0.75 0.53125 0.53125 0.79688 1.25 0.79688 2.1562 0 0.1875-0.03125 0.30469-0.09375 0.34375-0.0625 0.03125-0.18359 0.046875-0.35938 0.046875zm-4.2344-0.46875h3.3594c-0.054688-1.5508-0.61719-2.3281-1.6875-2.3281-0.57422 0-1.0156 0.24609-1.3281 0.73438-0.1875 0.29297-0.30469 0.82422-0.34375 1.5938z"/>
</symbol>
<symbol id="ae" overflow="visible">
<path d="m6.125-1.0156c-0.42969 0.73047-1.1016 1.0938-2.0156 1.0938-0.79297 0-1.4141-0.125-1.8594-0.375-0.4375-0.25781-0.65625-0.73438-0.65625-1.4219v-3.2656c0-0.25781-0.054688-0.41406-0.15625-0.46875-0.09375-0.050781-0.36719-0.078125-0.8125-0.078125v-0.65625l2.5625-0.10938v4.7656c0 0.4375 0.0625 0.73438 0.1875 0.89062 0.125 0.14844 0.4375 0.21875 0.9375 0.21875 0.50781 0 0.92578-0.17188 1.25-0.51562 0.32031-0.34375 0.48438-0.80078 0.48438-1.375v-2.6719c0-0.25781-0.054687-0.41406-0.15625-0.46875-0.09375-0.050781-0.36719-0.078125-0.8125-0.078125v-0.65625l2.5625-0.10938v5.0938c0 0.26172 0.046875 0.41797 0.14062 0.46875 0.10156 0.054687 0.37891 0.078125 0.82812 0.078125v0.65625l-2.4844 0.078125z"/>
</symbol>
<symbol id="ad" overflow="visible">
<path d="m2.9531-4.1094c0.60156 0.09375 1.0352 0.18359 1.2969 0.26562 0.26953 0.085938 0.53516 0.21875 0.79688 0.40625 0.50781 0.40625 0.76562 0.90234 0.76562 1.4844 0 0.32422-0.054688 0.60938-0.15625 0.85938-0.10547 0.24219-0.25 0.43359-0.4375 0.57812-0.17969 0.13672-0.35547 0.25-0.53125 0.34375-0.17969 0.085938-0.38672 0.14062-0.625 0.17188-0.23047 0.039062-0.39844 0.0625-0.5 0.0625-0.09375 0.0078125-0.21094 0.015625-0.34375 0.015625-0.66797 0-1.2188-0.14453-1.6562-0.4375-0.23047 0.15625-0.35156 0.23438-0.35938 0.23438-0.19922 0.13281-0.33984 0.20312-0.42188 0.20312-0.11719 0-0.1875-0.027344-0.21875-0.078125-0.023438-0.050781-0.03125-0.15625-0.03125-0.3125v-1.5156c0-0.17578 0.015625-0.28516 0.046875-0.32812 0.03125-0.050781 0.12891-0.078125 0.29688-0.078125 0.10156 0 0.17578 0.011719 0.21875 0.03125 0.039062 0.011719 0.078125 0.0625 0.10938 0.15625 0.050781 0.19922 0.11328 0.375 0.1875 0.53125 0.070313 0.14844 0.17969 0.3125 0.32812 0.5 0.14453 0.1875 0.34375 0.33594 0.59375 0.4375 0.25781 0.10547 0.5625 0.15625 0.90625 0.15625 1.0625 0 1.5938-0.34766 1.5938-1.0469 0-0.19531-0.054688-0.36328-0.15625-0.5-0.09375-0.14453-0.24219-0.25391-0.4375-0.32812-0.19922-0.082031-0.35938-0.14062-0.48438-0.17188s-0.28125-0.0625-0.46875-0.09375c-0.46094-0.082031-0.77734-0.14062-0.95312-0.17188-0.17969-0.039063-0.38281-0.10938-0.60938-0.20312-0.23047-0.10156-0.43359-0.23438-0.60938-0.39062-0.375-0.32031-0.5625-0.71875-0.5625-1.1875 0-0.28125 0.050781-0.53125 0.15625-0.75 0.10156-0.22656 0.24219-0.40625 0.42188-0.53125 0.1875-0.125 0.36719-0.22656 0.54688-0.3125 0.17578-0.082031 0.37891-0.13281 0.60938-0.15625 0.22656-0.03125 0.39453-0.050781 0.5-0.0625 0.10156-0.007813 0.21875-0.015625 0.34375-0.015625 0.58203 0 1.0508 0.089844 1.4062 0.26562 0.36328-0.17578 0.57812-0.26562 0.64062-0.26562 0.10156 0 0.17188 0.027344 0.20312 0.078125 0.03125 0.054687 0.046875 0.15625 0.046875 0.3125v1.125c0 0.17969-0.015625 0.28906-0.046875 0.32812-0.03125 0.042969-0.13281 0.0625-0.29688 0.0625-0.13672 0-0.21875-0.015625-0.25-0.046875-0.03125-0.039063-0.054688-0.11719-0.0625-0.23438-0.074219-0.78125-0.625-1.1719-1.6562-1.1719-1.043 0-1.5625 0.28906-1.5625 0.85938 0 0.16797 0.039062 0.30859 0.125 0.42188 0.09375 0.10547 0.22656 0.19531 0.40625 0.26562 0.1875 0.0625 0.32812 0.10938 0.42188 0.14062 0.10156 0.023437 0.25781 0.054687 0.46875 0.09375z"/>
</symbol>
<symbol id="ac" overflow="visible">
<path d="m10.297-9.4531 0.29688 3.375h-0.65625c-0.03125-0.38281-0.0625-0.67969-0.09375-0.89062-0.03125-0.21875-0.10156-0.46094-0.20312-0.73438-0.09375-0.28125-0.21484-0.48438-0.35938-0.60938-0.14844-0.13281-0.35547-0.25-0.625-0.34375-0.27344-0.09375-0.60547-0.14062-1-0.14062h-1.0625v8.1406h2.1406v0.65625c-0.5-0.03125-1.5469-0.046875-3.1406-0.046875-1.5859 0-2.625 0.015625-3.125 0.046875v-0.65625h2.1406v-8.1406h-1.0781c-0.39844 0-0.73438 0.054687-1.0156 0.15625-0.27344 0.09375-0.48047 0.21094-0.625 0.34375-0.14844 0.125-0.26562 0.32422-0.35938 0.59375-0.09375 0.27344-0.16406 0.51562-0.20312 0.73438-0.03125 0.21094-0.058594 0.50781-0.078125 0.89062h-0.65625l0.28125-3.375z"/>
</symbol>
<symbol id="ak" overflow="visible">
<path d="m5.2344-1.0781c-0.39844 0.77344-1.0898 1.1562-2.0781 1.1562-0.28125 0-0.5625-0.023438-0.84375-0.0625s-0.57422-0.11328-0.875-0.21875c-0.29297-0.10156-0.53125-0.26562-0.71875-0.48438-0.17969-0.22656-0.26562-0.50391-0.26562-0.82812 0-1.332 1.5156-2.0625 4.5469-2.1875v-0.48438c0-1.1016-0.51562-1.6562-1.5469-1.6562-0.36719 0-0.69922 0.039062-1 0.10938 0.20703 0.13672 0.3125 0.36719 0.3125 0.6875 0 0.27344-0.09375 0.48438-0.28125 0.64062-0.17969 0.15625-0.38281 0.23438-0.60938 0.23438-0.21875 0-0.41797-0.078125-0.59375-0.23438-0.17969-0.15625-0.26562-0.36719-0.26562-0.64062 0-0.86328 0.83203-1.2969 2.5-1.2969 1.0078 0 1.7734 0.19922 2.2969 0.59375 0.51953 0.38672 0.78125 0.90625 0.78125 1.5625v3.0156c0 0.125 0.007812 0.21875 0.03125 0.28125 0.019531 0.054687 0.09375 0.10547 0.21875 0.15625 0.13281 0.054687 0.33594 0.078125 0.60938 0.078125 0.082031 0 0.14062 0.007812 0.17188 0.015625 0.039062 0.011719 0.082031 0.042969 0.125 0.09375 0.039062 0.042969 0.0625 0.11719 0.0625 0.21875 0 0.09375-0.023438 0.16797-0.0625 0.21875-0.042969 0.054688-0.089844 0.085938-0.14062 0.09375-0.054687 0.011719-0.13672 0.015625-0.25 0.015625h-0.67188c-0.34375 0-0.625-0.03125-0.84375-0.09375-0.21094-0.070312-0.35547-0.17188-0.4375-0.29688-0.074219-0.13281-0.12109-0.24219-0.14062-0.32812-0.023437-0.09375-0.03125-0.21094-0.03125-0.35938zm-0.23438-2.2031c-0.21094 0.011719-0.40625 0.03125-0.59375 0.0625-0.17969 0.023438-0.42188 0.074219-0.73438 0.15625-0.30469 0.074219-0.5625 0.16797-0.78125 0.28125-0.21094 0.10547-0.39844 0.27344-0.5625 0.5-0.15625 0.21875-0.23438 0.46875-0.23438 0.75 0 0.3125 0.11719 0.57812 0.35938 0.79688 0.25 0.21094 0.55078 0.3125 0.90625 0.3125 0.125 0 0.25781-0.015625 0.40625-0.046875 0.15625-0.039062 0.33203-0.10938 0.53125-0.20312 0.20703-0.09375 0.375-0.25 0.5-0.46875 0.13281-0.22656 0.20312-0.5 0.20312-0.8125z"/>
</symbol>
<symbol id="aj" overflow="visible">
<path d="m3.0312-5.5625v3.875c0 0.8125 0.26953 1.2188 0.8125 1.2188 0.22656 0 0.42578-0.10156 0.59375-0.3125 0.16406-0.21875 0.25-0.54688 0.25-0.98438v-0.71875h0.65625v0.75c0 0.52344-0.15234 0.95312-0.45312 1.2969-0.30469 0.34375-0.71484 0.51562-1.2344 0.51562-1.4805 0-2.2188-0.59766-2.2188-1.7969v-3.8438h-1.1406v-0.5c0.65625-0.019531 1.1602-0.30469 1.5156-0.85938 0.36328-0.55078 0.55078-1.207 0.5625-1.9688h0.65625v2.6719h2.0469v0.65625z"/>
</symbol>
<symbol id="ai" overflow="visible">
<path d="m3.1406-6.2969v5.6406h0.85938v0.65625c-1.0117-0.03125-1.5586-0.046875-1.6406-0.046875-0.27344 0-0.83984 0.015625-1.7031 0.046875v-0.65625h0.96875v-4.3281c0-0.25781-0.046875-0.41406-0.14062-0.46875-0.09375-0.050781-0.35547-0.078125-0.78125-0.078125v-0.65625zm-0.1875-3.1094c0.21875 0.21094 0.32812 0.46875 0.32812 0.78125 0 0.30469-0.10938 0.55859-0.32812 0.76562-0.21875 0.21094-0.48047 0.3125-0.78125 0.3125-0.29297 0-0.54688-0.10156-0.76562-0.3125-0.21094-0.21875-0.3125-0.47656-0.3125-0.78125 0-0.30078 0.10156-0.55469 0.3125-0.76562 0.21875-0.21875 0.47266-0.32812 0.76562-0.32812 0.30078 0 0.5625 0.10938 0.78125 0.32812z"/>
</symbol>
<symbol id="ah" overflow="visible">
<path d="m4.8438-3.4375 2.3594 2.7812h0.98438v0.65625c-0.92969-0.03125-1.4375-0.046875-1.5312-0.046875-0.39844 0-0.96094 0.015625-1.6875 0.046875v-0.65625h0.54688l-1.5469-1.8281-1.3438 1.5312c-0.074219 0.074219-0.10938 0.12109-0.10938 0.14062 0 0.10547 0.17188 0.15625 0.51562 0.15625v0.65625c-0.55469-0.03125-1.0312-0.046875-1.4375-0.046875-0.375 0-0.80469 0.015625-1.2812 0.046875v-0.65625h0.625c0.13281-0.007812 0.28125-0.035156 0.4375-0.078125 0.15625-0.039063 0.26953-0.10156 0.34375-0.1875l1.8438-2.0625-2.1875-2.5781h-1v-0.65625c0.92578 0.03125 1.4414 0.046875 1.5469 0.046875 0.39453 0 0.95703-0.015625 1.6875-0.046875v0.65625h-0.5625l1.375 1.6094 1.1719-1.3125 0.125-0.17188c-0.14844-0.082031-0.32422-0.125-0.53125-0.125v-0.65625c0.78125 0.03125 1.2578 0.046875 1.4375 0.046875 0.36328 0 0.78906-0.015625 1.2812-0.046875v0.65625c-0.375 0-0.66406 0.015625-0.85938 0.046875-0.1875 0.023437-0.3125 0.046875-0.375 0.078125-0.054687 0.03125-0.11719 0.089844-0.1875 0.17188z"/>
</symbol>
</defs>
<g>
<rect width="499" height="71" fill="#fff"/>
<g>
<use x="10" y="19.722656" xlink:href="#ar"/>
</g>
<g>
<use x="24.390625" y="19.722656" xlink:href="#m"/>
</g>
<g>
<use x="32.167969" y="19.722656" xlink:href="#b"/>
</g>
<g>
<use x="39.167969" y="19.722656" xlink:href="#c"/>
</g>
<g>
<use x="49.277344" y="19.722656" xlink:href="#i"/>
</g>
<g>
<use x="53.167969" y="19.722656" xlink:href="#h"/>
</g>
<g>
<use x="63.355469" y="19.722656" xlink:href="#f"/>
</g>
<g>
<use x="68.839844" y="19.722656" xlink:href="#a"/>
</g>
<g>
<use x="75.0625" y="19.722656" xlink:href="#b"/>
</g>
<g>
<use x="82.0625" y="19.722656" xlink:href="#d"/>
</g>
<g>
<use x="85.949219" y="19.722656" xlink:href="#ab"/>
</g>
<g>
<use x="97.226562" y="19.722656" xlink:href="#aq"/>
</g>
<g>
<use x="107.726562" y="19.722656" xlink:href="#g"/>
</g>
<g>
<use x="114.339844" y="19.722656" xlink:href="#o"/>
</g>
<g>
<use x="129.117188" y="19.722656" xlink:href="#n"/>
</g>
<g>
<use x="136.894531" y="19.722656" xlink:href="#g"/>
</g>
<g>
<use x="148.5625" y="19.722656" xlink:href="#j"/>
</g>
<g>
<use x="155.5625" y="19.722656" xlink:href="#g"/>
</g>
<g>
<use x="162.5625" y="19.722656" xlink:href="#k"/>
</g>
<g>
<use x="175.007812" y="19.722656" xlink:href="#n"/>
</g>
<g>
<use x="182.785156" y="19.722656" xlink:href="#a"/>
</g>
<g>
<use x="189.007812" y="19.722656" xlink:href="#ap"/>
</g>
<g>
<use x="196.785156" y="19.722656" xlink:href="#e"/>
</g>
<g>
<use x="204.5625" y="19.722656" xlink:href="#a"/>
</g>
<g>
<use x="215.449219" y="19.722656" xlink:href="#aa"/>
</g>
<g>
<use x="219.339844" y="19.722656" xlink:href="#f"/>
</g>
<g>
<use x="224.824219" y="19.722656" xlink:href="#a"/>
</g>
<g>
<use x="231.046875" y="19.722656" xlink:href="#b"/>
</g>
<g>
<use x="238.046875" y="19.722656" xlink:href="#d"/>
</g>
<g>
<use x="241.933594" y="19.722656" xlink:href="#r"/>
</g>
<g>
<use x="247.378906" y="19.722656" xlink:href="#ab"/>
</g>
<g>
<use x="258.65625" y="19.722656" xlink:href="#ao"/>
</g>
<g>
<use x="263.710938" y="19.722656" xlink:href="#z"/>
</g>
<g>
<use x="272.65625" y="19.722656" xlink:href="#j"/>
</g>
<g>
<use x="279.65625" y="19.722656" xlink:href="#g"/>
</g>
<g>
<use x="286.65625" y="19.722656" xlink:href="#k"/>
</g>
<g>
<use x="294.433594" y="19.722656" xlink:href="#r"/>
</g>
<g>
<use x="298.324219" y="19.722656" xlink:href="#f"/>
</g>
<g>
<use x="303.804688" y="19.722656" xlink:href="#a"/>
</g>
<g>
<use x="314.695312" y="19.722656" xlink:href="#c"/>
</g>
<g>
<use x="320.140625" y="19.722656" xlink:href="#b"/>
</g>
<g>
<use x="327.140625" y="19.722656" xlink:href="#d"/>
</g>
<g>
<use x="331.027344" y="19.722656" xlink:href="#an"/>
</g>
<g>
<use x="338.417969" y="19.722656" xlink:href="#i"/>
</g>
<g>
<use x="342.304688" y="19.722656" xlink:href="#e"/>
</g>
<g>
<use x="350.085938" y="19.722656" xlink:href="#y"/>
</g>
<g>
<use x="361.75" y="19.722656" xlink:href="#b"/>
</g>
<g>
<use x="368.75" y="19.722656" xlink:href="#q"/>
</g>
<g>
<use x="376.917969" y="19.722656" xlink:href="#g"/>
</g>
<g>
<use x="383.917969" y="19.722656" xlink:href="#k"/>
</g>
<g>
<use x="391.695312" y="19.722656" xlink:href="#c"/>
</g>
<g>
<use x="401.808594" y="19.722656" xlink:href="#o"/>
</g>
<g>
<use x="411.917969" y="19.722656" xlink:href="#m"/>
</g>
<g>
<use x="419.695312" y="19.722656" xlink:href="#b"/>
</g>
<g>
<use x="426.695312" y="19.722656" xlink:href="#c"/>
</g>
<g>
<use x="436.808594" y="19.722656" xlink:href="#j"/>
</g>
<g>
<use x="443.808594" y="19.722656" xlink:href="#g"/>
</g>
<g>
<use x="450.808594" y="19.722656" xlink:href="#k"/>
</g>
<g>
<use x="463.25" y="19.722656" xlink:href="#l"/>
</g>
<g>
<use x="469.472656" y="19.722656" xlink:href="#b"/>
</g>
<g>
<use x="476.472656" y="19.722656" xlink:href="#e"/>
</g>
<g>
<use x="10" y="36.832031" xlink:href="#z"/>
</g>
<g>
<use x="14.277344" y="36.832031" xlink:href="#a"/>
</g>
<g>
<use x="20.5" y="36.832031" xlink:href="#a"/>
</g>
<g>
<use x="26.722656" y="36.832031" xlink:href="#d"/>
</g>
<g>
<use x="30.609375" y="36.832031" xlink:href="#p"/>
</g>
<g>
<use x="41.5" y="36.832031" xlink:href="#o"/>
</g>
<g>
<use x="51.609375" y="36.832031" xlink:href="#m"/>
</g>
<g>
<use x="59.390625" y="36.832031" xlink:href="#b"/>
</g>
<g>
<use x="66.390625" y="36.832031" xlink:href="#c"/>
</g>
<g>
<use x="76.5" y="36.832031" xlink:href="#j"/>
</g>
<g>
<use x="83.5" y="36.832031" xlink:href="#g"/>
</g>
<g>
<use x="90.5" y="36.832031" xlink:href="#k"/>
</g>
<g>
<use x="102.945312" y="36.832031" xlink:href="#l"/>
</g>
<g>
<use x="109.167969" y="36.832031" xlink:href="#b"/>
</g>
<g>
<use x="116.167969" y="36.832031" xlink:href="#e"/>
</g>
<g>
<use x="128.613281" y="36.832031" xlink:href="#h"/>
</g>
<g>
<use x="134.132812" y="36.832031" xlink:href="#x"/>
</g>
<g>
<use x="145.800781" y="36.832031" xlink:href="#a"/>
</g>
<g>
<use x="152.023438" y="36.832031" xlink:href="#d"/>
</g>
<g>
<use x="155.910156" y="36.832031" xlink:href="#d"/>
</g>
<g>
<use x="159.800781" y="36.832031" xlink:href="#p"/>
</g>
<g>
<use x="170.6875" y="36.832031" xlink:href="#o"/>
</g>
<g>
<use x="180.800781" y="36.832031" xlink:href="#m"/>
</g>
<g>
<use x="188.578125" y="36.832031" xlink:href="#b"/>
</g>
<g>
<use x="195.578125" y="36.832031" xlink:href="#c"/>
</g>
<g>
<use x="205.691406" y="36.832031" xlink:href="#j"/>
</g>
<g>
<use x="212.691406" y="36.832031" xlink:href="#g"/>
</g>
<g>
<use x="219.691406" y="36.832031" xlink:href="#k"/>
</g>
<g>
<use x="232.132812" y="36.832031" xlink:href="#l"/>
</g>
<g>
<use x="238.355469" y="36.832031" xlink:href="#b"/>
</g>
<g>
<use x="245.355469" y="36.832031" xlink:href="#e"/>
</g>
<g>
<use x="257.800781" y="36.832031" xlink:href="#c"/>
</g>
<g>
<use x="263.246094" y="36.832031" xlink:href="#b"/>
</g>
<g>
<use x="270.246094" y="36.832031" xlink:href="#h"/>
</g>
<g>
<use x="275.765625" y="36.832031" xlink:href="#c"/>
</g>
<g>
<use x="281.210938" y="36.832031" xlink:href="#a"/>
</g>
<g>
<use x="292.101562" y="36.832031" xlink:href="#b"/>
</g>
<g>
<use x="299.101562" y="36.832031" xlink:href="#e"/>
</g>
<g>
<use x="306.878906" y="36.832031" xlink:href="#n"/>
</g>
<g>
<use x="319.324219" y="36.832031" xlink:href="#h"/>
</g>
<g>
<use x="324.84375" y="36.832031" xlink:href="#a"/>
</g>
<g>
<use x="331.066406" y="36.832031" xlink:href="#a"/>
</g>
<g>
<use x="337.289062" y="36.832031" xlink:href="#p"/>
</g>
<g>
<use x="348.179688" y="36.832031" xlink:href="#c"/>
</g>
<g>
<use x="353.625" y="36.832031" xlink:href="#m"/>
</g>
<g>
<use x="361.402344" y="36.832031" xlink:href="#a"/>
</g>
<g>
<use x="367.625" y="36.832031" xlink:href="#e"/>
</g>
<g>
<use x="380.066406" y="36.832031" xlink:href="#aa"/>
</g>
<g>
<use x="383.957031" y="36.832031" xlink:href="#f"/>
</g>
<g>
<use x="389.441406" y="36.832031" xlink:href="#a"/>
</g>
<g>
<use x="395.664062" y="36.832031" xlink:href="#b"/>
</g>
<g>
<use x="402.664062" y="36.832031" xlink:href="#d"/>
</g>
<g>
<use x="406.550781" y="36.832031" xlink:href="#r"/>
</g>
<g>
<use x="415.105469" y="36.832031" xlink:href="#i"/>
</g>
<g>
<use x="418.996094" y="36.832031" xlink:href="#h"/>
</g>
<g>
<use x="429.183594" y="36.832031" xlink:href="#h"/>
</g>
<g>
<use x="434.707031" y="36.832031" xlink:href="#i"/>
</g>
<g>
<use x="438.597656" y="36.832031" xlink:href="#x"/>
</g>
<g>
<use x="450.261719" y="36.832031" xlink:href="#w"/>
</g>
<g>
<use x="458.039062" y="36.832031" xlink:href="#d"/>
</g>
<g>
<use x="461.929687" y="36.832031" xlink:href="#j"/>
</g>
<g>
<use x="473.984375" y="36.832031" xlink:href="#a"/>
</g>
<g>
<use x="480.207031" y="36.832031" xlink:href="#d"/>
</g>
<g>
<use x="10" y="56.820312" xlink:href="#a"/>
</g>
<g>
<use x="16.222656" y="56.820312" xlink:href="#l"/>
</g>
<g>
<use x="22.445312" y="56.820312" xlink:href="#c"/>
</g>
<g>
<use x="27.890625" y="56.820312" xlink:href="#f"/>
</g>
<g>
<use x="33.371094" y="56.820312" xlink:href="#i"/>
</g>
<g>
<use x="37.261719" y="56.820312" xlink:href="#l"/>
</g>
<g>
<use x="43.484375" y="56.820312" xlink:href="#b"/>
</g>
<g>
<use x="50.484375" y="56.820312" xlink:href="#d"/>
</g>
<g>
<use x="59.039062" y="56.820312" xlink:href="#h"/>
</g>
<g>
<use x="64.5625" y="56.820312" xlink:href="#i"/>
</g>
<g>
<use x="68.449219" y="56.820312" xlink:href="#y"/>
</g>
<g>
<use x="75.449219" y="56.820312" xlink:href="#e"/>
</g>
<g>
<use x="83.226562" y="56.820312" xlink:href="#b"/>
</g>
<g>
<use x="90.226562" y="56.820312" xlink:href="#d"/>
</g>
<g>
<use x="94.117188" y="56.820312" xlink:href="#h"/>
</g>
<g>
<use x="104.304688" y="56.820312" xlink:href="#i"/>
</g>
<g>
<use x="108.195312" y="56.820312" xlink:href="#e"/>
</g>
<g>
<use x="115.582031" y="56.820312" xlink:href="#c"/>
</g>
<g>
<use x="121.027344" y="56.820312" xlink:href="#a"/>
</g>
<g>
<use x="127.25" y="56.820312" xlink:href="#f"/>
</g>
<g>
<use x="132.734375" y="56.820312" xlink:href="#w"/>
</g>
<g>
<use x="140.511719" y="56.820312" xlink:href="#f"/>
</g>
<g>
<use x="145.996094" y="56.820312" xlink:href="#a"/>
</g>
<g>
<use x="152.21875" y="56.820312" xlink:href="#c"/>
</g>
<g>
<use x="157.660156" y="56.820312" xlink:href="#a"/>
</g>
<g>
<use x="163.882812" y="56.820312" xlink:href="#n"/>
</g>
<g>
<use x="176.328125" y="56.820312" xlink:href="#q"/>
</g>
<g>
<use x="183.71875" y="56.820312" xlink:href="#j"/>
</g>
<g>
<use x="195.773438" y="56.820312" xlink:href="#j"/>
</g>
<g>
<use x="202.773438" y="56.820312" xlink:href="#g"/>
</g>
<g>
<use x="209.773438" y="56.820312" xlink:href="#k"/>
</g>
<g>
<use x="217.550781" y="56.820312" xlink:href="#f"/>
</g>
<g>
<use x="227.699219" y="56.820312" xlink:href="#q"/>
</g>
<g>
<use x="235.476562" y="56.820312" xlink:href="#f"/>
</g>
<g>
<use x="240.960938" y="56.820312" xlink:href="#b"/>
</g>
<g>
<use x="247.960938" y="56.820312" xlink:href="#i"/>
</g>
<g>
<use x="251.851562" y="56.820312" xlink:href="#e"/>
</g>
<g>
<use x="259.628906" y="56.820312" xlink:href="#am"/>
</g>
<g>
<use x="270.517513" y="56.822255" xlink:href="#al"/>
</g>
<g>
<use x="289.746094" y="56.820312" xlink:href="#v"/>
</g>
<g>
<use x="305.027344" y="56.820312" xlink:href="#ag"/>
</g>
<g>
<use x="313.078125" y="56.820312" xlink:href="#u"/>
</g>
<g>
<use x="319.707031" y="56.820312" xlink:href="#af"/>
</g>
<g>
<use x="328.652344" y="56.820312" xlink:href="#t"/>
</g>
<g>
<use x="337.597656" y="56.820312" xlink:href="#s"/>
</g>
<g>
<use x="344.976562" y="56.820312" xlink:href="#ae"/>
</g>
<g>
<use x="353.921875" y="56.820312" xlink:href="#ad"/>
</g>
<g>
<use x="364.9375" y="56.820312" xlink:href="#ac"/>
</g>
<g>
<use x="376.136719" y="56.820312" xlink:href="#t"/>
</g>
<g>
<use x="385.082031" y="56.820312" xlink:href="#s"/>
</g>
<g>
<use x="397.128906" y="56.820312" xlink:href="#v"/>
</g>
<g>
<use x="412.410156" y="56.820312" xlink:href="#ak"/>
</g>
<g>
<use x="420.238281" y="56.820312" xlink:href="#aj"/>
</g>
<g>
<use x="426.5" y="56.820312" xlink:href="#u"/>
</g>
<g>
<use x="433.128906" y="56.820312" xlink:href="#ai"/>
</g>
<g>
<use x="437.601562" y="56.820312" xlink:href="#ah"/>
</g>
</g>
</svg>
