<?xml version="1.0" encoding="UTF-8"?>
<svg width="61pt" height="22pt" version="1.1" viewBox="0 0 61 22" xmlns="http://www.w3.org/2000/svg" xmlns:xlink="http://www.w3.org/1999/xlink">
<defs>
<symbol id="c" overflow="visible">
<path d="m1.625-17h17.688v2.8438h-7.7656v14.156h-2.8438v-14.156h-7.0781z"/>
</symbol>
<symbol id="b" overflow="visible">
<path d="m1.4219-11.344c0-3.7695 2.832-5.6562 8.5-5.6562h8.5v2.8438h-8.5c-3.7734 0-5.6562 0.9375-5.6562 2.8125v1.0469c1.375-0.69531 3.2578-1.0469 5.6562-1.0469h5.6562v2.8438h-5.6562c-3.6797 0-5.5625 0.90234-5.6562 2.7031v0.14062c0 1.875 1.8828 2.8125 5.6562 2.8125h8.5v2.8438h-8.5c-5.668 0-8.5-1.8828-8.5-5.6562z"/>
</symbol>
<symbol id="a" overflow="visible">
<path d="m1.9688-1.4219c0-3.3438 0.99219-5.7031 2.9844-7.0781-1.9922-1.3516-2.9844-3.7109-2.9844-7.0781v-1.4219h2.8438v1.4219c0 3.7734 1.8828 5.6562 5.6562 5.6562 3.7695 0 5.6562-1.8828 5.6562-5.6562v-1.4219h2.8438v1.4219c0 3.3672-0.99609 5.7266-2.9844 7.0781 1.9883 1.375 2.9844 3.7344 2.9844 7.0781v1.4219h-2.8438v-1.4219c0-3.7695-1.8867-5.6562-5.6562-5.6562-3.7734 0-5.6562 1.8867-5.6562 5.6562v1.4219h-2.8438z"/>
</symbol>
</defs>
<g>
<use y="20.160156" xlink:href="#c"/>
<use x="20.304688" y="20.160156" xlink:href="#b"/>
<use x="40.609375" y="20.160156" xlink:href="#a"/>
</g>
</svg>
